<svg xmlns:xlink="http://www.w3.org/1999/xlink" xmlns="http://www.w3.org/2000/svg" width="85.5" height="85.5" viewBox="2.9 2.9 34.2 34.2" fill="none">&#xa;<path d="M4 8C4 5.79086 5.79086 4 8 4H32C34.2091 4 36 5.79086 36 8V32C36 34.2091 34.2091 36 32 36H8C5.79086 36 4 34.2091 4 32V8Z" fill="url(#aqpaint0_linear_6265_107812)"/>&#xa;<path d="M4 8C4 5.79086 5.79086 4 8 4H32C34.2091 4 36 5.79086 36 8V32C36 34.2091 34.2091 36 32 36H8C5.79086 36 4 34.2091 4 32V8Z" fill="url(#aqpaint1_radial_6265_107812)" fill-opacity="0.2"/>&#xa;<path fill-rule="evenodd" clip-rule="evenodd" d="M32 5H8C6.34315 5 5 6.34315 5 8V32C5 33.6569 6.34315 35 8 35H32C33.6569 35 35 33.6569 35 32V8C35 6.34315 33.6569 5 32 5ZM8 4C5.79086 4 4 5.79086 4 8V32C4 34.2091 5.79086 36 8 36H32C34.2091 36 36 34.2091 36 32V8C36 5.79086 34.2091 4 32 4H8Z" fill="url(#aqpaint2_linear_6265_107812)"/>&#xa;<path d="M9 22.4444H13.7143L16.0714 13L20.7857 30L24.7143 16.7778L27.0714 22.4444H31" stroke="url(#aqpaint3_linear_6265_107812)" stroke-width="2.2" stroke-linecap="round" stroke-linejoin="round"/>&#xa;<path d="M27.4469 9.23093L27.7565 10.107C27.8527 10.3734 28.0152 10.6154 28.231 10.8139C28.4468 11.0124 28.7099 11.1618 28.9995 11.2504L29.9521 11.5351L29.9711 11.5395C30.0446 11.5633 30.1081 11.6075 30.1531 11.6659C30.1981 11.7244 30.2222 11.7942 30.2222 11.8658C30.2222 11.9374 30.1981 12.0073 30.1531 12.0657C30.1081 12.1242 30.0446 12.1684 29.9711 12.1922L29.0186 12.4769C28.729 12.5655 28.4658 12.7149 28.2501 12.9134C28.0343 13.1118 27.8718 13.3539 27.7755 13.6202L27.4659 14.4963C27.44 14.5639 27.392 14.6223 27.3284 14.6637C27.2649 14.7051 27.189 14.7273 27.1111 14.7273C27.0333 14.7273 26.9573 14.7051 26.8938 14.6637C26.8875 14.6596 26.8814 14.6554 26.8754 14.651C26.821 14.6107 26.7796 14.5572 26.7563 14.4963L26.4467 13.6202C26.4301 13.5737 26.4114 13.528 26.3908 13.4831C26.293 13.2699 26.1513 13.0755 25.973 12.9109C25.9391 12.8796 25.9041 12.8495 25.8679 12.8207C25.6738 12.666 25.4482 12.5475 25.2036 12.4725L24.2511 12.1878C24.1777 12.164 24.1141 12.1198 24.0691 12.0613C24.0241 12.0029 24 11.9331 24 11.8614C24 11.7898 24.0241 11.72 24.0691 11.6615C24.1141 11.6031 24.1777 11.5589 24.2511 11.5351L25.2036 11.2504C25.4897 11.1595 25.749 11.009 25.9614 10.8107C26.1737 10.6124 26.3333 10.3715 26.4277 10.107L26.7372 9.23093C26.7631 9.16341 26.8112 9.10493 26.8747 9.06357C26.9383 9.02221 27.0142 9 27.0921 9C27.1699 9 27.2458 9.02221 27.3094 9.06357C27.3729 9.10493 27.421 9.16341 27.4469 9.23093Z" fill="#D23287"/>&#xa;<path d="M31.807 15.7199L31.1267 15.5165C30.9198 15.4532 30.7318 15.3465 30.5777 15.2047C30.4236 15.063 30.3075 14.8901 30.2387 14.6998L30.0176 14.074C29.9991 14.0258 29.9648 13.984 29.9194 13.9545C29.874 13.925 29.8198 13.9091 29.7642 13.9091C29.7086 13.9091 29.6543 13.925 29.6089 13.9545C29.5635 13.984 29.5292 14.0258 29.5107 14.074L29.2896 14.6998C29.2222 14.8888 29.1082 15.0608 28.9565 15.2024C28.8049 15.3441 28.6196 15.4516 28.4153 15.5165L27.7349 15.7199C27.6825 15.7369 27.637 15.7684 27.6049 15.8102C27.5728 15.8519 27.5556 15.9018 27.5556 15.953C27.5556 16.0041 27.5728 16.054 27.6049 16.0958C27.637 16.1375 27.6825 16.1691 27.7349 16.1861L28.4153 16.3895C28.6225 16.453 28.8107 16.5603 28.9649 16.7026C29.119 16.8449 29.2349 17.0184 29.3032 17.2093L29.5243 17.835C29.5428 17.8833 29.5771 17.925 29.6225 17.9546C29.6679 17.9841 29.7222 18 29.7778 18C29.8334 18 29.8876 17.9841 29.933 17.9546C29.9784 17.925 30.0127 17.8833 30.0312 17.835L30.2524 17.2093C30.3211 17.019 30.4372 16.8461 30.5913 16.7044C30.7454 16.5626 30.9334 16.4558 31.1403 16.3926L31.8207 16.1892C31.8731 16.1722 31.9185 16.1406 31.9506 16.0989C31.9828 16.0571 32 16.0073 32 15.9561C32 15.905 31.9828 15.8551 31.9506 15.8133C31.9185 15.7716 31.8731 15.74 31.8207 15.723L31.807 15.7199Z" fill="#D23287"/>&#xa;<defs>&#xa;<linearGradient id="aqpaint0_linear_6265_107812" x1="12.8889" y1="4" x2="16.9368" y2="36.3829" gradientUnits="userSpaceOnUse">&#xa;<stop stop-color="white"/>&#xa;<stop offset="1" stop-color="#EBEBEB"/>&#xa;</linearGradient>&#xa;<radialGradient id="aqpaint1_radial_6265_107812" cx="0" cy="0" r="1" gradientUnits="userSpaceOnUse" gradientTransform="translate(14.2222 12.3333) rotate(56.3099) scale(30.4469 26.3483)">&#xa;<stop offset="0.177083" stop-color="white"/>&#xa;<stop offset="1" stop-color="#B8B8B8"/>&#xa;</radialGradient>&#xa;<linearGradient id="aqpaint2_linear_6265_107812" x1="14.3333" y1="4" x2="18.6419" y2="36.3144" gradientUnits="userSpaceOnUse">&#xa;<stop stop-color="#BBBBBB"/>&#xa;<stop offset="1" stop-color="#888888"/>&#xa;</linearGradient>&#xa;<linearGradient id="aqpaint3_linear_6265_107812" x1="9" y1="13" x2="25.4502" y2="34.2885" gradientUnits="userSpaceOnUse">&#xa;<stop stop-color="#E03F8F"/>&#xa;<stop offset="1" stop-color="#BD1E7B"/>&#xa;</linearGradient>&#xa;</defs>&#xa;</svg>