<svg xmlns="http://www.w3.org/2000/svg" width="76.02581876609443" height="78.28590481780296" fill="none" viewBox="4 4 33.999778747558594 35.009456634521484">&#xa;  <path fill="url(#ffa)" d="M4 8a4 4 0 0 1 4-4h24a4 4 0 0 1 4 4v24a4 4 0 0 1-4 4H8a4 4 0 0 1-4-4V8Z"/>&#xa;  <path fill="url(#ffb)" fill-opacity=".2" d="M4 8a4 4 0 0 1 4-4h24a4 4 0 0 1 4 4v24a4 4 0 0 1-4 4H8a4 4 0 0 1-4-4V8Z"/>&#xa;  <path fill="url(#ffc)" fill-rule="evenodd" d="M32 5H8a3 3 0 0 0-3 3v24a3 3 0 0 0 3 3h24a3 3 0 0 0 3-3V8a3 3 0 0 0-3-3ZM8 4a4 4 0 0 0-4 4v24a4 4 0 0 0 4 4h24a4 4 0 0 0 4-4V8a4 4 0 0 0-4-4H8Z" clip-rule="evenodd"/>&#xa;  <path fill="url(#ffd)" fill-rule="evenodd" d="M11 17.968a1 1 0 0 0 1.394.92l1.606-.69v4.032l-2.394 1.026a1 1 0 0 0-.606.919v3.824a1 1 0 0 0 1.394.92l5-2.144a1 1 0 0 0 .606-.919v-1.55a5.279 5.279 0 0 1 1.16-.377c.793-.16 1.809-.168 2.84.364v1.563a1 1 0 0 0 .606.92l5 2.142a1 1 0 0 0 1.394-.92v-3.823a1 1 0 0 0-.606-.92L26 22.23v-4.031l1.606.688A1 1 0 0 0 29 17.968v-3.824a1 1 0 0 0-.606-.92l-5-2.142a1 1 0 0 0-1.394.92v1.193c-1.123-.448-2.201-.415-3.035-.248a6.29 6.29 0 0 0-.965.275v-1.22a1 1 0 0 0-1.394-.92l-5 2.143a1 1 0 0 0-.606.919v3.824Zm11 5.227v-1.163a1 1 0 0 1 1.394-.92l1.606.69V17.77l-2.394-1.026a1 1 0 0 1-.606-.919v-1.532c-1.031-.532-2.047-.524-2.84-.365a5.28 5.28 0 0 0-1.16.377v1.52a1 1 0 0 1-.606.92L15 17.77v4.031l1.606-.688a1 1 0 0 1 1.394.919v1.19c.265-.099.592-.2.965-.275.834-.167 1.912-.2 3.035.248Zm6-5.227-5-2.143v-3.824l5 2.143v3.824Zm0 6.207v3.824l-5-2.143v-3.824l5 2.143Z" clip-rule="evenodd"/>&#xa;  <path fill="#F5F5F5" fill-rule="evenodd" d="M31.317 26h4.828a1.5 1.5 0 0 1 1.307 2.235l-.999 1.777c1.369.153 2.054 1.813 1.11 2.891l-4.824 5.508c-1.196 1.365-3.42.203-2.98-1.558L30.22 35h-1.723a1.5 1.5 0 0 1-1.357-2.138l2.82-6A1.5 1.5 0 0 1 31.317 26Z" clip-rule="evenodd"/>&#xa;  <path fill="url(#ffe)" d="M36.145 27h-4.828a.5.5 0 0 0-.452.287l-2.82 6a.5.5 0 0 0 .452.713H31.5l-.771 3.094c-.185.743.753 1.234 1.257.658l4.824-5.508A.75.75 0 0 0 36.246 31H34.75l1.83-3.255a.5.5 0 0 0-.435-.745Z"/>&#xa;  <defs>&#xa;    <linearGradient id="ffa" x1="12.889" x2="16.937" y1="4" y2="36.383" gradientUnits="userSpaceOnUse">&#xa;      <stop stop-color="#fff"/>&#xa;      <stop offset="1" stop-color="#EBEBEB"/>&#xa;    </linearGradient>&#xa;    <linearGradient id="ffc" x1="14.333" x2="18.642" y1="4" y2="36.314" gradientUnits="userSpaceOnUse">&#xa;      <stop stop-color="#BBB"/>&#xa;      <stop offset="1" stop-color="#888"/>&#xa;    </linearGradient>&#xa;    <linearGradient id="ffd" x1="11" x2="29" y1="11" y2="29" gradientUnits="userSpaceOnUse">&#xa;      <stop stop-color="#E03F8F"/>&#xa;      <stop offset="1" stop-color="#BD1E7B"/>&#xa;    </linearGradient>&#xa;    <linearGradient id="ffe" x1="27.997" x2="38.783" y1="27" y2="35.822" gradientUnits="userSpaceOnUse">&#xa;      <stop stop-color="#E03F8F"/>&#xa;      <stop offset="1" stop-color="#BD1E7B"/>&#xa;    </linearGradient>&#xa;    <radialGradient id="ffb" cx="0" cy="0" r="1" gradientTransform="rotate(56.31 -4.411 19.454) scale(30.4469 26.3483)" gradientUnits="userSpaceOnUse">&#xa;      <stop offset=".177" stop-color="#fff"/>&#xa;      <stop offset="1" stop-color="#B8B8B8"/>&#xa;    </radialGradient>&#xa;  </defs>&#xa;</svg>