<svg xmlns="http://www.w3.org/2000/svg" width="66.0316129032258" height="74.9207947701561" viewBox="5 2 26 29.500999450683594" fill="none">&#xa;<path d="M23.5 4C25.433 4 27 5.567 27 7.5V25C27 25.8222 26.7998 26.5971 26.4482 27.2812H25.1875V28.8516C24.3221 29.5685 23.2116 30 22 30H10.5C8.567 30 7 28.433 7 26.5V7.5C7 5.567 8.567 4 10.5 4H23.5Z" fill="url(#hupaint0_linear_62588_13732)"/>&#xa;<path d="M26 7.5C26 6.11929 24.8807 5 23.5 5H10.5C9.11929 5 8 6.11929 8 7.5V26.5C8 27.8807 9.11929 29 10.5 29H21.75C24.0972 29 26 27.0972 26 24.75V7.5Z" fill="url(#hupaint1_linear_62588_13732)"/>&#xa;<path d="M26 7.5C26 6.11929 24.8807 5 23.5 5H10.5C9.11929 5 8 6.11929 8 7.5V26.5C8 27.8807 9.11929 29 10.5 29H21.75C24.0972 29 26 27.0972 26 24.75V7.5Z" fill="url(#hupaint2_radial_62588_13732)" fill-opacity="0.2"/>&#xa;<rect width="20" height="26" rx="3.5" transform="matrix(-1 0 0 1 25 2)" fill="url(#hupaint3_linear_62588_13732)"/>&#xa;<rect width="18" height="24" rx="2.5" transform="matrix(-1 0 0 1 24 3)" fill="url(#hupaint4_linear_62588_13732)"/>&#xa;<rect width="18" height="24" rx="2.5" transform="matrix(-1 0 0 1 24 3)" fill="url(#hupaint5_radial_62588_13732)" fill-opacity="0.2"/>&#xa;<mask id="hupath-5-outside-1_62588_13732" maskUnits="userSpaceOnUse" x="19" y="19.501" width="12" height="12" fill="black">&#xa;<rect fill="white" x="19" y="19.501" width="12" height="12"/>&#xa;<path d="M20 25.502C20 24.8744 20.5091 24.3652 21.1367 24.3652C21.5485 24.3654 21.9082 24.5851 22.1074 24.9131L23.8965 24.9131C23.988 24.7418 24.1191 24.5954 24.2764 24.4834L23.9316 22.7627C23.3795 22.6852 22.9541 22.2112 22.9541 21.6377C22.9542 21.0102 23.4633 20.501 24.0908 20.501C24.7184 20.501 25.2275 21.0102 25.2275 21.6377C25.2275 21.9545 25.0978 22.2412 24.8887 22.4473L25.2549 24.2773C25.4043 24.3083 25.5433 24.3672 25.668 24.4463L27.7822 22.8975C27.7465 22.7871 27.7275 22.6692 27.7275 22.5469C27.7276 21.9194 28.2359 21.4104 28.8633 21.4102C29.4909 21.4102 30 21.9193 30 22.5469C30 23.1745 29.4909 23.6836 28.8633 23.6836C28.7318 23.6836 28.6057 23.6603 28.4883 23.6191L26.2275 25.2754C26.2409 25.3487 26.25 25.4238 26.25 25.501C26.25 25.6023 26.2356 25.7006 26.2129 25.7949L28.2832 27.0264C28.4532 26.925 28.651 26.8653 28.8633 26.8652C29.4907 26.8652 29.9997 27.3736 30 28.001C30 28.6286 29.4909 29.1377 28.8633 29.1377C28.2359 29.1375 27.7275 28.6284 27.7275 28.001C27.7276 27.9547 27.7309 27.9091 27.7363 27.8643L25.6045 26.5957C25.4552 26.6783 25.2871 26.7307 25.1084 26.7461L24.6299 28.5273C24.8567 28.735 24.9999 29.0325 25 29.3643C25 29.9919 24.4909 30.501 23.8633 30.501C23.2359 30.5008 22.7275 29.9917 22.7275 29.3643C22.7277 28.803 23.1349 28.3381 23.6699 28.2461L24.1592 26.4258C24.0069 26.2872 23.8896 26.1116 23.8203 25.9131L22.1943 25.9131C22.0294 26.337 21.6189 26.6375 21.1367 26.6377C20.5092 26.6377 20.0001 26.1295 20 25.502Z"/>&#xa;</mask>&#xa;<path d="M20 25.502C20 24.8744 20.5091 24.3652 21.1367 24.3652C21.5485 24.3654 21.9082 24.5851 22.1074 24.9131L23.8965 24.9131C23.988 24.7418 24.1191 24.5954 24.2764 24.4834L23.9316 22.7627C23.3795 22.6852 22.9541 22.2112 22.9541 21.6377C22.9542 21.0102 23.4633 20.501 24.0908 20.501C24.7184 20.501 25.2275 21.0102 25.2275 21.6377C25.2275 21.9545 25.0978 22.2412 24.8887 22.4473L25.2549 24.2773C25.4043 24.3083 25.5433 24.3672 25.668 24.4463L27.7822 22.8975C27.7465 22.7871 27.7275 22.6692 27.7275 22.5469C27.7276 21.9194 28.2359 21.4104 28.8633 21.4102C29.4909 21.4102 30 21.9193 30 22.5469C30 23.1745 29.4909 23.6836 28.8633 23.6836C28.7318 23.6836 28.6057 23.6603 28.4883 23.6191L26.2275 25.2754C26.2409 25.3487 26.25 25.4238 26.25 25.501C26.25 25.6023 26.2356 25.7006 26.2129 25.7949L28.2832 27.0264C28.4532 26.925 28.651 26.8653 28.8633 26.8652C29.4907 26.8652 29.9997 27.3736 30 28.001C30 28.6286 29.4909 29.1377 28.8633 29.1377C28.2359 29.1375 27.7275 28.6284 27.7275 28.001C27.7276 27.9547 27.7309 27.9091 27.7363 27.8643L25.6045 26.5957C25.4552 26.6783 25.2871 26.7307 25.1084 26.7461L24.6299 28.5273C24.8567 28.735 24.9999 29.0325 25 29.3643C25 29.9919 24.4909 30.501 23.8633 30.501C23.2359 30.5008 22.7275 29.9917 22.7275 29.3643C22.7277 28.803 23.1349 28.3381 23.6699 28.2461L24.1592 26.4258C24.0069 26.2872 23.8896 26.1116 23.8203 25.9131L22.1943 25.9131C22.0294 26.337 21.6189 26.6375 21.1367 26.6377C20.5092 26.6377 20.0001 26.1295 20 25.502Z" fill="url(#hupaint6_linear_62588_13732)"/>&#xa;<path d="M20 25.502L19 25.502L19 25.5021L20 25.502ZM21.1367 24.3652L21.137 23.3652L21.1367 23.3652V24.3652ZM22.1074 24.9131L21.2528 25.4323L21.5449 25.9131L22.1074 25.9131V24.9131ZM23.8965 24.9131V25.9131L24.496 25.9131L24.7785 25.3843L23.8965 24.9131ZM24.2764 24.4834L24.8565 25.298L25.3841 24.9222L25.2569 24.287L24.2764 24.4834ZM23.9316 22.7627L24.9122 22.5663L24.7729 21.871L24.0706 21.7724L23.9316 22.7627ZM22.9541 21.6377L21.9541 21.6376L21.9541 21.6377L22.9541 21.6377ZM24.0908 20.501L24.0908 19.501L24.0907 19.501L24.0908 20.501ZM25.2275 21.6377L26.2275 21.6377L26.2275 21.6376L25.2275 21.6377ZM24.8887 22.4473L24.1867 21.7351L23.8022 22.1141L23.9081 22.6435L24.8887 22.4473ZM25.2549 24.2773L24.2743 24.4736L24.4041 25.1223L25.052 25.2566L25.2549 24.2773ZM25.668 24.4463L25.1322 25.2907L25.7084 25.6563L26.2589 25.253L25.668 24.4463ZM27.7822 22.8975L28.3732 23.7042L28.9563 23.277L28.7336 22.5893L27.7822 22.8975ZM27.7275 22.5469L26.7275 22.5468L26.7275 22.5469L27.7275 22.5469ZM28.8633 21.4102L28.8633 20.4102L28.863 20.4102L28.8633 21.4102ZM30 22.5469L31 22.5469L31 22.5468L30 22.5469ZM28.8633 23.6836L28.863 24.6836L28.8633 24.6836V23.6836ZM28.4883 23.6191L28.8187 22.6753L28.3219 22.5014L27.8973 22.8125L28.4883 23.6191ZM26.2275 25.2754L25.6366 24.4687L25.1311 24.839L25.2439 25.4553L26.2275 25.2754ZM26.25 25.501L27.25 25.501L27.25 25.5007L26.25 25.501ZM26.2129 25.7949L25.2408 25.5605L25.0679 26.2774L25.7017 26.6544L26.2129 25.7949ZM28.2832 27.0264L27.772 27.8858L28.284 28.1903L28.7955 27.8852L28.2832 27.0264ZM28.8633 26.8652L28.8633 25.8652L28.863 25.8652L28.8633 26.8652ZM30 28.001L31 28.001L31 28.0006L30 28.001ZM28.8633 29.1377L28.863 30.1377L28.8633 30.1377V29.1377ZM27.7275 28.001L26.7275 28.0006L26.7275 28.001L27.7275 28.001ZM27.7363 27.8643L28.7292 27.9838L28.807 27.3377L28.2477 27.0049L27.7363 27.8643ZM25.6045 26.5957L26.1159 25.7363L25.6225 25.4428L25.1202 25.7208L25.6045 26.5957ZM25.1084 26.7461L25.0228 25.7498L24.3245 25.8098L24.1426 26.4867L25.1084 26.7461ZM24.6299 28.5273L23.6641 28.2679L23.5065 28.8546L23.9546 29.2649L24.6299 28.5273ZM25 29.3643L26 29.3643L26 29.364L25 29.3643ZM23.8633 30.501L23.8629 31.501L23.8633 31.501V30.501ZM22.7275 29.3643L21.7275 29.364L21.7275 29.3643L22.7275 29.3643ZM23.6699 28.2461L23.8394 29.2316L24.4697 29.1232L24.6356 28.5057L23.6699 28.2461ZM24.1592 26.4258L25.1249 26.6853L25.2832 26.0966L24.8323 25.6862L24.1592 26.4258ZM23.8203 25.9131L24.7645 25.5836L24.5305 24.9131L23.8203 24.9131V25.9131ZM22.1943 25.9131V24.9131L21.5104 24.9131L21.2624 25.5505L22.1943 25.9131ZM21.1367 26.6377L21.1367 27.6377L21.137 27.6377L21.1367 26.6377ZM20 25.502L21 25.502C21 25.4266 21.0614 25.3652 21.1367 25.3652V24.3652V23.3652C19.9568 23.3652 19 24.3221 19 25.502L20 25.502ZM21.1367 24.3652L21.1364 25.3652C21.1827 25.3652 21.2262 25.3886 21.2528 25.4323L22.1074 24.9131L22.9621 24.3939C22.5901 23.7817 21.9142 23.3655 21.137 23.3652L21.1367 24.3652ZM22.1074 24.9131V25.9131L23.8965 25.9131V24.9131V23.9131L22.1074 23.9131V24.9131ZM23.8965 24.9131L24.7785 25.3843C24.7945 25.3544 24.8202 25.3238 24.8565 25.298L24.2764 24.4834L23.6963 23.6688C23.4181 23.867 23.1815 24.1292 23.0144 24.4419L23.8965 24.9131ZM24.2764 24.4834L25.2569 24.287L24.9122 22.5663L23.9316 22.7627L22.9511 22.9591L23.2959 24.6798L24.2764 24.4834ZM23.9316 22.7627L24.0706 21.7724C24.0043 21.7631 23.9541 21.7047 23.9541 21.6377L22.9541 21.6377L21.9541 21.6377C21.9541 22.7177 22.7547 23.6073 23.7927 23.753L23.9316 22.7627ZM22.9541 21.6377L23.9541 21.6378C23.9541 21.5625 24.0156 21.501 24.0909 21.501L24.0908 20.501L24.0907 19.501C22.911 19.5011 21.9542 20.4579 21.9541 21.6376L22.9541 21.6377ZM24.0908 20.501V21.501C24.166 21.501 24.2275 21.5624 24.2275 21.6378L25.2275 21.6377L26.2275 21.6376C26.2274 20.458 25.2708 19.501 24.0908 19.501V20.501ZM25.2275 21.6377L24.2275 21.6377C24.2275 21.6758 24.2131 21.7091 24.1867 21.7351L24.8887 22.4473L25.5906 23.1595C25.9825 22.7733 26.2275 22.2332 26.2275 21.6377L25.2275 21.6377ZM24.8887 22.4473L23.9081 22.6435L24.2743 24.4736L25.2549 24.2773L26.2354 24.0811L25.8692 22.251L24.8887 22.4473ZM25.2549 24.2773L25.052 25.2566C25.0747 25.2613 25.1018 25.2714 25.1322 25.2907L25.668 24.4463L26.2037 23.6019C25.9847 23.463 25.7339 23.3554 25.4577 23.2981L25.2549 24.2773ZM25.668 24.4463L26.2589 25.253L28.3732 23.7042L27.7822 22.8975L27.1913 22.0908L25.077 23.6396L25.668 24.4463ZM27.7822 22.8975L28.7336 22.5893C28.7304 22.5794 28.7275 22.5656 28.7275 22.5469L27.7275 22.5469L26.7275 22.5469C26.7275 22.7728 26.7626 22.9947 26.8309 23.2056L27.7822 22.8975ZM27.7275 22.5469L28.7275 22.5469C28.7275 22.4709 28.7891 22.4102 28.8636 22.4102L28.8633 21.4102L28.863 20.4102C27.6827 20.4105 26.7276 21.368 26.7275 22.5468L27.7275 22.5469ZM28.8633 21.4102V22.4102C28.9385 22.4102 29 22.4716 29 22.5469L30 22.5469L31 22.5468C31 21.367 30.0432 20.4102 28.8633 20.4102V21.4102ZM30 22.5469L29 22.5469C29 22.6222 28.9386 22.6836 28.8633 22.6836V23.6836V24.6836C30.0432 24.6836 31 23.7268 31 22.5469L30 22.5469ZM28.8633 23.6836L28.8636 22.6836C28.851 22.6836 28.8363 22.6815 28.8187 22.6753L28.4883 23.6191L28.1579 24.563C28.3752 24.639 28.6126 24.6835 28.863 24.6836L28.8633 23.6836ZM28.4883 23.6191L27.8973 22.8125L25.6366 24.4687L26.2275 25.2754L26.8185 26.0821L29.0793 24.4258L28.4883 23.6191ZM26.2275 25.2754L25.2439 25.4553C25.25 25.4888 25.25 25.5014 25.25 25.5013L26.25 25.501L27.25 25.5007C27.25 25.3463 27.2319 25.2085 27.2112 25.0955L26.2275 25.2754ZM26.25 25.501L25.25 25.501C25.25 25.5078 25.249 25.5263 25.2408 25.5605L26.2129 25.7949L27.185 26.0294C27.2223 25.8749 27.25 25.6967 27.25 25.501L26.25 25.501ZM26.2129 25.7949L25.7017 26.6544L27.772 27.8858L28.2832 27.0264L28.7944 26.1669L26.7241 24.9355L26.2129 25.7949ZM28.2832 27.0264L28.7955 27.8852C28.8197 27.8708 28.8418 27.8652 28.8636 27.8652L28.8633 26.8652L28.863 25.8652C28.4602 25.8654 28.0867 25.9792 27.7709 26.1676L28.2832 27.0264ZM28.8633 26.8652V27.8652C28.9391 27.8652 29 27.9267 29 28.0014L30 28.001L31 28.0006C30.9995 26.8205 30.0423 25.8652 28.8633 25.8652V26.8652ZM30 28.001L29 28.001C29 28.0763 28.9386 28.1377 28.8633 28.1377V29.1377V30.1377C30.0432 30.1377 31 29.1809 31 28.001L30 28.001ZM28.8633 29.1377L28.8636 28.1377C28.789 28.1377 28.7275 28.077 28.7275 28.001L27.7275 28.001L26.7275 28.001C26.7275 29.1799 27.6827 30.1373 28.863 30.1377L28.8633 29.1377ZM27.7275 28.001L28.7275 28.0014C28.7275 28.0031 28.7274 27.9982 28.7292 27.9838L27.7363 27.8643L26.7435 27.7447C26.7344 27.8201 26.7276 27.9063 26.7275 28.0006L27.7275 28.001ZM27.7363 27.8643L28.2477 27.0049L26.1159 25.7363L25.6045 26.5957L25.0931 27.4551L27.225 28.7236L27.7363 27.8643ZM25.6045 26.5957L25.1202 25.7208C25.093 25.7359 25.0607 25.7465 25.0228 25.7498L25.1084 26.7461L25.194 27.7424C25.5136 27.715 25.8174 27.6208 26.0888 27.4706L25.6045 26.5957ZM25.1084 26.7461L24.1426 26.4867L23.6641 28.2679L24.6299 28.5273L25.5956 28.7868L26.0742 27.0055L25.1084 26.7461ZM24.6299 28.5273L23.9546 29.2649C23.9855 29.2932 24 29.3277 24 29.3646L25 29.3643L26 29.364C25.9998 28.7373 25.7279 28.1768 25.3052 27.7898L24.6299 28.5273ZM25 29.3643L24 29.3643C24 29.4396 23.9386 29.501 23.8633 29.501V30.501V31.501C25.0432 31.501 26 30.5441 26 29.3643L25 29.3643ZM23.8633 30.501L23.8636 29.501C23.789 29.501 23.7275 29.4402 23.7275 29.3643L22.7275 29.3643L21.7275 29.3643C21.7275 30.5432 22.6827 31.5006 23.8629 31.501L23.8633 30.501ZM22.7275 29.3643L23.7275 29.3646C23.7276 29.2997 23.7745 29.2428 23.8394 29.2316L23.6699 28.2461L23.5004 27.2606C22.4952 27.4335 21.7279 28.3062 21.7275 29.364L22.7275 29.3643ZM23.6699 28.2461L24.6356 28.5057L25.1249 26.6853L24.1592 26.4258L23.1935 26.1662L22.7042 27.9865L23.6699 28.2461ZM24.1592 26.4258L24.8323 25.6862C24.8019 25.6585 24.7784 25.6234 24.7645 25.5836L23.8203 25.9131L22.8762 26.2426C23.0008 26.5997 23.212 26.9159 23.4861 27.1654L24.1592 26.4258ZM23.8203 25.9131V24.9131L22.1943 24.9131V25.9131V26.9131L23.8203 26.9131V25.9131ZM22.1943 25.9131L21.2624 25.5505C21.2413 25.6047 21.191 25.6377 21.1364 25.6377L21.1367 26.6377L21.137 27.6377C22.0467 27.6374 22.8175 27.0693 23.1263 26.2757L22.1943 25.9131ZM21.1367 26.6377V25.6377C21.0605 25.6377 21 25.5762 21 25.5018L20 25.502L19 25.5021C19.0002 26.6827 19.9579 27.6377 21.1367 27.6377V26.6377Z" fill="#F5F5F5" mask="url(#hupath-5-outside-1_62588_13732)"/>&#xa;<path d="M16.1035 9.79964C16.3735 9.85695 16.5464 10.1224 16.4893 10.3924L14.4893 19.8143C14.4319 20.0843 14.1665 20.2572 13.8965 20.2C13.6265 20.1427 13.4536 19.8773 13.5107 19.6073L15.5107 10.1854C15.5681 9.91538 15.8335 9.74251 16.1035 9.79964ZM18.459 11.9647C18.6543 11.7694 18.9717 11.7694 19.167 11.9647L21.8145 14.6121C22.0482 14.8464 22.0484 15.2266 21.8145 15.4608L19.167 18.1082C18.9719 18.3034 18.6543 18.3031 18.459 18.1082C18.2641 17.913 18.264 17.5964 18.459 17.4012L20.8252 15.036L18.459 12.6717C18.264 12.4765 18.264 12.1599 18.459 11.9647ZM10.834 11.9383C11.0292 11.7431 11.3467 11.7431 11.542 11.9383C11.7365 12.1335 11.7368 12.4503 11.542 12.6453L9.16504 15.0203L11.542 17.3963C11.7366 17.5915 11.7367 17.9082 11.542 18.1033C11.3469 18.2985 11.0293 18.2982 10.834 18.1033L8.17578 15.4451C7.94172 15.2108 7.94162 14.8308 8.17578 14.5965L10.834 11.9383Z" fill="url(#hupaint7_linear_62588_13732)"/>&#xa;<defs>&#xa;<linearGradient id="hupaint0_linear_62588_13732" x1="13.4583" y1="4" x2="17.9551" y2="29.9428" gradientUnits="userSpaceOnUse">&#xa;<stop stop-color="#BBBBBB"/>&#xa;<stop offset="1" stop-color="#888888"/>&#xa;</linearGradient>&#xa;<linearGradient id="hupaint1_linear_62588_13732" x1="21" y1="5" x2="17" y2="29" gradientUnits="userSpaceOnUse">&#xa;<stop stop-color="white"/>&#xa;<stop offset="1" stop-color="#EBEBEB"/>&#xa;</linearGradient>&#xa;<radialGradient id="hupaint2_radial_62588_13732" cx="0" cy="0" r="1" gradientUnits="userSpaceOnUse" gradientTransform="translate(20.25 11.25) rotate(116.565) scale(21.2426 15.932)">&#xa;<stop offset="0.177083" stop-color="white"/>&#xa;<stop offset="1" stop-color="#B8B8B8"/>&#xa;</radialGradient>&#xa;<linearGradient id="hupaint3_linear_62588_13732" x1="6.45833" y1="-9.68575e-08" x2="10.9551" y2="25.9428" gradientUnits="userSpaceOnUse">&#xa;<stop stop-color="#BBBBBB"/>&#xa;<stop offset="1" stop-color="#888888"/>&#xa;</linearGradient>&#xa;<linearGradient id="hupaint4_linear_62588_13732" x1="5" y1="-8.9407e-08" x2="9" y2="24" gradientUnits="userSpaceOnUse">&#xa;<stop stop-color="white"/>&#xa;<stop offset="1" stop-color="#EBEBEB"/>&#xa;</linearGradient>&#xa;<radialGradient id="hupaint5_radial_62588_13732" cx="0" cy="0" r="1" gradientUnits="userSpaceOnUse" gradientTransform="translate(5.75 6.25) rotate(63.4349) scale(21.2426 15.932)">&#xa;<stop offset="0.177083" stop-color="white"/>&#xa;<stop offset="1" stop-color="#B8B8B8"/>&#xa;</radialGradient>&#xa;<linearGradient id="hupaint6_linear_62588_13732" x1="29.375" y1="30.501" x2="22.3635" y2="20.7381" gradientUnits="userSpaceOnUse">&#xa;<stop stop-color="#3F7D35"/>&#xa;<stop offset="1" stop-color="#4BA446"/>&#xa;</linearGradient>&#xa;<linearGradient id="hupaint7_linear_62588_13732" x1="8" y1="9.78889" x2="17.9864" y2="23.1935" gradientUnits="userSpaceOnUse">&#xa;<stop stop-color="#4BA446"/>&#xa;<stop offset="1" stop-color="#3F7D35"/>&#xa;</linearGradient>&#xa;</defs>&#xa;</svg>