<svg xmlns="http://www.w3.org/2000/svg" width="80" height="80" viewBox="4 4 32 32" fill="none">&#xa;<path d="M4 8C4 5.79086 5.79086 4 8 4H32C34.2091 4 36 5.79086 36 8V32C36 34.2091 34.2091 36 32 36H8C5.79086 36 4 34.2091 4 32V8Z" fill="url(#hjpaint0_linear_62588_13624)"/>&#xa;<path d="M4 8C4 5.79086 5.79086 4 8 4H32C34.2091 4 36 5.79086 36 8V32C36 34.2091 34.2091 36 32 36H8C5.79086 36 4 34.2091 4 32V8Z" fill="url(#hjpaint1_radial_62588_13624)" fill-opacity="0.2"/>&#xa;<path fill-rule="evenodd" clip-rule="evenodd" d="M32 5H8C6.34315 5 5 6.34315 5 8V32C5 33.6569 6.34315 35 8 35H32C33.6569 35 35 33.6569 35 32V8C35 6.34315 33.6569 5 32 5ZM8 4C5.79086 4 4 5.79086 4 8V32C4 34.2091 5.79086 36 8 36H32C34.2091 36 36 34.2091 36 32V8C36 5.79086 34.2091 4 32 4H8Z" fill="url(#hjpaint2_linear_62588_13624)"/>&#xa;<path d="M10 20C10 18.7574 11.0074 17.75 12.25 17.75C13.2292 17.75 14.0589 18.3767 14.3682 19.25L17.6143 19.25C17.7817 18.7167 18.1244 18.2621 18.5732 17.9492L17.6406 14.4951C16.4488 14.438 15.5 13.4559 15.5 12.25C15.5 11.0074 16.5074 10 17.75 10C18.9926 10 20 11.0074 20 12.25C20 12.9955 19.6365 13.655 19.0781 14.0645L20.0059 17.501C20.4993 17.5021 20.9577 17.6477 21.3447 17.8955L25.6494 14.0518C25.5542 13.8025 25.5 13.5327 25.5 13.25C25.5 12.0074 26.5074 11 27.75 11C28.9926 11 30 12.0074 30 13.25C30 14.4926 28.9926 15.5 27.75 15.5C27.3383 15.5 26.9531 15.3884 26.6211 15.1953L22.3096 19.0449C22.4315 19.3393 22.5 19.6615 22.5 20C22.5 20.2345 22.4647 20.4606 22.4043 20.6758L26.2539 23.0723C26.6517 22.7173 27.1749 22.5 27.75 22.5C28.9926 22.5 30 23.5074 30 24.75C30 25.9926 28.9926 27 27.75 27C26.5074 27 25.5 25.9926 25.5 24.75C25.5 24.6272 25.5123 24.5071 25.5313 24.3896L21.585 21.9326C21.1801 22.2651 20.6692 22.4708 20.1104 22.4951L19.1406 25.9834C19.6633 26.3954 20 27.0328 20 27.75C20 28.9926 18.9926 30 17.75 30C16.5074 30 15.5 28.9926 15.5 27.75C15.5 26.5185 16.4895 25.5197 17.7168 25.502L18.6602 22.1094C18.1684 21.7963 17.7924 21.3174 17.6143 20.75L14.3682 20.75C14.0589 21.6233 13.2292 22.25 12.25 22.25C11.0074 22.25 10 21.2426 10 20Z" fill="url(#hjpaint3_linear_62588_13624)"/>&#xa;<defs>&#xa;<linearGradient id="hjpaint0_linear_62588_13624" x1="12.8889" y1="4" x2="16.9368" y2="36.3829" gradientUnits="userSpaceOnUse">&#xa;<stop stop-color="white"/>&#xa;<stop offset="1" stop-color="#EBEBEB"/>&#xa;</linearGradient>&#xa;<radialGradient id="hjpaint1_radial_62588_13624" cx="0" cy="0" r="1" gradientTransform="matrix(16.8889 25.3333 -25.3333 9.5 14.2222 12.3333)" gradientUnits="userSpaceOnUse">&#xa;<stop offset="0.177083" stop-color="white"/>&#xa;<stop offset="1" stop-color="#B8B8B8"/>&#xa;</radialGradient>&#xa;<linearGradient id="hjpaint2_linear_62588_13624" x1="14.3333" y1="4" x2="18.6419" y2="36.3144" gradientUnits="userSpaceOnUse">&#xa;<stop stop-color="#BBBBBB"/>&#xa;<stop offset="1" stop-color="#888888"/>&#xa;</linearGradient>&#xa;<linearGradient id="hjpaint3_linear_62588_13624" x1="10" y1="30" x2="30" y2="10" gradientUnits="userSpaceOnUse">&#xa;<stop stop-color="#7751B8"/>&#xa;<stop offset="1" stop-color="#5A409C"/>&#xa;</linearGradient>&#xa;</defs>&#xa;</svg>