<svg xmlns="http://www.w3.org/2000/svg" width="77.72706058984215" height="79.28985258853433" viewBox="3 3 28.353557586669922 28.92226219177246" fill="none">&#xa;<path d="M3 6.5C3 4.567 4.567 3 6.5 3H25.5C27.433 3 29 4.567 29 6.5V25.5C29 27.433 27.433 29 25.5 29H6.5C4.567 29 3 27.433 3 25.5V6.5Z" fill="url(#jvpaint0_linear_46790_591)"/>&#xa;<path d="M3 6.5C3 4.567 4.567 3 6.5 3H25.5C27.433 3 29 4.567 29 6.5V25.5C29 27.433 27.433 29 25.5 29H6.5C4.567 29 3 27.433 3 25.5V6.5Z" fill="url(#jvpaint1_radial_46790_591)" fill-opacity="0.2"/>&#xa;<path fill-rule="evenodd" clip-rule="evenodd" d="M25.5 4H6.5C5.11929 4 4 5.11929 4 6.5V25.5C4 26.8807 5.11929 28 6.5 28H25.5C26.8807 28 28 26.8807 28 25.5V6.5C28 5.11929 26.8807 4 25.5 4ZM6.5 3C4.567 3 3 4.567 3 6.5V25.5C3 27.433 4.567 29 6.5 29H25.5C27.433 29 29 27.433 29 25.5V6.5C29 4.567 27.433 3 25.5 3H6.5Z" fill="url(#jvpaint2_linear_46790_591)"/>&#xa;<g clip-path="url(#jvclip0_46790_591)">&#xa;<path d="M14.08 12.5244C10.9689 12.5244 8.44446 11.6355 8.44446 10.48V21.3333C8.44446 22.4533 10.9245 23.36 14 23.3778H14.08C17.1911 23.3778 19.7156 22.4889 19.7156 21.3333V10.48C19.7156 11.6089 17.1911 12.5244 14.08 12.5244Z" fill="url(#jvpaint3_linear_46790_591)"/>&#xa;<path d="M19.7156 10.48C19.7156 11.6089 17.1911 12.5244 14.08 12.5244C10.9689 12.5244 8.44446 11.6089 8.44446 10.48C8.44446 9.3511 10.9689 8.43555 14.08 8.43555C17.1911 8.43555 19.7156 9.32444 19.7156 10.48Z" fill="#E8E8E8"/>&#xa;<path d="M18.4 10.3111C18.4 11.0311 16.4622 11.6089 14.08 11.6089C11.6978 11.6089 9.77777 11.0311 9.77777 10.3111C9.77777 9.59108 11.6978 9.01331 14.08 9.01331C16.4622 9.01331 18.4 9.59997 18.4 10.3111Z" fill="#50E6FF"/>&#xa;<path d="M14.08 10.6133C12.9232 10.5901 11.7704 10.7552 10.6667 11.1022C11.7693 11.4687 12.9274 11.6401 14.0889 11.6089C15.2504 11.6401 16.4085 11.4687 17.5111 11.1022C16.4017 10.7533 15.2427 10.5882 14.08 10.6133Z" fill="#198AB3"/>&#xa;<path d="M17.5467 17.8667V14.8623H16.72V18.5423H18.9067V17.8667H17.5467ZM11.1911 16.3823C11.0266 16.3146 10.8736 16.2216 10.7378 16.1067C10.6781 16.0247 10.6526 15.9227 10.6667 15.8223C10.6667 15.7683 10.6796 15.7151 10.7043 15.6672C10.729 15.6193 10.7649 15.5779 10.8089 15.5467C10.9203 15.4765 11.0507 15.4423 11.1822 15.4489C11.4984 15.4379 11.8099 15.5283 12.0711 15.7067V14.9423C11.7866 14.8386 11.4849 14.7903 11.1822 14.8C10.8004 14.768 10.4203 14.8789 10.1156 15.1112C9.99814 15.2081 9.90431 15.3306 9.84117 15.4692C9.77804 15.6078 9.74724 15.7589 9.75112 15.9112C9.75112 16.3645 10.0356 16.72 10.64 16.9867C10.8331 17.0708 11.0152 17.1783 11.1822 17.3067C11.2264 17.3398 11.2622 17.3828 11.2869 17.4321C11.3116 17.4815 11.3245 17.536 11.3245 17.5912C11.3245 17.6451 11.3116 17.6983 11.2868 17.7462C11.2621 17.7942 11.2262 17.8355 11.1822 17.8667C11.0636 17.9438 10.9235 17.9812 10.7822 17.9734C10.4078 17.9775 10.0469 17.8337 9.77779 17.5734V18.4C10.0736 18.5441 10.4 18.6142 10.7289 18.6045C11.0996 18.6215 11.4664 18.522 11.7778 18.32C11.9025 18.2245 12.0024 18.1003 12.0689 17.9579C12.1355 17.8155 12.1667 17.6593 12.16 17.5023C12.1686 17.274 12.0891 17.0512 11.9378 16.88C11.7267 16.6635 11.4722 16.4939 11.1911 16.3823ZM15.8133 17.7778C16.0141 17.4361 16.1157 17.0452 16.1067 16.6489C16.1142 16.3097 16.0378 15.9738 15.8845 15.6712C15.7457 15.3936 15.5296 15.162 15.2622 15.0045C14.9913 14.8509 14.6848 14.7712 14.3733 14.7734C14.035 14.7674 13.7009 14.8501 13.4045 15.0134C13.1266 15.1741 12.9012 15.4118 12.7556 15.6978C12.5951 16.0142 12.5157 16.3654 12.5245 16.72C12.5193 17.0438 12.5925 17.364 12.7378 17.6534C12.8726 17.928 13.0821 18.1591 13.3422 18.32C13.6106 18.4829 13.9173 18.5719 14.2311 18.5778L14.9867 19.4667H16.0445L14.9778 18.48C15.3296 18.3505 15.6252 18.1021 15.8133 17.7778ZM14.9867 17.5467C14.9032 17.6458 14.7991 17.7255 14.6817 17.7801C14.5642 17.8348 14.4362 17.8631 14.3067 17.8631C14.1771 17.8631 14.0491 17.8348 13.9317 17.7801C13.8142 17.7255 13.7101 17.6458 13.6267 17.5467C13.4412 17.2892 13.3531 16.9742 13.3778 16.6578C13.3532 16.3401 13.4448 16.0242 13.6356 15.7689C13.7154 15.6616 13.8204 15.5755 13.9413 15.5181C14.0621 15.4608 14.1952 15.434 14.3289 15.44C14.4585 15.436 14.587 15.464 14.7033 15.5213C14.8195 15.5787 14.9199 15.6637 14.9956 15.7689C15.1707 16.031 15.255 16.3432 15.2356 16.6578C15.2711 16.9835 15.1822 17.3105 14.9867 17.5734V17.5467Z" fill="#F2F2F2"/>&#xa;<path d="M21.1644 23.5467L21.3778 22.8445L21.7956 22.6045L22.5156 22.9245L22.9778 22.4534V22.4001L22.6489 21.7689L22.8444 21.3245L23.5644 21.0667H23.6444V20.4178H23.5556L22.8444 20.2045L22.6133 19.7956L22.9244 19.0667L22.4533 18.6134H22.4L21.7689 18.9334L21.3333 18.6667L21.0489 17.8756H20.3911V17.9734L20.1778 18.6756L19.7244 18.8712L18.9511 18.5156L18.4978 18.9867L18.5422 19.0756L18.88 19.7334L18.7022 20.1867L17.8667 20.4445V21.1023H17.9644L18.6667 21.3156L18.8622 21.7689L18.5156 22.5334L18.9867 22.9956L19.0667 22.9512L19.7244 22.6134L20.1778 22.7912L20.48 23.5823H21.1289L21.1644 23.5467ZM20.0978 21.4489C19.9186 21.2733 19.8166 21.0337 19.814 20.7828C19.8115 20.5319 19.9088 20.2903 20.0844 20.1112C20.2601 19.932 20.4997 19.8299 20.7506 19.8274C21.0015 19.8249 21.2431 19.9222 21.4222 20.0978C21.5109 20.1848 21.5817 20.2884 21.6303 20.4027C21.679 20.517 21.7047 20.6397 21.706 20.764C21.7072 20.8882 21.684 21.0114 21.6376 21.1267C21.5912 21.2419 21.5225 21.3469 21.4356 21.4356C21.3486 21.5243 21.245 21.595 21.1307 21.6437C21.0164 21.6924 20.8937 21.7181 20.7694 21.7193C20.6452 21.7206 20.522 21.6973 20.4067 21.6509C20.2915 21.6045 20.1865 21.5359 20.0978 21.4489Z" fill="#949494"/>&#xa;</g>&#xa;<path d="M24.0003 22.7611C24.0003 22.0349 23.1485 21.6431 22.5971 22.1157L18.9433 25.2475C18.5843 25.5552 18.5454 26.0967 18.8568 26.4526L22.5106 30.6283C23.0274 31.219 24.0003 30.8534 24.0003 30.0686V22.7611Z" fill="url(#jvpaint4_linear_46790_591)"/>&#xa;<path d="M24.9997 22.7611C24.9997 22.0349 25.8515 21.6431 26.4029 22.1157L30.0567 25.2475C30.4157 25.5552 30.4546 26.0967 30.1432 26.4526L26.4894 30.6283C25.9726 31.219 24.9997 30.8534 24.9997 30.0686V22.7611Z" fill="url(#jvpaint5_linear_46790_591)"/>&#xa;<path fill-rule="evenodd" clip-rule="evenodd" d="M21.758 31.2868L18.1042 27.1111C17.4266 26.3366 17.5112 25.1579 18.2926 24.4882L21.9463 21.3564C22.7568 20.6617 23.8656 20.8252 24.5 21.4914C25.1344 20.8252 26.2432 20.6617 27.0537 21.3564L30.7075 24.4882C31.4888 25.1579 31.5735 26.3366 30.8958 27.1111L27.242 31.2868C26.4593 32.1813 25.1961 32.0682 24.5 31.3412C23.8039 32.0682 22.5407 32.1813 21.758 31.2868ZM23.9999 30.0943C23.9789 30.8613 23.0217 31.2125 22.5106 30.6283L18.8568 26.4526C18.5455 26.0967 18.5843 25.5552 18.9433 25.2475L22.5971 22.1157C23.142 21.6486 23.9802 22.0257 23.9999 22.7355C24.0002 22.744 24.0003 22.7525 24.0003 22.761V30.0686C24.0003 30.0772 24.0002 30.0858 23.9999 30.0943ZM25.0001 30.0943C25.0211 30.8613 25.9783 31.2125 26.4895 30.6283L30.1432 26.4526C30.4546 26.0967 30.4157 25.5552 30.0567 25.2475L26.4029 22.1157C25.8581 21.6486 25.0198 22.0257 25.0001 22.7355C24.9999 22.744 24.9998 22.7525 24.9998 22.761V30.0686C24.9998 30.0772 24.9999 30.0858 25.0001 30.0943Z" fill="#F5F5F5"/>&#xa;<defs>&#xa;<linearGradient id="jvpaint0_linear_46790_591" x1="10.2222" y1="3" x2="13.5111" y2="29.3111" gradientUnits="userSpaceOnUse">&#xa;<stop stop-color="white"/>&#xa;<stop offset="1" stop-color="#EBEBEB"/>&#xa;</linearGradient>&#xa;<radialGradient id="jvpaint1_radial_46790_591" cx="0" cy="0" r="1" gradientUnits="userSpaceOnUse" gradientTransform="translate(11.3056 9.77083) rotate(56.3099) scale(24.7381 21.408)">&#xa;<stop offset="0.177083" stop-color="white"/>&#xa;<stop offset="1" stop-color="#B8B8B8"/>&#xa;</radialGradient>&#xa;<linearGradient id="jvpaint2_linear_46790_591" x1="11.3958" y1="3" x2="14.8966" y2="29.2555" gradientUnits="userSpaceOnUse">&#xa;<stop stop-color="#BBBBBB"/>&#xa;<stop offset="1" stop-color="#888888"/>&#xa;</linearGradient>&#xa;<linearGradient id="jvpaint3_linear_46790_591" x1="8.44446" y1="16.9244" x2="19.7156" y2="16.9244" gradientUnits="userSpaceOnUse">&#xa;<stop stop-color="#005BA1"/>&#xa;<stop offset="0.07" stop-color="#0060A9"/>&#xa;<stop offset="0.36" stop-color="#0071C8"/>&#xa;<stop offset="0.52" stop-color="#0078D4"/>&#xa;<stop offset="0.64" stop-color="#0074CD"/>&#xa;<stop offset="0.82" stop-color="#006ABB"/>&#xa;<stop offset="1" stop-color="#005BA1"/>&#xa;</linearGradient>&#xa;<linearGradient id="jvpaint4_linear_46790_591" x1="18.6465" y1="21.9094" x2="27.3572" y2="33.2265" gradientUnits="userSpaceOnUse">&#xa;<stop stop-color="#008EE6"/>&#xa;<stop offset="1" stop-color="#006094"/>&#xa;</linearGradient>&#xa;<linearGradient id="jvpaint5_linear_46790_591" x1="18.6465" y1="21.9094" x2="27.3572" y2="33.2265" gradientUnits="userSpaceOnUse">&#xa;<stop stop-color="#008EE6"/>&#xa;<stop offset="1" stop-color="#006094"/>&#xa;</linearGradient>&#xa;<clipPath id="jvclip0_46790_591">&#xa;<rect width="16" height="16" fill="white" transform="translate(8 8)"/>&#xa;</clipPath>&#xa;</defs>&#xa;</svg>