<svg xmlns="http://www.w3.org/2000/svg" width="80" height="80" fill="currentColor" viewBox="4.5 4 32 32"><path fill="url(#dpa)" d="M4.5 8a4 4 0 0 1 4-4h24a4 4 0 0 1 4 4v24a4 4 0 0 1-4 4h-24a4 4 0 0 1-4-4V8Z"/><path fill="url(#dpb)" fill-opacity=".2" d="M4.5 8a4 4 0 0 1 4-4h24a4 4 0 0 1 4 4v24a4 4 0 0 1-4 4h-24a4 4 0 0 1-4-4V8Z"/><path fill="url(#dpc)" fill-rule="evenodd" d="M32.5 5h-24a3 3 0 0 0-3 3v24a3 3 0 0 0 3 3h24a3 3 0 0 0 3-3V8a3 3 0 0 0-3-3Zm-24-1a4 4 0 0 0-4 4v24a4 4 0 0 0 4 4h24a4 4 0 0 0 4-4V8a4 4 0 0 0-4-4h-24Z" clip-rule="evenodd"/><path fill="#EF3E2B" d="M11.292 15.224v.6l9.208 5.183 8.265-4.626v1.885L20.5 22.933l-8.737-4.967-.471.256v3.598l9.208 5.182 8.265-4.625v1.842L20.5 28.887l-8.737-4.968-.471.257v.642L20.5 30l9.208-5.182V21.22l-.43-.258-8.778 4.968-8.223-4.71V19.38l8.223 4.625 9.208-5.182v-3.554l-.43-.257L20.5 19.98l-7.795-4.411 7.795-4.411 6.466 3.64.557-.343v-.47L20.5 10l-9.208 5.224Z"/><defs><linearGradient id="dpa" x1="13.389" x2="17.437" y1="4" y2="36.383" gradientUnits="userSpaceOnUse"><stop stop-color="#fff"/><stop offset="1" stop-color="#EBEBEB"/></linearGradient><linearGradient id="dpc" x1="14.833" x2="19.142" y1="4" y2="36.314" gradientUnits="userSpaceOnUse"><stop stop-color="#BBB"/><stop offset="1" stop-color="#888"/></linearGradient><radialGradient id="dpb" cx="0" cy="0" r="1" gradientTransform="rotate(56.31 -4.161 19.921) scale(30.4469 26.3483)" gradientUnits="userSpaceOnUse"><stop offset=".177" stop-color="#fff"/><stop offset="1" stop-color="#B8B8B8"/></radialGradient></defs></svg>