<?xml version="1.0" encoding="UTF-8" standalone="no"?>
<!DOCTYPE svg PUBLIC "-//W3C//DTD SVG 1.1//EN" "http://www.w3.org/Graphics/SVG/1.1/DTD/svg11.dtd">
<svg width="100%" height="100%" viewBox="0 0 35 35" version="1.1" xmlns="http://www.w3.org/2000/svg" xmlns:xlink="http://www.w3.org/1999/xlink" xml:space="preserve" xmlns:serif="http://www.serif.com/" style="fill-rule:evenodd;clip-rule:evenodd;stroke-linejoin:round;stroke-miterlimit:2;">
    <g transform="matrix(1,0,0,1,-4,-4)">
        <path d="M4,8C4,5.806 5.806,4 8,4L32,4C34.194,4 36,5.806 36,8L36,32C36,34.194 34.194,36 32,36L8,36C5.806,36 4,34.194 4,32L4,8Z" style="fill:url(#_Linear1);fill-rule:nonzero;"/>
    </g>
    <g transform="matrix(1,0,0,1,-4,-4)">
        <path d="M4,8C4,5.806 5.806,4 8,4L32,4C34.194,4 36,5.806 36,8L36,32C36,34.194 34.194,36 32,36L8,36C5.806,36 4,34.194 4,32L4,8Z" style="fill:url(#_Radial2);fill-rule:nonzero;"/>
    </g>
    <g transform="matrix(1,0,0,1,-4,-4)">
        <path d="M32,5L8,5C6.354,5 5,6.354 5,8L5,32C5,33.646 6.354,35 8,35L32,35C33.646,35 35,33.646 35,32L35,8C35,6.354 33.646,5 32,5M8,4C5.806,4 4,5.806 4,8L4,32C4,34.194 5.806,36 8,36L32,36C34.194,36 36,34.194 36,32L36,8C36,5.806 34.194,4 32,4L8,4Z" style="fill:url(#_Linear3);"/>
    </g>
    <g transform="matrix(1,0,0,1,-4,-4)">
        <path d="M31,28.761C31,28.295 30.616,27.912 30.15,27.912C29.947,27.912 29.751,27.984 29.597,28.116L25.443,31.676C25.255,31.837 25.147,32.073 25.147,32.321C25.147,32.527 25.221,32.726 25.357,32.881L29.511,37.628C30.027,38.219 31.001,37.853 31.001,37.068L31.001,28.761L31,28.761Z" style="fill:url(#_Linear4);fill-rule:nonzero;"/>
    </g>
    <g transform="matrix(1,0,0,1,-4,-4)">
        <path d="M32,28.761C32,28.295 32.384,27.912 32.85,27.912C33.053,27.912 33.249,27.984 33.403,28.116L37.557,31.676C37.745,31.837 37.853,32.073 37.853,32.321C37.853,32.527 37.779,32.726 37.643,32.881L33.489,37.628C32.973,38.219 31.999,37.853 31.999,37.068L32,28.761Z" style="fill:url(#_Linear5);fill-rule:nonzero;"/>
    </g>
    <g transform="matrix(1,0,0,1,-4,-4)">
        <path d="M24.793,30.917L28.946,27.357C29.756,26.662 30.866,26.825 31.5,27.491C32.134,26.825 33.243,26.661 34.054,27.356L38.208,30.916C38.618,31.267 38.854,31.781 38.854,32.321C38.854,32.769 38.691,33.203 38.396,33.54L34.242,38.287C33.459,39.181 32.196,39.068 31.5,38.341C30.804,39.068 29.54,39.181 28.758,38.287L24.604,33.54C24.309,33.203 24.146,32.77 24.146,32.322C24.146,31.782 24.383,31.268 24.793,30.917M31,37.094C30.979,37.861 30.022,38.212 29.51,37.628L25.357,32.881C25.221,32.726 25.147,32.527 25.147,32.321C25.147,32.073 25.255,31.837 25.443,31.676L29.597,28.116C29.751,27.984 29.947,27.912 30.15,27.912C30.616,27.912 30.999,28.294 31,28.76L31,37.094ZM32,37.094C32.021,37.861 32.978,38.212 33.49,37.628L37.643,32.881C37.779,32.726 37.853,32.527 37.853,32.321C37.853,32.073 37.745,31.837 37.557,31.676L33.403,28.116C33.249,27.984 33.053,27.912 32.85,27.912C32.384,27.912 32.001,28.294 32,28.76L32,37.094Z" style="fill:rgb(245,245,245);"/>
    </g>
    <g transform="matrix(0.009766,0,0,0.009766,6,6)">
        <path d="M2048,1144C2048,1216 2034.333,1283.667 2007,1347C1979.667,1409.667 1942.667,1464.667 1896,1512C1848.667,1558.667 1793.667,1595.667 1731,1623C1667.667,1650.333 1600,1664 1528,1664C1513.333,1664 1498.333,1663.333 1483,1662C1467.667,1660.667 1453,1658.667 1439,1656C1435.667,1710.667 1422.667,1762 1400,1810C1377.333,1857.333 1347.333,1898.667 1310,1934C1272.667,1969.333 1229.667,1997.333 1181,2018C1131.667,2038 1079.333,2048 1024,2048C966.667,2048 912.667,2037.333 862,2016C811.333,1994 767.333,1964.333 730,1927C692,1889 662.333,1844.667 641,1794C619,1743.333 608,1689.333 608,1632C608,1599.333 612,1567.333 620,1536L85,1536C61.667,1536 41.667,1527.667 25,1511C8.333,1494.333 0,1474.333 0,1451L0,597C0,573.667 8.333,553.667 25,537C41.667,520.333 61.667,512 85,512L360,512C371.333,439.333 395,372 431,310C466.333,247.333 510.667,193 564,147C616.667,101 677,65 745,39C812.333,13 884,0 960,0C1044,0 1123,16 1197,48C1270.333,80 1334.667,123.667 1390,179C1444.667,233.667 1488,298 1520,372C1552,445.333 1568,524 1568,608C1568,618.667 1567.667,624.667 1567,626C1634.333,631.333 1697.333,648.333 1756,677C1814,705.667 1864.667,743.333 1908,790C1951.333,836 1985.667,889.333 2011,950C2035.667,1010.667 2048,1075.333 2048,1144M1528,1600C1590.667,1600 1650,1588 1706,1564C1761.333,1540 1809.667,1507.667 1851,1467C1891.667,1425.667 1924,1377.333 1948,1322C1972,1266.667 1984,1207.333 1984,1144C1984,1081.333 1972,1022.333 1948,967C1924,911.667 1891.667,863.333 1851,822C1809.667,780.667 1761.333,748 1706,724C1650,700 1590.667,688 1528,688C1465.333,688 1406.333,700 1351,724C1295.667,748 1247.333,780.667 1206,822C1164.667,863.333 1132,911.667 1108,967C1084,1022.333 1072,1081.333 1072,1144C1072,1156.667 1072.667,1169.667 1074,1183C1075.333,1195.667 1077,1208 1079,1220C1127,1226 1171.667,1240 1213,1262C1254.333,1283.333 1291,1310.333 1323,1343C1355,1375.667 1381,1413.333 1401,1456C1421,1498 1433.333,1543 1438,1591C1452,1593.667 1466.667,1596 1482,1598C1497.333,1599.333 1512.667,1600 1528,1600M960,64C893.333,64 830,75.667 770,99C710,121.667 656.333,153 609,193C561.667,233 522,280.333 490,335C458,389.667 436.333,448.667 425,512L939,512C962.333,512 982.333,520.333 999,537C1015.667,553.667 1024,573.667 1024,597L1024,1018C1037.333,963.333 1059,912.667 1089,866C1119,819.333 1155,778.667 1197,744C1239,709.333 1286,681.667 1338,661C1390,639.667 1445,627.667 1503,625C1503,621.667 1503.333,619 1504,617L1504,608C1504,533.333 1489.667,463 1461,397C1432.333,330.333 1393.667,272.667 1345,224C1295.667,174.667 1238,135.667 1172,107C1105.333,78.333 1034.667,64 960,64M1024,1984C1072.667,1984 1118.333,1975 1161,1957C1203.667,1938.333 1241,1913 1273,1881C1305,1849 1330.333,1811.667 1349,1769C1367,1726.333 1376,1680.667 1376,1632C1376,1583.333 1367,1537.667 1349,1495C1330.333,1452.333 1305,1415 1273,1383C1241,1351 1203.667,1326 1161,1308C1118.333,1289.333 1072.667,1280 1024,1280L1024,1451C1024,1474.333 1015.667,1494.333 999,1511C982.333,1527.667 962.333,1536 939,1536L686,1536C676.667,1568 672,1600 672,1632C672,1680.667 681.333,1726.333 700,1769C718,1811.667 743,1849 775,1881C807,1913 844.333,1938.333 887,1957C929.667,1975 975.333,1984 1024,1984M520,1378C557.333,1378 592.333,1374.333 625,1367C657,1359 685,1347 709,1331C732.333,1314.333 751,1293.333 765,1268C778.333,1242.667 785,1212.333 785,1177C785,1139 777.667,1107 763,1081C747.667,1055 726,1033.333 698,1016C666,995.333 635.667,979.333 607,968C577.667,956 552.333,945.667 531,937C509,928.333 491.667,919.333 479,910C466.333,900.667 460,888.333 460,873C460,853.667 471,839 493,829C514.333,819 541,814 573,814C601.667,814 630,817.333 658,824C685.333,830.667 709.667,840.667 731,854L755,869L755,709L745,705C700.333,688.333 642,680 570,680C532.667,680 497.333,684.333 464,693C430.667,701 401.667,713.667 377,731C351.667,747.667 331.667,768.667 317,794C302.333,818.667 295,847.333 295,880C295,904.667 298.667,926.667 306,946C312.667,965.333 323.333,983 338,999C352,1014.333 370.333,1028.667 393,1042C415,1055.333 441,1068.333 471,1081C496.333,1091.667 518.333,1101 537,1109C555.667,1117 571.333,1125 584,1133C596,1140.333 605,1148.333 611,1157C617,1165 620,1174.333 620,1185C620,1204.333 611,1219.333 593,1230C574.333,1240 546.667,1245 510,1245C494.667,1245 478.667,1243.667 462,1241C445.333,1237.667 428.667,1233.333 412,1228C395.333,1222.667 379.333,1216.667 364,1210C348,1202.667 334,1194.667 322,1186L296,1168L296,1336L306,1340C333.333,1353.333 365.667,1363 403,1369C440.333,1375 479.333,1378 520,1378Z" style="fill-rule:nonzero;"/>
    </g>
    <g transform="matrix(0.009766,0,0,0.009766,6,6)">
        <path d="M1568,608C1568,664 1561,718 1547,770C1532.333,821.333 1511.667,869.667 1485,915C1458.333,960.333 1426.667,1001.333 1390,1038C1353.333,1074.667 1312.333,1106.333 1267,1133C1221.667,1159.667 1173.333,1180.333 1122,1195C1070,1209 1016,1216 960,1216C876,1216 797,1200.333 723,1169C649,1137 584.667,1093.667 530,1039C474.667,983.667 431.333,919 400,845C368,771 352,692 352,608C352,552 359.333,498.333 374,447C388,395 408.333,346.333 435,301C461.667,255.667 493.333,214.667 530,178C566.667,141.333 607.667,109.667 653,83C698.333,56.333 747,36 799,22C850.333,7.333 904,0 960,0C1044,0 1123,16 1197,48C1270.333,80 1334.667,123.667 1390,179C1444.667,233.667 1488,298 1520,372C1552,445.333 1568,524 1568,608Z" style="fill:rgb(3,108,112);fill-rule:nonzero;"/>
    </g>
    <g transform="matrix(0.009766,0,0,0.009766,6,6)">
        <path d="M2048,1144C2048,1216 2034.333,1283.667 2007,1347C1979.667,1409.667 1942.667,1464.667 1896,1512C1848.667,1558.667 1793.667,1595.667 1731,1623C1667.667,1650.333 1600,1664 1528,1664C1456,1664 1388.667,1650.333 1326,1623C1262.667,1595.667 1207.667,1558.667 1161,1512C1113.667,1464.667 1076.333,1409.667 1049,1347C1021.667,1283.667 1008,1216 1008,1144C1008,1072 1021.667,1004.667 1049,942C1076.333,878.667 1113.667,823.667 1161,777C1207.667,729.667 1262.667,692.333 1326,665C1388.667,637.667 1456,624 1528,624C1600,624 1667.667,637.667 1731,665C1793.667,692.333 1848.667,729.667 1896,777C1942.667,823.667 1979.667,878.667 2007,942C2034.333,1004.667 2048,1072 2048,1144Z" style="fill:rgb(26,155,161);fill-rule:nonzero;"/>
    </g>
    <g transform="matrix(0.009766,0,0,0.009766,6,6)">
        <path d="M1440,1632C1440,1689.333 1429.333,1743.333 1408,1794C1386,1844.667 1356.333,1889 1319,1927C1281,1964.333 1236.667,1994 1186,2016C1135.333,2037.333 1081.333,2048 1024,2048C966.667,2048 912.667,2037.333 862,2016C811.333,1994 767.333,1964.333 730,1927C692,1889 662.333,1844.667 641,1794C619,1743.333 608,1689.333 608,1632C608,1574.667 619,1520.667 641,1470C662.333,1419.333 692,1375.333 730,1338C767.333,1300 811.333,1270.333 862,1249C912.667,1227 966.667,1216 1024,1216C1081.333,1216 1135.333,1227 1186,1249C1236.667,1270.333 1281,1300 1319,1338C1356.333,1375.333 1386,1419.333 1408,1470C1429.333,1520.667 1440,1574.667 1440,1632Z" style="fill:rgb(55,198,208);fill-rule:nonzero;"/>
    </g>
    <g transform="matrix(0.009766,0,0,0.009766,6,6)">
        <path d="M1067,448C1090.333,448 1110.333,456.333 1127,473C1143.667,489.667 1152,509.667 1152,533L1152,1579C1152,1602.333 1143.667,1622.333 1127,1639C1110.333,1655.667 1090.333,1664 1067,1664L609,1664C608.333,1661.333 608,1658.667 608,1656L608,1632C608,1578 618,1527 638,1479C657.333,1431 684.333,1388.333 719,1351C753,1313.667 793,1283.333 839,1260C885,1236 934,1221.333 986,1216L960,1216C876,1216 797,1200.333 723,1169C649,1137 584.667,1093.667 530,1039C474.667,983.667 431.333,919 400,845C368,771 352,692 352,608C352,553.333 359,500 373,448L1067,448Z" style="fill-opacity:0.09;fill-rule:nonzero;"/>
    </g>
    <g transform="matrix(0.009766,0,0,0.009766,6,6)">
        <path d="M1003,512C1026.333,512 1046.333,520.333 1063,537C1079.667,553.667 1088,573.667 1088,597L1088,1643C1088,1666.333 1079.667,1686.333 1063,1703C1046.333,1719.667 1026.333,1728 1003,1728L619,1728C611.667,1693.333 608,1661.333 608,1632C608,1578 618,1527 638,1479C657.333,1431 684.333,1388.333 719,1351C753,1313.667 793,1283.333 839,1260C885,1236 934,1221.333 986,1216L960,1216C876,1216 797,1200.333 723,1169C649,1137 584.667,1093.667 530,1039C474.667,983.667 431.333,919 400,845C368,771 352,692 352,608C352,592 352.667,576 354,560C355.333,544 357.333,528 360,512L1003,512Z" style="fill-opacity:0.2;fill-rule:nonzero;"/>
    </g>
    <g transform="matrix(0.009766,0,0,0.009766,6,6)">
        <path d="M1003,512C1026.333,512 1046.333,520.333 1063,537C1079.667,553.667 1088,573.667 1088,597L1088,1515C1088,1538.333 1079.667,1558.333 1063,1575C1046.333,1591.667 1026.333,1600 1003,1600L609,1600C613,1549.333 625.667,1502 647,1458C667.667,1413.333 694.667,1374 728,1340C761.333,1306 800,1278.333 844,1257C888,1235 934.667,1221.333 984,1216L960,1216C876,1216 797,1200.333 723,1169C649,1137 584.667,1093.667 530,1039C474.667,983.667 431.333,919 400,845C368,771 352,692 352,608C352,592 352.667,576 354,560C355.333,544 357.333,528 360,512L1003,512Z" style="fill-opacity:0.2;fill-rule:nonzero;"/>
    </g>
    <g transform="matrix(0.009766,0,0,0.009766,6,6)">
        <path d="M939,512C962.333,512 982.333,520.333 999,537C1015.667,553.667 1024,573.667 1024,597L1024,1515C1024,1538.333 1015.667,1558.333 999,1575C982.333,1591.667 962.333,1600 939,1600L609,1600C613,1549.333 625.667,1502 647,1458C667.667,1413.333 694.667,1374 728,1340C761.333,1306 800,1278.333 844,1257C888,1235 934.667,1221.333 984,1216L960,1216C876,1216 797,1200.333 723,1169C649,1137 584.667,1093.667 530,1039C474.667,983.667 431.333,919 400,845C368,771 352,692 352,608C352,592 352.667,576 354,560C355.333,544 357.333,528 360,512L939,512Z" style="fill-opacity:0.2;fill-rule:nonzero;"/>
    </g>
    <g transform="matrix(0.009766,0,0,0.009766,6,6)">
        <path d="M939,1536L85,1536C61.667,1536 41.667,1527.667 25,1511C8.333,1494.333 0,1474.333 0,1451L0,597C0,585.667 2.333,575 7,565C11,554.333 17,545.333 25,538C32.333,530 41.333,523.667 52,519C62,514.333 73,512 85,512L939,512C951,512 962.333,514.333 973,519C983,523.667 992,530 1000,538C1007.333,545.333 1013.333,554.333 1018,565C1022,575 1024,585.667 1024,597L1024,1451C1024,1474.333 1015.667,1494.333 999,1511C982.333,1527.667 962.333,1536 939,1536Z" style="fill:rgb(3,131,135);fill-rule:nonzero;"/>
    </g>
    <g transform="matrix(0.009766,0,0,0.009766,6,6)">
        <path d="M385,1018C361,1001.333 342.667,982 330,960C317.333,938.667 311,912 311,880C311,840 323,806 347,778C369,751.333 400.333,730.667 441,716C479,703.333 522,697 570,697C606,697 638,699 666,703C694,706.333 718.333,712 739,720L739,840C717.667,826.667 692.333,816.333 663,809C647.667,805.667 632.667,803 618,801C603.333,799 588.333,798 573,798C535.667,798 504.667,804.333 480,817C456,830.333 444,849 444,873C444,888.333 449,901.333 459,912C469.667,923.333 483.667,933.333 501,942C510.333,946.667 521.667,952 535,958C547.667,963.333 562.667,969.667 580,977L591,981C633.667,998.333 666.667,1014.667 690,1030C702,1038 713,1047 723,1057C732.333,1066.333 740.667,1077 748,1089C762,1112.333 769,1141.667 769,1177C769,1221.667 758,1257.333 736,1284C714,1312 684.333,1332 647,1344C609.667,1356 567.333,1362 520,1362C480,1362 442,1359 406,1353C369.333,1347 338,1338 312,1326L312,1199C338.667,1218.333 370.333,1233.333 407,1244C445,1255.333 479.333,1261 510,1261C551.333,1261 582.667,1254.333 604,1241C625.333,1227.667 636,1209 636,1185C636,1169 630,1154.333 618,1141C612.667,1135 606,1129.333 598,1124C589.333,1118 579.667,1112.333 569,1107C559,1101.667 546.333,1095.667 531,1089C515.667,1082.333 497.667,1074.667 477,1066C439,1049.333 408.333,1033.333 385,1018Z" style="fill:white;fill-rule:nonzero;"/>
    </g>
    <defs>
        <linearGradient id="_Linear1" x1="0" y1="0" x2="1" y2="0" gradientUnits="userSpaceOnUse" gradientTransform="matrix(4.048,32.383,-32.383,4.048,12.889,4)"><stop offset="0" style="stop-color:white;stop-opacity:1"/><stop offset="1" style="stop-color:rgb(235,235,235);stop-opacity:1"/></linearGradient>
        <radialGradient id="_Radial2" cx="0" cy="0" r="1" gradientUnits="userSpaceOnUse" gradientTransform="matrix(16.888872,25.333372,-21.923128,14.615381,14.222497,12.333058)"><stop offset="0" style="stop-color:white;stop-opacity:0.2"/><stop offset="0.18" style="stop-color:white;stop-opacity:0.2"/><stop offset="1" style="stop-color:rgb(184,184,184);stop-opacity:0.2"/></radialGradient>
        <linearGradient id="_Linear3" x1="0" y1="0" x2="1" y2="0" gradientUnits="userSpaceOnUse" gradientTransform="matrix(4.309,32.314,-32.314,4.309,14.333,4)"><stop offset="0" style="stop-color:rgb(187,187,187);stop-opacity:1"/><stop offset="1" style="stop-color:rgb(136,136,136);stop-opacity:1"/></linearGradient>
        <linearGradient id="_Linear4" x1="0" y1="0" x2="1" y2="0" gradientUnits="userSpaceOnUse" gradientTransform="matrix(9.733,12.355,-12.355,9.733,25.146,27.909)"><stop offset="0" style="stop-color:rgb(0,142,230);stop-opacity:1"/><stop offset="1" style="stop-color:rgb(0,96,148);stop-opacity:1"/></linearGradient>
        <linearGradient id="_Linear5" x1="0" y1="0" x2="1" y2="0" gradientUnits="userSpaceOnUse" gradientTransform="matrix(9.733,12.355,-12.355,9.733,25.146,27.909)"><stop offset="0" style="stop-color:rgb(0,142,230);stop-opacity:1"/><stop offset="1" style="stop-color:rgb(0,96,148);stop-opacity:1"/></linearGradient>
    </defs>
</svg>
