<svg xmlns="http://www.w3.org/2000/svg" xmlns:xlink="http://www.w3.org/1999/xlink" width="32" height="32" viewBox="2.5 2.5 29.5 30" fill="none">&#xa;<rect x="2.5" y="2.5" width="29.5" height="30" fill="none" stroke="none"/>&#xa;<rect x="3.5" y="3.5" width="25" height="25" rx="3" fill="url(#bvpaint0_linear_43065_31074)"/>&#xa;<rect x="3.5" y="3.5" width="25" height="25" rx="3" fill="url(#bvpaint1_radial_43065_31074)" fill-opacity="0.2"/>&#xa;<rect x="3.5" y="3.5" width="25" height="25" rx="3" stroke="url(#bvpaint2_linear_43065_31074)"/>&#xa;<path d="M16 12.3673C12.6864 12.3673 10 11.4261 10 10.1838V21.8165C10 23.0118 12.6396 23.9812 15.9158 24H16C19.3136 24 22 23.0588 22 21.8165V10.1838C22 11.3979 19.3136 12.3673 16 12.3673Z" fill="url(#bvpaint3_linear_43065_31074)"/>&#xa;<path d="M22 10.1835C22 11.3976 19.3136 12.367 16 12.367C12.6864 12.367 10 11.4258 10 10.1835C10 8.94116 12.6864 8 16 8C19.3136 8 22 8.94116 22 10.1835Z" fill="#E8E8E8"/>&#xa;<path d="M20.6062 10.0049C20.6062 10.7767 18.5376 11.3978 16.0009 11.3978C13.4643 11.3978 11.3956 10.7767 11.3956 10.0049C11.3956 9.23315 13.4643 8.6214 16.0009 8.6214C18.5376 8.6214 20.6062 9.24256 20.6062 10.0049Z" fill="#50E6FF"/>&#xa;<path d="M16.0003 10.3525C14.765 10.3208 13.5334 10.5022 12.3591 10.889C13.5346 11.2685 14.7665 11.4405 16.0003 11.3972C17.2366 11.4336 18.4695 11.2488 19.6415 10.8513C18.4638 10.4825 17.2332 10.3139 16.0003 10.3525Z" fill="#198AB3"/>&#xa;<path d="M19.6697 18.2586V15.0586H18.8227V18.9456H21.1379V18.2586H19.6697ZM12.9498 16.6868C12.7749 16.6165 12.6128 16.518 12.4698 16.3951C12.4319 16.355 12.4023 16.3076 12.3829 16.2559C12.3635 16.2042 12.3547 16.1491 12.3569 16.0939C12.354 16.0387 12.3655 15.9836 12.3902 15.9341C12.415 15.8846 12.4521 15.8424 12.4981 15.8116C12.6138 15.7315 12.7528 15.6918 12.8934 15.6986C13.2286 15.6836 13.5594 15.7795 13.8345 15.9716V15.1622C13.5338 15.0503 13.2139 14.9991 12.8934 15.0116C12.5241 14.9919 12.1601 15.1055 11.8675 15.3316C11.74 15.4299 11.6376 15.5571 11.5689 15.7028C11.5002 15.8484 11.467 16.0083 11.4722 16.1692C11.4722 16.6492 11.7734 17.0257 12.4134 17.308C12.6212 17.3962 12.8172 17.51 12.9969 17.6468C13.0409 17.6838 13.0763 17.7298 13.1007 17.7818C13.1251 17.8339 13.1378 17.8906 13.1381 17.948C13.1381 18.0051 13.1244 18.0614 13.0982 18.1122C13.072 18.1629 13.034 18.2067 12.9875 18.2398C12.8594 18.3148 12.7122 18.3507 12.5639 18.3433C12.1854 18.3402 11.8209 18.1997 11.5381 17.948V18.8233C11.8489 18.9835 12.1956 19.0613 12.5451 19.0492C12.9396 19.0726 13.3306 18.9632 13.6557 18.7386C13.7705 18.6298 13.8584 18.4958 13.9123 18.3471C13.9662 18.1984 13.9847 18.0392 13.9663 17.8821C13.9708 17.6412 13.8871 17.4069 13.731 17.2233C13.5111 16.9917 13.2449 16.8089 12.9498 16.6868ZM17.8815 18.1833C18.0952 17.8254 18.2029 17.4141 18.1921 16.9974C18.1708 16.6447 18.0642 16.3023 17.8815 15.9998C17.7346 15.7059 17.5058 15.4608 17.2227 15.2939C16.9358 15.1313 16.6113 15.047 16.2815 15.0492C15.9261 15.0414 15.575 15.1292 15.2651 15.3033C14.9745 15.4655 14.7362 15.7071 14.578 15.9998C14.4114 16.3326 14.3275 16.7006 14.3333 17.0727C14.3353 17.3996 14.4126 17.7217 14.5592 18.0139C14.7028 18.3046 14.9286 18.5468 15.2086 18.7103C15.4929 18.8837 15.817 18.9809 16.1498 18.9927L16.9592 19.9338H18.098L16.9403 18.8986C17.3302 18.7817 17.6645 18.5276 17.8815 18.1833ZM16.9403 17.948C16.8546 18.0544 16.7455 18.1395 16.6214 18.1967C16.4973 18.2538 16.3616 18.2815 16.2251 18.2774C16.0875 18.2818 15.9508 18.2534 15.8264 18.1945C15.702 18.1356 15.5935 18.0479 15.5098 17.9386C15.3108 17.6668 15.2142 17.3335 15.2368 16.9974C15.215 16.6614 15.3116 16.3284 15.5098 16.0563C15.5984 15.9471 15.7103 15.8591 15.8373 15.7989C15.9644 15.7386 16.1033 15.7076 16.2439 15.708C16.3813 15.7021 16.518 15.7309 16.6414 15.7918C16.7648 15.8526 16.8708 15.9436 16.9498 16.0563C17.1352 16.3337 17.2244 16.6644 17.2039 16.9974C17.2367 17.336 17.1428 17.6747 16.9403 17.948Z" fill="url(#bvpaint4_radial_43065_31074)"/>&#xa;<path d="M24.0003 22.7611C24.0003 22.0349 23.1485 21.6431 22.5971 22.1157L18.9433 25.2475C18.5843 25.5552 18.5454 26.0967 18.8568 26.4526L22.5106 30.6283C23.0274 31.219 24.0003 30.8534 24.0003 30.0686V22.7611Z" fill="url(#bvpaint5_linear_43065_31074)"/>&#xa;<path d="M24.9997 22.7611C24.9997 22.0349 25.8515 21.6431 26.4029 22.1157L30.0567 25.2475C30.4157 25.5552 30.4546 26.0967 30.1432 26.4526L26.4894 30.6283C25.9726 31.219 24.9997 30.8534 24.9997 30.0686V22.7611Z" fill="url(#bvpaint6_linear_43065_31074)"/>&#xa;<path fill-rule="evenodd" clip-rule="evenodd" d="M21.758 31.2868L18.1042 27.1111C17.4266 26.3366 17.5112 25.1579 18.2926 24.4882L21.9463 21.3564C22.7568 20.6617 23.8656 20.8252 24.5 21.4914C25.1344 20.8252 26.2432 20.6617 27.0537 21.3564L30.7075 24.4882C31.4888 25.1579 31.5735 26.3366 30.8958 27.1111L27.242 31.2868C26.4593 32.1813 25.1961 32.0682 24.5 31.3412C23.8039 32.0682 22.5407 32.1813 21.758 31.2868ZM23.9999 30.0943C23.9789 30.8613 23.0217 31.2125 22.5106 30.6283L18.8568 26.4526C18.5455 26.0967 18.5843 25.5552 18.9433 25.2475L22.5971 22.1157C23.142 21.6486 23.9802 22.0257 23.9999 22.7355C24.0002 22.744 24.0003 22.7525 24.0003 22.761V30.0686C24.0003 30.0772 24.0002 30.0858 23.9999 30.0943ZM25.0001 30.0943C25.0211 30.8613 25.9783 31.2125 26.4895 30.6283L30.1432 26.4526C30.4546 26.0967 30.4157 25.5552 30.0567 25.2475L26.4029 22.1157C25.8581 21.6486 25.0198 22.0257 25.0001 22.7355C24.9999 22.744 24.9998 22.7525 24.9998 22.761V30.0686C24.9998 30.0772 24.9999 30.0858 25.0001 30.0943Z" fill="#F5F5F5"/>&#xa;<defs>&#xa;<linearGradient id="bvpaint0_linear_43065_31074" x1="10.2222" y1="3" x2="13.5111" y2="29.3111" gradientUnits="userSpaceOnUse">&#xa;<stop stop-color="white"/>&#xa;<stop offset="1" stop-color="#EBEBEB"/>&#xa;</linearGradient>&#xa;<radialGradient id="bvpaint1_radial_43065_31074" cx="0" cy="0" r="1" gradientUnits="userSpaceOnUse" gradientTransform="translate(11.3056 9.77083) rotate(56.3099) scale(24.7381 21.408)">&#xa;<stop offset="0.177083" stop-color="white"/>&#xa;<stop offset="1" stop-color="#B8B8B8"/>&#xa;</radialGradient>&#xa;<linearGradient id="bvpaint2_linear_43065_31074" x1="11.3958" y1="3" x2="14.8966" y2="29.2555" gradientUnits="userSpaceOnUse">&#xa;<stop stop-color="#BBBBBB"/>&#xa;<stop offset="1" stop-color="#888888"/>&#xa;</linearGradient>&#xa;<linearGradient id="bvpaint3_linear_43065_31074" x1="10" y1="17.0919" x2="22" y2="17.0919" gradientUnits="userSpaceOnUse">&#xa;<stop stop-color="#005BA1"/>&#xa;<stop offset="0.07" stop-color="#0060A9"/>&#xa;<stop offset="0.36" stop-color="#0071C8"/>&#xa;<stop offset="0.52" stop-color="#0078D4"/>&#xa;<stop offset="0.64" stop-color="#0074CD"/>&#xa;<stop offset="0.82" stop-color="#006ABB"/>&#xa;<stop offset="1" stop-color="#005BA1"/>&#xa;</linearGradient>&#xa;<radialGradient id="bvpaint4_radial_43065_31074" cx="0" cy="0" r="1" gradientUnits="userSpaceOnUse" gradientTransform="translate(16.338 17.4774) scale(6.654)">&#xa;<stop stop-color="#F2F2F2"/>&#xa;<stop offset="0.58" stop-color="#EEEEEE"/>&#xa;<stop offset="1" stop-color="#E6E6E6"/>&#xa;</radialGradient>&#xa;<linearGradient id="bvpaint5_linear_43065_31074" x1="18.6465" y1="21.9094" x2="27.3572" y2="33.2265" gradientUnits="userSpaceOnUse">&#xa;<stop stop-color="#008EE6"/>&#xa;<stop offset="1" stop-color="#006094"/>&#xa;</linearGradient>&#xa;<linearGradient id="bvpaint6_linear_43065_31074" x1="18.6465" y1="21.9094" x2="27.3572" y2="33.2265" gradientUnits="userSpaceOnUse">&#xa;<stop stop-color="#008EE6"/>&#xa;<stop offset="1" stop-color="#006094"/>&#xa;</linearGradient>&#xa;</defs>&#xa;</svg>