<svg xmlns="http://www.w3.org/2000/svg" width="77.73548061676071" height="79.29016052624675" fill="currentColor" viewBox="3 3 28.35393524169922 28.922077178955078">&#xa;    <path fill="url(#bsa)" d="M3 6.5A3.5 3.5 0 0 1 6.5 3h19A3.5 3.5 0 0 1 29 6.5v19a3.5 3.5 0 0 1-3.5 3.5h-19A3.5 3.5 0 0 1 3 25.5v-19Z"/>&#xa;    <path fill="url(#bsb)" fill-opacity=".2" d="M3 6.5A3.5 3.5 0 0 1 6.5 3h19A3.5 3.5 0 0 1 29 6.5v19a3.5 3.5 0 0 1-3.5 3.5h-19A3.5 3.5 0 0 1 3 25.5v-19Z"/>&#xa;    <path fill="url(#bsc)" fill-rule="evenodd" d="M25.5 4h-19A2.5 2.5 0 0 0 4 6.5v19A2.5 2.5 0 0 0 6.5 28h19a2.5 2.5 0 0 0 2.5-2.5v-19A2.5 2.5 0 0 0 25.5 4Zm-19-1A3.5 3.5 0 0 0 3 6.5v19A3.5 3.5 0 0 0 6.5 29h19a3.5 3.5 0 0 0 3.5-3.5v-19A3.5 3.5 0 0 0 25.5 3h-19Z" clip-rule="evenodd"/>&#xa;    <path fill="url(#bsd)" d="M16 12.569c-3.147 0-5.698-.889-5.698-2.062v10.986c0 1.13 2.507 2.045 5.618 2.063H16c3.147 0 5.698-.89 5.698-2.063V10.507c0 1.137-2.551 2.062-5.698 2.062Z"/>&#xa;    <path fill="#E8E8E8" d="M21.698 10.507c0 1.137-2.551 2.062-5.698 2.062-3.147 0-5.698-.889-5.698-2.062 0-1.174 2.551-2.063 5.698-2.063 3.147 0 5.698.89 5.698 2.063Z"/>&#xa;    <path fill="#50E6FF" d="M20.364 10.338c0 .729-1.955 1.315-4.364 1.315s-4.373-.586-4.373-1.306c0-.72 1.955-1.316 4.373-1.316s4.364.587 4.364 1.307Z"/>&#xa;    <path fill="#198AB3" d="M16 10.667a10.355 10.355 0 0 0-3.467.506c1.12.358 2.293.52 3.467.48a10.197 10.197 0 0 0 3.458-.515A10.605 10.605 0 0 0 16 10.667Z"/>&#xa;    <path fill="#F2F2F2" d="M18.667 16v.373c-.036.185-.06.372-.071.56 0 .107 0 .267.044.41.044.141 0 .24 0 .32-.003.27-.08.534-.222.764a.38.38 0 0 0 0 .062l.089.107c.4-.664.716-1.375.942-2.116.249-.844.275-1.449.08-1.707a2.293 2.293 0 0 0-2.382-.764c.302.15.575.352.809.595a2.03 2.03 0 0 1 .71 1.396Zm-.276.071a1.022 1.022 0 0 0-.702.08c-.258.16-.178.489 0 .889a6.9 6.9 0 0 0 .311.756l.08.142c.044.07.071.133.098.178l.07.115c.105-.175.16-.374.16-.578a2.562 2.562 0 0 0 0-.293c0-.151 0-.32-.044-.436a5.28 5.28 0 0 1 .072-.613.687.687 0 0 1-.01-.267l-.035.027Zm-.267.365a.355.355 0 0 1-.16.088.293.293 0 0 1-.124 0 .204.204 0 0 1-.062-.168c0-.063.098-.116.213-.134h.169s.08 0 .08.071a.177.177 0 0 1-.08.116l-.036.027Zm-4.168.79v-.15a.909.909 0 0 0 0-.152 4.923 4.923 0 0 1 0-.888 4.64 4.64 0 0 1 .266-.978c.105-.315.282-.6.516-.836a4.253 4.253 0 0 0-1.2-.178 1.663 1.663 0 0 0-.978.267A1.777 1.777 0 0 0 12 15.93c.086.676.234 1.343.444 1.991.303 1.013.65 1.636.952 1.733.133.045.275 0 .417-.186.25-.303.48-.56.614-.711a1.672 1.672 0 0 1-.436-1.556l-.035.027Zm.23.356c-.003.168.015.335.054.498.054.143.132.275.231.391a.95.95 0 0 0 .311.222.94.94 0 0 0 .347.071c0-.15.124-.337.204-.533.075-.17.137-.345.187-.524a5.868 5.868 0 0 0 0-.987c0-.08 0-.169-.053-.267a.4.4 0 0 0-.107-.24.587.587 0 0 0-.249-.142h-.178c-.148.018-.292.06-.426.125-.1.047-.195.103-.285.168v.64a.762.762 0 0 1 0 .134v.346l-.035.098Zm.587-1.19a.408.408 0 0 1 .25 0 .534.534 0 0 1 .168.052c.08 0 .089.098.08.125a.328.328 0 0 1-.107.115.267.267 0 0 1-.053-.035.302.302 0 0 1-.249-.249l-.089-.009Zm.658 2.666a.204.204 0 0 0-.115.053l-.125.151c-.151.187-.213.25-.649.338a.462.462 0 0 0-.23.089.517.517 0 0 0 .212.098c.209.066.432.066.64 0 .126-.061.243-.139.347-.231a.542.542 0 0 0 .178-.276.319.319 0 0 0-.089-.249.133.133 0 0 0-.133-.018l-.036.045Zm4.098 0c-.324.12-.68.12-1.005 0a.195.195 0 0 0-.124 0 .267.267 0 0 0-.151.124.971.971 0 0 0 0 .276 1.6 1.6 0 0 0 .978-.09 1.21 1.21 0 0 0 .426-.301l-.124-.01Zm-2.133-1.902c-.125-.365-.303-.89.16-1.21a1.2 1.2 0 0 1 .79-.133 2.828 2.828 0 0 0-.568-1.022l-.09-.089-.052-.053a.3.3 0 0 0-.054-.053 2.08 2.08 0 0 0-.595-.374 2.338 2.338 0 0 0-.987-.195 1.351 1.351 0 0 0-.622.097 1.58 1.58 0 0 0-.267.098 1.867 1.867 0 0 0-.658.89c-.088.29-.15.587-.186.888.267-.16.578-.232.889-.204a.747.747 0 0 1 .684.808c.033.376.033.754 0 1.13-.052.192-.12.379-.204.56-.054.15-.125.31-.16.435a.443.443 0 0 1 .337.124.586.586 0 0 1 .17.471H16v.214c-.066.73.006 1.466.213 2.169a.48.48 0 0 0 .214.186.532.532 0 0 0 .275.09 1.155 1.155 0 0 0 .89-.303.933.933 0 0 0 .257-.587c.062-.4.195-1.51.213-1.777a.64.64 0 0 1 .08-.392.56.56 0 0 1 .24-.213 4.765 4.765 0 0 1-.95-1.609l-.036.054Z"/>&#xa;    <path fill="url(#bse)" d="M24 22.761a.85.85 0 0 0-1.403-.645l-3.654 3.131a.85.85 0 0 0-.086 1.206l3.654 4.175c.516.591 1.49.225 1.49-.56v-7.307Z"/>&#xa;    <path fill="url(#bsf)" d="M25 22.761a.85.85 0 0 1 1.403-.645l3.654 3.131a.85.85 0 0 1 .086 1.206l-3.654 4.175c-.516.591-1.49.225-1.49-.56v-7.307Z"/>&#xa;    <path fill="#F5F5F5" fill-rule="evenodd" d="m21.758 31.287-3.654-4.176a1.85 1.85 0 0 1 .189-2.623l3.653-3.132c.81-.694 1.92-.53 2.554.135.634-.666 1.743-.83 2.554-.135l3.654 3.132a1.85 1.85 0 0 1 .188 2.623l-3.654 4.176c-.783.894-2.046.781-2.742.054-.696.727-1.96.84-2.742-.054ZM24 30.094c-.021.767-.978 1.118-1.49.534l-3.653-4.175a.85.85 0 0 1 .086-1.206l3.654-3.131A.85.85 0 0 1 24 22.76v7.308a.73.73 0 0 1 0 .025Zm1 0c.021.767.978 1.118 1.49.534l3.653-4.175a.85.85 0 0 0-.086-1.206l-3.654-3.131A.85.85 0 0 0 25 22.76v7.333Z" clip-rule="evenodd"/>&#xa;    <defs>&#xa;        <linearGradient id="bsa" x1="10.222" x2="13.511" y1="3" y2="29.311" gradientUnits="userSpaceOnUse">&#xa;            <stop stop-color="#fff"/>&#xa;            <stop offset="1" stop-color="#EBEBEB"/>&#xa;        </linearGradient>&#xa;        <linearGradient id="bsc" x1="11.396" x2="14.897" y1="3" y2="29.256" gradientUnits="userSpaceOnUse">&#xa;            <stop stop-color="#BBB"/>&#xa;            <stop offset="1" stop-color="#888"/>&#xa;        </linearGradient>&#xa;        <linearGradient id="bsd" x1="10.295" x2="21.699" y1="17.04" y2="17.038" gradientUnits="userSpaceOnUse">&#xa;            <stop stop-color="#005BA1"/>&#xa;            <stop offset=".07" stop-color="#0060A9"/>&#xa;            <stop offset=".36" stop-color="#0071C8"/>&#xa;            <stop offset=".52" stop-color="#0078D4"/>&#xa;            <stop offset=".64" stop-color="#0074CD"/>&#xa;            <stop offset=".82" stop-color="#006ABB"/>&#xa;            <stop offset="1" stop-color="#005BA1"/>&#xa;        </linearGradient>&#xa;        <linearGradient id="bse" x1="18.646" x2="27.357" y1="21.909" y2="33.227" gradientUnits="userSpaceOnUse">&#xa;            <stop stop-color="#008EE6"/>&#xa;            <stop offset="1" stop-color="#006094"/>&#xa;        </linearGradient>&#xa;        <linearGradient id="bsf" x1="18.646" x2="27.357" y1="21.909" y2="33.227" gradientUnits="userSpaceOnUse">&#xa;            <stop stop-color="#008EE6"/>&#xa;            <stop offset="1" stop-color="#006094"/>&#xa;        </linearGradient>&#xa;        <radialGradient id="bsb" cx="0" cy="0" r="1" gradientTransform="matrix(13.7222 20.58336 -17.81255 11.875 11.306 9.771)" gradientUnits="userSpaceOnUse">&#xa;            <stop offset=".177" stop-color="#fff"/>&#xa;            <stop offset="1" stop-color="#B8B8B8"/>&#xa;        </radialGradient>&#xa;    </defs>&#xa;</svg>