<svg xmlns="http://www.w3.org/2000/svg" width="77.72706058984215" height="79.28985258853433" viewBox="3 3 28.353557586669922 28.92226219177246" fill="none">&#xa;<path d="M3 6.5C3 4.567 4.567 3 6.5 3H25.5C27.433 3 29 4.567 29 6.5V25.5C29 27.433 27.433 29 25.5 29H6.5C4.567 29 3 27.433 3 25.5V6.5Z" fill="url(#nmpaint0_linear_61511_1545)"/>&#xa;<path d="M3 6.5C3 4.567 4.567 3 6.5 3H25.5C27.433 3 29 4.567 29 6.5V25.5C29 27.433 27.433 29 25.5 29H6.5C4.567 29 3 27.433 3 25.5V6.5Z" fill="url(#nmpaint1_radial_61511_1545)" fill-opacity="0.2"/>&#xa;<path fill-rule="evenodd" clip-rule="evenodd" d="M25.5 4H6.5C5.11929 4 4 5.11929 4 6.5V25.5C4 26.8807 5.11929 28 6.5 28H25.5C26.8807 28 28 26.8807 28 25.5V6.5C28 5.11929 26.8807 4 25.5 4ZM6.5 3C4.567 3 3 4.567 3 6.5V25.5C3 27.433 4.567 29 6.5 29H25.5C27.433 29 29 27.433 29 25.5V6.5C29 4.567 27.433 3 25.5 3H6.5Z" fill="url(#nmpaint2_linear_61511_1545)"/>&#xa;<path d="M24.0003 22.7611C24.0003 22.0349 23.1485 21.6431 22.5971 22.1157L18.9433 25.2475C18.5843 25.5552 18.5454 26.0967 18.8568 26.4526L22.5106 30.6283C23.0274 31.219 24.0003 30.8534 24.0003 30.0686V22.7611Z" fill="url(#nmpaint3_linear_61511_1545)"/>&#xa;<path d="M24.9997 22.7611C24.9997 22.0349 25.8515 21.6431 26.4029 22.1157L30.0567 25.2475C30.4157 25.5552 30.4546 26.0967 30.1432 26.4526L26.4894 30.6283C25.9726 31.219 24.9997 30.8534 24.9997 30.0686V22.7611Z" fill="url(#nmpaint4_linear_61511_1545)"/>&#xa;<path fill-rule="evenodd" clip-rule="evenodd" d="M21.758 31.2868L18.1042 27.1111C17.4266 26.3366 17.5112 25.1579 18.2926 24.4882L21.9463 21.3564C22.7568 20.6617 23.8656 20.8252 24.5 21.4914C25.1344 20.8252 26.2432 20.6617 27.0537 21.3564L30.7075 24.4882C31.4888 25.1579 31.5735 26.3366 30.8958 27.1111L27.242 31.2868C26.4593 32.1813 25.1961 32.0682 24.5 31.3412C23.8039 32.0682 22.5407 32.1813 21.758 31.2868ZM23.9999 30.0943C23.9789 30.8613 23.0217 31.2125 22.5106 30.6283L18.8568 26.4526C18.5455 26.0967 18.5843 25.5552 18.9433 25.2475L22.5971 22.1157C23.142 21.6486 23.9802 22.0257 23.9999 22.7355C24.0002 22.744 24.0003 22.7525 24.0003 22.761V30.0686C24.0003 30.0772 24.0002 30.0858 23.9999 30.0943ZM25.0001 30.0943C25.0211 30.8613 25.9783 31.2125 26.4895 30.6283L30.1432 26.4526C30.4546 26.0967 30.4157 25.5552 30.0567 25.2475L26.4029 22.1157C25.8581 21.6486 25.0198 22.0257 25.0001 22.7355C24.9999 22.744 24.9998 22.7525 24.9998 22.761V30.0686C24.9998 30.0772 24.9999 30.0858 25.0001 30.0943Z" fill="#F5F5F5"/>&#xa;<path d="M7 11.5V20.5H16.1125L25 11.5H7Z" fill="url(#nmpaint5_linear_61511_1545)"/>&#xa;<path d="M18.3625 19.6V20.275H18.475V19.9375H18.5875L18.8125 20.275H18.925L18.7 19.9375C18.8125 19.9375 18.925 19.825 18.925 19.7125C18.925 19.6 18.8125 19.4875 18.7 19.4875L18.3625 19.6ZM18.475 19.7125H18.5875C18.7 19.7125 18.7 19.7125 18.7 19.825C18.7 19.9375 18.5875 19.9375 18.5875 19.9375H18.475V19.7125ZM18.5875 19.375C18.25 19.375 18.025 19.6 18.025 19.9375C18.025 20.275 18.25 20.5 18.5875 20.5C18.925 20.5 19.15 20.275 19.15 19.9375C19.15 19.6 18.925 19.375 18.5875 19.375ZM18.5875 19.4875C18.8125 19.4875 19.0375 19.7125 19.0375 19.9375C19.0375 20.1625 18.8125 20.3875 18.5875 20.3875C18.3625 20.3875 18.1375 20.1625 18.1375 19.9375C18.1375 19.6 18.3625 19.4875 18.5875 19.4875Z" fill="#1870C5"/>&#xa;<path d="M17.6875 15.775H17.35V14.425H17.6875C18.25 14.425 18.5875 14.65 18.5875 15.1C18.5875 15.6625 18.25 15.775 17.6875 15.775ZM13.525 16.9C13.3 16.9 13.075 16.9 12.9625 16.7875L13.525 14.9875L14.0875 16.7875C13.8625 16.7875 13.75 16.9 13.525 16.9ZM17.575 13.1875H15.775V17.4625L14.3125 13.1875H12.7375L11.5 16.7875C11.275 15.8875 10.375 15.55 9.70001 15.325C9.25001 15.2125 8.68751 14.9875 8.68751 14.65C8.68751 14.425 8.91251 14.2 9.47501 14.3125C9.81251 14.3125 10.15 14.3125 10.7125 14.65L11.275 13.525C10.825 13.3 10.0375 13.075 9.36251 13.075C8.68751 13.075 8.01251 13.4125 7.67501 13.75C7.33751 14.0875 7.22501 14.425 7.22501 14.875C7.22501 15.4375 7.45001 15.775 7.78751 16.1125C8.12501 16.3375 8.57501 16.45 9.02501 16.675C9.47501 16.7875 9.92501 17.0125 9.92501 17.2375C9.92501 17.35 9.92501 17.4625 9.81251 17.4625C9.70001 17.575 9.47501 17.6875 9.25001 17.6875C8.80001 17.6875 8.35001 17.575 7.78751 17.2375L7.22501 18.3625C7.78751 18.7 8.46251 18.925 9.25001 18.925H9.36251C9.92501 18.925 10.4875 18.7 10.825 18.3625L10.9375 18.25L10.7125 18.8125H12.2875L12.625 17.9125C12.85 18.025 13.1875 18.025 13.525 18.025C13.8625 18.025 14.2 18.025 14.425 17.9125L14.65 18.7H17.2375V17.0125H17.8C19.15 17.0125 19.9375 16.3375 19.9375 15.1C20.05 13.8625 19.2625 13.1875 17.575 13.1875Z" fill="white"/>&#xa;<defs>&#xa;<linearGradient id="nmpaint0_linear_61511_1545" x1="10.2222" y1="3" x2="13.5111" y2="29.3111" gradientUnits="userSpaceOnUse">&#xa;<stop stop-color="white"/>&#xa;<stop offset="1" stop-color="#EBEBEB"/>&#xa;</linearGradient>&#xa;<radialGradient id="nmpaint1_radial_61511_1545" cx="0" cy="0" r="1" gradientTransform="matrix(13.7222 20.5833 -20.5833 7.71875 11.3056 9.77083)" gradientUnits="userSpaceOnUse">&#xa;<stop offset="0.177083" stop-color="white"/>&#xa;<stop offset="1" stop-color="#B8B8B8"/>&#xa;</radialGradient>&#xa;<linearGradient id="nmpaint2_linear_61511_1545" x1="11.3958" y1="3" x2="14.8966" y2="29.2555" gradientUnits="userSpaceOnUse">&#xa;<stop stop-color="#BBBBBB"/>&#xa;<stop offset="1" stop-color="#888888"/>&#xa;</linearGradient>&#xa;<linearGradient id="nmpaint3_linear_61511_1545" x1="18.6465" y1="21.9094" x2="27.3572" y2="33.2265" gradientUnits="userSpaceOnUse">&#xa;<stop stop-color="#008EE6"/>&#xa;<stop offset="1" stop-color="#006094"/>&#xa;</linearGradient>&#xa;<linearGradient id="nmpaint4_linear_61511_1545" x1="18.6465" y1="21.9094" x2="27.3572" y2="33.2265" gradientUnits="userSpaceOnUse">&#xa;<stop stop-color="#008EE6"/>&#xa;<stop offset="1" stop-color="#006094"/>&#xa;</linearGradient>&#xa;<linearGradient id="nmpaint5_linear_61511_1545" x1="16" y1="11.5" x2="16" y2="20.5" gradientUnits="userSpaceOnUse">&#xa;<stop stop-color="#00B8F1"/>&#xa;<stop offset="0.2199" stop-color="#06A5E5"/>&#xa;<stop offset="0.7943" stop-color="#1870C5"/>&#xa;<stop offset="1" stop-color="#1D61BC"/>&#xa;</linearGradient>&#xa;</defs>&#xa;</svg>