<svg xmlns="http://www.w3.org/2000/svg" width="77.73548061676071" height="79.29016052624675" fill="none" viewBox="3 3 28.35393524169922 28.922077178955078">&#xa;  <path fill="url(#bpa)" d="M3 6.5A3.5 3.5 0 0 1 6.5 3h19A3.5 3.5 0 0 1 29 6.5v19a3.5 3.5 0 0 1-3.5 3.5h-19A3.5 3.5 0 0 1 3 25.5v-19Z"/>&#xa;  <path fill="url(#bpb)" fill-opacity=".2" d="M3 6.5A3.5 3.5 0 0 1 6.5 3h19A3.5 3.5 0 0 1 29 6.5v19a3.5 3.5 0 0 1-3.5 3.5h-19A3.5 3.5 0 0 1 3 25.5v-19Z"/>&#xa;  <path fill="url(#bpc)" fill-rule="evenodd" d="M25.5 4h-19A2.5 2.5 0 0 0 4 6.5v19A2.5 2.5 0 0 0 6.5 28h19a2.5 2.5 0 0 0 2.5-2.5v-19A2.5 2.5 0 0 0 25.5 4Zm-19-1A3.5 3.5 0 0 0 3 6.5v19A3.5 3.5 0 0 0 6.5 29h19a3.5 3.5 0 0 0 3.5-3.5v-19A3.5 3.5 0 0 0 25.5 3h-19Z" clip-rule="evenodd"/>&#xa;  <g clip-path="url(#bpd)">&#xa;    <path fill="url(#bpe)" d="M16 12.354c-3.343 0-6.054-.944-6.054-2.19v11.673c0 1.2 2.664 2.172 5.969 2.19H16c3.343 0 6.054-.944 6.054-2.19V10.163c0 1.219-2.71 2.191-6.054 2.191Z"/>&#xa;    <path fill="#E8E8E8" d="M22.054 10.163c0 1.219-2.71 2.191-6.054 2.191-3.343 0-6.054-.944-6.054-2.19 0-1.247 2.71-2.192 6.054-2.192 3.343 0 6.054.945 6.054 2.191Z"/>&#xa;    <path fill="#50E6FF" d="M20.647 9.984c0 .774-2.088 1.398-4.647 1.398-2.56 0-4.647-.624-4.647-1.398 0-.775 2.088-1.388 4.647-1.388 2.56 0 4.647.623 4.647 1.388Z"/>&#xa;    <path fill="#198AB3" d="M16 10.333a10.909 10.909 0 0 0-3.674.539c1.186.38 2.43.553 3.674.51a10.533 10.533 0 0 0 3.674-.548c-1.188-.37-2.43-.54-3.674-.5Z"/>&#xa;    <path fill="#F2F2F2" d="M19.438 16v1.54h-.945a.367.367 0 0 1-.274-.133V16h-1.275v1.681a.869.869 0 0 0 .945.84h1.407l.246-.122s-.104.387-.246.406h-2.248v.944h2.513a1.142 1.142 0 0 0 1.161-1.199V16h-1.284ZM16.5 16v-.463a.66.66 0 0 0-.453-.727 1.642 1.642 0 0 0-.472-.075.888.888 0 0 0-.86.547l-.736 1.795-.945-1.795a.879.879 0 0 0-.812-.547 1.36 1.36 0 0 0-.482.085c-.33.103-.406.32-.406.689v3.126h1.105v-2.106l.595 1.483a1.02 1.02 0 0 0 .945.623c.415 0 .585-.245.755-.623l.633-1.426v2.03h1.114V16h.02Z"/>&#xa;  </g>&#xa;  <path fill="url(#bpf)" d="M24 22.761a.85.85 0 0 0-1.403-.645l-3.654 3.131a.85.85 0 0 0-.086 1.206l3.654 4.175c.516.591 1.49.225 1.49-.56v-7.307Z"/>&#xa;  <path fill="url(#bpg)" d="M25 22.761a.85.85 0 0 1 1.403-.645l3.654 3.131a.85.85 0 0 1 .086 1.206l-3.654 4.175c-.516.591-1.49.225-1.49-.56v-7.307Z"/>&#xa;  <path fill="#F5F5F5" fill-rule="evenodd" d="m21.758 31.287-3.654-4.176a1.85 1.85 0 0 1 .189-2.623l3.653-3.131c.81-.695 1.92-.532 2.554.134.634-.666 1.743-.83 2.554-.134l3.654 3.131a1.85 1.85 0 0 1 .188 2.623l-3.654 4.176c-.783.894-2.046.781-2.742.054-.696.727-1.96.84-2.742-.054ZM24 30.094c-.021.767-.978 1.118-1.49.534l-3.653-4.175a.85.85 0 0 1 .086-1.206l3.654-3.131A.85.85 0 0 1 24 22.76v7.308a.73.73 0 0 1 0 .025Zm1 0c.021.767.978 1.118 1.49.534l3.653-4.175a.85.85 0 0 0-.086-1.206l-3.654-3.131A.85.85 0 0 0 25 22.76v7.333Z" clip-rule="evenodd"/>&#xa;  <defs>&#xa;    <linearGradient id="bpa" x1="10.222" x2="13.511" y1="3" y2="29.311" gradientUnits="userSpaceOnUse">&#xa;      <stop stop-color="#fff"/>&#xa;      <stop offset="1" stop-color="#EBEBEB"/>&#xa;    </linearGradient>&#xa;    <linearGradient id="bpc" x1="11.396" x2="14.897" y1="3" y2="29.256" gradientUnits="userSpaceOnUse">&#xa;      <stop stop-color="#BBB"/>&#xa;      <stop offset="1" stop-color="#888"/>&#xa;    </linearGradient>&#xa;    <linearGradient id="bpe" x1="9.946" x2="22.054" y1="17.096" y2="17.096" gradientUnits="userSpaceOnUse">&#xa;      <stop stop-color="#005BA1"/>&#xa;      <stop offset=".07" stop-color="#0060A9"/>&#xa;      <stop offset=".36" stop-color="#0071C8"/>&#xa;      <stop offset=".52" stop-color="#0078D4"/>&#xa;      <stop offset=".64" stop-color="#0074CD"/>&#xa;      <stop offset=".82" stop-color="#006ABB"/>&#xa;      <stop offset="1" stop-color="#005BA1"/>&#xa;    </linearGradient>&#xa;    <linearGradient id="bpf" x1="18.646" x2="27.357" y1="21.909" y2="33.227" gradientUnits="userSpaceOnUse">&#xa;      <stop stop-color="#008EE6"/>&#xa;      <stop offset="1" stop-color="#006094"/>&#xa;    </linearGradient>&#xa;    <linearGradient id="bpg" x1="18.646" x2="27.357" y1="21.909" y2="33.227" gradientUnits="userSpaceOnUse">&#xa;      <stop stop-color="#008EE6"/>&#xa;      <stop offset="1" stop-color="#006094"/>&#xa;    </linearGradient>&#xa;    <radialGradient id="bpb" cx="0" cy="0" r="1" gradientTransform="matrix(13.7222 20.58336 -17.81255 11.875 11.306 9.771)" gradientUnits="userSpaceOnUse">&#xa;      <stop offset=".177" stop-color="#fff"/>&#xa;      <stop offset="1" stop-color="#B8B8B8"/>&#xa;    </radialGradient>&#xa;    <clipPath id="bpd">&#xa;      <path fill="#fff" d="M7.5 7.5h17v17h-17z"/>&#xa;    </clipPath>&#xa;  </defs>&#xa;</svg>