<svg xmlns="http://www.w3.org/2000/svg" width="77.72706058984215" height="79.28985258853433" viewBox="3 3 28.353557586669922 28.92226219177246" fill="none">&#xa;<path d="M3 6.5C3 4.567 4.567 3 6.5 3H25.5C27.433 3 29 4.567 29 6.5V25.5C29 27.433 27.433 29 25.5 29H6.5C4.567 29 3 27.433 3 25.5V6.5Z" fill="url(#jmpaint0_linear_64884_646)"/>&#xa;<path d="M3 6.5C3 4.567 4.567 3 6.5 3H25.5C27.433 3 29 4.567 29 6.5V25.5C29 27.433 27.433 29 25.5 29H6.5C4.567 29 3 27.433 3 25.5V6.5Z" fill="url(#jmpaint1_radial_64884_646)" fill-opacity="0.2"/>&#xa;<path fill-rule="evenodd" clip-rule="evenodd" d="M25.5 4H6.5C5.11929 4 4 5.11929 4 6.5V25.5C4 26.8807 5.11929 28 6.5 28H25.5C26.8807 28 28 26.8807 28 25.5V6.5C28 5.11929 26.8807 4 25.5 4ZM6.5 3C4.567 3 3 4.567 3 6.5V25.5C3 27.433 4.567 29 6.5 29H25.5C27.433 29 29 27.433 29 25.5V6.5C29 4.567 27.433 3 25.5 3H6.5Z" fill="url(#jmpaint2_linear_64884_646)"/>&#xa;<path d="M24.0003 22.7611C24.0003 22.0349 23.1485 21.6431 22.5971 22.1157L18.9433 25.2475C18.5843 25.5552 18.5454 26.0967 18.8568 26.4526L22.5106 30.6283C23.0274 31.219 24.0003 30.8534 24.0003 30.0686V22.7611Z" fill="url(#jmpaint3_linear_64884_646)"/>&#xa;<path d="M24.9997 22.7611C24.9997 22.0349 25.8515 21.6431 26.4029 22.1157L30.0567 25.2475C30.4157 25.5552 30.4546 26.0967 30.1432 26.4526L26.4894 30.6283C25.9726 31.219 24.9997 30.8534 24.9997 30.0686V22.7611Z" fill="url(#jmpaint4_linear_64884_646)"/>&#xa;<path fill-rule="evenodd" clip-rule="evenodd" d="M21.758 31.2868L18.1042 27.1111C17.4266 26.3366 17.5112 25.1579 18.2926 24.4882L21.9463 21.3564C22.7568 20.6617 23.8656 20.8252 24.5 21.4914C25.1344 20.8252 26.2432 20.6617 27.0537 21.3564L30.7075 24.4882C31.4888 25.1579 31.5735 26.3366 30.8958 27.1111L27.242 31.2868C26.4593 32.1813 25.1961 32.0682 24.5 31.3412C23.8039 32.0682 22.5407 32.1813 21.758 31.2868ZM23.9999 30.0943C23.9789 30.8613 23.0217 31.2125 22.5106 30.6283L18.8568 26.4526C18.5455 26.0967 18.5843 25.5552 18.9433 25.2475L22.5971 22.1157C23.142 21.6486 23.9802 22.0257 23.9999 22.7355C24.0002 22.744 24.0003 22.7525 24.0003 22.761V30.0686C24.0003 30.0772 24.0002 30.0858 23.9999 30.0943ZM25.0001 30.0943C25.0211 30.8613 25.9783 31.2125 26.4895 30.6283L30.1432 26.4526C30.4546 26.0967 30.4157 25.5552 30.0567 25.2475L26.4029 22.1157C25.8581 21.6486 25.0198 22.0257 25.0001 22.7355C24.9999 22.744 24.9998 22.7525 24.9998 22.761V30.0686C24.9998 30.0772 24.9999 30.0858 25.0001 30.0943Z" fill="#F5F5F5"/>&#xa;<mask id="jmmask0_64884_646" style="mask-type:alpha" maskUnits="userSpaceOnUse" x="8" y="10" width="16" height="12">&#xa;<path d="M8 21.646V10.3539H24V21.646H8Z" fill="white"/>&#xa;</mask>&#xa;<g mask="url(#jmmask0_64884_646)">&#xa;<path fill-rule="evenodd" clip-rule="evenodd" d="M14.6582 11.5855C15.1742 11.0433 15.8927 10.7071 16.6872 10.7071C17.7434 10.7071 18.6648 11.3009 19.1556 12.1825C19.582 11.9904 20.054 11.8835 20.5507 11.8835C22.4556 11.8835 24 13.4543 24 15.3919C24 17.3296 22.4556 18.9004 20.5507 18.9004C20.3182 18.9004 20.0909 18.877 19.8712 18.8322C19.4391 19.6094 18.6156 20.1345 17.6704 20.1345C17.2748 20.1345 16.9005 20.0424 16.5673 19.8785C16.1292 20.9175 15.1086 21.646 13.9191 21.646C12.6803 21.646 11.6246 20.8557 11.2194 19.7473C11.0423 19.7852 10.8588 19.805 10.6705 19.805C9.19568 19.805 8 18.587 8 17.0842C8 16.0772 8.53721 15.1979 9.33538 14.7275C9.17106 14.3462 9.07967 13.9254 9.07967 13.483C9.07967 11.7548 10.4711 10.3539 12.1874 10.3539C13.195 10.3539 14.0905 10.8369 14.6582 11.5855Z" fill="#00A1E0"/>&#xa;</g>&#xa;<path fill-rule="evenodd" clip-rule="evenodd" d="M10.2642 16.2178C10.2548 16.245 10.2677 16.2506 10.2706 16.2554C10.2989 16.2781 10.3275 16.2944 10.3564 16.3126C10.5095 16.4024 10.654 16.4286 10.8052 16.4286C11.1131 16.4286 11.3043 16.2476 11.3043 15.9561V15.9505C11.3043 15.681 11.0886 15.5831 10.8861 15.5125L10.8597 15.503C10.7071 15.4482 10.5754 15.4009 10.5754 15.2898V15.2839C10.5754 15.1889 10.6523 15.1189 10.7717 15.1189C10.9042 15.1189 11.0616 15.1676 11.163 15.2295C11.163 15.2295 11.1927 15.2508 11.2036 15.2189C11.2096 15.2019 11.2609 15.0492 11.2663 15.0326C11.272 15.0147 11.2618 15.0014 11.2513 14.9943C11.1356 14.9166 10.9757 14.8634 10.8101 14.8634L10.7794 14.8636C10.4975 14.8636 10.3008 15.0518 10.3008 15.3215V15.3271C10.3008 15.6115 10.5178 15.7037 10.7212 15.768L10.7539 15.7791C10.9021 15.8294 11.0298 15.8727 11.0298 15.988V15.9937C11.0298 16.0991 10.9468 16.1776 10.8129 16.1776C10.761 16.1776 10.5952 16.1764 10.4163 16.0514C10.3947 16.0374 10.382 16.0273 10.3654 16.0162C10.3566 16.01 10.3346 15.9994 10.325 16.0315L10.2642 16.2178Z" fill="white"/>&#xa;<path fill-rule="evenodd" clip-rule="evenodd" d="M15.1338 16.2178C15.1244 16.245 15.1372 16.2506 15.1402 16.2554C15.1685 16.2781 15.1971 16.2944 15.226 16.3126C15.3791 16.4024 15.5236 16.4286 15.6748 16.4286C15.9827 16.4286 16.1739 16.2476 16.1739 15.9561V15.9505C16.1739 15.681 15.9581 15.5831 15.7556 15.5125L15.7294 15.503C15.5767 15.4482 15.445 15.4009 15.445 15.2898V15.2839C15.445 15.1889 15.5219 15.1189 15.6413 15.1189C15.7738 15.1189 15.9312 15.1676 16.0326 15.2295C16.0326 15.2295 16.0623 15.2508 16.0732 15.2189C16.0792 15.2019 16.1305 15.0492 16.1359 15.0326C16.1416 15.0147 16.1314 15.0014 16.1209 14.9943C16.0052 14.9166 15.8452 14.8634 15.6797 14.8634L15.6489 14.8636C15.3671 14.8636 15.1704 15.0518 15.1704 15.3215V15.3271C15.1704 15.6115 15.3874 15.7037 15.5908 15.768L15.6235 15.7791C15.7717 15.8294 15.8996 15.8727 15.8996 15.988V15.9937C15.8996 16.0991 15.8164 16.1776 15.6825 16.1776C15.6306 16.1776 15.4648 16.1764 15.2859 16.0514C15.2643 16.0374 15.2514 16.0277 15.2352 16.0162C15.2296 16.0121 15.2035 16.001 15.1946 16.0315L15.1338 16.2178Z" fill="white"/>&#xa;<path fill-rule="evenodd" clip-rule="evenodd" d="M18.7407 15.3401C18.7127 15.2452 18.6691 15.1615 18.6111 15.0918C18.553 15.0218 18.4795 14.9657 18.3923 14.9248C18.3054 14.8841 18.2025 14.8634 18.0871 14.8634C17.9715 14.8634 17.8686 14.8841 17.7816 14.9248C17.6944 14.9657 17.621 15.0218 17.5627 15.0918C17.5048 15.1617 17.4612 15.2454 17.433 15.3401C17.4053 15.4345 17.3913 15.5378 17.3913 15.6474C17.3913 15.7571 17.4053 15.8606 17.433 15.9548C17.4612 16.0495 17.5046 16.1332 17.5629 16.2031C17.621 16.273 17.6947 16.3289 17.7816 16.3687C17.8688 16.4084 17.9715 16.4286 18.0871 16.4286C18.2025 16.4286 18.3051 16.4084 18.3923 16.3687C18.4793 16.3289 18.553 16.273 18.6111 16.2031C18.6691 16.1334 18.7127 16.0497 18.7407 15.9548C18.7687 15.8603 18.7826 15.7569 18.7826 15.6474C18.7826 15.538 18.7687 15.4345 18.7407 15.3401ZM18.4558 15.6474C18.4558 15.8132 18.425 15.9438 18.3644 16.0361C18.3044 16.1275 18.2136 16.172 18.0871 16.172C17.9603 16.172 17.87 16.1277 17.811 16.0361C17.7513 15.9441 17.721 15.8132 17.721 15.6474C17.721 15.4819 17.7513 15.3515 17.811 15.2602C17.87 15.1698 17.9603 15.1258 18.0871 15.1258C18.2136 15.1258 18.3044 15.1698 18.3646 15.2602C18.425 15.3515 18.4558 15.4819 18.4558 15.6474Z" fill="white"/>&#xa;<path fill-rule="evenodd" clip-rule="evenodd" d="M20.8051 16.1286C20.7966 16.1007 20.7727 16.1112 20.7727 16.1112C20.7357 16.1271 20.6964 16.1419 20.6545 16.1492C20.612 16.1566 20.5653 16.1604 20.5151 16.1604C20.392 16.1604 20.2943 16.1193 20.2243 16.038C20.1541 15.9567 20.1148 15.8252 20.1152 15.6473C20.1156 15.4854 20.1503 15.3637 20.2127 15.2709C20.2747 15.1787 20.369 15.1314 20.4948 15.1314C20.5997 15.1314 20.6797 15.1449 20.7634 15.1746C20.7634 15.1746 20.7835 15.1844 20.793 15.1549C20.8153 15.0855 20.8317 15.0358 20.8554 14.9595C20.8622 14.9378 20.8457 14.9285 20.8398 14.9259C20.8068 14.9114 20.729 14.8879 20.6702 14.8779C20.6152 14.8684 20.5509 14.8634 20.4794 14.8634C20.3726 14.8634 20.2774 14.8838 20.196 14.9247C20.1148 14.9654 20.0458 15.0215 19.9912 15.0914C19.9367 15.1613 19.8952 15.245 19.8675 15.3396C19.84 15.434 19.826 15.5377 19.826 15.6473C19.826 15.8844 19.8829 16.076 19.9953 16.2163C20.1078 16.3571 20.2768 16.4286 20.4972 16.4286C20.6274 16.4286 20.7611 16.3989 20.8571 16.3563C20.8571 16.3563 20.8755 16.3464 20.8675 16.3223L20.8051 16.1286Z" fill="white"/>&#xa;<path fill-rule="evenodd" clip-rule="evenodd" d="M22.2263 15.286C22.2042 15.1945 22.1495 15.1019 22.1136 15.0596C22.0569 14.9925 22.0016 14.9457 21.9467 14.9195C21.8748 14.8858 21.7888 14.8634 21.6945 14.8634C21.5846 14.8634 21.4849 14.8836 21.404 14.9255C21.3229 14.9673 21.2548 15.0244 21.2014 15.0955C21.1479 15.1664 21.1077 15.2508 21.0822 15.3467C21.0565 15.4421 21.0435 15.546 21.0435 15.6556C21.0435 15.7672 21.0569 15.8711 21.0835 15.9646C21.1103 16.0588 21.1531 16.1418 21.2111 16.2105C21.2688 16.2797 21.3432 16.334 21.4324 16.3718C21.5208 16.4093 21.6283 16.4289 21.7518 16.4286C22.0059 16.4277 22.1398 16.3654 22.1949 16.3318C22.2047 16.3259 22.214 16.3154 22.2023 16.2854L22.1448 16.1082C22.1361 16.0819 22.1117 16.0916 22.1117 16.0916C22.0487 16.1173 21.9592 16.1634 21.7505 16.163C21.614 16.1627 21.5128 16.1185 21.4494 16.0493C21.3843 15.9784 21.3525 15.8742 21.3469 15.7272L22.2269 15.7282C22.2269 15.7282 22.2501 15.7277 22.2525 15.703C22.2533 15.6925 22.2827 15.5041 22.2263 15.286ZM21.351 15.4884C21.3634 15.3964 21.3865 15.3198 21.4222 15.2601C21.476 15.1695 21.5582 15.1198 21.6737 15.1198C21.7892 15.1198 21.8655 15.1697 21.9203 15.2601C21.9566 15.3198 21.9724 15.3997 21.9787 15.4884H21.351Z" fill="white"/>&#xa;<path fill-rule="evenodd" clip-rule="evenodd" d="M14.7479 15.286C14.7258 15.1945 14.6713 15.1019 14.6354 15.0596C14.5787 14.9925 14.5234 14.9457 14.4684 14.9195C14.3966 14.8858 14.3106 14.8634 14.2162 14.8634C14.1066 14.8634 14.0067 14.8836 13.9258 14.9255C13.8447 14.9673 13.7766 15.0244 13.7231 15.0955C13.6697 15.1664 13.6295 15.2508 13.604 15.3467C13.5784 15.4421 13.5652 15.546 13.5652 15.6556C13.5652 15.7672 13.5787 15.8711 13.6053 15.9646C13.6321 16.0588 13.6749 16.1418 13.7329 16.2105C13.7906 16.2797 13.865 16.334 13.9541 16.3718C14.0426 16.4093 14.1501 16.4289 14.2736 16.4286C14.5277 16.4277 14.6616 16.3654 14.7167 16.3318C14.7264 16.3259 14.7357 16.3154 14.7241 16.2854L14.6668 16.1082C14.6579 16.0819 14.6334 16.0916 14.6334 16.0916C14.5705 16.1173 14.4812 16.1634 14.272 16.163C14.1358 16.1627 14.0346 16.1185 13.9712 16.0493C13.9061 15.9784 13.8743 15.8742 13.8687 15.7272L14.7487 15.7282C14.7487 15.7282 14.7719 15.7277 14.7742 15.703C14.7751 15.6925 14.8045 15.5041 14.7479 15.286ZM13.8728 15.4884C13.8853 15.3964 13.9083 15.3198 13.9439 15.2601C13.9978 15.1695 14.08 15.1198 14.1955 15.1198C14.311 15.1198 14.3873 15.1697 14.4423 15.2601C14.4784 15.3198 14.4942 15.3997 14.5004 15.4884H13.8728Z" fill="white"/>&#xa;<path fill-rule="evenodd" clip-rule="evenodd" d="M12.2403 15.4432C12.2022 15.4403 12.1526 15.4387 12.0934 15.4387C12.0127 15.4387 11.9347 15.4491 11.8616 15.4693C11.788 15.4895 11.7219 15.5211 11.665 15.563C11.6078 15.605 11.5618 15.6587 11.5285 15.7224C11.4952 15.7861 11.4783 15.8612 11.4783 15.9453C11.4783 16.0308 11.4926 16.1052 11.5213 16.166C11.55 16.2271 11.5914 16.278 11.6442 16.3172C11.6964 16.3564 11.761 16.3851 11.8359 16.4025C11.9097 16.4198 11.9935 16.4286 12.0851 16.4286C12.1816 16.4286 12.2778 16.4205 12.3711 16.4041C12.4634 16.388 12.5767 16.3645 12.6082 16.3571C12.6394 16.3495 12.6741 16.3398 12.6741 16.3398C12.6975 16.3338 12.6956 16.3081 12.6956 16.3081L12.6952 15.4239C12.6952 15.2301 12.6447 15.0863 12.5455 14.9972C12.4467 14.9083 12.3012 14.8634 12.1131 14.8634C12.0425 14.8634 11.9289 14.8734 11.8609 14.8874C11.8609 14.8874 11.6553 14.9283 11.5706 14.9962C11.5706 14.9962 11.5521 15.0081 11.5623 15.0347L11.6289 15.2186C11.6372 15.2424 11.6597 15.2343 11.6597 15.2343C11.6597 15.2343 11.6668 15.2315 11.6751 15.2265C11.8563 15.1253 12.0853 15.1283 12.0853 15.1283C12.1871 15.1283 12.2653 15.1493 12.3181 15.1908C12.3694 15.2312 12.3956 15.2923 12.3956 15.4211V15.462C12.3146 15.4501 12.2403 15.4432 12.2403 15.4432ZM11.8658 16.1226C11.829 16.0924 11.8239 16.0848 11.8114 16.0653C11.7929 16.0356 11.7834 15.9933 11.7834 15.9396C11.7834 15.8545 11.8107 15.7935 11.8674 15.7523C11.8667 15.7526 11.9484 15.6799 12.1404 15.6825C12.2753 15.6844 12.3958 15.7048 12.3958 15.7048V16.1444H12.396C12.396 16.1444 12.2764 16.1708 12.1418 16.1791C11.9502 16.191 11.8651 16.1223 11.8658 16.1226Z" fill="white"/>&#xa;<path fill-rule="evenodd" clip-rule="evenodd" d="M19.8242 14.9221C19.8313 14.9021 19.8163 14.8925 19.8101 14.8903C19.7942 14.8844 19.7143 14.8685 19.6526 14.8648C19.5346 14.858 19.469 14.8768 19.4103 14.9017C19.3521 14.9265 19.2875 14.9666 19.2514 15.0122V14.9043C19.2514 14.8892 19.2401 14.8772 19.2244 14.8772H18.9835C18.9678 14.8772 18.9565 14.8892 18.9565 14.9043V16.2277C18.9565 16.2425 18.9694 16.2547 18.9852 16.2547H19.232C19.2477 16.2547 19.2605 16.2425 19.2605 16.2277V15.5665C19.2605 15.4778 19.2708 15.3892 19.2916 15.3336C19.312 15.2787 19.3397 15.2346 19.3738 15.203C19.4083 15.1716 19.4473 15.1496 19.49 15.1372C19.5337 15.1245 19.5819 15.1204 19.6161 15.1204C19.6653 15.1204 19.7193 15.1324 19.7193 15.1324C19.7373 15.1343 19.7475 15.1239 19.7535 15.1084C19.7697 15.0678 19.8154 14.9464 19.8242 14.9221Z" fill="white"/>&#xa;<path fill-rule="evenodd" clip-rule="evenodd" d="M17.547 14.3737C17.5184 14.3644 17.4924 14.3582 17.4585 14.3514C17.4241 14.3449 17.3831 14.3417 17.3366 14.3417C17.1745 14.3417 17.0467 14.39 16.957 14.4852C16.8677 14.58 16.8071 14.7243 16.7767 14.9141L16.7657 14.978H16.5621C16.5621 14.978 16.5375 14.9771 16.5322 15.0054L16.4989 15.2022C16.4965 15.2207 16.5042 15.2326 16.528 15.2326H16.7261L16.5251 16.4155C16.5095 16.5108 16.4914 16.5891 16.4713 16.6485C16.4517 16.7071 16.4326 16.751 16.4088 16.783C16.3859 16.8137 16.3643 16.8365 16.3268 16.8497C16.296 16.8606 16.2603 16.8657 16.2213 16.8657C16.1997 16.8657 16.1708 16.862 16.1494 16.8574C16.1283 16.853 16.1171 16.8481 16.101 16.8409C16.101 16.8409 16.0778 16.8316 16.0686 16.856C16.0613 16.8762 16.0084 17.0293 16.002 17.0481C15.9959 17.0669 16.0047 17.0815 16.0159 17.086C16.0424 17.0957 16.062 17.1022 16.0979 17.1113C16.1477 17.1236 16.1898 17.1243 16.2292 17.1243C16.3116 17.1243 16.387 17.112 16.4493 17.0883C16.5119 17.0644 16.5665 17.0228 16.615 16.9666C16.6672 16.9057 16.7001 16.842 16.7313 16.7549C16.7624 16.669 16.7891 16.5621 16.8102 16.4376L17.0123 15.2326H17.3075C17.3075 15.2326 17.3324 15.2335 17.3375 15.2049L17.371 15.0084C17.3732 14.9896 17.3657 14.978 17.3417 14.978H17.055C17.0566 14.9712 17.0696 14.8648 17.1024 14.7647C17.1165 14.7222 17.1429 14.6876 17.1652 14.6639C17.1872 14.6407 17.2126 14.6242 17.2403 14.6146C17.2688 14.6049 17.3011 14.6002 17.3366 14.6002C17.3635 14.6002 17.3902 14.6035 17.4102 14.6079C17.438 14.6142 17.4488 14.6174 17.4561 14.6197C17.4854 14.6291 17.4893 14.62 17.4951 14.6051L17.5636 14.4067C17.5706 14.3854 17.5532 14.3763 17.547 14.3737Z" fill="white"/>&#xa;<path fill-rule="evenodd" clip-rule="evenodd" d="M13.3913 16.3999C13.3913 16.4158 13.3783 16.4286 13.3603 16.4286H13.0742C13.0562 16.4286 13.0435 16.4158 13.0435 16.3999V14.3704C13.0435 14.3545 13.0562 14.3417 13.0742 14.3417H13.3603C13.3783 14.3417 13.3913 14.3545 13.3913 14.3704V16.3999Z" fill="white"/>&#xa;<defs>&#xa;<linearGradient id="jmpaint0_linear_64884_646" x1="10.2222" y1="3" x2="13.5111" y2="29.3111" gradientUnits="userSpaceOnUse">&#xa;<stop stop-color="white"/>&#xa;<stop offset="1" stop-color="#EBEBEB"/>&#xa;</linearGradient>&#xa;<radialGradient id="jmpaint1_radial_64884_646" cx="0" cy="0" r="1" gradientTransform="matrix(13.7222 20.5833 -20.5833 7.71875 11.3056 9.77083)" gradientUnits="userSpaceOnUse">&#xa;<stop offset="0.177083" stop-color="white"/>&#xa;<stop offset="1" stop-color="#B8B8B8"/>&#xa;</radialGradient>&#xa;<linearGradient id="jmpaint2_linear_64884_646" x1="11.3958" y1="3" x2="14.8966" y2="29.2555" gradientUnits="userSpaceOnUse">&#xa;<stop stop-color="#BBBBBB"/>&#xa;<stop offset="1" stop-color="#888888"/>&#xa;</linearGradient>&#xa;<linearGradient id="jmpaint3_linear_64884_646" x1="18.6465" y1="21.9094" x2="27.3572" y2="33.2265" gradientUnits="userSpaceOnUse">&#xa;<stop stop-color="#008EE6"/>&#xa;<stop offset="1" stop-color="#006094"/>&#xa;</linearGradient>&#xa;<linearGradient id="jmpaint4_linear_64884_646" x1="18.6465" y1="21.9094" x2="27.3572" y2="33.2265" gradientUnits="userSpaceOnUse">&#xa;<stop stop-color="#008EE6"/>&#xa;<stop offset="1" stop-color="#006094"/>&#xa;</linearGradient>&#xa;</defs>&#xa;</svg>