<svg xmlns="http://www.w3.org/2000/svg" width="77.72706058984215" height="79.28985258853433" viewBox="3 3 28.353557586669922 28.92226219177246" fill="none">&#xa;<path d="M3 6.5C3 4.567 4.567 3 6.5 3H25.5C27.433 3 29 4.567 29 6.5V25.5C29 27.433 27.433 29 25.5 29H6.5C4.567 29 3 27.433 3 25.5V6.5Z" fill="url(#nzpaint0_linear_43071_31444)"/>&#xa;<path d="M3 6.5C3 4.567 4.567 3 6.5 3H25.5C27.433 3 29 4.567 29 6.5V25.5C29 27.433 27.433 29 25.5 29H6.5C4.567 29 3 27.433 3 25.5V6.5Z" fill="url(#nzpaint1_radial_43071_31444)" fill-opacity="0.2"/>&#xa;<path fill-rule="evenodd" clip-rule="evenodd" d="M25.5 4H6.5C5.11929 4 4 5.11929 4 6.5V25.5C4 26.8807 5.11929 28 6.5 28H25.5C26.8807 28 28 26.8807 28 25.5V6.5C28 5.11929 26.8807 4 25.5 4ZM6.5 3C4.567 3 3 4.567 3 6.5V25.5C3 27.433 4.567 29 6.5 29H25.5C27.433 29 29 27.433 29 25.5V6.5C29 4.567 27.433 3 25.5 3H6.5Z" fill="url(#nzpaint2_linear_43071_31444)"/>&#xa;<path d="M10.4455 15.9999L8.464 14.8082C8.01174 14.5362 7.8649 13.9478 8.13602 13.4941C8.40714 13.0403 8.99355 12.893 9.44581 13.165L12.7933 15.1784C13.4118 15.5503 13.4118 16.4496 12.7933 16.8215L9.44581 18.8349C8.99355 19.1069 8.40714 18.9596 8.13602 18.5058C7.8649 18.0521 8.01174 17.4637 8.464 17.1917L10.4455 15.9999ZM21.5545 15.9999L23.536 17.1917C23.9883 17.4637 24.1351 18.0521 23.864 18.5058C23.5929 18.9596 23.0064 19.1069 22.5542 18.8349L19.2067 16.8215C18.5882 16.4496 18.5882 15.5503 19.2067 15.1784L22.5542 13.165C23.0064 12.893 23.5929 13.0403 23.864 13.4941C24.1351 13.9478 23.9883 14.5362 23.536 14.8082L21.5545 15.9999ZM18.7201 11.2699L20.743 10.1498C21.2047 9.89417 21.7876 10.0612 22.045 10.5229C22.3024 10.9845 22.1368 11.566 21.6751 11.8217L18.2577 13.714C17.6263 14.0636 16.8476 13.614 16.8347 12.8924L16.7648 8.98674C16.7554 8.45906 17.1762 8.02488 17.7047 8.01696C18.2332 8.00904 18.6693 8.43038 18.6788 8.95806L18.7201 11.2699ZM13.2799 11.2699L13.3212 8.95806C13.3307 8.43038 13.7668 8.00904 14.2953 8.01696C14.8238 8.02488 15.2446 8.45906 15.2352 8.98674L15.1653 12.8924C15.1524 13.614 14.3737 14.0636 13.7423 13.714L10.3249 11.8217C9.8632 11.566 9.69758 10.9845 9.95498 10.5229C10.2124 10.0612 10.7953 9.89417 11.257 10.1498L13.2799 11.2699ZM18.7201 20.7299L18.6788 23.0418C18.6693 23.5695 18.2332 23.9909 17.7047 23.9829C17.1762 23.975 16.7554 23.5408 16.7648 23.0132L16.8347 19.1075C16.8476 18.3859 17.6263 17.9363 18.2577 18.2859L21.6751 20.1782C22.1368 20.4339 22.3024 21.0154 22.045 21.477C21.7876 21.9387 21.2047 22.1057 20.743 21.8501L18.7201 20.7299ZM13.2799 20.7299L11.257 21.8501C10.7953 22.1057 10.2124 21.9387 9.95498 21.477C9.69758 21.0154 9.8632 20.4339 10.3249 20.1782L13.7423 18.2859C14.3737 17.9363 15.1524 18.3859 15.1653 19.1075L15.2352 23.0132C15.2446 23.5408 14.8238 23.975 14.2953 23.9829C13.7668 23.9909 13.3307 23.5695 13.3212 23.0418L13.2799 20.7299ZM14.1714 15.7284L15.7782 14.1714H16.5255L18.0571 15.7284V16.5001L16.5255 18.0571H15.7782L14.1714 16.5001V15.7284ZM15.4759 15.9526C15.3866 16.0419 15.3866 16.1866 15.4759 16.2759L15.9527 16.7526C16.0419 16.8419 16.1866 16.8419 16.2759 16.7526L16.7527 16.2759C16.8419 16.1866 16.8419 16.0419 16.7527 15.9526L16.2759 15.4759C16.1866 15.3866 16.0419 15.3866 15.9527 15.4759L15.4759 15.9526Z" fill="#21BEF2"/>&#xa;<path d="M24.0003 22.7611C24.0003 22.0349 23.1485 21.6431 22.5971 22.1157L18.9433 25.2475C18.5843 25.5552 18.5454 26.0967 18.8568 26.4526L22.5106 30.6283C23.0274 31.219 24.0003 30.8534 24.0003 30.0686V22.7611Z" fill="url(#nzpaint3_linear_43071_31444)"/>&#xa;<path d="M24.9997 22.7611C24.9997 22.0349 25.8515 21.6431 26.4029 22.1157L30.0567 25.2475C30.4157 25.5552 30.4546 26.0967 30.1432 26.4526L26.4894 30.6283C25.9726 31.219 24.9997 30.8534 24.9997 30.0686V22.7611Z" fill="url(#nzpaint4_linear_43071_31444)"/>&#xa;<path fill-rule="evenodd" clip-rule="evenodd" d="M21.758 31.2868L18.1042 27.1111C17.4266 26.3366 17.5112 25.1579 18.2926 24.4882L21.9463 21.3564C22.7568 20.6617 23.8656 20.8252 24.5 21.4914C25.1344 20.8252 26.2432 20.6617 27.0537 21.3564L30.7075 24.4882C31.4888 25.1579 31.5735 26.3366 30.8958 27.1111L27.242 31.2868C26.4593 32.1813 25.1961 32.0682 24.5 31.3412C23.8039 32.0682 22.5407 32.1813 21.758 31.2868ZM23.9999 30.0943C23.9789 30.8613 23.0217 31.2125 22.5106 30.6283L18.8568 26.4526C18.5455 26.0967 18.5843 25.5552 18.9433 25.2475L22.5971 22.1157C23.142 21.6486 23.9802 22.0257 23.9999 22.7355C24.0002 22.744 24.0003 22.7525 24.0003 22.761V30.0686C24.0003 30.0772 24.0002 30.0858 23.9999 30.0943ZM25.0001 30.0943C25.0211 30.8613 25.9783 31.2125 26.4895 30.6283L30.1432 26.4526C30.4546 26.0967 30.4157 25.5552 30.0567 25.2475L26.4029 22.1157C25.8581 21.6486 25.0198 22.0257 25.0001 22.7355C24.9999 22.744 24.9998 22.7525 24.9998 22.761V30.0686C24.9998 30.0772 24.9999 30.0858 25.0001 30.0943Z" fill="#F5F5F5"/>&#xa;<defs>&#xa;<linearGradient id="nzpaint0_linear_43071_31444" x1="10.2222" y1="3" x2="13.5111" y2="29.3111" gradientUnits="userSpaceOnUse">&#xa;<stop stop-color="white"/>&#xa;<stop offset="1" stop-color="#EBEBEB"/>&#xa;</linearGradient>&#xa;<radialGradient id="nzpaint1_radial_43071_31444" cx="0" cy="0" r="1" gradientUnits="userSpaceOnUse" gradientTransform="translate(11.3056 9.77083) rotate(56.3099) scale(24.7381 21.408)">&#xa;<stop offset="0.177083" stop-color="white"/>&#xa;<stop offset="1" stop-color="#B8B8B8"/>&#xa;</radialGradient>&#xa;<linearGradient id="nzpaint2_linear_43071_31444" x1="11.3958" y1="3" x2="14.8966" y2="29.2555" gradientUnits="userSpaceOnUse">&#xa;<stop stop-color="#BBBBBB"/>&#xa;<stop offset="1" stop-color="#888888"/>&#xa;</linearGradient>&#xa;<linearGradient id="nzpaint3_linear_43071_31444" x1="18.6465" y1="21.9094" x2="27.3572" y2="33.2265" gradientUnits="userSpaceOnUse">&#xa;<stop stop-color="#008EE6"/>&#xa;<stop offset="1" stop-color="#006094"/>&#xa;</linearGradient>&#xa;<linearGradient id="nzpaint4_linear_43071_31444" x1="18.6465" y1="21.9094" x2="27.3572" y2="33.2265" gradientUnits="userSpaceOnUse">&#xa;<stop stop-color="#008EE6"/>&#xa;<stop offset="1" stop-color="#006094"/>&#xa;</linearGradient>&#xa;</defs>&#xa;</svg>