<svg xmlns="http://www.w3.org/2000/svg" xmlns:xlink="http://www.w3.org/1999/xlink" width="32" height="32" viewBox="2.5 2.5 29.5 30" fill="none">&#xa;<rect x="2.5" y="2.5" width="29.5" height="30" fill="none" stroke="none"/>&#xa;<rect x="3.5" y="3.5" width="25" height="25" rx="3" fill="url(#bgpaint0_linear_43065_31060)"/>&#xa;<rect x="3.5" y="3.5" width="25" height="25" rx="3" fill="url(#bgpaint1_radial_43065_31060)" fill-opacity="0.2"/>&#xa;<rect x="3.5" y="3.5" width="25" height="25" rx="3" stroke="url(#bgpaint2_linear_43065_31060)"/>&#xa;<g clip-path="url(#bgclip0_43065_31060)">&#xa;<path d="M10.6258 12.6809C10.6052 12.681 10.5848 12.677 10.5658 12.6692C10.5467 12.6614 10.5294 12.6498 10.5149 12.6353C10.5003 12.6207 10.4888 12.6035 10.481 12.5844C10.4732 12.5654 10.4692 12.545 10.4693 12.5244C10.4686 12.051 10.2802 11.5972 9.9455 11.2625C9.61076 10.9277 9.15695 10.7393 8.68354 10.7386C8.64221 10.7386 8.60255 10.7223 8.57323 10.6931C8.54392 10.664 8.52733 10.6244 8.5271 10.5831C8.5271 10.5416 8.54358 10.5018 8.57292 10.4725C8.60226 10.4431 8.64205 10.4266 8.68354 10.4266C9.1571 10.4259 9.61104 10.2374 9.94581 9.9025C10.2806 9.56756 10.4689 9.11352 10.4693 8.63997C10.4692 8.61939 10.4732 8.59899 10.481 8.57996C10.4888 8.56093 10.5003 8.54363 10.5149 8.52908C10.5294 8.51453 10.5467 8.50301 10.5658 8.49519C10.5848 8.48737 10.6052 8.48341 10.6258 8.48352C10.6463 8.48341 10.6667 8.48737 10.6858 8.49519C10.7048 8.50301 10.7221 8.51453 10.7367 8.52908C10.7512 8.54363 10.7627 8.56093 10.7705 8.57996C10.7784 8.59899 10.7823 8.61939 10.7822 8.63997C10.7829 9.11337 10.9713 9.56718 11.306 9.90192C11.6408 10.2367 12.0946 10.425 12.568 10.4257C12.5886 10.4256 12.609 10.4296 12.628 10.4374C12.647 10.4452 12.6643 10.4568 12.6789 10.4713C12.6934 10.4859 12.7049 10.5031 12.7128 10.5222C12.7206 10.5412 12.7246 10.5616 12.7244 10.5822C12.7246 10.6028 12.7206 10.6232 12.7128 10.6422C12.7049 10.6612 12.6934 10.6785 12.6789 10.6931C12.6643 10.7076 12.647 10.7191 12.628 10.727C12.609 10.7348 12.5886 10.7388 12.568 10.7386C12.0945 10.7391 11.6406 10.9274 11.3058 11.2622C10.971 11.597 10.7827 12.0509 10.7822 12.5244C10.782 12.5658 10.7654 12.6055 10.7361 12.6348C10.7068 12.6641 10.6672 12.6806 10.6258 12.6809Z" fill="#50E6FF"/>&#xa;<path d="M21.8765 23.5164C21.8433 23.5164 21.8114 23.5032 21.7879 23.4797C21.7644 23.4562 21.7512 23.4243 21.7512 23.3911C21.7507 23.0124 21.6 22.6493 21.3323 22.3815C21.0645 22.1137 20.7014 21.9631 20.3227 21.9626C20.2896 21.9626 20.2579 21.9495 20.2344 21.9262C20.2109 21.9029 20.1976 21.8713 20.1974 21.8382C20.1974 21.8049 20.2106 21.773 20.2341 21.7495C20.2576 21.726 20.2895 21.7128 20.3227 21.7128C20.7015 21.7126 21.0647 21.562 21.3325 21.2942C21.6004 21.0264 21.7509 20.6632 21.7512 20.2844C21.7512 20.2512 21.7644 20.2193 21.7879 20.1958C21.8114 20.1723 21.8433 20.1591 21.8765 20.1591C21.9097 20.1591 21.9416 20.1723 21.9651 20.1958C21.9886 20.2193 22.0018 20.2512 22.0018 20.2844C22.0021 20.6632 22.1526 21.0264 22.4205 21.2942C22.6883 21.562 23.0515 21.7126 23.4303 21.7128C23.4635 21.7128 23.4954 21.726 23.5189 21.7495C23.5424 21.773 23.5556 21.8049 23.5556 21.8382C23.5556 21.8714 23.5424 21.9033 23.5189 21.9268C23.4954 21.9503 23.4635 21.9635 23.4303 21.9635C23.0516 21.964 22.6885 22.1146 22.4207 22.3824C22.153 22.6502 22.0023 23.0132 22.0018 23.3919C22.0016 23.425 21.9883 23.4567 21.9648 23.48C21.9413 23.5033 21.9096 23.5164 21.8765 23.5164Z" fill="#50E6FF"/>&#xa;<path d="M21.3058 14.6933C21.5565 15.7427 21.4904 16.8428 21.1159 17.8547C20.7413 18.8665 20.0751 19.7445 19.2016 20.3777C18.328 21.0109 17.2863 21.3708 16.2081 21.412C15.13 21.4532 14.0639 21.1737 13.1446 20.6089C12.2253 20.0442 11.4941 19.2195 11.0435 18.2392C10.5929 17.2589 10.4431 16.1669 10.613 15.1015C10.783 14.036 11.2651 13.0449 11.9984 12.2535C12.7316 11.462 13.6831 10.9058 14.7325 10.6551C16.1397 10.3189 17.6228 10.5555 18.8555 11.3128C20.0882 12.0701 20.9696 13.2861 21.3058 14.6933Z" fill="url(#bgpaint3_radial_43065_31060)"/>&#xa;<mask id="bgmask0_43065_31060" style="mask-type:luminance" maskUnits="userSpaceOnUse" x="10" y="10" width="12" height="12">&#xa;<path d="M21.3058 14.6933C21.5565 15.7427 21.4904 16.8428 21.1159 17.8547C20.7413 18.8665 20.0751 19.7445 19.2016 20.3777C18.328 21.0109 17.2863 21.3708 16.2081 21.412C15.13 21.4532 14.0639 21.1737 13.1446 20.6089C12.2253 20.0442 11.4941 19.2195 11.0435 18.2392C10.5929 17.2589 10.4431 16.1669 10.613 15.1015C10.783 14.036 11.2651 13.0449 11.9984 12.2535C12.7316 11.462 13.6831 10.9058 14.7325 10.6551C16.1397 10.3189 17.6228 10.5555 18.8555 11.3128C20.0882 12.0701 20.9696 13.2861 21.3058 14.6933Z" fill="white"/>&#xa;</mask>&#xa;<g mask="url(#bgmask0_43065_31060)">&#xa;<path d="M13.0751 19.6578C13.2693 19.6629 13.4625 19.629 13.6434 19.5583C13.8243 19.4876 13.9892 19.3814 14.1284 19.246C14.2677 19.1106 14.3784 18.9487 14.4541 18.7698C14.5298 18.5909 14.569 18.3987 14.5693 18.2045C14.5696 18.0103 14.531 17.8179 14.4558 17.6389C14.3807 17.4598 14.2704 17.2975 14.1316 17.1617C13.9928 17.0258 13.8282 16.9191 13.6475 16.8478C13.4669 16.7766 13.2738 16.7422 13.0796 16.7467C13.0839 16.7053 13.086 16.6638 13.0858 16.6222C13.0823 16.2338 12.9249 15.8626 12.6481 15.59C12.3714 15.3174 11.9978 15.1656 11.6094 15.168H10.5178C10.411 15.9745 10.4826 16.7947 10.7276 17.5705C10.9726 18.3463 11.385 19.0588 11.9356 19.6578H13.0751Z" fill="#F2F2F2"/>&#xa;<path d="M21.3738 14.9466C21.3738 14.9333 21.3738 14.92 21.3676 14.9075C21.1918 13.9564 20.7597 13.0712 20.1178 12.3475C20.0346 12.3138 19.9487 12.287 19.861 12.2675C19.6274 12.2009 19.3817 12.1881 19.1425 12.2302C18.9033 12.2722 18.6767 12.368 18.4799 12.5104C18.2831 12.6527 18.1211 12.8378 18.0062 13.0518C17.8913 13.2658 17.8264 13.5031 17.8165 13.7458C17.7575 13.7389 17.6981 13.7351 17.6387 13.7342C17.2746 13.7342 16.9223 13.8628 16.6438 14.0974C16.3654 14.332 16.1788 14.6574 16.117 15.0162C16.0552 15.375 16.1222 15.7441 16.3062 16.0583C16.4901 16.3725 16.7792 16.6116 17.1223 16.7333C17.2754 16.7933 17.4387 16.8235 17.6032 16.8222H19.4076C20.1322 16.2738 20.7918 15.6445 21.3738 14.9466Z" fill="#F2F2F2"/>&#xa;</g>&#xa;<path d="M23.2809 11.4062C22.7218 10.4755 21.4142 10.1128 19.5875 10.3848C18.9617 10.4735 18.3432 10.6078 17.7369 10.7866C18.2178 10.9527 18.6746 11.1819 19.0951 11.4684C19.3093 11.4213 19.5244 11.3653 19.7307 11.3342C20.0551 11.2837 20.3828 11.2572 20.7111 11.2551C21.0321 11.2088 21.3595 11.2435 21.6636 11.3561C21.9678 11.4686 22.2389 11.6554 22.4524 11.8995C22.7929 12.4666 22.5058 13.4364 21.6649 14.5662C20.4962 16.0208 19.0642 17.2424 17.4435 18.1671C15.8592 19.1559 14.1031 19.838 12.2667 20.1777C10.8764 20.3857 9.88266 20.1777 9.54221 19.6124C9.20177 19.0471 9.48888 18.0746 10.3298 16.9502C10.4338 16.8106 10.4595 16.7422 10.5778 16.6017C10.5222 16.1198 10.53 15.6327 10.6009 15.1528C10.223 15.5316 9.87524 15.9394 9.56088 16.3724C8.45955 17.8453 8.16088 19.1697 8.7191 20.1004C9.01399 20.4949 9.40728 20.8051 9.85966 20.9999C10.312 21.1948 10.8076 21.2674 11.2969 21.2106C11.6692 21.2087 12.0409 21.1789 12.4089 21.1217C14.3691 20.764 16.2445 20.0402 17.9369 18.9884C19.6653 17.9993 21.1916 16.6928 22.4355 15.1377C23.5404 13.6613 23.8391 12.3377 23.2809 11.4062Z" fill="#50E6FF"/>&#xa;</g>&#xa;<path d="M24.0003 22.7611C24.0003 22.0349 23.1485 21.6431 22.5971 22.1157L18.9433 25.2475C18.5843 25.5552 18.5454 26.0967 18.8568 26.4526L22.5106 30.6283C23.0274 31.219 24.0003 30.8534 24.0003 30.0686V22.7611Z" fill="url(#bgpaint4_linear_43065_31060)"/>&#xa;<path d="M24.9997 22.7611C24.9997 22.0349 25.8515 21.6431 26.4029 22.1157L30.0567 25.2475C30.4157 25.5552 30.4546 26.0967 30.1432 26.4526L26.4894 30.6283C25.9726 31.219 24.9997 30.8534 24.9997 30.0686V22.7611Z" fill="url(#bgpaint5_linear_43065_31060)"/>&#xa;<path fill-rule="evenodd" clip-rule="evenodd" d="M21.758 31.2868L18.1042 27.1111C17.4266 26.3366 17.5112 25.1579 18.2926 24.4882L21.9463 21.3564C22.7568 20.6617 23.8656 20.8252 24.5 21.4914C25.1344 20.8252 26.2432 20.6617 27.0537 21.3564L30.7075 24.4882C31.4888 25.1579 31.5735 26.3366 30.8958 27.1111L27.242 31.2868C26.4593 32.1813 25.1961 32.0682 24.5 31.3412C23.8039 32.0682 22.5407 32.1813 21.758 31.2868ZM23.9999 30.0943C23.9789 30.8613 23.0217 31.2125 22.5106 30.6283L18.8568 26.4526C18.5455 26.0967 18.5843 25.5552 18.9433 25.2475L22.5971 22.1157C23.142 21.6486 23.9802 22.0257 23.9999 22.7355C24.0002 22.744 24.0003 22.7525 24.0003 22.761V30.0686C24.0003 30.0772 24.0002 30.0858 23.9999 30.0943ZM25.0001 30.0943C25.0211 30.8613 25.9783 31.2125 26.4895 30.6283L30.1432 26.4526C30.4546 26.0967 30.4157 25.5552 30.0567 25.2475L26.4029 22.1157C25.8581 21.6486 25.0198 22.0257 25.0001 22.7355C24.9999 22.744 24.9998 22.7525 24.9998 22.761V30.0686C24.9998 30.0772 24.9999 30.0858 25.0001 30.0943Z" fill="#F5F5F5"/>&#xa;<defs>&#xa;<linearGradient id="bgpaint0_linear_43065_31060" x1="10.2222" y1="3" x2="13.5111" y2="29.3111" gradientUnits="userSpaceOnUse">&#xa;<stop stop-color="white"/>&#xa;<stop offset="1" stop-color="#EBEBEB"/>&#xa;</linearGradient>&#xa;<radialGradient id="bgpaint1_radial_43065_31060" cx="0" cy="0" r="1" gradientUnits="userSpaceOnUse" gradientTransform="translate(11.3056 9.77083) rotate(56.3099) scale(24.7381 21.408)">&#xa;<stop offset="0.177083" stop-color="white"/>&#xa;<stop offset="1" stop-color="#B8B8B8"/>&#xa;</radialGradient>&#xa;<linearGradient id="bgpaint2_linear_43065_31060" x1="11.3958" y1="3" x2="14.8966" y2="29.2555" gradientUnits="userSpaceOnUse">&#xa;<stop stop-color="#BBBBBB"/>&#xa;<stop offset="1" stop-color="#888888"/>&#xa;</linearGradient>&#xa;<radialGradient id="bgpaint3_radial_43065_31060" cx="0" cy="0" r="1" gradientUnits="userSpaceOnUse" gradientTransform="translate(15.9581 15.959) scale(5.48297 5.43534)">&#xa;<stop offset="0.183" stop-color="#5EA0EF"/>&#xa;<stop offset="1" stop-color="#0078D4"/>&#xa;</radialGradient>&#xa;<linearGradient id="bgpaint4_linear_43065_31060" x1="18.6465" y1="21.9094" x2="27.3572" y2="33.2265" gradientUnits="userSpaceOnUse">&#xa;<stop stop-color="#008EE6"/>&#xa;<stop offset="1" stop-color="#006094"/>&#xa;</linearGradient>&#xa;<linearGradient id="bgpaint5_linear_43065_31060" x1="18.6465" y1="21.9094" x2="27.3572" y2="33.2265" gradientUnits="userSpaceOnUse">&#xa;<stop stop-color="#008EE6"/>&#xa;<stop offset="1" stop-color="#006094"/>&#xa;</linearGradient>&#xa;<clipPath id="bgclip0_43065_31060">&#xa;<rect width="16" height="16" fill="white" transform="translate(8 8)"/>&#xa;</clipPath>&#xa;</defs>&#xa;</svg>
