<svg xmlns="http://www.w3.org/2000/svg" width="80.00000020889968" height="79.99999634171165" viewBox="3.833310127258301 3.8333699703216553 38.333290100097656 38.33332824707031" fill="none">&#xa;<path d="M3.83331 9.58337C3.83331 6.40774 6.40768 3.83337 9.58331 3.83337H36.4166C39.5923 3.83337 42.1666 6.40774 42.1666 9.58337V36.4167C42.1666 39.5923 39.5923 42.1667 36.4166 42.1667H9.58331C6.40767 42.1667 3.83331 39.5923 3.83331 36.4167V9.58337Z" fill="url(#lapaint0_linear_2181_303668)"/>&#xa;<path d="M3.83331 9.58337C3.83331 6.40774 6.40768 3.83337 9.58331 3.83337H36.4166C39.5923 3.83337 42.1666 6.40774 42.1666 9.58337V36.4167C42.1666 39.5923 39.5923 42.1667 36.4166 42.1667H9.58331C6.40767 42.1667 3.83331 39.5923 3.83331 36.4167V9.58337Z" fill="url(#lapaint1_radial_2181_303668)" fill-opacity="0.2"/>&#xa;<path fill-rule="evenodd" clip-rule="evenodd" d="M36.4166 5.75004H9.58331C7.46622 5.75004 5.74998 7.46628 5.74998 9.58337V36.4167C5.74998 38.5338 7.46622 40.25 9.58331 40.25H36.4166C38.5337 40.25 40.25 38.5338 40.25 36.4167V9.58337C40.25 7.46628 38.5337 5.75004 36.4166 5.75004ZM9.58331 3.83337C6.40768 3.83337 3.83331 6.40774 3.83331 9.58337V36.4167C3.83331 39.5923 6.40767 42.1667 9.58331 42.1667H36.4166C39.5923 42.1667 42.1666 39.5923 42.1666 36.4167V9.58337C42.1666 6.40774 39.5923 3.83337 36.4166 3.83337H9.58331Z" fill="url(#lapaint2_linear_2181_303668)"/>&#xa;<path d="M15.0365 12.5209C13.6471 12.5209 12.5208 13.6472 12.5208 15.0365V18.3907C12.5208 19.78 13.6471 20.9063 15.0365 20.9063H15.875V24.0666C15.7516 24.1382 15.6353 24.2268 15.5297 24.3324L12.5929 27.2692C11.938 27.9242 11.9379 28.986 12.5929 29.641L15.5297 32.5778C16.1846 33.2327 17.2465 33.2327 17.9014 32.5778L20.8382 29.641C20.945 29.5342 21.0344 29.4166 21.1064 29.2917H24.2604V30.1302C24.2604 31.5196 25.3867 32.6459 26.776 32.6459H30.1302C31.5195 32.6459 32.6458 31.5196 32.6458 30.1302V26.7761C32.6458 25.3867 31.5195 24.2605 30.1302 24.2605H26.776C25.3867 24.2605 24.2604 25.3867 24.2604 26.7761V27.6146H21.1041C21.0325 27.4912 20.9439 27.3749 20.8382 27.2692L17.9014 24.3324C17.7946 24.2256 17.677 24.1362 17.5521 24.0643V20.9063H18.3906C19.78 20.9063 20.9062 19.78 20.9062 18.3907V15.0365C20.9062 13.6472 19.78 12.5209 18.3906 12.5209H15.0365Z" fill="url(#lapaint3_linear_2181_303668)"/>&#xa;<path d="M27.9549 9.94403L28.3999 11.3123C28.5383 11.7282 28.7719 12.1062 29.0821 12.4162C29.3923 12.7262 29.7705 12.9596 30.1868 13.0978L31.5561 13.5425L31.5835 13.5494C31.6891 13.5866 31.7804 13.6556 31.8451 13.7468C31.9097 13.8381 31.9444 13.9472 31.9444 14.059C31.9444 14.1708 31.9097 14.2799 31.8451 14.3712C31.7804 14.4625 31.6891 14.5315 31.5835 14.5687L30.2142 15.0134C29.7979 15.1516 29.4197 15.385 29.1095 15.695C28.7993 16.005 28.5657 16.383 28.4273 16.7989L27.9823 18.1672C27.9451 18.2726 27.876 18.3639 27.7846 18.4285C27.6933 18.4931 27.5841 18.5278 27.4722 18.5278C27.3603 18.5278 27.2512 18.4931 27.1598 18.4285C27.1508 18.4222 27.142 18.4155 27.1334 18.4087C27.0551 18.3458 26.9957 18.2622 26.9622 18.1672L26.5171 16.7989C26.4932 16.7263 26.4664 16.6549 26.4368 16.5847C26.2962 16.2517 26.0925 15.9482 25.8363 15.6911C25.7875 15.6423 25.7371 15.5953 25.6851 15.5502C25.4061 15.3086 25.0817 15.1237 24.7302 15.0065L23.3609 14.5619C23.2554 14.5246 23.164 14.4556 23.0994 14.3644C23.0347 14.2731 23 14.164 23 14.0522C23 13.9404 23.0347 13.8313 23.0994 13.74C23.164 13.6487 23.2554 13.5797 23.3609 13.5425L24.7302 13.0978C25.1414 12.9559 25.5143 12.7209 25.8195 12.4112C26.1247 12.1014 26.3541 11.7253 26.4898 11.3123L26.9348 9.94403C26.972 9.83857 27.0411 9.74725 27.1324 9.68266C27.2238 9.61806 27.3329 9.58337 27.4448 9.58337C27.5567 9.58337 27.6659 9.61806 27.7573 9.68266C27.8486 9.74725 27.9177 9.83857 27.9549 9.94403Z" fill="url(#lapaint4_linear_2181_303668)"/>&#xa;<path d="M34.2226 20.078L33.2446 19.7604C32.9472 19.6616 32.677 19.4949 32.4554 19.2735C32.2339 19.0521 32.067 18.7821 31.9682 18.485L31.6503 17.5077C31.6237 17.4323 31.5744 17.3671 31.5092 17.321C31.4439 17.2748 31.3659 17.25 31.286 17.25C31.2061 17.25 31.1281 17.2748 31.0628 17.321C30.9976 17.3671 30.9483 17.4323 30.9217 17.5077L30.6038 18.485C30.5069 18.78 30.3431 19.0487 30.125 19.2699C29.907 19.4912 29.6407 19.659 29.347 19.7604L28.3689 20.078C28.2935 20.1046 28.2283 20.1539 28.1821 20.2191C28.1359 20.2843 28.1111 20.3622 28.1111 20.4421C28.1111 20.5219 28.1359 20.5998 28.1821 20.665C28.2283 20.7302 28.2935 20.7795 28.3689 20.8061L29.347 21.1237C29.6449 21.223 29.9154 21.3904 30.137 21.6127C30.3586 21.835 30.5252 22.106 30.6234 22.404L30.9412 23.3813C30.9678 23.4567 31.0171 23.5219 31.0824 23.568C31.1476 23.6142 31.2256 23.6389 31.3056 23.6389C31.3855 23.6389 31.4635 23.6142 31.5287 23.568C31.594 23.5219 31.6433 23.4567 31.6699 23.3813L31.9878 22.404C32.0866 22.1069 32.2534 21.8369 32.475 21.6155C32.6966 21.3941 32.9668 21.2274 33.2641 21.1286L34.2422 20.811C34.3176 20.7844 34.3829 20.7351 34.429 20.6699C34.4752 20.6047 34.5 20.5268 34.5 20.4469C34.5 20.3671 34.4752 20.2892 34.429 20.224C34.3829 20.1587 34.3176 20.1095 34.2422 20.0829L34.2226 20.078Z" fill="url(#lapaint5_linear_2181_303668)"/>&#xa;<defs>&#xa;<linearGradient id="lapaint0_linear_2181_303668" x1="14.4815" y1="3.83337" x2="19.3305" y2="42.6254" gradientUnits="userSpaceOnUse">&#xa;<stop stop-color="white"/>&#xa;<stop offset="1" stop-color="#EBEBEB"/>&#xa;</linearGradient>&#xa;<radialGradient id="lapaint1_radial_2181_303668" cx="0" cy="0" r="1" gradientUnits="userSpaceOnUse" gradientTransform="translate(16.0787 13.816) rotate(56.3099) scale(36.4728 31.563)">&#xa;<stop offset="0.177083" stop-color="white"/>&#xa;<stop offset="1" stop-color="#B8B8B8"/>&#xa;</radialGradient>&#xa;<linearGradient id="lapaint2_linear_2181_303668" x1="16.2118" y1="3.83337" x2="21.3731" y2="42.5433" gradientUnits="userSpaceOnUse">&#xa;<stop stop-color="#BBBBBB"/>&#xa;<stop offset="1" stop-color="#888888"/>&#xa;</linearGradient>&#xa;<linearGradient id="lapaint3_linear_2181_303668" x1="12.1017" y1="12.5209" x2="32.6498" y2="33.065" gradientUnits="userSpaceOnUse">&#xa;<stop stop-color="#E03F8F"/>&#xa;<stop offset="1" stop-color="#BD1E7B"/>&#xa;</linearGradient>&#xa;<linearGradient id="lapaint4_linear_2181_303668" x1="23" y1="9.58337" x2="36.7772" y2="20.8556" gradientUnits="userSpaceOnUse">&#xa;<stop stop-color="#E03F8F"/>&#xa;<stop offset="1" stop-color="#BD1E7B"/>&#xa;</linearGradient>&#xa;<linearGradient id="lapaint5_linear_2181_303668" x1="23" y1="9.58337" x2="36.7772" y2="20.8556" gradientUnits="userSpaceOnUse">&#xa;<stop stop-color="#E03F8F"/>&#xa;<stop offset="1" stop-color="#BD1E7B"/>&#xa;</linearGradient>&#xa;</defs>&#xa;</svg>