<svg xmlns="http://www.w3.org/2000/svg" width="72.00234234665241" height="80" viewBox="3 2 17.99998664855957 20" fill="none">&#xa;<path fill-rule="evenodd" clip-rule="evenodd" d="M4.5 3C4.22386 3 4 3.22386 4 3.5V14H19.5L15.6 8.8C15.4667 8.62222 15.4667 8.37778 15.6 8.2L19.5 3H4.5ZM4 15V21.5C4 21.7761 3.77614 22 3.5 22C3.22386 22 3 21.7761 3 21.5V3.5C3 2.67157 3.67157 2 4.5 2H20.5C20.6894 2 20.8625 2.107 20.9472 2.27639C21.0319 2.44579 21.0136 2.64849 20.9 2.8L16.625 8.5L20.9 14.2C21.0136 14.3515 21.0319 14.5542 20.9472 14.7236C20.8625 14.893 20.6894 15 20.5 15H4Z" fill="url(#nipaint0_linear_42538_550)"/>&#xa;<defs>&#xa;<linearGradient id="nipaint0_linear_42538_550" x1="3" y1="2" x2="22.8895" y2="19.9006" gradientUnits="userSpaceOnUse">&#xa;<stop stop-color="#209782"/>&#xa;<stop offset="1" stop-color="#0C695A"/>&#xa;</linearGradient>&#xa;</defs>&#xa;</svg>