<svg xmlns="http://www.w3.org/2000/svg" width="80" height="80" viewBox="4 4 32 32" fill="none">&#xa;<path d="M4 8C4 5.79086 5.79086 4 8 4H32C34.2091 4 36 5.79086 36 8V32C36 34.2091 34.2091 36 32 36H8C5.79086 36 4 34.2091 4 32V8Z" fill="url(#lkpaint0_linear_59063_37923)"/>&#xa;<path d="M4 8C4 5.79086 5.79086 4 8 4H32C34.2091 4 36 5.79086 36 8V32C36 34.2091 34.2091 36 32 36H8C5.79086 36 4 34.2091 4 32V8Z" fill="url(#lkpaint1_radial_59063_37923)" fill-opacity="0.2"/>&#xa;<path fill-rule="evenodd" clip-rule="evenodd" d="M32 5H8C6.34315 5 5 6.34315 5 8V32C5 33.6569 6.34315 35 8 35H32C33.6569 35 35 33.6569 35 32V8C35 6.34315 33.6569 5 32 5ZM8 4C5.79086 4 4 5.79086 4 8V32C4 34.2091 5.79086 36 8 36H32C34.2091 36 36 34.2091 36 32V8C36 5.79086 34.2091 4 32 4H8Z" fill="url(#lkpaint2_linear_59063_37923)"/>&#xa;<path d="M11 13.5C11 12.6716 11.6716 12 12.5 12H14.5C14.7761 12 15 11.7761 15 11.5C15 11.2239 14.7761 11 14.5 11H12.5C11.1193 11 10 12.1193 10 13.5V26.5C10 27.8807 11.1193 29 12.5 29H14.5C14.7761 29 15 28.7761 15 28.5C15 28.2239 14.7761 28 14.5 28H12.5C11.6716 28 11 27.3284 11 26.5V13.5Z" fill="url(#lkpaint3_linear_59063_37923)"/>&#xa;<path d="M29 26.5C29 27.3284 28.3284 28 27.5 28H25.5C25.2239 28 25 28.2239 25 28.5C25 28.7761 25.2239 29 25.5 29H27.5C28.8807 29 30 27.8807 30 26.5V13.5C30 12.1193 28.8807 11 27.5 11H25.5C25.2239 11 25 11.2239 25 11.5C25 11.7761 25.2239 12 25.5 12H27.5C28.3284 12 29 12.6716 29 13.5V26.5Z" fill="url(#lkpaint4_linear_59063_37923)"/>&#xa;<path d="M25 21.5C25 20.6716 24.3284 20 23.5 20H16.5C15.6716 20 15 20.6716 15 21.5V22C15 23.9714 16.8595 26 20 26C23.1405 26 25 23.9714 25 22V21.5Z" fill="url(#lkpaint5_linear_59063_37923)"/>&#xa;<path d="M22.75 16.25C22.75 14.7312 21.5188 13.5 20 13.5C18.4812 13.5 17.25 14.7312 17.25 16.25C17.25 17.7688 18.4812 19 20 19C21.5188 19 22.75 17.7688 22.75 16.25Z" fill="url(#lkpaint6_linear_59063_37923)"/>&#xa;<defs>&#xa;<linearGradient id="lkpaint0_linear_59063_37923" x1="12.8889" y1="4" x2="16.9368" y2="36.3829" gradientUnits="userSpaceOnUse">&#xa;<stop stop-color="white"/>&#xa;<stop offset="1" stop-color="#EBEBEB"/>&#xa;</linearGradient>&#xa;<radialGradient id="lkpaint1_radial_59063_37923" cx="0" cy="0" r="1" gradientUnits="userSpaceOnUse" gradientTransform="translate(14.2222 12.3333) rotate(56.3099) scale(30.4469 26.3483)">&#xa;<stop offset="0.177083" stop-color="white"/>&#xa;<stop offset="1" stop-color="#B8B8B8"/>&#xa;</radialGradient>&#xa;<linearGradient id="lkpaint2_linear_59063_37923" x1="14.3333" y1="4" x2="18.6419" y2="36.3144" gradientUnits="userSpaceOnUse">&#xa;<stop stop-color="#BBBBBB"/>&#xa;<stop offset="1" stop-color="#888888"/>&#xa;</linearGradient>&#xa;<linearGradient id="lkpaint3_linear_59063_37923" x1="10" y1="11" x2="27.9006" y2="30.8895" gradientUnits="userSpaceOnUse">&#xa;<stop stop-color="#209782"/>&#xa;<stop offset="1" stop-color="#0C695A"/>&#xa;</linearGradient>&#xa;<linearGradient id="lkpaint4_linear_59063_37923" x1="10" y1="11" x2="27.9006" y2="30.8895" gradientUnits="userSpaceOnUse">&#xa;<stop stop-color="#209782"/>&#xa;<stop offset="1" stop-color="#0C695A"/>&#xa;</linearGradient>&#xa;<linearGradient id="lkpaint5_linear_59063_37923" x1="10" y1="11" x2="27.9006" y2="30.8895" gradientUnits="userSpaceOnUse">&#xa;<stop stop-color="#209782"/>&#xa;<stop offset="1" stop-color="#0C695A"/>&#xa;</linearGradient>&#xa;<linearGradient id="lkpaint6_linear_59063_37923" x1="10" y1="11" x2="27.9006" y2="30.8895" gradientUnits="userSpaceOnUse">&#xa;<stop stop-color="#209782"/>&#xa;<stop offset="1" stop-color="#0C695A"/>&#xa;</linearGradient>&#xa;</defs>&#xa;</svg>