<svg xmlns="http://www.w3.org/2000/svg" width="80" height="80" viewBox="4 4 32 32" fill="none">&#xa;<path d="M4 8C4 5.79086 5.79086 4 8 4H32C34.2091 4 36 5.79086 36 8V32C36 34.2091 34.2091 36 32 36H8C5.79086 36 4 34.2091 4 32V8Z" fill="url(#hdpaint0_linear_252_55688)"/>&#xa;<path d="M4 8C4 5.79086 5.79086 4 8 4H32C34.2091 4 36 5.79086 36 8V32C36 34.2091 34.2091 36 32 36H8C5.79086 36 4 34.2091 4 32V8Z" fill="url(#hdpaint1_radial_252_55688)" fill-opacity="0.2"/>&#xa;<path fill-rule="evenodd" clip-rule="evenodd" d="M32 5H8C6.34315 5 5 6.34315 5 8V32C5 33.6569 6.34315 35 8 35H32C33.6569 35 35 33.6569 35 32V8C35 6.34315 33.6569 5 32 5ZM8 4C5.79086 4 4 5.79086 4 8V32C4 34.2091 5.79086 36 8 36H32C34.2091 36 36 34.2091 36 32V8C36 5.79086 34.2091 4 32 4H8Z" fill="url(#hdpaint2_linear_252_55688)"/>&#xa;<path d="M14.3086 15.3187C13.8832 15.57 13.387 15.7143 12.8571 15.7143C11.2792 15.7143 10 14.4351 10 12.8571C10 11.2792 11.2792 10 12.8571 10C14.4351 10 15.7143 11.2792 15.7143 12.8571C15.7143 13.387 15.5701 13.8831 15.3187 14.3085L18.5486 17.5384C18.974 17.2871 19.4702 17.1429 20 17.1429C20.5298 17.1429 21.026 17.2871 21.4514 17.5384L24.6813 14.3085C24.4299 13.8831 24.2857 13.387 24.2857 12.8571C24.2857 11.2792 25.5649 10 27.1429 10C28.7208 10 30 11.2792 30 12.8571C30 14.4351 28.7208 15.7143 27.1429 15.7143C26.613 15.7143 26.1168 15.57 25.6914 15.3187L22.4615 18.5485C22.7129 18.9739 22.8571 19.4701 22.8571 20C22.8571 20.5298 22.7129 21.026 22.4616 21.4514L25.6915 24.6813C26.1169 24.4299 26.613 24.2857 27.1429 24.2857C28.7208 24.2857 30 25.5649 30 27.1429C30 28.7208 28.7208 30 27.1429 30C25.5649 30 24.2857 28.7208 24.2857 27.1429C24.2857 26.613 24.43 26.1168 24.6813 25.6914L21.4515 22.4615C21.0261 22.7129 20.5299 22.8571 20 22.8571C19.4701 22.8571 18.9739 22.7129 18.5485 22.4615L15.3187 25.6914C15.57 26.1168 15.7143 26.613 15.7143 27.1429C15.7143 28.7208 14.4351 30 12.8571 30C11.2792 30 10 28.7208 10 27.1429C10 25.5649 11.2792 24.2857 12.8571 24.2857C13.387 24.2857 13.8831 24.4299 14.3085 24.6813L17.5384 21.4514C17.2871 21.026 17.1429 20.5298 17.1429 20C17.1429 19.4701 17.2871 18.9739 17.5385 18.5485L14.3086 15.3187Z" fill="#242424"/>&#xa;<defs>&#xa;<linearGradient id="hdpaint0_linear_252_55688" x1="12.8889" y1="4" x2="16.9368" y2="36.3829" gradientUnits="userSpaceOnUse">&#xa;<stop stop-color="white"/>&#xa;<stop offset="1" stop-color="#EBEBEB"/>&#xa;</linearGradient>&#xa;<radialGradient id="hdpaint1_radial_252_55688" cx="0" cy="0" r="1" gradientUnits="userSpaceOnUse" gradientTransform="translate(14.2222 12.3333) rotate(56.3099) scale(30.4469 26.3483)">&#xa;<stop offset="0.177083" stop-color="white"/>&#xa;<stop offset="1" stop-color="#B8B8B8"/>&#xa;</radialGradient>&#xa;<linearGradient id="hdpaint2_linear_252_55688" x1="14.3333" y1="4" x2="18.6419" y2="36.3144" gradientUnits="userSpaceOnUse">&#xa;<stop stop-color="#BBBBBB"/>&#xa;<stop offset="1" stop-color="#888888"/>&#xa;</linearGradient>&#xa;</defs>&#xa;</svg>