<svg xmlns="http://www.w3.org/2000/svg" width="80" height="80" viewBox="5 5 38 38" fill="none">&#xa;<path d="M5 10C5 7.23858 7.23858 5 10 5H38C40.7614 5 43 7.23858 43 10V38C43 40.7614 40.7614 43 38 43H10C7.23858 43 5 40.7614 5 38V10Z" fill="url(#cgpaint0_linear_61075_84)"/>&#xa;<path d="M5 10C5 7.23858 7.23858 5 10 5H38C40.7614 5 43 7.23858 43 10V38C43 40.7614 40.7614 43 38 43H10C7.23858 43 5 40.7614 5 38V10Z" fill="url(#cgpaint1_radial_61075_84)" fill-opacity="0.2"/>&#xa;<path fill-rule="evenodd" clip-rule="evenodd" d="M38 6H10C7.79086 6 6 7.79086 6 10V38C6 40.2091 7.79086 42 10 42H38C40.2091 42 42 40.2091 42 38V10C42 7.79086 40.2091 6 38 6ZM10 5C7.23858 5 5 7.23858 5 10V38C5 40.7614 7.23858 43 10 43H38C40.7614 43 43 40.7614 43 38V10C43 7.23858 40.7614 5 38 5H10Z" fill="url(#cgpaint2_linear_61075_84)"/>&#xa;<path d="M25.75 15C26.9926 15 28 16.0074 28 17.25V19H29.75C31.5449 19 33 20.4551 33 22.25V29.75C33 31.5449 31.5449 33 29.75 33H18.25C16.4551 33 15 31.5449 15 29.75V22.25C15 20.4551 16.4551 19 18.25 19H20V17.25C20 16.0074 21.0074 15 22.25 15H25.75ZM22.5723 22C22.3109 22.0076 22.0744 22.1507 21.9453 22.3721L21.8975 22.4717L20.6797 25.5215H19.5C19.086 25.5215 18.7503 25.8575 18.75 26.2715C18.75 26.6857 19.0858 27.0215 19.5 27.0215H21.1875C21.4943 27.0215 21.77 26.8348 21.8838 26.5498L22.6484 24.6338L24.7275 29.0684C24.8466 29.3221 25.0969 29.4881 25.377 29.499C25.6572 29.5099 25.9202 29.364 26.0586 29.1201L27.249 27.0215H28.5C28.9142 27.0215 29.25 26.6857 29.25 26.2715C29.2497 25.8575 28.914 25.5215 28.5 25.5215H26.8125C26.5427 25.5215 26.2934 25.6668 26.1602 25.9014L25.4688 27.1182L23.2725 22.4316C23.1456 22.1614 22.8707 21.9915 22.5723 22ZM22.25 16.5C21.8358 16.5 21.5 16.8358 21.5 17.25V19H26.5V17.25C26.5 16.8358 26.1642 16.5 25.75 16.5H22.25Z" fill="url(#cgpaint3_linear_61075_84)"/>&#xa;<defs>&#xa;<linearGradient id="cgpaint0_linear_61075_84" x1="15.5556" y1="5" x2="20.3624" y2="43.4547" gradientUnits="userSpaceOnUse">&#xa;<stop stop-color="white"/>&#xa;<stop offset="1" stop-color="#EBEBEB"/>&#xa;</linearGradient>&#xa;<radialGradient id="cgpaint1_radial_61075_84" cx="0" cy="0" r="1" gradientUnits="userSpaceOnUse" gradientTransform="translate(17.1389 14.8958) rotate(56.3099) scale(36.1557 31.2886)">&#xa;<stop offset="0.177083" stop-color="white"/>&#xa;<stop offset="1" stop-color="#B8B8B8"/>&#xa;</radialGradient>&#xa;<linearGradient id="cgpaint2_linear_61075_84" x1="17.2708" y1="5" x2="22.3873" y2="43.3734" gradientUnits="userSpaceOnUse">&#xa;<stop stop-color="#BBBBBB"/>&#xa;<stop offset="1" stop-color="#888888"/>&#xa;</linearGradient>&#xa;<linearGradient id="cgpaint3_linear_61075_84" x1="15" y1="15" x2="33" y2="33" gradientUnits="userSpaceOnUse">&#xa;<stop stop-color="#E03F8F"/>&#xa;<stop offset="1" stop-color="#BD1E7B"/>&#xa;</linearGradient>&#xa;</defs>&#xa;</svg>