<svg fill="none" focusable="false" height="100%" viewBox="0 0 16 17" width="100%" xmlns="http://www.w3.org/2000/svg"><g clip-path="url(#clip0_5677_47306)"><path d="M15.0925 12.602H13.2259V10.7354C13.2126 10.6321 13.1631 10.537 13.0862 10.4669C13.0093 10.3968 12.9099 10.3563 12.8059 10.3527H12.6565C12.5402 10.3527 12.4286 10.3989 12.3464 10.4812C12.2641 10.5635 12.2179 10.675 12.2179 10.7914V12.658H10.3512C10.2365 12.6605 10.1273 12.7078 10.047 12.7898C9.96678 12.8718 9.92185 12.982 9.92188 13.0967V13.1534C9.92185 13.2681 9.96678 13.3783 10.047 13.4603C10.1273 13.5423 10.2365 13.5896 10.3512 13.592H12.2179V15.4587C12.2203 15.5734 12.2676 15.6826 12.3496 15.7629C12.4316 15.8431 12.5418 15.8881 12.6565 15.888H12.8059C12.9206 15.8881 13.0308 15.8431 13.1128 15.7629C13.1948 15.6826 13.2421 15.5734 13.2445 15.4587V13.592H15.1112C15.2275 13.5919 15.339 13.5456 15.4212 13.4634C15.5034 13.3811 15.5497 13.2697 15.5499 13.1534V13.004C15.5403 12.8909 15.4874 12.7859 15.4021 12.711C15.3169 12.636 15.2059 12.597 15.0925 12.602Z" fill="#767676"></path><path d="M7.92628 11.456C7.67826 11.4615 7.43675 11.3764 7.24695 11.2167C7.06901 11.0645 6.91957 10.8819 6.80561 10.6774C6.73313 10.5378 6.6742 10.3916 6.62961 10.2407C6.56783 10.0465 6.50539 9.82426 6.44228 9.57404C6.37917 9.32382 6.3125 9.06182 6.24228 8.78804C6.16761 8.5076 6.10539 8.2396 6.05561 7.98404C6.00583 7.72849 5.95561 7.49604 5.90494 7.28671C5.88761 7.21271 5.87295 7.14471 5.85961 7.08271C5.73206 7.3076 5.58895 7.55338 5.43028 7.82004C5.20828 8.19004 4.96361 8.57204 4.70428 8.95338C4.44495 9.33471 4.17095 9.69938 3.90428 10.0274C3.66168 10.3259 3.39404 10.6031 3.10428 10.856C2.90279 11.0203 2.68393 11.162 2.45161 11.2787C2.2121 11.398 1.94785 11.4592 1.68028 11.4574C1.52673 11.4584 1.37405 11.4343 1.22828 11.386C1.08422 11.3384 0.95148 11.2617 0.838279 11.1607C0.723731 11.0606 0.629957 10.939 0.562279 10.8027C0.49133 10.6575 0.455478 10.4976 0.457613 10.336C0.448587 10.0713 0.544972 9.81379 0.725612 9.62004C0.817599 9.52598 0.928193 9.45214 1.05033 9.40324C1.17247 9.35434 1.30346 9.33145 1.43495 9.33604C1.58785 9.33551 1.73813 9.37578 1.87028 9.45271C1.98548 9.51989 2.09677 9.59356 2.20361 9.67338C2.30361 9.74804 2.40028 9.82338 2.49361 9.89804C2.53881 9.94051 2.59615 9.96778 2.65761 9.97604C2.72028 9.97604 2.82761 9.94604 3.03295 9.74738C3.23934 9.54279 3.43093 9.32379 3.60628 9.09204C3.81361 8.82538 4.02695 8.52404 4.24095 8.20004C4.45495 7.87604 4.65961 7.55604 4.85095 7.24804C5.04228 6.94004 5.20028 6.66604 5.32828 6.42138C5.44561 6.19871 5.53761 6.02871 5.60428 5.91004L5.43095 5.25938C5.36917 5.03004 5.31028 4.79738 5.25428 4.56138C5.20495 4.36404 5.15228 4.14182 5.09628 3.89471C5.04028 3.6476 4.97383 3.40049 4.89695 3.15338C4.82425 2.91828 4.72517 2.69218 4.60161 2.47938C4.49705 2.29549 4.35861 2.13308 4.19361 2.00071C4.03158 1.88262 3.84568 1.80139 3.64895 1.76271C3.43826 1.72619 3.22477 1.70834 3.01095 1.70938C2.81095 1.70938 2.61095 1.71804 2.41095 1.73671L2.29095 1.74738V1.12671L5.51495 0.553375L5.55561 0.597375C5.78871 0.843636 5.99519 1.1138 6.17161 1.40338C6.32604 1.66012 6.4598 1.92875 6.57161 2.20671C6.68116 2.48621 6.77224 2.77261 6.84428 3.06404C6.90161 3.29071 6.96495 3.53071 7.03628 3.77671C7.18961 3.54382 7.34317 3.3076 7.49695 3.06804C7.69482 2.75871 7.91075 2.46131 8.14361 2.17738C8.37505 1.89617 8.6266 1.63214 8.89628 1.38738C9.17649 1.13525 9.49066 0.923636 9.82961 0.758709C9.94836 0.699459 10.0731 0.652976 10.2016 0.620042C10.3301 0.587911 10.4614 0.568265 10.5936 0.561375C10.7402 0.560833 10.8861 0.581033 11.0269 0.621375C11.1645 0.66018 11.2946 0.721937 11.4116 0.804042C11.5288 0.885573 11.6236 0.995123 11.6876 1.12271C11.7541 1.2645 11.7898 1.41878 11.7923 1.57538C11.8019 1.71212 11.7832 1.84938 11.7373 1.97855C11.6914 2.10772 11.6194 2.22603 11.5256 2.32604C11.3177 2.50608 11.0474 2.59709 10.7729 2.57938C10.6556 2.57903 10.5388 2.56197 10.4263 2.52871C10.3189 2.49738 10.2143 2.46204 10.1129 2.42404C10.0116 2.38604 9.91761 2.35738 9.81495 2.32471C9.7238 2.29925 9.62958 2.28646 9.53495 2.28671C9.40621 2.29419 9.28246 2.33914 9.17894 2.41604C9.02093 2.52485 8.87499 2.65023 8.74361 2.79004C8.5828 2.95847 8.4306 3.13491 8.28761 3.31871C8.13472 3.51426 7.9945 3.7096 7.86695 3.90471C7.73939 4.09982 7.62272 4.28382 7.51694 4.45671C7.42494 4.60826 7.35206 4.73338 7.29828 4.83204L8.22495 8.73804L8.29895 9.06338C8.33071 9.19956 8.37238 9.33325 8.42361 9.46338C8.46885 9.58198 8.5296 9.69406 8.60428 9.79671C8.6257 9.82956 8.65453 9.85694 8.68846 9.87662C8.72239 9.8963 8.76046 9.90775 8.79961 9.91004C8.94378 9.89728 9.08048 9.84023 9.19095 9.74671C9.36244 9.61775 9.52177 9.47337 9.66695 9.31538C9.81732 9.15419 9.95276 8.9797 10.0716 8.79404C10.1863 8.61204 10.2716 8.46071 10.3349 8.34004L10.3843 8.24271L10.9843 8.53471L10.9323 8.63538C10.8563 8.78004 10.7563 8.95004 10.6303 9.14404C10.5043 9.33804 10.3636 9.53938 10.1983 9.74404C10.0329 9.94871 9.86828 10.152 9.69428 10.3514C9.51903 10.5516 9.32405 10.7336 9.11228 10.8947C8.92773 11.0361 8.73615 11.168 8.53828 11.29C8.36636 11.3971 8.16812 11.4543 7.96561 11.4554L7.92628 11.456Z" fill="url(#paint0_linear_5677_47306)"></path></g><defs><linearGradient gradientUnits="userSpaceOnUse" id="paint0_linear_5677_47306" x1="6.12295" x2="6.12295" y1="11.4574" y2="0.553375"><stop stop-color="#0078D4"></stop><stop offset="1" stop-color="#5EA0EF"></stop></linearGradient><clipPath id="clip0_5677_47306"><rect fill="white" height="16" transform="translate(0 0.220047)" width="16"></rect></clipPath></defs></svg>