<svg fill="none" focusable="false" height="100%" viewBox="0 0 16 16" width="100%" xmlns="http://www.w3.org/2000/svg"><path d="M15.937 8.7V6.844L15.842 6.764L13.909 6.1L13.418 4.833L14.4 2.933L14.495 2.727L13.909 2.093L13.209 1.349L12.955 1.475L11.102 2.426L9.83799 2.059L9.02999 0H7.19199L7.09999 0.1L6.46299 1.98L5.16299 2.471L3.02599 1.457L1.72599 2.757L1.85199 3.011L2.81999 4.848L2.29999 6.115L0.0629883 6.923V8.776L0.332988 8.855L2.29699 9.505L2.81999 10.851L1.80599 12.99L3.10599 14.305L3.35899 14.194L5.21299 13.244L6.47999 13.766L7.28699 16H9.15599V15.6L9.80599 13.636L11.057 13.113L13.228 14.113L14.528 12.813L14.401 12.559L13.501 10.848L13.865 9.548L15.937 8.7ZM8.15799 10.408C7.64364 10.4114 7.13986 10.2621 6.71037 9.97905C6.28089 9.69603 5.945 9.29198 5.7452 8.81801C5.5454 8.34405 5.49067 7.82147 5.58794 7.3164C5.6852 6.81132 5.93009 6.34644 6.29162 5.98058C6.65314 5.61471 7.11507 5.36429 7.61895 5.26101C8.12282 5.15773 8.64602 5.20622 9.12233 5.40035C9.59864 5.59448 10.0067 5.92553 10.2948 6.35161C10.5829 6.77769 10.7382 7.27965 10.741 7.794C10.741 8.48194 10.4699 9.14216 9.98636 9.6315C9.50282 10.1208 8.84588 10.3998 8.15799 10.408Z" fill="url(#paint0_linear)"></path><defs><linearGradient gradientUnits="userSpaceOnUse" id="paint0_linear" x1="7.99999" x2="7.99999" y1="16" y2="0"><stop offset="0.001" stop-color="#767676"></stop><stop offset="1" stop-color="#D9D9D9"></stop></linearGradient></defs></svg>