<svg fill="none" focusable="false" height="100%" viewBox="0 0 16 16" width="100%" xmlns="http://www.w3.org/2000/svg"><g clip-path="url(#clip0_1_2)"><path d="M7.12365 10.4916H10.0276C10.0831 10.4909 10.1367 10.4714 10.1798 10.4364C10.2228 10.4013 10.2526 10.3527 10.2645 10.2985C10.4222 9.55102 10.8385 8.8831 11.4402 8.41226C11.4883 8.37702 11.5213 8.3249 11.5327 8.26637C11.5441 8.20781 11.533 8.14712 11.5016 8.09642L9.99255 5.46437C9.96313 5.41471 9.91658 5.37748 9.86166 5.35971C9.80672 5.34194 9.74719 5.34483 9.69426 5.36788C9.34231 5.49511 8.97175 5.56328 8.59758 5.56966C8.21109 5.57301 7.82734 5.50458 7.4658 5.36788C7.41065 5.34822 7.35029 5.3489 7.2956 5.36981C7.2409 5.39071 7.19548 5.43048 7.16751 5.48193L5.65846 8.11395C5.629 8.1652 5.619 8.22533 5.63027 8.28333C5.64155 8.34134 5.67336 8.39335 5.71989 8.4298C6.31652 8.89985 6.72942 9.56424 6.88676 10.3073C6.8989 10.3607 6.92911 10.4081 6.97229 10.4417C7.01547 10.4753 7.06896 10.4929 7.12365 10.4916ZM5.36895 2.34103H3.61427C3.57132 2.34049 3.52905 2.35165 3.49196 2.37328C3.45487 2.39491 3.42436 2.42622 3.40369 2.46385L1.17524 6.29785C1.15368 6.33519 1.14233 6.37756 1.14233 6.42068C1.14233 6.46381 1.15368 6.50616 1.17524 6.5435L1.99117 7.94726C2.02261 8.00191 2.07323 8.04295 2.13321 8.0624C2.19319 8.08185 2.25825 8.07834 2.31579 8.05255C2.75266 7.83823 3.23293 7.72717 3.71953 7.72792C3.83635 7.71921 3.95365 7.71921 4.07047 7.72792C4.11864 7.7311 4.16679 7.72139 4.20994 7.6998C4.25312 7.67821 4.28978 7.64553 4.31613 7.60509L5.00924 6.42068L6.05327 4.61336C6.08122 4.57351 6.0962 4.52603 6.0962 4.47736C6.0962 4.4287 6.08122 4.38122 6.05327 4.34138C5.5927 3.77596 5.3389 3.07028 5.33385 2.34103H5.36895ZM13.809 2.46385C13.7883 2.42622 13.7578 2.39491 13.7207 2.37328C13.6836 2.35165 13.6414 2.34049 13.5985 2.34103H11.8438C11.8453 3.06282 11.6043 3.76422 11.1594 4.33259C11.1315 4.37245 11.1165 4.41993 11.1165 4.46859C11.1165 4.51726 11.1315 4.56474 11.1594 4.60457L12.2122 6.42068L12.9053 7.62265C12.9294 7.66525 12.9656 7.69972 13.0094 7.7216C13.0532 7.74348 13.1025 7.75179 13.151 7.74548H13.4844C13.9734 7.74793 14.4559 7.85879 14.8969 8.07009C14.9438 8.08894 14.9955 8.09228 15.0444 8.07965C15.0934 8.06703 15.137 8.03909 15.1689 7.9999L15.9848 6.58739C16.0064 6.55003 16.0177 6.50768 16.0177 6.46454C16.0177 6.42142 16.0064 6.37908 15.9848 6.34171L13.809 2.46385ZM10.1505 11.8953H7.0008C6.94981 11.8938 6.89961 11.9082 6.85715 11.9365C6.8147 11.9648 6.78212 12.0056 6.76392 12.0532C6.53489 12.6932 6.10769 13.2433 5.54443 13.6237C5.49211 13.6595 5.45501 13.7134 5.44041 13.7751C5.4258 13.8368 5.43473 13.9017 5.46547 13.9571L6.15856 15.1503C6.18056 15.1867 6.21138 15.2171 6.24818 15.2385C6.28496 15.26 6.32656 15.2719 6.36911 15.2731H10.7997C10.8423 15.2719 10.8839 15.26 10.9207 15.2385C10.9575 15.2171 10.9883 15.1867 11.0103 15.1503L11.6946 13.9658C11.7274 13.9109 11.7376 13.8454 11.7228 13.7831C11.7081 13.7209 11.6696 13.6668 11.6156 13.6325C11.0493 13.2494 10.6193 12.6964 10.3874 12.0532C10.3692 12.0056 10.3366 11.9648 10.2941 11.9365C10.2517 11.9082 10.2015 11.8938 10.1505 11.8953Z" fill="#0078D4"></path><path d="M3.71966 12.5887C4.61607 12.5887 5.34274 11.862 5.34274 10.9656C5.34274 10.0692 4.61607 9.34253 3.71966 9.34253C2.82324 9.34253 2.09657 10.0692 2.09657 10.9656C2.09657 11.862 2.82324 12.5887 3.71966 12.5887Z" fill="url(#paint0_linear_1_2)"></path><path d="M13.4317 12.5887C14.3281 12.5887 15.0548 11.862 15.0548 10.9656C15.0548 10.0692 14.3281 9.34253 13.4317 9.34253C12.5353 9.34253 11.8086 10.0692 11.8086 10.9656C11.8086 11.862 12.5353 12.5887 13.4317 12.5887Z" fill="url(#paint1_linear_1_2)"></path><path d="M8.57996 3.96432C9.47637 3.96432 10.2031 3.23763 10.2031 2.34124C10.2031 1.44482 9.47637 0.718141 8.57996 0.718141C7.68356 0.718141 6.95687 1.44482 6.95687 2.34124C6.95687 3.23763 7.68356 3.96432 8.57996 3.96432Z" fill="url(#paint2_linear_1_2)"></path><path d="M13.4319 5.73642C12.9116 5.73525 12.394 5.81213 11.8965 5.96453L12.1597 6.42074L12.8528 7.62271C12.8769 7.66533 12.9131 7.69978 12.9569 7.72166C13.0006 7.74354 13.0499 7.75185 13.0985 7.74554H13.4319C13.9209 7.74799 14.4033 7.85885 14.8444 8.07015C14.8969 8.10336 14.9603 8.1146 15.0211 8.10149C15.0818 8.08835 15.1349 8.05189 15.169 7.99996L15.8621 6.80677L16.0463 6.48216C15.2572 6.00428 14.3544 5.74674 13.4319 5.73642ZM10.2646 10.2986C10.4223 9.55109 10.8386 8.88316 11.4403 8.41232C11.4884 8.37708 11.5215 8.32497 11.5329 8.26643C11.5442 8.20788 11.5331 8.14718 11.5017 8.09648L10.6243 6.55235C9.9524 6.98421 9.38756 7.56332 8.97258 8.24584C8.55762 8.92833 8.30341 9.69633 8.2292 10.4916H10.0365C10.0905 10.489 10.1421 10.4687 10.1833 10.4338C10.2246 10.3989 10.2531 10.3514 10.2646 10.2986ZM10.3875 12.0533C10.3693 12.0056 10.3367 11.9648 10.2942 11.9365C10.2518 11.9082 10.2016 11.8938 10.1506 11.8954H8.28184C8.53632 13.2675 9.32525 14.4825 10.4752 15.2732H10.7998C10.8424 15.2719 10.884 15.2601 10.9208 15.2386C10.9576 15.2171 10.9884 15.1868 11.0104 15.1503L11.6947 13.9659C11.7276 13.911 11.7377 13.8454 11.7229 13.7832C11.7082 13.7209 11.6697 13.6669 11.6158 13.6325C11.0364 13.255 10.5935 12.7014 10.3524 12.0533H10.3875Z" fill="#5EA0EF"></path></g><defs><linearGradient gradientUnits="userSpaceOnUse" id="paint0_linear_1_2" x1="3.71966" x2="3.71966" y1="12.5799" y2="9.35132"><stop offset="0.09" stop-color="#32BEDD"></stop><stop offset="1" stop-color="#50E6FF"></stop></linearGradient><linearGradient gradientUnits="userSpaceOnUse" id="paint1_linear_1_2" x1="13.4317" x2="13.4317" y1="12.5799" y2="9.35132"><stop offset="0.09" stop-color="#32BEDD"></stop><stop offset="1" stop-color="#50E6FF"></stop></linearGradient><linearGradient gradientUnits="userSpaceOnUse" id="paint2_linear_1_2" x1="8.57996" x2="8.57996" y1="3.96432" y2="0.726916"><stop offset="0.09" stop-color="#32BEDD"></stop><stop offset="1" stop-color="#50E6FF"></stop></linearGradient><clipPath id="clip0_1_2"><rect fill="white" height="15.7922" transform="translate(0.5 0.103896)" width="16"></rect></clipPath></defs></svg>