<svg fill="none" focusable="false" height="100%" viewBox="0 0 17 16" width="100%" xmlns="http://www.w3.org/2000/svg"><g clip-path="url(#clip0_59602_728)"><path d="M11.1672 3.90281C13.472 3.90281 15.3418 3.3038 15.3418 2.51257V9.91811C15.3418 10.6792 13.5059 11.2967 11.2274 11.3083H11.1691C8.86536 11.3083 6.99456 10.7093 6.99456 9.91811V2.51257C6.99456 3.28536 8.86341 3.90281 11.1672 3.90281Z" fill="url(#paint0_linear_59602_728)"></path><path d="M6.99457 2.51328C6.99457 3.28995 8.86342 3.90352 11.1692 3.90352C13.4749 3.90352 15.3438 3.30451 15.3438 2.51328C15.3438 1.72205 13.472 1.12305 11.1672 1.12305C8.86245 1.12305 6.99262 1.72205 6.99262 2.51328" fill="#E8E8E8"></path><path d="M7.96358 2.39958C7.96358 2.89083 9.40236 3.28596 11.1673 3.28596C12.9323 3.28596 14.3711 2.89083 14.3711 2.39958C14.3711 1.90834 12.9304 1.51807 11.1664 1.51807C9.40236 1.51807 7.96261 1.91417 7.96261 2.39958" fill="#50E6FF"></path><path d="M11.1673 2.62031C12.0243 2.60114 12.8789 2.71813 13.6992 2.9669C12.8778 3.20884 12.0231 3.31798 11.1673 3.29018C10.3097 3.31233 9.45429 3.19327 8.63534 2.93777C9.45803 2.70264 10.312 2.59557 11.1673 2.62031Z" fill="#198AB3"></path><path d="M6.99435 8.27781C9.29912 8.27781 11.1689 7.67783 11.1689 6.88757V14.2931C11.1689 15.0542 9.3331 15.6717 7.05552 15.6833H6.99629C4.6925 15.6833 2.8217 15.0843 2.8217 14.2931V6.88757C2.82267 7.66036 4.69056 8.27781 6.99435 8.27781Z" fill="url(#paint1_linear_59602_728)"></path><path d="M2.82367 6.88828C2.82367 7.66495 4.69156 8.27852 6.99826 8.27852C9.30496 8.27852 11.1729 7.67854 11.1729 6.88828C11.1729 6.09802 9.30496 5.49805 6.99826 5.49805C4.69156 5.49805 2.82367 6.09705 2.82367 6.88828Z" fill="#E8E8E8"></path><path d="M3.79268 6.77361C3.79268 7.26486 5.23146 7.66096 6.99644 7.66096C8.76142 7.66096 10.2002 7.26486 10.2002 6.77361C10.2002 6.28237 8.76142 5.89307 6.99644 5.89307C5.23146 5.89307 3.79268 6.2882 3.79268 6.77361Z" fill="#50E6FF"></path><path d="M6.99541 6.99571C7.85231 6.97409 8.70723 7.08845 9.52832 7.33453C8.70652 7.576 7.85152 7.68513 6.99541 7.65782C6.13812 7.68099 5.28281 7.56359 4.46347 7.31026C5.28622 7.07564 6.14027 6.96954 6.99541 6.99571Z" fill="#198AB3"></path><path d="M6.33144 1.59856L4.78544 0.0945582C4.61644 -0.0734418 4.47244 -0.0144417 4.47244 0.246558V0.922558C4.47257 0.946937 4.46788 0.971101 4.45864 0.993662C4.4494 1.01622 4.4358 1.03674 4.41861 1.05402C4.40141 1.0713 4.38098 1.08502 4.35846 1.09438C4.33595 1.10374 4.31182 1.10856 4.28744 1.10856H4.27844C3.27844 1.10856 0.503437 1.37056 0.402437 5.17056C0.401633 5.19654 0.406057 5.22241 0.415446 5.24664C0.424835 5.27088 0.438997 5.29298 0.457092 5.31163C0.475187 5.33029 0.496847 5.34512 0.520783 5.35524C0.54472 5.36536 0.570447 5.37057 0.596437 5.37056H1.58444C1.63646 5.37058 1.68644 5.35034 1.72378 5.31412C1.76112 5.2779 1.78288 5.22856 1.78444 5.17656C1.78493 5.17057 1.78493 5.16455 1.78444 5.15856C1.70526 4.79755 1.71307 4.42288 1.8072 4.06548C1.90134 3.70808 2.07912 3.37819 2.32586 3.10302C2.5726 2.82785 2.88123 2.6153 3.2263 2.48291C3.57136 2.35051 3.94296 2.30206 4.31044 2.34156C4.33641 2.34075 4.36229 2.34518 4.38652 2.35457C4.41076 2.36396 4.43286 2.37812 4.45151 2.39621C4.47017 2.41431 4.48499 2.43597 4.49512 2.45991C4.50524 2.48384 4.51045 2.50957 4.51044 2.53556V3.15856C4.51044 3.47156 4.61044 3.52156 4.82344 3.31056L6.33144 1.91956C6.37282 1.88959 6.40116 1.84491 6.41064 1.7947C6.42013 1.74449 6.41003 1.69256 6.38244 1.64956C6.36885 1.62946 6.35154 1.61215 6.33144 1.59856Z" fill="#B3B3B3"></path></g><defs><linearGradient gradientUnits="userSpaceOnUse" id="paint0_linear_59602_728" x1="15.3399" x2="6.99456" y1="6.91046" y2="6.91046"><stop stop-color="#005BA1"></stop><stop offset="0.07" stop-color="#0060A9"></stop><stop offset="0.36" stop-color="#0071C8"></stop><stop offset="0.52" stop-color="#0078D4"></stop><stop offset="0.64" stop-color="#0074CD"></stop><stop offset="0.82" stop-color="#006ABB"></stop><stop offset="1" stop-color="#005BA1"></stop></linearGradient><linearGradient gradientUnits="userSpaceOnUse" id="paint1_linear_59602_728" x1="-39.9329" x2="-111.677" y1="3868.49" y2="3868.49"><stop stop-color="#005BA1"></stop><stop offset="0.07" stop-color="#0060A9"></stop><stop offset="0.36" stop-color="#0071C8"></stop><stop offset="0.52" stop-color="#0078D4"></stop><stop offset="0.64" stop-color="#0074CD"></stop><stop offset="0.82" stop-color="#006ABB"></stop><stop offset="1" stop-color="#005BA1"></stop></linearGradient><clipPath id="clip0_59602_728"><rect fill="white" height="16" transform="translate(0.402344)" width="16"></rect></clipPath></defs></svg>