<svg fill="none" focusable="false" height="100%" viewBox="0 0 14 16" width="100%" xmlns="http://www.w3.org/2000/svg"><path d="M4.80349 3.05591C2.37749 3.05591 0.410156 2.42524 0.410156 1.59258V9.39257C0.410156 10.1926 2.34349 10.8432 4.74349 10.8592H4.80482C7.23082 10.8592 9.19816 10.2286 9.19816 9.39257V1.59524C9.20016 2.40591 7.22949 3.05591 4.80349 3.05591Z" fill="url(#paint0_linear_5677_47202)"></path><path d="M9.20016 1.59524C9.20016 2.40857 7.23282 3.05857 4.80682 3.05857C2.38082 3.05857 0.410156 2.42524 0.410156 1.59524C0.410156 0.765237 2.37749 0.128571 4.80349 0.128571C7.22949 0.128571 9.19682 0.759237 9.19682 1.59524" fill="#E8E8E8"></path><path d="M8.17369 1.47258C8.17369 1.98991 6.65902 2.40591 4.80169 2.40591C2.94435 2.40591 1.42969 1.98991 1.42969 1.47258C1.42969 0.955242 2.94435 0.545242 4.80169 0.545242C6.65902 0.545242 8.17369 0.961242 8.17369 1.47258Z" fill="#50E6FF"></path><path d="M4.80339 1.7059C3.9011 1.68407 3.00105 1.80535 2.13672 2.06524C3.0017 2.32054 3.902 2.43555 4.80339 2.4059C5.70633 2.43096 6.60725 2.30731 7.47005 2.0399C6.60356 1.79242 5.70415 1.67977 4.80339 1.7059Z" fill="#198AB3"></path><path d="M9.20193 7.6619C6.77593 7.6619 4.80859 7.03124 4.80859 6.19524V13.9952C4.80859 14.7952 6.74193 15.4466 9.14193 15.4619H9.20193C11.6279 15.4619 13.5953 14.8312 13.5953 13.9952V6.1999C13.5919 7.0139 11.6246 7.6619 9.20193 7.6619Z" fill="url(#paint1_linear_5677_47202)"></path><path d="M13.5914 6.19991C13.5914 7.01391 11.624 7.66657 9.19802 7.66657C6.77202 7.66657 4.80469 7.03591 4.80469 6.19991C4.80469 5.36391 6.77202 4.73657 9.19802 4.73657C11.624 4.73657 13.5914 5.36724 13.5914 6.19991Z" fill="#E8E8E8"></path><path d="M12.5682 6.08057C12.5682 6.5979 11.0536 7.0139 9.19622 7.0139C7.33889 7.0139 5.82422 6.5979 5.82422 6.08057C5.82422 5.56324 7.33889 5.15324 9.19955 5.15324C11.0602 5.15324 12.5716 5.56924 12.5716 6.08057" fill="#50E6FF"></path><path d="M9.20182 6.31391C8.29953 6.29207 7.39948 6.41335 6.53516 6.67324C7.40013 6.92854 8.30044 7.04355 9.20182 7.01391C10.1048 7.03897 11.0057 6.91532 11.8685 6.64791C11.0021 6.4001 10.1026 6.28744 9.20182 6.31391Z" fill="#198AB3"></path><defs><linearGradient gradientUnits="userSpaceOnUse" id="paint0_linear_5677_47202" x1="0.410156" x2="9.19682" y1="6.22324" y2="6.22324"><stop stop-color="#005BA1"></stop><stop offset="0.07" stop-color="#0060A9"></stop><stop offset="0.36" stop-color="#0071C8"></stop><stop offset="0.52" stop-color="#0078D4"></stop><stop offset="0.64" stop-color="#0074CD"></stop><stop offset="0.82" stop-color="#006ABB"></stop><stop offset="1" stop-color="#005BA1"></stop></linearGradient><linearGradient gradientUnits="userSpaceOnUse" id="paint1_linear_5677_47202" x1="81.2965" x2="197.105" y1="-499.338" y2="-499.338"><stop stop-color="#005BA1"></stop><stop offset="0.07" stop-color="#0060A9"></stop><stop offset="0.36" stop-color="#0071C8"></stop><stop offset="0.52" stop-color="#0078D4"></stop><stop offset="0.64" stop-color="#0074CD"></stop><stop offset="0.82" stop-color="#006ABB"></stop><stop offset="1" stop-color="#005BA1"></stop></linearGradient></defs></svg>