<svg fill="none" focusable="false" height="100%" viewBox="0 0 16 17" width="100%" xmlns="http://www.w3.org/2000/svg"><path clip-rule="evenodd" d="M11.7802 3.18538H3.29692V13.8314C3.29545 14.0178 3.33244 14.2026 3.40558 14.374C3.47517 14.5387 3.57565 14.6885 3.70158 14.8154C3.8308 14.9444 3.98426 15.0466 4.15314 15.116C4.32203 15.1855 4.50298 15.2208 4.68558 15.22H11.3176C11.5 15.221 11.6808 15.1857 11.8495 15.1163C12.0182 15.0468 12.1714 14.9445 12.3003 14.8154C12.4296 14.6863 12.5321 14.5329 12.6017 14.364C12.6714 14.1951 12.7069 14.0141 12.7062 13.8314V3.18538H11.7802Z" fill="url(#paint0_linear_5677_47318)" fill-rule="evenodd"></path><path d="M10.6923 5.23071H10.1023C9.99189 5.23071 9.90234 5.32026 9.90234 5.43071V13.298C9.90234 13.4085 9.99189 13.498 10.1023 13.498H10.6923C10.8028 13.498 10.8923 13.4085 10.8923 13.298V5.43071C10.8923 5.32026 10.8028 5.23071 10.6923 5.23071Z" fill="#767676"></path><path d="M8.25094 5.23071H7.66094C7.55048 5.23071 7.46094 5.32026 7.46094 5.43071V13.298C7.46094 13.4085 7.55048 13.498 7.66094 13.498H8.25094C8.36139 13.498 8.45094 13.4085 8.45094 13.298V5.43071C8.45094 5.32026 8.36139 5.23071 8.25094 5.23071Z" fill="#767676"></path><path d="M9.28673 1.22005H6.61406C6.50361 1.22005 6.41406 1.30959 6.41406 1.42005V2.01005C6.41406 2.1205 6.50361 2.21005 6.61406 2.21005H9.28673C9.39719 2.21005 9.48673 2.1205 9.48673 2.01005V1.42005C9.48673 1.30959 9.39719 1.22005 9.28673 1.22005Z" fill="#767676"></path><path d="M5.80953 5.23071H5.21953C5.10907 5.23071 5.01953 5.32026 5.01953 5.43071V13.298C5.01953 13.4085 5.10907 13.498 5.21953 13.498H5.80953C5.91999 13.498 6.00953 13.4085 6.00953 13.298V5.43071C6.00953 5.32026 5.91999 5.23071 5.80953 5.23071Z" fill="#767676"></path><path d="M13.455 2.21005H2.54766C2.4372 2.21005 2.34766 2.2996 2.34766 2.41005V3.40205C2.34766 3.51251 2.4372 3.60205 2.54766 3.60205H13.455C13.5654 3.60205 13.655 3.51251 13.655 3.40205V2.41005C13.655 2.2996 13.5654 2.21005 13.455 2.21005Z" fill="#767676"></path><defs><linearGradient gradientUnits="userSpaceOnUse" id="paint0_linear_5677_47318" x1="8.00158" x2="8.00158" y1="24.0054" y2="0.898712"><stop offset="0.001" stop-color="#767676"></stop><stop offset="1" stop-color="#D9D9D9"></stop></linearGradient></defs></svg>