<svg fill="none" focusable="false" height="100%" viewBox="0 0 16 16" width="100%" xmlns="http://www.w3.org/2000/svg"><g><g><g><path d="M.514.956H15.486A.486.486,0,0,1,16,1.413h0V12.789a.486.486,0,0,1-.512.459H.514A.5.5,0,0,1,0,12.789V1.442A.5.5,0,0,1,.514.956Z" fill="#9cebff"></path><path d="M16,1.385a.458.458,0,0,0-.486-.429H.486A.458.458,0,0,0,0,1.385V3.109H16V1.385Z" fill="#0078d4"></path></g><g><path d="M6.021,10.541l-.349.347a.154.154,0,0,1-.22,0l0,0L2.929,8.36a.314.314,0,0,1,0-.445l.348-.347,2.745,2.751A.158.158,0,0,1,6.021,10.541Zm3.961,0,.348.347a.155.155,0,0,0,.221,0v0L13.074,8.36a.314.314,0,0,0,0-.445l-.349-.347L9.981,10.319A.157.157,0,0,0,9.982,10.541Z" fill="#0078d4" style="isolation:isolate"></path><path d="M5.719,5.354l.347.348a.155.155,0,0,1,0,.22l0,0L3.274,8.709,2.927,8.36a.314.314,0,0,1,0-.444h0L5.5,5.352A.157.157,0,0,1,5.719,5.354Zm4.562,0L9.934,5.7a.155.155,0,0,0,0,.22v0l2.793,2.785.347-.348a.317.317,0,0,0,0-.446L10.5,5.354a.155.155,0,0,0-.221,0l0,0Z" fill="#0078d4"></path><path d="M7.159,11.784,6.6,11.607a.114.114,0,0,1-.073-.142L8.8,4.385a.108.108,0,0,1,.134-.075l.007,0,.556.178a.109.109,0,0,1,.075.134l0,.007L7.3,11.716a.108.108,0,0,1-.136.07Z" fill="#0078d4"></path></g><g><circle cx="12.676" cy="12.202" fill="#f04049" r="3.324"></circle><path d="M13.894,10.482l-1.146,1.146L11.6,10.482a.382.382,0,0,0-.493.023l-.091.092a.381.381,0,0,0,0,.539h0l1.146,1.146-1.146,1.146a.381.381,0,0,0,0,.533l.035.034a.381.381,0,0,0,.533.006l1.146-1.146L13.883,14A.381.381,0,0,0,14.416,14l.092-.092a.381.381,0,0,0,.005-.533l-1.146-1.146,1.146-1.146a.38.38,0,0,0,0-.538h0l-.091-.092A.382.382,0,0,0,13.894,10.482Z" fill="#fff"></path></g></g></g></svg>