<svg fill="none" focusable="false" height="100%" viewBox="0 0 16 16" width="100%" xmlns="http://www.w3.org/2000/svg"><g clip-path="url(#clip0)"><path d="M8.00009 0C3.78709 0 0.371094 1.19 0.371094 2.761C0.373225 2.87358 0.392445 2.98519 0.428094 3.092C0.439314 3.12643 0.453362 3.15988 0.470094 3.192C0.539892 3.35634 0.637298 3.50752 0.758094 3.639L3.47609 7.269L4.55109 8.7L6.07109 10.728C6.11419 10.7857 6.13704 10.856 6.13609 10.928V15.328C6.13609 15.698 6.95609 15.997 7.97409 16.003H8.00009C9.02909 16.003 9.86409 15.712 9.86409 15.328V10.928C9.86315 10.856 9.886 10.7857 9.92909 10.728L11.4491 8.7L12.5241 7.267L15.2821 3.587L15.3011 3.563L15.4361 3.382C15.4451 3.37 15.4451 3.359 15.4531 3.347C15.4731 3.31203 15.4911 3.27597 15.5071 3.239C15.5354 3.1904 15.5573 3.13829 15.5721 3.084C15.6077 2.97925 15.627 2.86962 15.6291 2.759C15.6291 1.19 12.2131 0 8.00009 0Z" fill="url(#paint0_linear)"></path><path d="M12.846 3.52391C13.482 3.24291 13.855 2.90191 13.855 2.53491C13.855 1.57091 11.225 0.784912 8.00002 0.784912C4.77502 0.784912 2.14502 1.55891 2.14502 2.53491C2.14502 2.90091 2.51502 3.23991 3.14502 3.52091C4.70057 2.96169 6.34786 2.70179 8.00002 2.75491C9.6494 2.70329 11.2937 2.96421 12.846 3.52391Z" fill="white"></path><path d="M12.8462 3.52397C11.2938 2.96427 9.64957 2.70335 8.00019 2.75497C6.34904 2.70223 4.7028 2.96213 3.14819 3.52097C4.70116 4.08727 6.34801 4.35167 8.00019 4.29997C9.65013 4.35106 11.2947 4.08771 12.8462 3.52397Z" fill="#999999"></path></g><defs><linearGradient gradientUnits="userSpaceOnUse" id="paint0_linear" x1="8.00009" x2="8.00009" y1="18.61" y2="-0.627"><stop offset="0.001" stop-color="#767676"></stop><stop offset="1" stop-color="#D9D9D9"></stop></linearGradient><clipPath id="clip0"><rect fill="white" height="16" width="16"></rect></clipPath></defs></svg>