<svg fill="none" focusable="false" height="100%" viewBox="0 0 16 16" width="100%" xmlns="http://www.w3.org/2000/svg"><path d="M0 0.666667C0 0.298477 0.298477 0 0.666667 0H12.6667C13.0349 0 13.3333 0.298477 13.3333 0.666667V12.6667C13.3333 13.0349 13.0349 13.3333 12.6667 13.3333H0.666667C0.298477 13.3333 0 13.0349 0 12.6667V0.666667Z" fill="#9CEBFF"></path><path d="M2.66663 3.33335C2.66663 2.96516 2.9651 2.66669 3.33329 2.66669H15.3333C15.7015 2.66669 16 2.96516 16 3.33335V15.3334C16 15.7015 15.7015 16 15.3333 16H3.33329C2.9651 16 2.66663 15.7015 2.66663 15.3334V3.33335Z" fill="url(#paint0_linear_47896_506)"></path><path d="M13.9686 9.77732C13.952 9.81569 13.9283 9.85099 13.8981 9.88113L11.1713 12.6C11.1399 12.6314 11.0973 12.6489 11.053 12.6489C11.0086 12.6489 10.9661 12.6314 10.9347 12.6L10.5683 12.2323C10.5527 12.2168 10.5403 12.1985 10.5319 12.1782C10.5234 12.1579 10.5191 12.1362 10.5191 12.1142C10.5191 12.0923 10.5234 12.0705 10.5319 12.0503C10.5403 12.03 10.5527 12.0116 10.5683 11.9962L12.9336 9.6387L10.6201 7.32042C10.6046 7.3049 10.5922 7.28646 10.5838 7.26616C10.5754 7.24586 10.571 7.2241 10.571 7.20212C10.571 7.18014 10.5754 7.15837 10.5838 7.13807C10.5922 7.11777 10.6046 7.09933 10.6201 7.08381L10.9893 6.71559C11.0207 6.68427 11.0632 6.66669 11.1076 6.66669C11.1519 6.66669 11.1945 6.68427 11.2259 6.71559L13.9023 9.39951C13.9649 9.46216 14.0001 9.5471 14.0001 9.63565C14.0001 9.68508 13.9891 9.73339 13.9686 9.77732Z" fill="url(#paint1_linear_47896_506)"></path><path d="M8.04591 7.08614L7.67629 6.71746C7.64499 6.68636 7.60268 6.66887 7.55855 6.66878C7.51442 6.66869 7.47204 6.68602 7.44062 6.71699L4.76464 9.40137C4.73361 9.43232 4.70899 9.46909 4.69219 9.50957C4.67539 9.55006 4.66675 9.59345 4.66675 9.63728C4.66675 9.68111 4.67539 9.72451 4.69219 9.76499C4.70899 9.80547 4.73361 9.84224 4.76464 9.87319L5.13332 10.2423L5.13405 10.2416L7.49661 12.5977C7.52802 12.629 7.57057 12.6466 7.61492 12.6466C7.65927 12.6466 7.70182 12.629 7.73322 12.5977L8.10051 12.2295L8.10191 12.2286C8.13323 12.1971 8.15081 12.1546 8.15081 12.1102C8.15081 12.0659 8.13323 12.0234 8.10191 11.9919L5.73892 9.63528L8.04591 7.32275C8.07723 7.29134 8.09481 7.2488 8.09481 7.20445C8.09481 7.16009 8.07723 7.11755 8.04591 7.08614Z" fill="url(#paint2_linear_47896_506)"></path><defs><linearGradient gradientUnits="userSpaceOnUse" id="paint0_linear_47896_506" x1="2.66663" x2="16" y1="16" y2="2.66669"><stop stop-color="#005BA4"></stop><stop offset="0.786414" stop-color="#0078D7"></stop></linearGradient><linearGradient gradientUnits="userSpaceOnUse" id="paint1_linear_47896_506" x1="12.0001" x2="5.50012" y1="6.33335" y2="13.5"><stop offset="0.358961" stop-color="#9CEBFF"></stop><stop offset="1" stop-color="#32D4F5"></stop></linearGradient><linearGradient gradientUnits="userSpaceOnUse" id="paint2_linear_47896_506" x1="12.0001" x2="5.50012" y1="6.33335" y2="13.5"><stop offset="0.358961" stop-color="#9CEBFF"></stop><stop offset="1" stop-color="#32D4F5"></stop></linearGradient></defs></svg>