<svg fill="none" focusable="false" height="100%" viewBox="0 0 16 17" width="100%" xmlns="http://www.w3.org/2000/svg"><g clip-path="url(#clip0_5677_47374)"><path d="M12.9314 14.539C12.1 15.1894 11.1483 15.6692 10.131 15.9508C9.11362 16.2324 8.05068 16.3102 7.00316 16.18C5.95565 16.0497 4.94418 15.7138 4.02682 15.1915C3.10946 14.6693 2.30428 13.971 1.6575 13.1368C1.01073 12.3026 0.535085 11.3488 0.257887 10.3303C-0.0193114 9.31171 -0.092608 8.24845 0.0422046 7.2015C0.177017 6.15455 0.517284 5.14455 1.04347 4.22945C1.56966 3.31436 2.27141 2.5122 3.10843 1.86903L3.19343 1.81203C4.883 0.54677 7.00357 -0.000722304 9.09448 0.288494C11.1854 0.57771 13.0777 1.68027 14.3604 3.35666C15.6431 5.03305 16.2125 7.14785 15.9449 9.24164C15.6774 11.3354 14.5945 13.2391 12.9314 14.539Z" fill="url(#paint0_linear_5677_47374)"></path><path d="M7.99953 5.45104C7.84611 5.45689 7.69303 5.43243 7.54907 5.37907C7.40511 5.3257 7.27308 5.24448 7.16053 5.14004C7.0552 5.04743 6.97183 4.93252 6.91647 4.80365C6.86112 4.67478 6.83518 4.53519 6.84053 4.39504C6.83525 4.2549 6.86122 4.11534 6.91657 3.98648C6.97192 3.85762 7.05525 3.74269 7.16053 3.65004C7.40115 3.46917 7.69939 3.38208 7.99953 3.40504C8.30494 3.38978 8.60476 3.49092 8.83853 3.68804C8.9458 3.7796 9.03113 3.89407 9.08825 4.02301C9.14537 4.15196 9.1728 4.29208 9.16853 4.43304C9.17432 4.57552 9.14762 4.71745 9.09044 4.84808C9.03327 4.97871 8.94712 5.09462 8.83853 5.18704C8.6041 5.38129 8.30295 5.47605 7.99953 5.45104ZM8.59953 13.04H7.36353C7.25745 13.04 7.1557 12.9979 7.08069 12.9229C7.00567 12.8479 6.96353 12.7461 6.96353 12.64V6.88404C6.96353 6.77795 7.00567 6.67621 7.08069 6.6012C7.1557 6.52618 7.25745 6.48404 7.36353 6.48404H8.59953C8.70562 6.48404 8.80736 6.52618 8.88238 6.6012C8.95739 6.67621 8.99953 6.77795 8.99953 6.88404V12.644C8.99953 12.6966 8.98919 12.7486 8.96908 12.7971C8.94898 12.8456 8.91952 12.8897 8.88238 12.9269C8.84523 12.964 8.80114 12.9935 8.75261 13.0136C8.70408 13.0337 8.65206 13.044 8.59953 13.044V13.04Z" fill="white"></path></g><defs><linearGradient gradientUnits="userSpaceOnUse" id="paint0_linear_5677_47374" x1="8.00143" x2="8.00143" y1="16.22" y2="0.194034"><stop stop-color="#1988D9"></stop><stop offset="0.22" stop-color="#218DDC"></stop><stop offset="0.56" stop-color="#379CE5"></stop><stop offset="0.9" stop-color="#54AEF0"></stop></linearGradient><clipPath id="clip0_5677_47374"><rect fill="white" height="16" transform="translate(0 0.220032)" width="16"></rect></clipPath></defs></svg>