<svg fill="none" focusable="false" height="100%" viewBox="0 0 16 16" width="100%" xmlns="http://www.w3.org/2000/svg"><g clip-path="url(#clip0)"><path d="M14.6161 5.01002H13.4471C13.4224 5.01017 13.3985 5.00116 13.38 4.98472C13.3615 4.96828 13.3498 4.94559 13.3471 4.92102V1.61002C13.3451 1.57164 13.3284 1.53551 13.3004 1.50909C13.2725 1.48266 13.2355 1.46796 13.1971 1.46802H2.90711C2.86857 1.46795 2.83147 1.48262 2.80339 1.50902C2.77532 1.53542 2.7584 1.57155 2.75611 1.61002V4.92102C2.75339 4.94559 2.74166 4.96828 2.72319 4.98472C2.70473 5.00116 2.68083 5.01017 2.65611 5.01002H1.49011C1.46543 5.00232 1.43874 5.00448 1.41562 5.01604C1.3925 5.0276 1.37476 5.04766 1.36611 5.07202C1.35841 5.09669 1.36057 5.12339 1.37213 5.14651C1.38369 5.16962 1.40375 5.18737 1.42811 5.19602L3.36711 7.14302L3.38011 7.15602C3.39399 7.16851 3.41023 7.1781 3.42787 7.18422C3.44552 7.19035 3.46421 7.19288 3.48285 7.19167C3.50148 7.19045 3.51969 7.18553 3.53639 7.17717C3.5531 7.16882 3.56796 7.1572 3.58011 7.14302L5.52711 5.17802C5.54021 5.1639 5.54896 5.14629 5.5523 5.12732C5.55563 5.10834 5.55342 5.08881 5.54592 5.07106C5.53842 5.05332 5.52596 5.03812 5.51002 5.02729C5.49409 5.01646 5.47537 5.01046 5.45611 5.01002H4.30011C4.27464 5.01018 4.24994 5.00134 4.23036 4.98505C4.21078 4.96877 4.19758 4.94609 4.19311 4.92102V3.04402C4.1955 3.00485 4.21221 2.96792 4.24005 2.94027C4.26789 2.91261 4.30492 2.89615 4.34411 2.89402H11.7681C11.8073 2.89595 11.8443 2.91238 11.872 2.9401C11.8997 2.96782 11.9162 3.00486 11.9181 3.04402V4.92102C11.9138 4.946 11.9008 4.96867 11.8814 4.98496C11.862 5.00126 11.8375 5.01014 11.8121 5.01002H10.6521C10.6268 5.00996 10.6023 5.01953 10.5838 5.03679C10.5652 5.05406 10.5539 5.07773 10.5521 5.10302C10.5516 5.11692 10.554 5.13077 10.5592 5.14368C10.5644 5.1566 10.5722 5.16829 10.5821 5.17802L12.5301 7.14302C12.5423 7.15709 12.5572 7.16859 12.5739 7.17687C12.5906 7.18515 12.6088 7.19003 12.6274 7.19124C12.646 7.19245 12.6646 7.18996 12.6823 7.18391C12.6999 7.17787 12.7162 7.16839 12.7301 7.15602L12.7431 7.14302L14.6771 5.20002C14.7015 5.19137 14.7215 5.17362 14.7331 5.15051C14.7446 5.12739 14.7468 5.10069 14.7391 5.07602C14.7313 5.05115 14.714 5.03034 14.691 5.01801C14.668 5.00568 14.6412 5.00281 14.6161 5.01002Z" fill="#999999"></path><path d="M1.42611 13.842L3.36511 15.79L3.37811 15.802C3.40066 15.8201 3.4287 15.83 3.45761 15.83C3.48652 15.83 3.51457 15.8201 3.53711 15.802L3.55011 15.79L5.48911 13.842C5.50381 13.8402 5.51792 13.8351 5.53042 13.8272C5.54292 13.8193 5.55351 13.8086 5.56141 13.7961C5.56932 13.7836 5.57434 13.7695 5.57612 13.7548C5.5779 13.7401 5.5764 13.7252 5.57172 13.7111C5.56703 13.6971 5.55929 13.6842 5.54905 13.6736C5.5388 13.6629 5.52631 13.6546 5.51247 13.6493C5.49864 13.644 5.4838 13.6419 5.46904 13.643C5.45428 13.6442 5.43996 13.6486 5.42711 13.656H4.25811C4.23355 13.6562 4.20977 13.6473 4.19133 13.6311C4.17289 13.6148 4.16106 13.5924 4.15811 13.568V11.1C4.15581 11.0616 4.13886 11.0256 4.11076 10.9994C4.08266 10.9731 4.04556 10.9587 4.00711 10.959H2.90711C2.86867 10.9587 2.83157 10.9731 2.80347 10.9994C2.77537 11.0256 2.75842 11.0616 2.75611 11.1V13.564C2.75317 13.5884 2.74134 13.6108 2.7229 13.6271C2.70446 13.6433 2.68068 13.6522 2.65611 13.652H1.48811C1.47527 13.6446 1.46095 13.6402 1.44619 13.6391C1.43142 13.6379 1.41659 13.64 1.40275 13.6453C1.38892 13.6506 1.37643 13.6589 1.36618 13.6696C1.35594 13.6802 1.34819 13.6931 1.34351 13.7071C1.33883 13.7212 1.33732 13.7361 1.33911 13.7508C1.34089 13.7655 1.34591 13.7796 1.35382 13.7921C1.36172 13.8046 1.3723 13.8153 1.38481 13.8232C1.39731 13.8311 1.41142 13.8362 1.42611 13.838V13.842Z" fill="#999999"></path><path d="M7.84151 0.0874419L5.97122 1.95774C5.85484 2.07412 5.85484 2.2628 5.97122 2.37917L7.84151 4.24947C7.95789 4.36585 8.14657 4.36585 8.26295 4.24947L10.1332 2.37918C10.2496 2.2628 10.2496 2.07412 10.1332 1.95774L8.26295 0.0874417C8.14657 -0.0289345 7.95789 -0.0289343 7.84151 0.0874419Z" fill="#3B3B3B"></path><path d="M6.29999 6.80515C6.29974 6.78462 6.2954 6.76435 6.28725 6.74551C6.27909 6.72668 6.26727 6.70965 6.25248 6.69541C6.23769 6.68118 6.22022 6.67002 6.20108 6.6626C6.18194 6.65517 6.16152 6.65162 6.14099 6.65215H5.00799C4.96887 6.65644 4.93301 6.67594 4.90813 6.70643C4.88325 6.73692 4.87135 6.77597 4.87499 6.81515V10.0642H1.90499V6.80515C1.90474 6.78462 1.9004 6.76435 1.89225 6.74551C1.88409 6.72668 1.87227 6.70965 1.85748 6.69541C1.84269 6.68118 1.82522 6.67002 1.80608 6.6626C1.78694 6.65517 1.76652 6.65162 1.74599 6.65215H0.611994C0.572949 6.65644 0.537176 6.67597 0.512456 6.70649C0.487736 6.73702 0.476069 6.77607 0.479994 6.81515V11.3562C0.48404 11.3952 0.503323 11.4311 0.533655 11.456C0.563987 11.4809 0.602918 11.4928 0.641994 11.4892H6.14699C6.16752 11.4889 6.18779 11.4846 6.20663 11.4764C6.22547 11.4682 6.2425 11.4564 6.25673 11.4416C6.27097 11.4268 6.28212 11.4094 6.28955 11.3902C6.29698 11.3711 6.30053 11.3507 6.29999 11.3302V6.80515Z" fill="#0078D4"></path><path d="M10.6349 13.842L12.5739 15.79L12.5869 15.802C12.6096 15.8202 12.6378 15.8301 12.6669 15.8301C12.696 15.8301 12.7242 15.8202 12.7469 15.802L12.7589 15.79L14.6999 13.842C14.7146 13.8402 14.7287 13.8351 14.7412 13.8272C14.7537 13.8193 14.7643 13.8086 14.7722 13.7961C14.7801 13.7836 14.7851 13.7695 14.7869 13.7548C14.7887 13.7401 14.7872 13.7252 14.7825 13.7111C14.7778 13.6971 14.7701 13.6842 14.7598 13.6736C14.7496 13.6629 14.7371 13.6546 14.7233 13.6493C14.7094 13.644 14.6946 13.6419 14.6798 13.643C14.6651 13.6442 14.6508 13.6486 14.6379 13.656H13.4679C13.4433 13.6562 13.4196 13.6473 13.4011 13.6311C13.3827 13.6148 13.3709 13.5924 13.3679 13.568V11.1C13.3656 11.0618 13.3488 11.0259 13.3209 10.9997C13.293 10.9735 13.2562 10.9589 13.2179 10.959H12.1139C12.0755 10.9587 12.0384 10.9731 12.0103 10.9994C11.9822 11.0256 11.9652 11.0616 11.9629 11.1V13.564C11.96 13.5884 11.9481 13.6108 11.9297 13.6271C11.9113 13.6433 11.8875 13.6522 11.8629 13.652H10.6999C10.677 13.6492 10.6538 13.6543 10.6343 13.6667C10.6147 13.679 10.6001 13.6977 10.5928 13.7196C10.5855 13.7415 10.586 13.7653 10.5942 13.7869C10.6024 13.8084 10.6179 13.8265 10.6379 13.838L10.6349 13.842Z" fill="#999999"></path><path d="M15.509 6.80515C15.5087 6.78462 15.5044 6.76435 15.4962 6.74551C15.4881 6.72668 15.4763 6.70965 15.4615 6.69541C15.4467 6.68118 15.4292 6.67002 15.4101 6.6626C15.3909 6.65517 15.3705 6.65162 15.35 6.65215H14.217C14.1779 6.65644 14.142 6.67594 14.1171 6.70643C14.0922 6.73692 14.0803 6.77597 14.084 6.81515V10.0642H11.114V6.80515C11.1137 6.78462 11.1094 6.76435 11.1012 6.74551C11.0931 6.72668 11.0813 6.70965 11.0665 6.69541C11.0517 6.68118 11.0342 6.67002 11.0151 6.6626C10.9959 6.65517 10.9755 6.65162 10.955 6.65215H9.82098C9.78193 6.65644 9.74616 6.67597 9.72144 6.70649C9.69672 6.73702 9.68505 6.77607 9.68898 6.81515V11.3562C9.69327 11.3953 9.71276 11.4311 9.74325 11.456C9.77375 11.4809 9.81279 11.4928 9.85198 11.4892H15.352C15.3725 11.4889 15.3927 11.4846 15.4115 11.4764C15.4303 11.4682 15.4472 11.4564 15.4614 11.4416C15.4755 11.4268 15.4866 11.4093 15.4939 11.3902C15.5012 11.371 15.5046 11.3506 15.504 11.3302V6.80515H15.509Z" fill="#0078D4"></path></g><defs><clipPath id="clip0"><rect fill="white" height="16" width="16"></rect></clipPath></defs></svg>