<svg fill="none" focusable="false" height="100%" viewBox="0 0 16 16" width="100%" xmlns="http://www.w3.org/2000/svg"><path d="M10.3589 0.121904H3.54994C3.48073 0.120712 3.41196 0.133166 3.34757 0.158555C3.28317 0.183944 3.22441 0.221769 3.17464 0.269872C3.12486 0.317975 3.08505 0.375412 3.05748 0.438903C3.02991 0.502394 3.01511 0.570695 3.01394 0.639904C3.01293 0.646197 3.01293 0.652611 3.01394 0.658904V15.3499C3.01261 15.4191 3.02494 15.4879 3.0502 15.5524C3.07547 15.6168 3.11319 15.6756 3.1612 15.7255C3.20921 15.7754 3.26657 15.8153 3.33001 15.843C3.39345 15.8707 3.46173 15.8856 3.53094 15.8869H15.3499C15.4204 15.8882 15.4905 15.8756 15.5561 15.8499C15.6217 15.8241 15.6815 15.7856 15.7323 15.7367C15.783 15.6877 15.8235 15.6292 15.8516 15.5646C15.8797 15.4999 15.8948 15.4304 15.8959 15.3599V5.6219C15.8898 5.4813 15.8295 5.34851 15.7278 5.25125C15.626 5.15399 15.4907 5.09977 15.3499 5.0999H11.4329C11.3624 5.0999 11.2926 5.08601 11.2274 5.05903C11.1623 5.03204 11.1031 4.99249 11.0532 4.94262C11.0034 4.89276 10.9638 4.83356 10.9368 4.7684C10.9098 4.70325 10.8959 4.63342 10.8959 4.5629V0.658904C10.8981 0.519111 10.8448 0.384153 10.7477 0.283528C10.6507 0.182903 10.5177 0.124795 10.3779 0.121904H10.3589Z" fill="white"></path><path d="M10.1142 0.81V4.5C10.1142 4.85725 10.2561 5.19986 10.5087 5.45247C10.7613 5.70508 11.1039 5.847 11.4612 5.847H15.2282V15.2H3.72016V0.81H10.1142ZM10.3682 0H3.45616C3.31135 0 3.17247 0.0575248 3.07008 0.15992C2.96768 0.262315 2.91016 0.401192 2.91016 0.546V15.454C2.91016 15.5988 2.96768 15.7377 3.07008 15.8401C3.17247 15.9425 3.31135 16 3.45616 16H15.4562C15.6005 15.9992 15.7387 15.9414 15.8407 15.8391C15.9426 15.7368 15.9999 15.5984 16.0002 15.454V5.594C15.9886 5.45731 15.926 5.32997 15.8248 5.23733C15.7237 5.14468 15.5913 5.09351 15.4542 5.094H11.4612C11.3163 5.094 11.1775 5.03648 11.0751 4.93408C10.9727 4.83169 10.9152 4.69281 10.9152 4.548V0.548C10.9153 0.476083 10.9012 0.404846 10.8738 0.338365C10.8464 0.271884 10.8061 0.211466 10.7553 0.160566C10.7045 0.109666 10.6441 0.0692852 10.5777 0.0417334C10.5113 0.0141815 10.4401 -1.20178e-07 10.3682 0V0Z" fill="url(#paint0_linear)"></path><path d="M15.7831 5.15107L10.7451 0.12207V4.22207C10.7451 4.4719 10.8444 4.71151 11.021 4.88816C11.1977 5.06482 11.4373 5.16407 11.6871 5.16407L15.7831 5.15107Z" fill="#0078D4"></path><path d="M12.7319 11.8301H12.1489V10.5111C12.1489 10.4361 12.1197 10.364 12.0674 10.3102C12.0151 10.2565 11.9439 10.2252 11.8689 10.2231H9.96892C9.94997 10.2232 9.93118 10.2196 9.91365 10.2124C9.89612 10.2052 9.8802 10.1946 9.8668 10.1812C9.8534 10.1678 9.8428 10.1519 9.83561 10.1344C9.82842 10.1168 9.82478 10.0981 9.82492 10.0791V9.06411H11.1839C11.2122 9.06411 11.2403 9.05852 11.2664 9.04765C11.2926 9.03678 11.3163 9.02086 11.3363 9.00079C11.3563 8.98072 11.3721 8.9569 11.3828 8.9307C11.3936 8.90449 11.399 8.87643 11.3989 8.84811V6.93011C11.3989 6.873 11.3763 6.81821 11.336 6.77773C11.2957 6.73725 11.241 6.71438 11.1839 6.71411H7.70592C7.64863 6.71411 7.59369 6.73687 7.55318 6.77738C7.51267 6.81788 7.48992 6.87282 7.48992 6.93011V8.84811C7.48992 8.9054 7.51267 8.96034 7.55318 9.00085C7.59369 9.04135 7.64863 9.06411 7.70592 9.06411H9.09992V10.0791C9.10005 10.0981 9.09642 10.1168 9.08923 10.1344C9.08204 10.1519 9.07143 10.1678 9.05804 10.1812C9.04464 10.1946 9.02871 10.2052 9.01118 10.2124C8.99365 10.2196 8.97486 10.2232 8.95592 10.2231H7.09992C7.02353 10.2231 6.95028 10.2535 6.89627 10.3075C6.84226 10.3615 6.81192 10.4347 6.81192 10.5111V11.8301H6.17792C6.12063 11.8301 6.06569 11.8529 6.02518 11.8934C5.98467 11.9339 5.96192 11.9888 5.96192 12.0461V13.9641C5.96178 13.9925 5.96728 14.0207 5.97809 14.0469C5.9889 14.0732 6.0048 14.0971 6.02489 14.1171C6.04497 14.1372 6.06883 14.1531 6.0951 14.1639C6.12137 14.1747 6.14951 14.1802 6.17792 14.1801H8.09992C8.1572 14.1801 8.21214 14.1574 8.25265 14.1168C8.29316 14.0763 8.31592 14.0214 8.31592 13.9641V12.0461C8.31592 11.9888 8.29316 11.9339 8.25265 11.8934C8.21214 11.8529 8.1572 11.8301 8.09992 11.8301H7.52792V11.1001C7.52786 11.0633 7.54193 11.0278 7.56723 11.001C7.59252 10.9742 7.62713 10.9582 7.66392 10.9561H11.2929C11.3119 10.956 11.3306 10.9596 11.3482 10.9668C11.3657 10.974 11.3816 10.9846 11.395 10.998C11.4084 11.0114 11.419 11.0273 11.4262 11.0448C11.4334 11.0624 11.437 11.0812 11.4369 11.1001V11.8271H10.8139C10.7566 11.8271 10.7017 11.8499 10.6612 11.8904C10.6207 11.9309 10.5979 11.9858 10.5979 12.0431V13.9611C10.5979 14.0184 10.6207 14.0733 10.6612 14.1138C10.7017 14.1544 10.7566 14.1771 10.8139 14.1771H12.7319C12.7603 14.1772 12.7885 14.1717 12.8147 14.1609C12.841 14.1501 12.8649 14.1342 12.8849 14.1141C12.905 14.0941 12.9209 14.0702 12.9317 14.0439C12.9426 14.0177 12.948 13.9895 12.9479 13.9611V12.0461C12.9479 11.9888 12.9252 11.9339 12.8847 11.8934C12.8441 11.8529 12.7892 11.8301 12.7319 11.8301Z" fill="#005BA1"></path><path d="M3.827 7.654C5.94059 7.654 7.654 5.94059 7.654 3.827C7.654 1.71341 5.94059 0 3.827 0C1.71341 0 0 1.71341 0 3.827C0 5.94059 1.71341 7.654 3.827 7.654Z" fill="#76BC2D"></path><path d="M5.72781 3.5409C5.77884 3.56934 5.82134 3.61089 5.85093 3.66126C5.88052 3.71163 5.89612 3.76899 5.89612 3.8274C5.89612 3.88582 5.88052 3.94317 5.85093 3.99354C5.82134 4.04391 5.77884 4.08546 5.72781 4.1139L3.04281 5.9939C2.81781 6.1509 2.63281 6.0549 2.63281 5.7799V1.8739C2.63281 1.5989 2.81781 1.5039 3.04281 1.6609L5.72781 3.5409Z" fill="white"></path><defs><linearGradient gradientUnits="userSpaceOnUse" id="paint0_linear" x1="9.45516" x2="9.45516" y1="16" y2="0"><stop stop-color="#0078D4"></stop><stop offset="0.82" stop-color="#5EA0EF"></stop></linearGradient></defs></svg>