<svg fill="none" focusable="false" height="100%" viewBox="0 0 16 15" width="100%" xmlns="http://www.w3.org/2000/svg"><path d="M12.7002 5.02005C12.7002 7.68505 11.9182 9.84405 10.9522 9.84405H12.7662C13.7232 9.84405 14.5002 7.72805 14.5132 5.08705V5.02005C14.5132 2.35705 13.7322 0.197052 12.7662 0.197052H10.9492C11.9152 0.201052 12.7002 2.36105 12.7002 5.02005Z" fill="url(#paint0_linear_5904_47201)"></path><path d="M10.9482 0.20105C11.9142 0.20105 12.6962 2.36105 12.6962 5.02405C12.6962 7.68705 11.9142 9.84805 10.9482 9.84805C9.98222 9.84805 9.19922 7.68905 9.19922 5.02005C9.19922 2.35105 9.98422 0.20105 10.9482 0.20105Z" fill="#E8E8E8"></path><path d="M10.9474 1.39705H1.85938V8.65205H10.9474C11.5524 8.65205 12.0374 7.02905 12.0374 5.02405C12.0374 3.01905 11.5504 1.39705 10.9474 1.39705Z" fill="url(#paint1_linear_5904_47201)"></path><path d="M8.895 1.41106H4.625V8.66606H8.895V1.41106Z" fill="url(#paint2_linear_5904_47201)"></path><path d="M3.49909 5.02005C3.49909 7.68505 2.71609 9.84405 1.75109 9.84405H3.56009C4.51709 9.84405 5.29409 7.72805 5.30609 5.08705V5.02005C5.30609 2.35705 4.52409 0.197052 3.56009 0.197052H1.74609C2.71109 0.201052 3.49909 2.36105 3.49909 5.02005Z" fill="url(#paint3_linear_5904_47201)"></path><path d="M1.747 0.20105C2.712 0.20105 3.493 2.36105 3.493 5.02405C3.493 7.68705 2.712 9.84805 1.747 9.84805C0.782 9.84805 0 7.68905 0 5.02005C0 2.35105 0.781 0.20105 1.747 0.20105Z" fill="#E8E8E8"></path><path d="M1.74525 1.39705C2.34525 1.39705 2.83525 3.02205 2.83525 5.02405C2.83525 7.02605 2.34725 8.65205 1.74525 8.65205C1.14325 8.65205 0.65625 7.02905 0.65625 5.02005C0.65625 3.01105 1.14425 1.39305 1.74525 1.39305" fill="url(#paint4_linear_5904_47201)"></path><path d="M14.0908 3.08506C14.0534 3.07504 14.0141 3.07504 13.9768 3.08506C13.9403 3.08573 13.9046 3.09517 13.8726 3.11257C13.8405 3.12998 13.8132 3.15484 13.7928 3.18506L9.31979 9.68506C9.29967 9.7195 9.28906 9.75867 9.28906 9.79856C9.28906 9.83845 9.29967 9.87762 9.31979 9.91206C9.34052 9.95141 9.37079 9.98494 9.40782 10.0096C9.44486 10.0342 9.48748 10.0492 9.53179 10.0531H12.1788L11.0018 13.9861C10.9909 14.0077 10.9845 14.0312 10.9827 14.0553C10.981 14.0794 10.984 14.1036 10.9916 14.1265C10.9992 14.1495 11.0113 14.1707 11.0271 14.189C11.0429 14.2072 11.0622 14.2222 11.0838 14.2331L11.1018 14.2411C11.134 14.2533 11.1696 14.2533 11.2018 14.2411C11.2393 14.2487 11.2783 14.2428 11.312 14.2245C11.3456 14.2062 11.3717 14.1767 11.3858 14.1411L16.0018 7.54506V7.40306C15.9982 7.34169 15.9712 7.28404 15.9264 7.24199C15.8815 7.19994 15.8223 7.1767 15.7608 7.17706H12.9298L14.0768 3.31206C14.1041 3.28118 14.1203 3.24208 14.1228 3.20096C14.1253 3.15984 14.1141 3.11905 14.0908 3.08506Z" fill="url(#paint5_linear_5904_47201)"></path><defs><linearGradient gradientUnits="userSpaceOnUse" id="paint0_linear_5904_47201" x1="12.7302" x2="12.7302" y1="9.84805" y2="0.201052"><stop stop-color="#005BA4"></stop><stop offset="0.14" stop-color="#0065B6"></stop><stop offset="0.38" stop-color="#0073CE"></stop><stop offset="0.53" stop-color="#0078D7"></stop><stop offset="0.66" stop-color="#0073CE"></stop><stop offset="0.87" stop-color="#0065B6"></stop><stop offset="1" stop-color="#005BA4"></stop></linearGradient><linearGradient gradientUnits="userSpaceOnUse" id="paint1_linear_5904_47201" x1="72.5965" x2="72.5965" y1="-2148.8" y2="-2201.43"><stop stop-color="#005BA4"></stop><stop offset="0.14" stop-color="#0065B6"></stop><stop offset="0.38" stop-color="#0073CE"></stop><stop offset="0.53" stop-color="#0078D7"></stop><stop offset="0.66" stop-color="#0073CE"></stop><stop offset="0.87" stop-color="#0065B6"></stop><stop offset="1" stop-color="#005BA4"></stop></linearGradient><linearGradient gradientUnits="userSpaceOnUse" id="paint2_linear_5904_47201" x1="4.625" x2="8.895" y1="5.03806" y2="5.03806"><stop stop-color="#005BA4"></stop><stop offset="1" stop-color="#005BA4" stop-opacity="0"></stop></linearGradient><linearGradient gradientUnits="userSpaceOnUse" id="paint3_linear_5904_47201" x1="-370.73" x2="-336.386" y1="-9121.3" y2="-9121.3"><stop stop-color="#005BA4"></stop><stop offset="0.14" stop-color="#0065B6"></stop><stop offset="0.38" stop-color="#0073CE"></stop><stop offset="0.53" stop-color="#0078D7"></stop><stop offset="0.66" stop-color="#0073CE"></stop><stop offset="0.87" stop-color="#0065B6"></stop><stop offset="1" stop-color="#005BA4"></stop></linearGradient><linearGradient gradientUnits="userSpaceOnUse" id="paint4_linear_5904_47201" x1="0.65625" x2="2.83525" y1="5.02405" y2="5.02405"><stop stop-color="#32D4F5"></stop><stop offset="0.23" stop-color="#31D0F1"></stop><stop offset="0.46" stop-color="#2CC3E6"></stop><stop offset="0.7" stop-color="#25AFD4"></stop><stop offset="0.94" stop-color="#1C92BA"></stop><stop offset="1" stop-color="#198AB3"></stop></linearGradient><linearGradient gradientUnits="userSpaceOnUse" id="paint5_linear_5904_47201" x1="12.6458" x2="12.6458" y1="14.2501" y2="3.07706"><stop stop-color="#FEA11B"></stop><stop offset="0.284" stop-color="#FEA51A"></stop><stop offset="0.547" stop-color="#FEB018"></stop><stop offset="0.8" stop-color="#FFC314"></stop><stop offset="1" stop-color="#FFD70F"></stop></linearGradient></defs></svg>