<svg fill="none" focusable="false" height="100%" viewBox="0 0 17 16" width="100%" xmlns="http://www.w3.org/2000/svg"><g clip-path="url(#clip0_61107_902)"><path d="M14.2492 1.99789H2.24915C1.9546 1.99789 1.71582 2.23668 1.71582 2.53123V15.4681C1.71582 15.7627 1.9546 16.0014 2.24915 16.0014H14.2492C14.5437 16.0014 14.7825 15.7627 14.7825 15.4681V2.53123C14.7825 2.23668 14.5437 1.99789 14.2492 1.99789Z" fill="url(#paint0_linear_61107_902)"></path><path d="M13.4518 2.85214H3.04652C2.75197 2.85214 2.51318 3.09092 2.51318 3.38548V14.613C2.51318 14.9076 2.75197 15.1464 3.04652 15.1464H13.4518C13.7464 15.1464 13.9852 14.9076 13.9852 14.613V3.38548C13.9852 3.09092 13.7464 2.85214 13.4518 2.85214Z" fill="url(#paint1_linear_61107_902)"></path><path d="M9.26712 1.02813C9.26712 0.46102 8.80757 0.00146484 8.24045 0.00146484C7.67334 0.00146484 7.21379 0.46102 7.21379 1.02813H5.22179C4.97645 1.02813 4.77734 1.22724 4.77734 1.47258V3.33924H11.716V1.47258C11.716 1.22724 11.5169 1.02813 11.2716 1.02813H9.26712ZM8.09912 0.534798C8.37201 0.457465 8.65646 0.615687 8.73379 0.888576C8.74712 0.933909 8.75334 0.981909 8.75334 1.02902H8.7409C8.7409 1.3108 8.51157 1.53924 8.22979 1.53835C8.16401 1.53835 8.09823 1.52502 8.0369 1.50013C7.7969 1.39613 7.67246 1.12858 7.7489 0.877909C7.79868 0.710798 7.93112 0.58102 8.09912 0.534798Z" fill="url(#paint2_linear_61107_902)"></path><path d="M6.00901 12.9782L6.70894 12.324L9.12313 10.0211L9.35862 9.80519C9.7704 9.92918 10.2077 9.94184 10.6259 9.84187C11.0442 9.7419 11.4285 9.53288 11.7397 9.23608C12.0072 8.97943 12.207 8.66049 12.3212 8.30776C12.4353 7.95503 12.4603 7.57952 12.3938 7.21478C12.3898 7.19878 12.3819 7.18405 12.3706 7.17195C12.3594 7.15985 12.3453 7.15078 12.3297 7.14556C12.314 7.14034 12.2973 7.13916 12.2811 7.14211C12.2649 7.14506 12.2497 7.15206 12.2368 7.16245L11.079 8.30066C11.0649 8.3081 11.0492 8.312 11.0332 8.312C11.0173 8.312 11.0016 8.3081 10.9874 8.30066L9.80344 8.02592C9.78771 8.0218 9.77336 8.01357 9.76186 8.00208C9.75037 7.99058 9.74214 7.97623 9.73802 7.9605L9.41749 6.79613C9.40946 6.78221 9.40522 6.76641 9.40522 6.75034C9.40522 6.73426 9.40946 6.71847 9.41749 6.70455L10.5884 5.59905C10.6011 5.58663 10.61 5.57078 10.6138 5.55343C10.6177 5.53608 10.6165 5.51798 10.6102 5.50134C10.604 5.48469 10.593 5.47022 10.5787 5.45969C10.5644 5.44917 10.5473 5.44304 10.5295 5.44205C10.1558 5.37698 9.77184 5.40241 9.40992 5.51622C9.048 5.63003 8.71862 5.82891 8.44936 6.0962C8.15947 6.37498 7.95137 6.72776 7.8476 7.11633C7.74382 7.5049 7.74833 7.91446 7.86063 8.30066L7.81484 8.33991L7.55973 8.58848L4.39327 11.4998C4.19519 11.6863 4.07861 11.9433 4.06881 12.2152C4.05902 12.487 4.1568 12.7518 4.34094 12.952L4.39327 13.0043C4.49744 13.1047 4.6204 13.1836 4.75511 13.2363C4.88981 13.2891 5.03361 13.3147 5.17824 13.3118C5.48763 13.3109 5.78491 13.1915 6.00901 12.9782Z" fill="white" fill-opacity="0.92"></path></g><defs><linearGradient gradientUnits="userSpaceOnUse" id="paint0_linear_61107_902" x1="8.24915" x2="8.24915" y1="1.99789" y2="16.0014"><stop stop-color="#32BEDD"></stop><stop offset="1" stop-color="#198AB3"></stop></linearGradient><linearGradient gradientUnits="userSpaceOnUse" id="paint1_linear_61107_902" x1="8.24918" x2="8.24918" y1="15.1464" y2="2.85214"><stop stop-color="#32BEDD"></stop><stop offset="1" stop-color="#50E6FF"></stop></linearGradient><linearGradient gradientUnits="userSpaceOnUse" id="paint2_linear_61107_902" x1="8.24668" x2="8.24668" y1="0.00146484" y2="3.33924"><stop stop-color="#32BEDD"></stop><stop offset="1" stop-color="#198AB3"></stop></linearGradient><clipPath id="clip0_61107_902"><rect fill="white" height="16" transform="translate(0.249023 0.00146484)" width="16"></rect></clipPath></defs></svg>