<svg fill="none" focusable="false" height="100%" viewBox="0 0 16 16" width="100%" xmlns="http://www.w3.org/2000/svg"><g clip-path="url(#clip0)"><path d="M6.49231 9.34778L1.54892 14.2912C1.17753 14.6626 1.17753 15.2647 1.54892 15.6361L1.63448 15.7216C2.00587 16.093 2.60801 16.093 2.9794 15.7216L7.92278 10.7783C8.29417 10.4069 8.29417 9.80473 7.92278 9.43334L7.83722 9.34778C7.46584 8.97639 6.86369 8.97639 6.49231 9.34778Z" fill="#198AB3"></path><path d="M10.119 12.2C13.488 12.2 16.219 9.46894 16.219 6.1C16.219 2.73106 13.488 0 10.119 0C6.75011 0 4.01904 2.73106 4.01904 6.1C4.01904 9.46894 6.75011 12.2 10.119 12.2Z" fill="#50E6FF"></path><path d="M10.1041 10.78C12.7474 10.78 14.8901 8.63724 14.8901 5.99401C14.8901 3.35077 12.7474 1.20801 10.1041 1.20801C7.46088 1.20801 5.31812 3.35077 5.31812 5.99401C5.31812 8.63724 7.46088 10.78 10.1041 10.78Z" fill="white"></path></g><defs><clipPath id="clip0"><rect fill="white" height="16" width="16"></rect></clipPath></defs></svg>