<svg fill="none" focusable="false" height="100%" viewBox="0 0 20 20" width="100%" xmlns="http://www.w3.org/2000/svg"><path d="M17.5285 8.33435H14.061L13.0935 9.11685V12.9977C13.0935 14.4385 14.261 15.6068 15.7018 15.6068C17.1435 15.6068 18.311 14.4385 18.311 12.9977V9.11685C18.311 8.68518 17.961 8.33435 17.5285 8.33435Z" fill="#5059C9"></path><path d="M18.3333 5.83329C18.3333 6.75329 17.5875 7.49996 16.6667 7.49996C15.7458 7.49996 15 6.75329 15 5.83329C15 4.91329 15.7458 4.16663 16.6667 4.16663C17.5875 4.16663 18.3333 4.91329 18.3333 5.83329Z" fill="#5059C9"></path><path d="M8.24345 8.33716H14.2468C14.6601 8.33716 14.9951 8.67216 14.9951 9.08549V13.8288C14.9951 15.8588 13.3501 17.5038 11.3201 17.5038H11.1701C9.14012 17.5038 7.49512 15.8588 7.49512 13.8288V9.08549C7.49512 8.67216 7.83012 8.33716 8.24345 8.33716Z" fill="#7B83EB"></path><path d="M14.0888 5.00001C14.0888 6.33751 13.0046 7.42251 11.6663 7.42251C10.3288 7.42251 9.24463 6.33751 9.24463 5.00001C9.24463 3.66251 10.3288 2.57751 11.6663 2.57751C13.0046 2.57751 14.0888 3.66251 14.0888 5.00001Z" fill="#7B83EB"></path><path clip-rule="evenodd" d="M12.5001 7.23445V6.66695C12.5001 6.20862 12.1068 5.83362 11.626 5.83362H9.39262C9.74012 6.74528 10.616 7.39612 11.6501 7.39612C11.9501 7.39612 12.2351 7.33445 12.5001 7.23445ZM7.49512 9.08528C7.49512 8.67195 7.83012 8.33695 8.24345 8.33695H12.5001V14.8661C12.5001 15.3245 11.9851 15.8336 11.4543 15.8336H8.09595C7.71845 15.2561 7.49512 14.5695 7.49512 13.8286V9.08528Z" fill="black" fill-rule="evenodd" opacity="0.5"></path><path d="M2.50008 15C2.04175 15 1.66675 14.625 1.66675 14.1667V5.83333C1.66675 5.375 2.04175 5 2.50008 5H10.8334C11.2917 5 11.6667 5.375 11.6667 5.83333V14.1667C11.6667 14.625 11.2917 15 10.8334 15H2.50008Z" fill="#4B53BC"></path><path d="M9.16672 8.33339H7.36255V13.1834H6.17672V8.33339H4.36255V7.14172H9.16672V8.33339Z" fill="white"></path></svg>