<svg fill="none" focusable="false" height="100%" viewBox="0 0 24 24" width="100%" xmlns="http://www.w3.org/2000/svg"><path d="M4.09182 2.56667C4.09094 2.42746 4.11749 2.28945 4.16995 2.16051C4.22241 2.03157 4.29975 1.91422 4.39756 1.81517C4.49538 1.71613 4.61174 1.63731 4.74001 1.58323C4.86828 1.52916 5.00595 1.50087 5.14515 1.5H21.4745C21.6137 1.50087 21.7514 1.52916 21.8796 1.58323C22.0079 1.63731 22.1243 1.71613 22.2221 1.81517C22.3199 1.91422 22.3972 2.03157 22.4497 2.16051C22.5021 2.28945 22.5287 2.42746 22.5278 2.56667V21.7667C22.5287 21.9059 22.5021 22.0439 22.4497 22.1728C22.3972 22.3018 22.3199 22.4191 22.2221 22.5182C22.1243 22.6172 22.0079 22.696 21.8796 22.7501C21.7514 22.8042 21.6137 22.8325 21.4745 22.8333H5.14515C5.00595 22.8325 4.86828 22.8042 4.74001 22.7501C4.61174 22.696 4.49538 22.6172 4.39756 22.5182C4.29975 22.4191 4.22241 22.3018 4.16995 22.1728C4.11749 22.0439 4.09094 21.9059 4.09182 21.7667V2.56667Z" fill="url(#paint0_linear_5689_190082)"></path><path d="M17.0793 4.66016H9.53862C9.41032 4.67202 9.29186 4.73395 9.20888 4.83252C9.12591 4.93109 9.0851 5.05838 9.09529 5.18682V7.03282C9.0851 7.16127 9.12591 7.28855 9.20888 7.38713C9.29186 7.4857 9.41032 7.54762 9.53862 7.55949H17.0793C17.2072 7.54713 17.3252 7.485 17.4077 7.38648C17.4903 7.28796 17.5308 7.16095 17.5206 7.03282V5.18682C17.5308 5.0587 17.4903 4.93168 17.4077 4.83317C17.3252 4.73465 17.2072 4.67252 17.0793 4.66016Z" fill="#50E6FF"></path><path d="M5.264 13.6147H2.92067C2.76233 13.598 2.60372 13.6437 2.47851 13.742C2.35329 13.8403 2.27132 13.9836 2.25 14.1414V14.668C2.27132 14.8258 2.35329 14.9691 2.47851 15.0674C2.60372 15.1657 2.76233 15.2114 2.92067 15.1947H5.264C5.42233 15.2114 5.58094 15.1657 5.70616 15.0674C5.83138 14.9691 5.91335 14.8258 5.93467 14.668V14.1414C5.91335 13.9836 5.83138 13.8403 5.70616 13.742C5.58094 13.6437 5.42233 13.598 5.264 13.6147Z" fill="#BCBCBC"></path><path d="M5.264 18.0913H2.92067C2.76233 18.0746 2.60372 18.1202 2.47851 18.2186C2.35329 18.3169 2.27132 18.4602 2.25 18.6179V19.1446C2.27116 19.3025 2.35309 19.4458 2.47834 19.5442C2.6036 19.6425 2.7623 19.6881 2.92067 19.6713H5.264C5.42237 19.6881 5.58106 19.6425 5.70632 19.5442C5.83158 19.4458 5.91351 19.3025 5.93467 19.1446V18.6179C5.91335 18.4602 5.83138 18.3169 5.70616 18.2186C5.58094 18.1202 5.42233 18.0746 5.264 18.0913Z" fill="#BCBCBC"></path><path d="M5.264 4.65969H2.92067C2.7623 4.64282 2.6036 4.68842 2.47834 4.78678C2.35309 4.88515 2.27116 5.02851 2.25 5.18636V5.71302C2.27132 5.8708 2.35329 6.01406 2.47851 6.11239C2.60372 6.21072 2.76233 6.25639 2.92067 6.23969H5.264C5.42233 6.25639 5.58094 6.21072 5.70616 6.11239C5.83138 6.01406 5.91335 5.8708 5.93467 5.71302V5.18636C5.91351 5.02851 5.83158 4.88515 5.70632 4.78678C5.58106 4.68842 5.42237 4.64282 5.264 4.65969Z" fill="#BCBCBC"></path><path d="M5.264 9.13619H2.92067C2.76233 9.11949 2.60372 9.16516 2.47851 9.26349C2.35329 9.36182 2.27132 9.50508 2.25 9.66286V10.1895C2.27132 10.3473 2.35329 10.4906 2.47851 10.5889C2.60372 10.6872 2.76233 10.7329 2.92067 10.7162H5.264C5.42233 10.7329 5.58094 10.6872 5.70616 10.5889C5.83138 10.4906 5.91335 10.3473 5.93467 10.1895V9.66286C5.91335 9.50508 5.83138 9.36182 5.70616 9.26349C5.58094 9.16516 5.42233 9.11949 5.264 9.13619Z" fill="#BCBCBC"></path><defs><linearGradient gradientUnits="userSpaceOnUse" id="paint0_linear_5689_190082" x1="13.3098" x2="13.3098" y1="22.8333" y2="1.5"><stop stop-color="#005BA4"></stop><stop offset="0.201" stop-color="#0068BA"></stop><stop offset="0.424" stop-color="#0071CA"></stop><stop offset="0.673" stop-color="#0076D4"></stop><stop offset="1" stop-color="#0078D7"></stop></linearGradient></defs></svg>