<svg fill="none" focusable="false" height="100%" viewBox="0 0 16 16" width="100%" xmlns="http://www.w3.org/2000/svg"><path d="M14.24 7.61605L9.19998 4.73605H9.12798C9.04041 4.67421 8.93855 4.63567 8.83198 4.62405C8.72377 4.62317 8.61687 4.64784 8.51998 4.69605H8.44798L3.40798 7.57605C3.36046 7.60345 3.32124 7.6432 3.29448 7.69109C3.26772 7.73898 3.25442 7.79321 3.25598 7.84805C3.2558 7.90062 3.2689 7.95239 3.29408 7.99854C3.31925 8.04469 3.35568 8.08374 3.39998 8.11205L8.83198 12L14.28 8.15205C14.3253 8.12414 14.3629 8.08539 14.3894 8.03929C14.416 7.9932 14.4306 7.94122 14.432 7.88805C14.4289 7.8292 14.4093 7.77243 14.3753 7.7243C14.3413 7.67616 14.2944 7.63863 14.24 7.61605Z" fill="#0A2767"></path><path d="M12.8313 1.6001H4.83125C4.61908 1.6001 4.41559 1.68438 4.26556 1.83441C4.11554 1.98444 4.03125 2.18792 4.03125 2.4001L8.83125 4.0001L13.6313 2.4001C13.6313 2.18792 13.547 1.98444 13.3969 1.83441C13.2469 1.68438 13.0434 1.6001 12.8313 1.6001Z" fill="#0364B8"></path><path d="M8.8 2.3999H4V7.1999L8.792 12.0079H13.592V7.1919L8.8 2.3999Z" fill="#28A8EA"></path><path d="M13.6008 2.3999H8.80078V7.1999H13.6008V2.3999Z" fill="#50D9FF"></path><path d="M8.792 12.0082L4 12.0002V7.2002H8.8L8.792 12.0082Z" fill="#0078D4"></path><path d="M8.83119 11.9998L3.36719 8.13583L3.77519 7.43183L8.83119 10.2958L13.8552 7.42383L14.2472 8.15183L8.83119 11.9998Z" fill="#0A2767" opacity="0.5"></path><path d="M14.2482 8.15218L9.20017 11.0242C9.0878 11.096 8.95752 11.1348 8.82417 11.1362H8.77617C8.70977 11.1446 8.64258 11.1446 8.57617 11.1362L10.4322 13.6002L14.1442 14.2642C14.2334 14.1988 14.306 14.1133 14.3561 14.0146C14.4061 13.9159 14.4322 13.8068 14.4322 13.6962V7.88818C14.4276 7.94452 14.4081 7.99862 14.3758 8.045C14.3435 8.09137 14.2994 8.12835 14.2482 8.15218Z" fill="#1490DF"></path><path d="M9.63217 10.7842L9.20017 11.0322C9.0878 11.104 8.95752 11.1428 8.82417 11.1442H8.77617C8.70977 11.1525 8.64258 11.1525 8.57617 11.1442L10.4322 13.6002L14.1442 14.2642C14.2334 14.1988 14.306 14.1133 14.3561 14.0146C14.4061 13.9159 14.4322 13.8068 14.4322 13.6962V13.4802L9.63217 10.7842Z" fill="black" opacity="0.1"></path><path d="M3.34338 8.15218C3.30496 8.12034 3.27474 8.07975 3.25525 8.03381C3.23576 7.98788 3.22757 7.93794 3.23138 7.88818V13.7042C3.23142 13.8481 3.27606 13.9884 3.35915 14.1059C3.44225 14.2234 3.55971 14.3122 3.69538 14.3602C3.77223 14.3723 3.85052 14.3723 3.92738 14.3602H13.6954C13.8415 14.3619 13.9844 14.3171 14.1034 14.2322L3.34338 8.15218Z" fill="#28A8EA"></path><path d="M8.83242 12.7998C9.25677 12.7998 9.66373 12.6312 9.96379 12.3312C10.2639 12.0311 10.4324 11.6242 10.4324 11.1998V5.5998C10.4324 5.38763 10.3481 5.18415 10.1981 5.03412C10.0481 4.88409 9.84459 4.7998 9.63242 4.7998H4.03242V7.2558L3.40042 7.6158C3.35514 7.64371 3.31753 7.68246 3.29099 7.72856C3.26445 7.77465 3.24982 7.82663 3.24842 7.8798H3.23242V12.7918L8.83242 12.7998Z" fill="black" opacity="0.5"></path><path d="M8.79961 4H2.39961C1.95778 4 1.59961 4.35817 1.59961 4.8V11.2C1.59961 11.6418 1.95778 12 2.39961 12H8.79961C9.24144 12 9.59961 11.6418 9.59961 11.2V4.8C9.59961 4.35817 9.24144 4 8.79961 4Z" fill="#0078D4"></path><path d="M3.36085 6.69621C3.55542 6.30161 3.86504 5.97526 4.24885 5.76021C4.67365 5.53113 5.15031 5.41541 5.63285 5.42421C6.09086 5.4123 6.54376 5.52277 6.94486 5.74421C7.3279 5.94358 7.64268 6.25279 7.84886 6.63221C8.05512 7.03841 8.15945 7.48869 8.15285 7.94421C8.16257 8.42145 8.05546 8.89383 7.84086 9.32021C7.63515 9.7013 7.3241 10.0151 6.94486 10.2242C6.52761 10.4496 6.05895 10.5626 5.58485 10.5522C5.11595 10.5616 4.6527 10.4486 4.24085 10.2242C3.86863 10.0149 3.56347 9.70415 3.36085 9.32821C3.15561 8.92737 3.05125 8.48251 3.05685 8.03221C3.0523 7.56923 3.15643 7.11164 3.36085 6.69621ZM4.31285 8.88021C4.41352 9.13014 4.58615 9.34454 4.80885 9.49621C5.0454 9.65299 5.32529 9.73135 5.60885 9.72021C5.89282 9.72533 6.17169 9.64446 6.40885 9.48821C6.62994 9.33681 6.80006 9.12207 6.89685 8.87221C7.00294 8.59954 7.05458 8.30873 7.04886 8.01621C7.05183 7.722 7.00308 7.42955 6.90486 7.15221C6.81559 6.88829 6.64365 6.66016 6.41453 6.50165C6.1854 6.34314 5.9113 6.26268 5.63285 6.27221C5.34967 6.26421 5.07071 6.34232 4.83285 6.49621C4.60737 6.64899 4.42983 6.86259 4.32085 7.11221C4.19894 7.39209 4.1389 7.69499 4.14485 8.00021C4.13549 8.30233 4.19285 8.60279 4.31285 8.88021Z" fill="white"></path></svg>