<svg fill="none" focusable="false" height="100%" viewBox="0 0 16 16" width="100%" xmlns="http://www.w3.org/2000/svg"><g clip-path="url(#clip0_63040_417)"><path d="M6.33333 0.00146484L0 3.67461V4.58343H1.16442V11.4753H2.30992V4.58343H10.3568V11.5303H11.5022V4.58343H12.6667V3.67461L6.33333 0.00146484Z" fill="url(#paint0_linear_63040_417)"></path><path d="M3.45557 11.4753H5.75602V9.18429H3.45557V11.4753ZM6.90151 11.4753H9.20195V9.18429H6.92991L6.90151 11.4753ZM3.45557 8.04826H5.75602V5.72888H3.45557V8.04826ZM6.92991 5.72888V8.04826H9.20195V5.72888H6.92991Z" fill="#50E6FF"></path><path d="M11.8273 15.6561C13.9411 15.6561 15.6547 13.9426 15.6547 11.8288C15.6547 9.71502 13.9411 8.00146 11.8273 8.00146C9.71356 8.00146 8 9.71502 8 11.8288C8 13.9426 9.71356 15.6561 11.8273 15.6561Z" fill="#76BC2D"></path><path d="M9.54138 11.2395C9.46204 11.5347 9.43741 11.842 9.46871 12.1461C9.51548 12.4675 9.62659 12.7761 9.79538 13.0535C9.91205 13.2558 10.0588 13.4393 10.2307 13.5975C10.3978 13.7505 10.5838 13.8815 10.784 13.9875C10.9931 14.0861 11.2121 14.1621 11.4374 14.2141C11.666 14.2461 11.898 14.2461 12.1267 14.2141L12.06 13.5521C12.06 13.5185 12.0467 13.4862 12.023 13.4623C11.9993 13.4385 11.967 13.425 11.9334 13.4248H11.5794C11.4283 13.3923 11.282 13.3405 11.144 13.2708C11.0102 13.2113 10.8827 13.1384 10.7634 13.0535C10.6468 12.9497 10.5488 12.8268 10.4734 12.6901C10.3583 12.5055 10.2839 12.2985 10.2554 12.0828C10.2147 11.8701 10.2147 11.6515 10.2554 11.4388L10.482 11.8195C10.5003 11.8493 10.5295 11.8708 10.5634 11.8792C10.5974 11.8877 10.6332 11.8825 10.6634 11.8648L10.9447 11.7015C10.9745 11.6832 10.996 11.654 11.0045 11.6201C11.013 11.5862 11.0078 11.5503 10.99 11.5201L10.228 10.2321C10.2077 10.2023 10.1769 10.1812 10.1418 10.1728C10.1067 10.1644 10.0697 10.1694 10.038 10.1868L8.76138 10.9488C8.73752 10.9727 8.72412 11.0051 8.72412 11.0388C8.72412 11.0726 8.73752 11.1049 8.76138 11.1288L8.91604 11.4015C8.924 11.4176 8.93513 11.4319 8.94876 11.4436C8.96239 11.4553 8.97824 11.4641 8.99536 11.4695C9.01248 11.4749 9.03052 11.4768 9.04839 11.4751C9.06627 11.4734 9.08361 11.4681 9.09938 11.4595L9.10604 11.4555L9.54138 11.2395Z" fill="white"></path><path d="M12.2175 10.2228C12.3675 10.259 12.5134 10.3106 12.6528 10.3768C12.7908 10.4508 12.9188 10.5422 13.0335 10.6488C13.1523 10.7529 13.2534 10.8756 13.3328 11.0122C13.4424 11.1985 13.5134 11.4051 13.5415 11.6195C13.5821 11.8322 13.5821 12.0507 13.5415 12.2635L13.3148 11.8828C13.3065 11.8673 13.2953 11.8535 13.2817 11.8423C13.2681 11.8311 13.2524 11.8228 13.2355 11.8177C13.2187 11.8126 13.201 11.8109 13.1834 11.8127C13.1659 11.8145 13.1489 11.8198 13.1335 11.8282L12.8615 11.9915C12.8458 12.0003 12.8322 12.0122 12.8212 12.0264C12.8103 12.0406 12.8024 12.0569 12.7979 12.0743C12.7934 12.0916 12.7925 12.1097 12.7952 12.1275C12.7978 12.1452 12.8041 12.1622 12.8135 12.1775V12.1822L13.5661 13.4608C13.5851 13.4924 13.6153 13.5156 13.6508 13.5256C13.6862 13.5356 13.7241 13.5318 13.7568 13.5148L15.0381 12.7562C15.0542 12.7482 15.0686 12.7371 15.0802 12.7234C15.0919 12.7098 15.1008 12.694 15.1062 12.6768C15.1116 12.6597 15.1135 12.6417 15.1118 12.6238C15.11 12.6059 15.1047 12.5886 15.0961 12.5728L15.0921 12.5655L14.9295 12.2935C14.9091 12.2635 14.8782 12.2422 14.8429 12.2338C14.8076 12.2255 14.7705 12.2306 14.7388 12.2482L14.2941 12.5108C14.3864 12.193 14.4112 11.8594 14.3668 11.5315C14.3179 11.2123 14.2104 10.9048 14.0495 10.6248C13.927 10.4297 13.7808 10.2506 13.6141 10.0915C13.2684 9.75604 12.834 9.52636 12.3621 9.42949C12.1786 9.40615 11.9929 9.40615 11.8095 9.42949C11.776 9.43138 11.7446 9.44648 11.7222 9.47148C11.6999 9.49647 11.6883 9.52932 11.6901 9.56282V9.57349V10.0995C11.6937 10.131 11.7085 10.1602 11.7317 10.1818C11.7549 10.2035 11.7851 10.2161 11.8168 10.2175C11.9503 10.2078 12.0843 10.2096 12.2175 10.2228Z" fill="white"></path></g><defs><linearGradient gradientUnits="userSpaceOnUse" id="paint0_linear_63040_417" x1="6.33333" x2="6.33333" y1="0.00146484" y2="12.0528"><stop stop-color="#B3B2B3"></stop><stop offset="0.38" stop-color="#AFAEAF"></stop><stop offset="0.76" stop-color="#A2A2A2"></stop><stop offset="1" stop-color="#979797"></stop></linearGradient><clipPath id="clip0_63040_417"><rect fill="white" height="16" transform="translate(0 0.00146484)" width="16"></rect></clipPath></defs></svg>