<svg fill="none" focusable="false" height="100%" viewBox="0 0 24 24" width="100%" xmlns="http://www.w3.org/2000/svg"><g clip-path="url(#clip0_5689_190040)"><path d="M18.8247 3.87261C18.8229 3.46908 18.9006 3.06916 19.0535 2.69569C19.2063 2.32221 19.4312 1.98251 19.7153 1.69597C19.9995 1.40944 20.3373 1.1817 20.7095 1.02575C21.0816 0.869806 21.4809 0.788715 21.8844 0.787109C22.4809 0.874737 23.0249 1.17709 23.4143 1.6374C23.8037 2.09771 24.0117 2.68433 23.9992 3.28711C24.0037 3.85748 23.8111 4.4119 23.4539 4.85661C23.3652 4.96481 23.2536 5.05196 23.1271 5.11175C23.0006 5.17155 22.8623 5.2025 22.7224 5.20236H18.7324L18.8247 3.87261Z" fill="#005BA1"></path><path d="M19.1047 0.7209H7.13521C6.33209 0.728019 5.56429 1.05204 4.99888 1.62245C4.43348 2.19287 4.11625 2.9635 4.11621 3.76665V23.3034H16.0857C16.8934 23.3034 17.6681 22.9825 18.2392 22.4114C18.8103 21.8403 19.1312 21.0656 19.1312 20.2579V7.07815C19.0537 5.74936 19.0537 4.41719 19.1312 3.0884C19.61 0.44165 22.4695 0.90715 22.4695 0.90715C21.3586 0.717143 20.2297 0.654655 19.1047 0.7209Z" fill="url(#paint0_linear_5689_190040)"></path><path d="M16.2997 23.3041C15.8326 23.2326 15.3961 23.0273 15.0432 22.7131C14.6902 22.3989 14.4357 21.9891 14.3106 21.5334C14.1854 21.0777 14.1949 20.5955 14.3378 20.1451C14.4808 19.6947 14.7511 19.2953 15.1162 18.9951C15.1665 18.9551 15.2029 18.9003 15.2202 18.8384C15.2376 18.7765 15.235 18.7107 15.2129 18.6504C15.1907 18.59 15.1502 18.5382 15.0969 18.5022C15.0437 18.4662 14.9804 18.4479 14.9162 18.4499L2.40494 18.4004H2.01919C1.4762 18.4992 0.982186 18.7776 0.616533 19.191C0.250881 19.6044 0.0348278 20.1287 0.00309558 20.6797C-0.0286366 21.2307 0.125795 21.7763 0.441571 22.229C0.757348 22.6816 1.21613 23.0149 1.74419 23.1754C2.05555 23.2665 2.3788 23.3105 2.70319 23.3059H16.2997V23.3041Z" fill="#5EA0EF"></path><path d="M15.9225 5.38086H7.26699C7.07424 5.38086 6.91699 5.47761 6.91699 5.59686V6.12961C6.91699 6.24886 7.07324 6.34561 7.26699 6.34561H15.9225C16.1152 6.34561 16.2725 6.24886 16.2725 6.12961V5.59686C16.2712 5.47761 16.1152 5.38086 15.9225 5.38086Z" fill="#83B9F9"></path><path d="M15.9225 8.27539H7.26699C7.07424 8.27539 6.91699 8.37214 6.91699 8.49139V9.02414C6.91699 9.14339 7.07324 9.24014 7.26699 9.24014H15.9225C16.1152 9.24014 16.2725 9.14339 16.2725 9.02414V8.49114C16.2712 8.37189 16.1152 8.27539 15.9225 8.27539Z" fill="#83B9F9"></path><path d="M15.9225 11.168H7.26699C7.07424 11.168 6.91699 11.2647 6.91699 11.384V11.9167C6.91699 12.036 7.07324 12.1325 7.26699 12.1325H15.9225C16.1152 12.1325 16.2725 12.036 16.2725 11.9167V11.384C16.2712 11.2647 16.1152 11.168 15.9225 11.168Z" fill="#83B9F9"></path><path d="M12.4082 14.0625H7.36072C7.11622 14.0625 6.91797 14.1592 6.91797 14.2785V14.8113C6.91797 14.9305 7.11622 15.027 7.36072 15.027H12.4082C12.6527 15.027 12.851 14.9305 12.851 14.8113V14.2785C12.851 14.1592 12.6527 14.0625 12.4082 14.0625Z" fill="#83B9F9"></path></g><defs><linearGradient gradientUnits="userSpaceOnUse" id="paint0_linear_5689_190040" x1="13.293" x2="13.293" y1="23.3034" y2="0.695401"><stop stop-color="#005BA4"></stop><stop offset="0.201" stop-color="#0068BA"></stop><stop offset="0.424" stop-color="#0071CA"></stop><stop offset="0.673" stop-color="#0076D4"></stop><stop offset="1" stop-color="#0078D7"></stop></linearGradient><clipPath id="clip0_5689_190040"><rect fill="white" height="24" width="24"></rect></clipPath></defs></svg>