<svg fill="none" focusable="false" height="100%" viewBox="0 0 16 17" width="100%" xmlns="http://www.w3.org/2000/svg"><g clip-path="url(#clip0_5677_47433)"><path d="M1.0862 8.22003C1.08236 9.35573 1.23753 10.4864 1.5472 11.579C1.85964 12.6704 2.29194 13.7238 2.8362 14.72H2.0782C1.75394 14.244 1.4642 13.7454 1.2112 13.228C0.956146 12.7085 0.73924 12.1711 0.562199 11.62C0.385063 11.0674 0.246726 10.503 0.148199 9.93103C0.049822 9.36332 0.000307283 8.78821 0.000198887 8.21203C-0.00698774 7.05558 0.180636 5.90617 0.555199 4.81203C0.935157 3.72323 1.44661 2.68489 2.0782 1.72003H2.8362C2.54953 2.28203 2.29953 2.81536 2.0862 3.32003C1.87547 3.81739 1.69284 4.32619 1.5392 4.84403C1.38472 5.36603 1.27137 5.89933 1.2002 6.43903C1.12563 7.02979 1.08756 7.62459 1.0862 8.22003Z" fill="#767676"></path><path d="M16.0012 8.21202C16.0009 8.7879 15.9538 9.3628 15.8602 9.93102C15.7678 10.5013 15.6294 11.0631 15.4462 11.611C15.2627 12.161 15.0436 12.6985 14.7902 13.22C14.5383 13.7406 14.2485 14.2419 13.9232 14.72H13.1652C13.7094 13.7238 14.1417 12.6704 14.4542 11.579C14.7638 10.4864 14.919 9.35572 14.9152 8.22002C14.9136 7.46035 14.8467 6.70223 14.7152 5.95402C14.5844 5.20248 14.3801 4.4656 14.1052 3.75402C13.9718 3.40469 13.8235 3.06369 13.6602 2.73102C13.4968 2.39836 13.3302 2.06236 13.1602 1.72302H13.9182C14.5499 2.6885 15.0613 3.72753 15.4412 4.81702C15.8169 5.90928 16.0062 7.05696 16.0012 8.21202Z" fill="#767676"></path><path d="M9.4273 12.541C9.23083 12.5452 9.03956 12.4777 8.8893 12.351C8.74817 12.2306 8.62965 12.0861 8.5393 11.924C8.48179 11.8132 8.43524 11.697 8.4003 11.577C8.3503 11.424 8.3003 11.248 8.2513 11.05C8.2023 10.852 8.1513 10.65 8.0903 10.427C8.0293 10.204 7.9813 9.99204 7.9423 9.79004C7.9033 9.58804 7.8643 9.40504 7.8253 9.23404C7.8113 9.17604 7.7993 9.12204 7.7893 9.07204C7.68796 9.25204 7.57463 9.44671 7.4493 9.65604C7.2733 9.95004 7.0793 10.256 6.8733 10.556C6.6673 10.856 6.4533 11.148 6.2373 11.408C6.04444 11.6445 5.83202 11.8642 5.6023 12.065C5.44257 12.1951 5.26922 12.3074 5.0853 12.4C4.89515 12.4943 4.68552 12.5426 4.4733 12.541C4.3514 12.5417 4.2302 12.5228 4.1143 12.485C4.00038 12.4466 3.89531 12.3857 3.8053 12.306C3.71488 12.2268 3.64082 12.1307 3.5873 12.023C3.53114 11.9079 3.50271 11.7812 3.5043 11.653C3.50102 11.549 3.51833 11.4454 3.55523 11.3481C3.59212 11.2508 3.64788 11.1617 3.7193 11.086C3.79219 11.0112 3.87993 10.9524 3.97689 10.9135C4.07385 10.8746 4.17788 10.8564 4.2823 10.86C4.40351 10.8599 4.52257 10.892 4.6273 10.953C4.71916 11.0064 4.80796 11.0648 4.8933 11.128C4.9723 11.187 5.0483 11.246 5.1223 11.306C5.15822 11.3396 5.20362 11.3612 5.2523 11.368C5.3023 11.368 5.3873 11.344 5.5523 11.186C5.71639 11.0243 5.86846 10.8509 6.0073 10.667C6.1713 10.454 6.3403 10.216 6.5073 9.96004C6.6743 9.70404 6.8393 9.44904 6.9903 9.20504C7.1413 8.96104 7.2673 8.74404 7.3693 8.55004C7.4613 8.37337 7.5343 8.23837 7.5883 8.14504L7.4503 7.62904C7.40096 7.44704 7.3543 7.26271 7.3103 7.07604C7.27163 6.91871 7.22996 6.74204 7.1853 6.54604C7.14063 6.35004 7.0873 6.15404 7.0253 5.95804C6.96749 5.77218 6.889 5.59339 6.7913 5.42504C6.70806 5.27948 6.59814 5.15091 6.4673 5.04604C6.33876 4.95236 6.19133 4.88786 6.0353 4.85704C5.86838 4.82989 5.69939 4.81751 5.5303 4.82004C5.3713 4.82004 5.2133 4.82704 5.0543 4.84104L4.9543 4.85004V4.35304L7.5123 3.89804L7.5443 3.93304C7.72896 4.12856 7.89284 4.3427 8.0333 4.57204C8.15409 4.77604 8.25906 4.98899 8.3473 5.20904C8.43393 5.43055 8.50641 5.65734 8.5643 5.88804C8.6093 6.06804 8.6593 6.25604 8.7163 6.45304C8.83763 6.26904 8.9593 6.08204 9.0813 5.89204C9.23907 5.64638 9.41172 5.41061 9.5983 5.18604C9.7826 4.96288 9.98315 4.75364 10.1983 4.56004C10.4203 4.35953 10.6694 4.19122 10.9383 4.06004C11.0339 4.01256 11.1345 3.97599 11.2383 3.95104C11.3402 3.92529 11.4443 3.90955 11.5493 3.90404C11.6657 3.90358 11.7815 3.91974 11.8933 3.95204C12.0008 3.98299 12.1023 4.03202 12.1933 4.09704C12.2859 4.16179 12.3611 4.24833 12.4123 4.34904C12.4647 4.46158 12.4926 4.58393 12.4943 4.70804C12.502 4.81632 12.4873 4.92502 12.4512 5.02739C12.4151 5.12975 12.3583 5.22358 12.2843 5.30304C12.1186 5.44638 11.9029 5.51828 11.6843 5.50304C11.5915 5.50265 11.4993 5.48918 11.4103 5.46304C11.3243 5.43804 11.2413 5.41004 11.1613 5.38004C11.0813 5.35004 11.0063 5.32504 10.9253 5.30104C10.8515 5.27987 10.7751 5.26943 10.6983 5.27004C10.5966 5.27526 10.4986 5.31001 10.4163 5.37004C10.2906 5.45703 10.1749 5.55764 10.0713 5.67004C9.94353 5.80341 9.8227 5.94326 9.7093 6.08904C9.58796 6.24371 9.47696 6.39871 9.3763 6.55404C9.2763 6.70904 9.1763 6.85404 9.0983 6.99104C9.0253 7.11104 8.9683 7.21104 8.9253 7.29104L9.6593 10.391L9.7183 10.649C9.74394 10.7573 9.77736 10.8636 9.8183 10.967C9.85378 11.0617 9.90188 11.1512 9.9613 11.233C9.97835 11.2591 10.0012 11.2808 10.0282 11.2964C10.0551 11.312 10.0852 11.3211 10.1163 11.323C10.2306 11.3129 10.3389 11.2674 10.4263 11.193C10.5626 11.091 10.6892 10.9765 10.8043 10.851C10.9234 10.7235 11.0305 10.5852 11.1243 10.438C11.2153 10.294 11.2853 10.174 11.3333 10.078L11.3723 10.001L11.8463 10.233L11.8053 10.312C11.7453 10.4267 11.6656 10.56 11.5663 10.712C11.467 10.864 11.3526 11.023 11.2233 11.189C11.0953 11.3524 10.962 11.5127 10.8233 11.67C10.6848 11.8288 10.5303 11.9729 10.3623 12.1C10.2161 12.2124 10.0642 12.3172 9.9073 12.414C9.77112 12.4991 9.61388 12.5445 9.4533 12.545L9.4273 12.541Z" fill="url(#paint0_linear_5677_47433)"></path></g><defs><linearGradient gradientUnits="userSpaceOnUse" id="paint0_linear_5677_47433" x1="7.9983" x2="7.9983" y1="12.542" y2="3.89804"><stop stop-color="#0078D4"></stop><stop offset="1" stop-color="#5EA0EF"></stop></linearGradient><clipPath id="clip0_5677_47433"><rect fill="white" height="16" transform="translate(0 0.220032)" width="16"></rect></clipPath></defs></svg>