<svg fill="none" focusable="false" height="100%" viewBox="0 0 16 16" width="100%" xmlns="http://www.w3.org/2000/svg"><g clip-path="url(#clip0)"><path d="M0.514 1.85388H15.486C15.5498 1.85009 15.6137 1.85892 15.674 1.87984C15.7344 1.90076 15.79 1.93338 15.8377 1.97583C15.8855 2.01827 15.9244 2.06971 15.9522 2.1272C15.9801 2.18469 15.9963 2.24711 16 2.31088V13.6879C15.9928 13.8165 15.9348 13.937 15.8388 14.0228C15.7428 14.1087 15.6166 14.153 15.488 14.1459H0.514C0.385963 14.1499 0.261262 14.1047 0.165621 14.0194C0.0699807 13.9342 0.0106969 13.8155 0 13.6879V2.33988C0.00366383 2.20743 0.059749 2.08186 0.155936 1.99073C0.252124 1.89961 0.380548 1.85039 0.513 1.85388H0.514Z" fill="#9CEBFF"></path><path d="M16 2.28294C15.9963 2.22284 15.9808 2.16406 15.9544 2.10996C15.9279 2.05586 15.8911 2.00751 15.846 1.96766C15.8008 1.92782 15.7483 1.89726 15.6913 1.87775C15.6343 1.85823 15.5741 1.85014 15.514 1.85394H0.486C0.425909 1.85014 0.36566 1.85823 0.308699 1.87775C0.251739 1.89726 0.199185 1.92782 0.154045 1.96766C0.108905 2.00751 0.0720647 2.05586 0.0456319 2.10996C0.0191992 2.16406 0.00369278 2.22284 0 2.28294L0 4.00694H16V2.28294Z" fill="#0078D4"></path><path d="M11.04 7.77984L10.577 6.97984L8.46296 8.19984V5.75684H7.53696V8.19984L5.42296 6.97684L4.95996 7.77684L7.07296 8.99984L4.95996 10.2198L5.42296 11.0198L7.53696 9.79984V12.2398H8.46296V9.79984L10.577 11.0198L11.04 10.2198L8.92696 8.99984L11.04 7.77984Z" fill="#0078D4"></path></g><defs><clipPath id="clip0"><rect fill="white" height="16" width="16"></rect></clipPath></defs></svg>