<svg fill="none" focusable="false" height="100%" viewBox="0 0 16 17" width="100%" xmlns="http://www.w3.org/2000/svg"><g clip-path="url(#clip0_5677_47416)"><path d="M0.514 2.07404H15.486C15.5498 2.07025 15.6137 2.07907 15.674 2.09999C15.7344 2.12092 15.79 2.15353 15.8377 2.19598C15.8855 2.23842 15.9244 2.28986 15.9522 2.34736C15.9801 2.40485 15.9963 2.46726 16 2.53104V13.908C15.9928 14.0366 15.9348 14.1571 15.8388 14.243C15.7428 14.3289 15.6166 14.3731 15.488 14.366H0.514C0.385963 14.3701 0.261262 14.3248 0.165621 14.2396C0.0699807 14.1544 0.0106969 14.0357 0 13.908V2.56004C0.00366383 2.42759 0.059749 2.30201 0.155936 2.21089C0.252124 2.11976 0.380548 2.07054 0.513 2.07404H0.514Z" fill="#9CEBFF"></path><path d="M16 2.50303C15.9963 2.44293 15.9808 2.38415 15.9544 2.33006C15.9279 2.27596 15.8911 2.2276 15.846 2.18776C15.8008 2.14791 15.7483 2.11736 15.6913 2.09784C15.6343 2.07833 15.5741 2.07024 15.514 2.07403H0.486C0.425909 2.07024 0.36566 2.07833 0.308699 2.09784C0.251739 2.11736 0.199185 2.14791 0.154045 2.18776C0.108905 2.2276 0.0720647 2.27596 0.0456319 2.33006C0.0191992 2.38415 0.00369278 2.44293 0 2.50303L0 4.22703H16V2.50303Z" fill="#0078D4"></path><path d="M13.8206 6.18503H1.65462C1.43262 6.18503 1.26562 6.28503 1.26562 6.40803V6.94903C1.26562 7.07403 1.43262 7.17103 1.65462 7.17103H13.8206C14.0436 7.17103 14.2206 7.07103 14.2206 6.94903V6.40803C14.2236 6.28303 14.0016 6.18503 13.8206 6.18503Z" fill="#0078D4"></path><path d="M9.82063 8.69202H1.65462C1.43262 8.69202 1.26562 8.79202 1.26562 8.91402V9.45602C1.26562 9.58102 1.43262 9.67802 1.65462 9.67802H9.82063C10.0436 9.67802 10.2206 9.57802 10.2206 9.45602V8.91402C10.2236 8.78902 10.0016 8.69202 9.82063 8.69202Z" fill="#0078D4"></path><path d="M13.819 8.69202H12.264C12.042 8.69202 11.875 8.79202 11.875 8.91402V9.45602C11.875 9.58102 12.042 9.67802 12.264 9.67802H13.819C14.042 9.67802 14.219 9.57802 14.219 9.45602V8.91402C14.222 8.78902 14 8.69202 13.819 8.69202Z" fill="#0078D4"></path><path d="M5.26562 11.734V12.276C5.26562 12.401 5.44563 12.498 5.66563 12.498H13.8316C14.0546 12.498 14.2206 12.398 14.2206 12.276V11.734C14.2206 11.609 14.0546 11.512 13.8316 11.512H5.66862C5.48762 11.512 5.26562 11.609 5.26562 11.734Z" fill="#0078D4"></path><path d="M1.26562 11.734V12.276C1.26562 12.401 1.44562 12.498 1.66562 12.498H3.22362C3.44562 12.498 3.61263 12.398 3.61263 12.276V11.734C3.61263 11.609 3.44562 11.512 3.22362 11.512H1.66862C1.48763 11.512 1.26562 11.609 1.26562 11.734Z" fill="#0078D4"></path></g><defs><clipPath id="clip0_5677_47416"><rect fill="white" height="16" transform="translate(0 0.220032)" width="16"></rect></clipPath></defs></svg>