<svg fill="none" focusable="false" height="100%" viewBox="0 0 16 16" width="100%" xmlns="http://www.w3.org/2000/svg"><path d="M14.2052 1.20386H11.5602C11.3956 1.20386 11.2622 1.33728 11.2622 1.50186V4.14686C11.2622 4.31144 11.3956 4.44486 11.5602 4.44486H14.2052C14.3698 4.44486 14.5032 4.31144 14.5032 4.14686V1.50186C14.5032 1.33728 14.3698 1.20386 14.2052 1.20386Z" fill="url(#paint0_linear)"></path><path d="M14.2052 6.6709H11.5602C11.3956 6.6709 11.2622 6.80432 11.2622 6.9689V9.6139C11.2622 9.77848 11.3956 9.9119 11.5602 9.9119H14.2052C14.3698 9.9119 14.5032 9.77848 14.5032 9.6139V6.9689C14.5032 6.80432 14.3698 6.6709 14.2052 6.6709Z" fill="url(#paint1_linear)"></path><path d="M14.2052 12.1379H11.5602C11.3956 12.1379 11.2622 12.2714 11.2622 12.4359V15.0809C11.2622 15.2455 11.3956 15.3789 11.5602 15.3789H14.2052C14.3698 15.3789 14.5032 15.2455 14.5032 15.0809V12.4359C14.5032 12.2714 14.3698 12.1379 14.2052 12.1379Z" fill="url(#paint2_linear)"></path><path d="M8.39316 4.69188L10.3412 2.75288L10.3532 2.73988C10.3713 2.71717 10.3812 2.68895 10.3812 2.65988C10.3809 2.63086 10.371 2.60274 10.3532 2.57988L10.3412 2.56788L8.39316 0.628878C8.38168 0.608843 8.36361 0.593401 8.34203 0.585174C8.32046 0.576947 8.2967 0.576442 8.27479 0.583745C8.25288 0.591048 8.23417 0.605708 8.22185 0.625237C8.20952 0.644766 8.20433 0.667959 8.20716 0.690878V1.85988C8.20734 1.88445 8.19847 1.90822 8.18224 1.92666C8.16601 1.94511 8.14356 1.95693 8.11916 1.95988H3.38516C3.3467 1.96218 3.31056 1.97909 3.28416 2.00717C3.25776 2.03524 3.2431 2.07234 3.24316 2.11088V3.21288C3.2431 3.25141 3.25776 3.28852 3.28416 3.31659C3.31056 3.34466 3.3467 3.36158 3.38516 3.36388H8.11916C8.14356 3.36683 8.16601 3.37865 8.18224 3.39709C8.19847 3.41554 8.20734 3.43931 8.20716 3.46388V4.62988C8.20433 4.6528 8.20952 4.67599 8.22185 4.69552C8.23417 4.71505 8.25288 4.72971 8.27479 4.73701C8.2967 4.74431 8.32046 4.74381 8.34203 4.73558C8.36361 4.72736 8.38168 4.71191 8.39316 4.69188Z" fill="#999999"></path><path d="M8.39316 10.2849L10.3412 8.3459L10.3532 8.3339C10.371 8.31103 10.3809 8.28292 10.3812 8.2539C10.381 8.22485 10.3712 8.19669 10.3532 8.1739L10.3412 8.1609L8.39316 6.2219C8.38168 6.20186 8.36361 6.18642 8.34203 6.17819C8.32046 6.16996 8.2967 6.16946 8.27479 6.17676C8.25288 6.18407 8.23417 6.19873 8.22185 6.21825C8.20952 6.23778 8.20433 6.26098 8.20716 6.2839V7.4529C8.20734 7.47746 8.19847 7.50124 8.18224 7.51968C8.16601 7.53812 8.14356 7.54995 8.11916 7.5529H3.38516C3.3467 7.55519 3.31056 7.57211 3.28416 7.60018C3.25776 7.62826 3.2431 7.66536 3.24316 7.7039V8.8039C3.2431 8.84243 3.25776 8.87954 3.28416 8.90761C3.31056 8.93568 3.3467 8.9526 3.38516 8.9549H8.11916C8.14356 8.95784 8.16601 8.96967 8.18224 8.98811C8.19847 9.00655 8.20734 9.03033 8.20716 9.0549V10.2239C8.20433 10.2468 8.20952 10.27 8.22185 10.2895C8.23417 10.3091 8.25288 10.3237 8.27479 10.331C8.2967 10.3383 8.32046 10.3378 8.34203 10.3296C8.36361 10.3214 8.38168 10.3059 8.39316 10.2859V10.2849Z" fill="#999999"></path><path d="M8.39303 15.7898L10.341 13.8508L10.353 13.8378C10.3712 13.8151 10.3811 13.7869 10.3811 13.7578C10.3811 13.7287 10.3712 13.7005 10.353 13.6778L10.341 13.6658L8.39303 11.7268C8.38154 11.7067 8.36348 11.6913 8.3419 11.6831C8.32032 11.6748 8.29656 11.6743 8.27465 11.6816C8.25274 11.6889 8.23404 11.7036 8.22171 11.7231C8.20938 11.7427 8.2042 11.7659 8.20703 11.7888V12.9578C8.2072 12.9823 8.19833 13.0061 8.1821 13.0246C8.16587 13.043 8.14342 13.0548 8.11903 13.0578H2.62003C2.58173 13.0601 2.54574 13.0768 2.51937 13.1047C2.49299 13.1326 2.47821 13.1694 2.47803 13.2078V14.3138C2.47796 14.3523 2.49263 14.3894 2.51903 14.4175C2.54543 14.4456 2.58156 14.4625 2.62003 14.4648H8.12003C8.14442 14.4677 8.16687 14.4795 8.1831 14.498C8.19933 14.5164 8.20821 14.5402 8.20803 14.5648V15.7338C8.2052 15.7567 8.21038 15.7799 8.22271 15.7994C8.23504 15.8189 8.25374 15.8336 8.27565 15.8409C8.29756 15.8482 8.32132 15.8477 8.3429 15.8395C8.36448 15.8313 8.38254 15.8158 8.39403 15.7958L8.39303 15.7898Z" fill="#999999"></path><path d="M2.62493 13.4579C2.62493 13.4579 2.63293 13.4579 2.63693 13.4579H3.84793C3.85293 13.4579 3.85593 13.4579 3.86093 13.4579H3.90293V13.4379C3.9298 13.4298 3.95363 13.4138 3.97143 13.3921C3.98923 13.3704 4.00019 13.3439 4.00293 13.3159V13.3069V3.19995V3.18595C4.00019 3.158 3.98923 3.1315 3.97143 3.10978C3.95363 3.08807 3.9298 3.07212 3.90293 3.06395V3.04395H3.86093C3.85593 3.04395 3.85293 3.04395 3.84793 3.04395H2.63693C2.63693 3.04395 2.62993 3.04395 2.62493 3.04395H2.58193V3.06395C2.555 3.072 2.53109 3.08791 2.51328 3.10965C2.49546 3.13139 2.48454 3.15796 2.48193 3.18595V3.19995V13.3119V13.3209C2.48454 13.3489 2.49546 13.3755 2.51328 13.3972C2.53109 13.419 2.555 13.4349 2.58193 13.4429V13.4629L2.62493 13.4579Z" fill="#999999"></path><path d="M3.03316 0.578653L1.16287 2.44895C1.04649 2.56533 1.04649 2.75401 1.16287 2.87039L3.03316 4.74068C3.14954 4.85706 3.33822 4.85706 3.4546 4.74068L5.3249 2.87039C5.44127 2.75401 5.44127 2.56533 5.3249 2.44895L3.4546 0.578653C3.33822 0.462277 3.14954 0.462277 3.03316 0.578653Z" fill="#3B3B3B"></path><defs><linearGradient gradientUnits="userSpaceOnUse" id="paint0_linear" x1="12.8822" x2="12.8822" y1="1.20386" y2="4.43386"><stop stop-color="#379CE5"></stop><stop offset="0.379" stop-color="#218DDC"></stop><stop offset="1" stop-color="#1988D9"></stop></linearGradient><linearGradient gradientUnits="userSpaceOnUse" id="paint1_linear" x1="53.0128" x2="53.0128" y1="15.36" y2="25.8284"><stop stop-color="#379CE5"></stop><stop offset="0.379" stop-color="#218DDC"></stop><stop offset="1" stop-color="#1988D9"></stop></linearGradient><linearGradient gradientUnits="userSpaceOnUse" id="paint2_linear" x1="53.0128" x2="53.0128" y1="38.5456" y2="49.014"><stop stop-color="#379CE5"></stop><stop offset="0.379" stop-color="#218DDC"></stop><stop offset="1" stop-color="#1988D9"></stop></linearGradient></defs></svg>