<svg fill="none" focusable="false" height="100%" viewBox="0 0 16 16" width="100%" xmlns="http://www.w3.org/2000/svg"><path d="M13.076 2.80608V2.78741C13.0714 2.75674 13.0562 2.72864 13.0331 2.70795C13.01 2.68726 12.9804 2.67529 12.9494 2.67408C12.9427 2.67408 12.9387 2.66675 12.9314 2.66675H5.60802C5.58935 2.66701 5.57091 2.67097 5.55377 2.67839C5.53664 2.68582 5.52114 2.69657 5.50819 2.71002C5.49523 2.72348 5.48507 2.73936 5.47829 2.75677C5.47151 2.77417 5.46825 2.79274 5.46869 2.81141V3.84275C5.47027 3.86041 5.47535 3.87758 5.48365 3.89326C5.49195 3.90893 5.50329 3.92279 5.51701 3.93403C5.53073 3.94526 5.54655 3.95365 5.56355 3.9587C5.58056 3.96374 5.59839 3.96535 5.61602 3.96341H11.78V8.84341V12.0361H5.47202V8.27608C5.47417 8.25404 5.48443 8.23357 5.50082 8.21867C5.5172 8.20376 5.53854 8.19548 5.56069 8.19541H6.62736C6.64972 8.20284 6.67412 8.20108 6.69519 8.19051C6.71626 8.17995 6.73226 8.16145 6.73969 8.13908C6.74711 8.11671 6.74535 8.09231 6.73479 8.07125C6.72422 8.05018 6.70572 8.03417 6.68335 8.02675L4.91669 6.25541L4.90535 6.24408C4.88436 6.22813 4.85872 6.21949 4.83235 6.21949C4.80599 6.21949 4.78035 6.22813 4.75935 6.24408L4.74802 6.25541L2.98469 8.02741C2.97361 8.03109 2.96337 8.03691 2.95455 8.04455C2.94572 8.05218 2.93849 8.06148 2.93326 8.07191C2.92803 8.08235 2.9249 8.0937 2.92406 8.10534C2.92322 8.11698 2.92468 8.12867 2.92835 8.13975C2.93203 8.15082 2.93785 8.16106 2.94549 8.16989C2.95312 8.17871 2.96242 8.18595 2.97285 8.19118C2.98329 8.19641 2.99465 8.19954 3.00628 8.20038C3.01792 8.20122 3.02961 8.19976 3.04069 8.19608H4.10402C4.12617 8.19614 4.14751 8.20443 4.16389 8.21934C4.18028 8.23424 4.19054 8.2547 4.19269 8.27675V12.1807V13.2121C4.19418 13.2298 4.19921 13.247 4.20747 13.2628C4.21573 13.2785 4.22706 13.2925 4.24079 13.3038C4.25452 13.3151 4.27037 13.3235 4.28741 13.3286C4.30445 13.3337 4.32234 13.3353 4.34002 13.3334H12.9554C12.986 13.3289 13.0142 13.3139 13.035 13.2909C13.0558 13.2679 13.068 13.2384 13.0694 13.2074C13.0694 13.2007 13.0767 13.1961 13.076 13.1894V11.1387V2.81475C13.0764 2.81187 13.0764 2.80896 13.076 2.80608V2.80608Z" fill="#999999"></path></svg>