<svg fill="none" focusable="false" height="100%" viewBox="0 0 16 20" width="100%" xmlns="http://www.w3.org/2000/svg"><path clip-rule="evenodd" d="M10.7425 11.5075C10.4678 11.3647 10.2372 11.1495 10.0759 10.8852C9.91456 10.6209 9.82853 10.3176 9.82712 10.0079C9.8257 9.69825 9.90895 9.3941 10.0679 9.12834C10.2268 8.86257 10.4553 8.6453 10.7288 8.5C11.8827 7.97774 12.8618 7.13415 13.549 6.07012C14.2362 5.00609 14.6024 3.76664 14.6038 2.5H1.39502C1.3953 3.76527 1.75962 5.00375 2.4445 6.06764C3.12938 7.13153 4.1059 7.9759 5.25752 8.5C5.53041 8.64345 5.75911 8.85845 5.91912 9.12197C6.07913 9.38549 6.16441 9.68758 6.16582 9.99587C6.16724 10.3042 6.08473 10.607 5.92714 10.872C5.76955 11.137 5.54283 11.3541 5.27127 11.5C4.11731 12.0223 3.13819 12.8659 2.45101 13.9299C1.76382 14.9939 1.39764 16.2334 1.39627 17.5H14.605C14.6033 16.236 14.2383 14.9991 13.5535 13.9367C12.8687 12.8743 11.893 12.0311 10.7425 11.5075Z" fill="url(#paint0_linear_237_78749)" fill-rule="evenodd"></path><path d="M15.5825 0.620117H0.417481C0.210374 0.620117 0.0424805 0.78801 0.0424805 0.995117V2.12512C0.0424805 2.33222 0.210374 2.50012 0.417481 2.50012H15.5825C15.7896 2.50012 15.9575 2.33222 15.9575 2.12512V0.995117C15.9575 0.78801 15.7896 0.620117 15.5825 0.620117Z" fill="#767676"></path><path d="M15.5825 17.5015H0.417481C0.210374 17.5015 0.0424805 17.6694 0.0424805 17.8765V19.0065C0.0424805 19.2136 0.210374 19.3815 0.417481 19.3815H15.5825C15.7896 19.3815 15.9575 19.2136 15.9575 19.0065V17.8765C15.9575 17.6694 15.7896 17.5015 15.5825 17.5015Z" fill="#767676"></path><path clip-rule="evenodd" d="M9.65622 13.0003H9.69747C9.38219 12.8525 9.11428 12.6199 8.92375 12.3285C8.73322 12.0371 8.6276 11.6983 8.61872 11.3503V8.63277C8.62794 8.28767 8.73226 7.95182 8.92018 7.66223C9.10809 7.37263 9.37231 7.14054 9.68372 6.99152C10.7197 6.59883 11.5894 5.86236 12.1475 4.90527H3.85247C4.41052 5.86236 5.28025 6.59883 6.31622 6.99152C6.62763 7.14054 6.89185 7.37263 7.07976 7.66223C7.26768 7.95182 7.372 8.28767 7.38122 8.63277V11.3503C7.37234 11.6983 7.26672 12.0371 7.07619 12.3285C6.88566 12.6199 6.61775 12.8525 6.30247 13.0003H6.34372C5.42017 13.3368 4.62229 13.9489 4.058 14.7537C3.49372 15.5586 3.19027 16.5173 3.18872 17.5003H12.8137C12.812 16.517 12.5082 15.5581 11.9434 14.7532C11.3787 13.9483 10.5802 13.3364 9.65622 13.0003Z" fill="url(#paint1_linear_237_78749)" fill-rule="evenodd"></path><defs><linearGradient gradientUnits="userSpaceOnUse" id="paint0_linear_237_78749" x1="8.00002" x2="8.00002" y1="17.5013" y2="2.49875"><stop stop-color="#1988D9"></stop><stop offset="0.22" stop-color="#218DDC"></stop><stop offset="0.56" stop-color="#379CE5"></stop><stop offset="0.9" stop-color="#54AEF0"></stop></linearGradient><linearGradient gradientUnits="userSpaceOnUse" id="paint1_linear_237_78749" x1="7.99997" x2="7.99997" y1="17.5015" y2="4.90527"><stop stop-color="#FEB018"></stop><stop offset="0.455" stop-color="#FFC314"></stop><stop offset="1" stop-color="#FFD70F"></stop></linearGradient></defs></svg>