<svg fill="none" focusable="false" height="100%" viewBox="0 0 16 17" width="100%" xmlns="http://www.w3.org/2000/svg"><g clip-path="url(#clip0_5677_47459)"><path d="M12.6999 14.278C11.0912 15.4973 9.06645 16.033 7.06521 15.7687C5.06397 15.5044 3.24772 14.4615 2.01067 12.8663C0.773616 11.2711 0.215596 9.25246 0.457721 7.24842C0.699847 5.24437 1.72258 3.41668 3.30394 2.16204L3.38127 2.10271C4.99791 0.896289 7.02487 0.375609 9.0228 0.653527C11.0207 0.931445 12.8286 1.98557 14.0546 3.5874C15.2806 5.18924 15.8259 7.20971 15.5724 9.21088C15.3188 11.212 14.2867 13.0326 12.6999 14.278Z" fill="#0078D4"></path><path d="M13.6123 3.98403C12.9712 3.13659 12.1461 2.44583 11.1991 1.9639C10.2521 1.48197 9.20799 1.22146 8.1456 1.20203C8.03688 1.19336 7.92765 1.19336 7.81893 1.20203C6.35287 1.23541 4.93451 1.72942 3.76493 2.61403L3.69827 2.66603C2.55439 3.55025 1.71156 4.76622 1.28501 6.14765C0.858461 7.52908 0.869017 9.00854 1.31523 10.3837C1.76145 11.759 2.62155 12.9628 3.77792 13.8306C4.93429 14.6984 6.33049 15.1879 7.7756 15.232C7.7856 15.232 7.7956 15.2374 7.8056 15.238C7.87227 15.2447 7.93893 15.2487 8.0056 15.2487C8.0176 15.2487 8.02893 15.2427 8.04093 15.2427C9.34507 15.2374 10.622 14.869 11.7285 14.1788C12.8351 13.4887 13.7276 12.504 14.306 11.3351C14.8844 10.1663 15.1259 8.85941 15.0033 7.56103C14.8808 6.26266 14.3991 5.02405 13.6123 3.98403ZM5.06427 12.448C5.31868 13.1516 5.70542 13.7999 6.2036 14.358C5.18828 14.0624 4.26262 13.5185 3.51027 12.7754C3.98313 12.5373 4.47561 12.3403 4.98227 12.1867C5.01227 12.272 5.0316 12.3654 5.06427 12.448ZM7.87027 14.62C7.01427 14.5334 6.2036 13.66 5.6476 12.2254C5.62093 12.1587 5.60493 12.0794 5.58093 12.0087C7.17518 11.6302 8.83565 11.6279 10.4309 12.002C10.2724 12.4775 10.0607 12.9335 9.7996 13.3614C9.22893 14.2407 8.55027 14.6927 7.87027 14.62ZM5.39427 11.4134C5.13478 10.4746 4.99368 9.50711 4.97427 8.53336H11.0289C11.0147 9.50428 10.8822 10.4699 10.6343 11.4087C8.91074 10.996 7.11404 10.9969 5.39093 11.4114L5.39427 11.4134ZM4.83827 4.68669C4.54093 5.7353 4.38158 6.81821 4.36427 7.90803H1.6136C1.68138 6.47577 2.22816 5.10776 3.16627 4.02336C3.70214 4.29513 4.26182 4.51717 4.83827 4.68669ZM5.43827 4.86469C6.27883 5.06404 7.13972 5.16494 8.0036 5.16536C8.86655 5.1648 9.72652 5.06413 10.5663 4.86536C10.8583 5.85431 11.0172 6.87776 11.0389 7.90869H4.98093C4.99911 6.87862 5.15265 5.85541 5.4376 4.86536L5.43827 4.86469ZM7.98693 1.82003H7.99493C8.05427 1.82003 8.11293 1.82803 8.17227 1.83003C9.02893 1.93669 9.83293 2.82403 10.3816 4.27136C8.82447 4.63082 7.2061 4.63242 5.64827 4.27603C5.80556 3.84293 6.0066 3.427 6.24827 3.03469C6.41783 2.7064 6.66471 2.42428 6.96761 2.21267C7.27051 2.00106 7.62034 1.8663 7.98693 1.82003ZM10.9696 4.06403C10.7143 3.33603 10.3201 2.6645 9.80893 2.08669C10.7674 2.3673 11.6462 2.86976 12.3743 3.55336C11.9247 3.77159 11.4583 3.95328 10.9796 4.09669C10.9756 4.08669 10.9736 4.07269 10.9696 4.06203V4.06403ZM11.6556 8.53069H14.3889C14.3221 9.90476 13.8165 11.2212 12.9463 12.2867C12.3973 12.0023 11.8225 11.7708 11.2296 11.5954C11.4988 10.5958 11.6419 9.56646 11.6556 8.53136V8.53069ZM14.3889 7.90803H11.6703C11.6461 6.81692 11.4759 5.73396 11.1643 4.68803C11.7388 4.51815 12.2966 4.29635 12.8309 4.02536C12.9269 4.13536 13.0263 4.24069 13.1156 4.35869C13.8899 5.38581 14.3343 6.62365 14.3903 7.90869L14.3889 7.90803ZM4.0776 3.15869L4.14427 3.10869C4.76292 2.64575 5.46077 2.29942 6.2036 2.08669C6.01233 2.29072 5.83902 2.51087 5.6856 2.74469C5.42402 3.17259 5.2088 3.62716 5.0436 4.10069C4.55621 3.95704 4.08131 3.77399 3.6236 3.55336C3.7676 3.41403 3.91827 3.28269 4.0776 3.15869ZM1.61093 8.53136H4.35427C4.37313 9.56811 4.52207 10.5984 4.7976 11.598C4.20095 11.7744 3.62254 12.0075 3.07026 12.294C3.02893 12.2434 2.98293 12.1974 2.94226 12.1454C2.13662 11.1069 1.67225 9.84439 1.61293 8.53136H1.61093ZM11.9269 13.2814C11.2939 13.771 10.5742 14.1367 9.8056 14.3594C9.99634 14.1533 10.1677 13.9301 10.3176 13.6927C10.6098 13.2153 10.8469 12.7062 11.0243 12.1754C11.5343 12.3279 12.0302 12.5244 12.5063 12.7627C12.3246 12.9473 12.1318 13.1205 11.9289 13.2814H11.9269Z" fill="#83B9F9"></path></g><defs><clipPath id="clip0_5677_47459"><rect fill="white" height="16" transform="translate(0 0.220032)" width="16"></rect></clipPath></defs></svg>