<svg fill="none" focusable="false" height="100%" viewBox="0 0 16 16" width="100%" xmlns="http://www.w3.org/2000/svg"><path d="M2.93408 15.2H6.36708C6.4046 15.2025 6.44157 15.1899 6.46987 15.1652C6.49818 15.1405 6.51552 15.1055 6.51809 15.068V13.936C6.52028 13.8963 6.50669 13.8573 6.48029 13.8275C6.45389 13.7977 6.4168 13.7796 6.37708 13.777H3.08408C3.04492 13.7746 3.00799 13.7579 2.98034 13.73C2.95268 13.7022 2.93622 13.6652 2.93408 13.626V11.75C2.93835 11.725 2.95134 11.7023 2.97076 11.686C2.99017 11.6697 3.01474 11.6609 3.04008 11.661H4.20008C4.21935 11.6605 4.23807 11.6545 4.254 11.6437C4.26993 11.6329 4.2824 11.6177 4.2899 11.5999C4.2974 11.5822 4.29961 11.5627 4.29628 11.5437C4.29294 11.5247 4.28419 11.5071 4.27108 11.493L2.32308 9.52899C2.31086 9.51492 2.29597 9.50341 2.27927 9.49514C2.26257 9.48686 2.2444 9.48197 2.2258 9.48077C2.2072 9.47956 2.18854 9.48205 2.17091 9.48809C2.15328 9.49414 2.13703 9.50362 2.12308 9.51599L2.11108 9.52899L0.173085 11.476C0.158164 11.4775 0.143777 11.4824 0.130989 11.4902C0.118202 11.4981 0.107342 11.5087 0.0992127 11.5213C0.0910837 11.5339 0.0858942 11.5481 0.0840286 11.563C0.0821629 11.5779 0.0836689 11.593 0.088435 11.6072C0.0932011 11.6215 0.101105 11.6344 0.111562 11.6452C0.122019 11.6559 0.13476 11.6642 0.148843 11.6694C0.162926 11.6745 0.17799 11.6765 0.192918 11.675C0.207847 11.6736 0.222258 11.6688 0.235085 11.661H1.40008C1.42481 11.6608 1.44871 11.6698 1.46717 11.6863C1.48564 11.7027 1.49737 11.7254 1.50008 11.75V15.06C1.50263 15.0983 1.51965 15.1342 1.5477 15.1604C1.57574 15.1865 1.61271 15.2011 1.65108 15.201L2.93408 15.2Z" fill="#999999"></path><path d="M12.6482 0.747802H9.21519C9.17758 0.745606 9.14061 0.758345 9.11234 0.783249C9.08407 0.808153 9.06676 0.843211 9.06419 0.880802V2.0138C9.06201 2.0537 9.07572 2.09284 9.10234 2.12264C9.12896 2.15244 9.1663 2.17048 9.20619 2.1728H12.5002C12.5393 2.17474 12.5764 2.19116 12.6041 2.21889C12.6318 2.24661 12.6483 2.28365 12.6502 2.3228V4.1998C12.6461 4.22488 12.6332 4.24766 12.6137 4.26399C12.5943 4.28033 12.5696 4.28913 12.5442 4.2888H11.3832C11.3578 4.28874 11.3334 4.29831 11.3148 4.31557C11.2963 4.33284 11.285 4.35651 11.2832 4.3818C11.2828 4.39578 11.2854 4.40967 11.2907 4.42259C11.2961 4.43551 11.3041 4.44716 11.3142 4.4568L13.2612 6.4218C13.2862 6.44984 13.3212 6.46684 13.3587 6.46909C13.3962 6.47134 13.433 6.45865 13.4612 6.4338L13.4732 6.4218L15.4112 4.4748C15.4259 4.47299 15.44 4.46793 15.4525 4.46C15.465 4.45206 15.4756 4.44145 15.4835 4.42893C15.4914 4.41641 15.4964 4.40229 15.4982 4.38759C15.5 4.37289 15.4985 4.35798 15.4938 4.34393C15.4891 4.32989 15.4814 4.31705 15.4711 4.30636C15.4609 4.29567 15.4484 4.28739 15.4346 4.28212C15.4207 4.27684 15.4059 4.27471 15.3911 4.27586C15.3764 4.27702 15.362 4.28144 15.3492 4.2888H14.1792C14.1545 4.28895 14.1306 4.27994 14.1121 4.2635C14.0936 4.24707 14.0819 4.22437 14.0792 4.1998V0.889802C14.0769 0.851334 14.06 0.8152 14.0319 0.788801C14.0038 0.762401 13.9667 0.747733 13.9282 0.747802H12.6482Z" fill="#999999"></path><path d="M15.7901 12.1428V11.1658L15.7401 11.1238L14.7211 10.7738L14.4621 10.1058L14.9801 9.10581L15.0301 8.99781L14.7211 8.66381L14.3531 8.27081L14.2201 8.33781L13.2431 8.83781L12.5741 8.64581L12.1481 7.55981H11.1801L11.1301 7.60981L10.8001 8.59981L10.1151 8.85881L8.98307 8.32681L8.30007 9.01181L8.36707 9.14481L8.87707 10.1138L8.60107 10.7818L7.42407 11.2078V12.1848L7.56607 12.2268L8.60107 12.5688L8.87707 13.2788L8.34007 14.4068L9.02507 15.0998L9.15907 15.0408L10.1361 14.5408L10.8041 14.8168L11.2301 15.9938H12.2151V15.7858L12.5581 14.7498L13.2171 14.4738L14.3621 14.9998L15.0461 14.3148L14.9801 14.1808L14.5041 13.2808L14.6961 12.5958L15.7901 12.1428ZM11.6901 13.0428C11.4191 13.0446 11.1536 12.966 10.9273 12.8169C10.701 12.6678 10.5241 12.4549 10.4188 12.2052C10.3134 11.9555 10.2846 11.6802 10.3358 11.414C10.387 11.1479 10.5159 10.903 10.7064 10.7101C10.8968 10.5173 11.1401 10.3853 11.4056 10.3308C11.6711 10.2763 11.9467 10.3018 12.1977 10.404C12.4487 10.5062 12.6638 10.6805 12.8157 10.905C12.9676 11.1294 13.0495 11.3938 13.0511 11.6648C13.0519 12.028 12.9092 12.3767 12.6541 12.6352C12.399 12.8936 12.0522 13.0409 11.6891 13.0448L11.6901 13.0428Z" fill="url(#paint0_linear)"></path><path d="M6.41909 6.97192C6.01634 7.30372 5.55109 7.55131 5.05091 7.70005C4.55073 7.84878 4.02579 7.89563 3.50718 7.83781C2.98857 7.77999 2.48683 7.61868 2.03169 7.36344C1.57655 7.1082 1.17726 6.76421 0.857469 6.35186C0.537679 5.93951 0.303893 5.46717 0.169957 4.96282C0.036022 4.45848 0.0046613 3.93239 0.0777327 3.4157C0.150804 2.89902 0.326822 2.40225 0.59536 1.95483C0.863898 1.5074 1.2195 1.11842 1.64109 0.810917L1.68009 0.780917C2.50345 0.188504 3.52523 -0.0598152 4.52865 0.0886426C5.53206 0.2371 6.43816 0.770653 7.0547 1.5761C7.67125 2.38156 7.94973 3.39553 7.83106 4.4029C7.7124 5.41027 7.20592 6.33178 6.41909 6.97192Z" fill="#0078D4"></path><path d="M6.88212 1.73796C6.55583 1.30683 6.13587 0.955444 5.65395 0.710323C5.17202 0.465202 4.64071 0.332748 4.10012 0.322957C4.04454 0.318454 3.98869 0.318454 3.93312 0.322957C3.18762 0.33991 2.4663 0.590726 1.87112 1.03996L1.83712 1.06696C1.25506 1.51662 0.826191 2.13519 0.609218 2.83798C0.392244 3.54077 0.397768 4.29344 0.625033 4.99297C0.852298 5.6925 1.2902 6.3047 1.87879 6.74578C2.46739 7.18685 3.17792 7.43525 3.91312 7.45696H3.92812C3.96131 7.46081 3.9947 7.46282 4.02812 7.46296H4.04612C4.70947 7.46069 5.35908 7.2737 5.92212 6.92294C6.48515 6.57219 6.93936 6.07154 7.23382 5.47712C7.52828 4.8827 7.65135 4.21801 7.58923 3.55757C7.52711 2.89713 7.28225 2.26704 6.88212 1.73796ZM2.53512 6.03796C2.66487 6.3956 2.86173 6.72517 3.11512 7.00896C2.5993 6.85975 2.12856 6.58487 1.74512 6.20896C1.98545 6.08783 2.23569 5.98747 2.49312 5.90896C2.50912 5.95196 2.51912 5.99996 2.53512 6.04196V6.03796ZM3.96012 7.13796C3.52512 7.09396 3.11312 6.64996 2.83012 5.92096C2.81612 5.88596 2.80812 5.84596 2.79612 5.80996C3.60702 5.61896 4.45121 5.61896 5.26212 5.80996C5.18143 6.05162 5.07375 6.28342 4.94112 6.50096C4.65312 6.95296 4.30812 7.18296 3.96012 7.14496V7.13796ZM2.70012 5.51396C2.56859 5.03673 2.49737 4.5449 2.48812 4.04996H5.56612C5.55923 4.54362 5.49206 5.03458 5.36612 5.51196C4.48966 5.30297 3.57626 5.30365 2.70012 5.51396ZM2.42012 2.09996C2.26898 2.63317 2.18797 3.18381 2.17912 3.73796H0.780118C0.81507 3.00978 1.09324 2.31436 1.57012 1.76296C1.84248 1.9012 2.12702 2.01401 2.42012 2.09996ZM2.72512 2.19096C3.1511 2.29183 3.58736 2.34284 4.02512 2.34296C4.46285 2.34238 4.89906 2.29137 5.32512 2.19096C5.47332 2.69371 5.55402 3.21393 5.56512 3.73796H2.49312C2.50123 3.21262 2.57925 2.6907 2.72512 2.18596V2.19096ZM4.02512 0.640957C4.05512 0.640957 4.08512 0.640957 4.11512 0.645957C4.55112 0.699957 4.96012 1.15196 5.23912 1.88696C4.44677 2.06896 3.62347 2.06896 2.83112 1.88696C2.9093 1.66693 3.00982 1.45549 3.13112 1.25596C3.21786 1.08802 3.34425 0.943781 3.49934 0.835741C3.65443 0.727701 3.83353 0.659124 4.02112 0.635957L4.02512 0.640957ZM5.53812 1.77696C5.40759 1.40878 5.20727 1.06924 4.94812 0.776957C5.43369 0.919841 5.87896 1.17467 6.24812 1.52096C6.0198 1.63234 5.78266 1.72466 5.53912 1.79696L5.53812 1.77696ZM5.88612 4.04996H7.27612C7.24215 4.74799 6.98524 5.41673 6.54312 5.95796C6.26383 5.81343 5.97154 5.69558 5.67012 5.60596C5.80676 5.09833 5.87932 4.5756 5.88612 4.04996ZM7.27712 3.73296H5.89212C5.87973 3.17959 5.79329 2.63038 5.63512 2.09996C5.92789 2.01401 6.2121 1.9012 6.48412 1.76296C6.53212 1.81896 6.58412 1.87296 6.62812 1.93296C7.02134 2.45361 7.24761 3.08117 7.27712 3.73296ZM2.03312 1.31796L2.06712 1.29296C2.38153 1.0567 2.7368 0.880417 3.11512 0.772957C3.01815 0.87664 2.93017 0.988375 2.85212 1.10696C2.71869 1.32471 2.60874 1.55601 2.52412 1.79696C2.27617 1.7236 2.03469 1.62995 1.80212 1.51696C1.87612 1.44796 1.95212 1.38096 2.03312 1.31796ZM0.780118 4.04996H2.17412C2.18346 4.57674 2.2594 5.10023 2.40012 5.60796C2.09651 5.69812 1.80219 5.81699 1.52112 5.96296C1.50012 5.93796 1.47712 5.91396 1.45612 5.88796C1.04688 5.35953 0.810789 4.71762 0.780118 4.04996ZM6.02512 6.46596C5.70328 6.71454 5.33761 6.90043 4.94712 7.01396C5.044 6.90953 5.13103 6.79638 5.20712 6.67596C5.35615 6.43354 5.47694 6.17485 5.56712 5.90496C5.82626 5.98318 6.07819 6.08355 6.32012 6.20496C6.22741 6.29811 6.12887 6.38529 6.02512 6.46596Z" fill="#83B9F9"></path><defs><linearGradient gradientUnits="userSpaceOnUse" id="paint0_linear" x1="11.6061" x2="11.6061" y1="16.6988" y2="7.26081"><stop stop-color="#767676"></stop><stop offset="1" stop-color="#D9D9D9"></stop></linearGradient></defs></svg>