<svg xmlns="http://www.w3.org/2000/svg" viewBox="100 100.00049591064453 300 299.99951171875" width="300" height="299.99951171875">&#xa;   <defs>&#xa;      <linearGradient id="a" gradientTransform="rotate(90)">&#xa;         <stop offset="0" stop-color="#77b0f7"/>&#xa;         <stop offset=".5" stop-color="#5395ec"/>&#xa;         <stop offset="1" stop-color="#0078d4"/>&#xa;      </linearGradient>&#xa;   </defs>&#xa;   <path fill="url(#a)" d="M166.957 309.95h148.591A81.631 80.93 0 00400 232.206a80.431 79.74 0 00-70.778-76.748 86.855 86.107 0 00-83.242-55.414 84.855 84.125 0 00-87.47 79.736A67.558 66.977 0 00100 243.972a68.16 67.574 0 0066.957 65.978z"/>&#xa;   <circle cx="325.003" cy="324.996" r="65.117" fill="#fff"/>&#xa;   <path fill="#222" d="M325.003 269.766a55.234 55.234 0 11-55.233 55.23 55.23 55.23 0 0155.233-55.23m0-19.766A75 75 0 10400 324.996 75.082 75.082 0 00325.003 250z"/>&#xa;   <path fill="#76bc2d" d="M323.709 298.767v20.8h19.223v32.486l10.347-.066a8.895 8.895 0 008.852-8.97l-.238-35.646a8.921 8.921 0 00-8.895-8.851h-.058m-23.776 53.56v-18.748h-19.223V298.8l-10.937.066a8.895 8.895 0 00-8.849 8.976l.237 35.646a8.918 8.918 0 008.895 8.852h.06m62.655-31.332h11.883v8.828h-11.883zm-83.611 0h11.883v8.828H278.39z"/>&#xa;</svg>