<svg xmlns="http://www.w3.org/2000/svg" viewBox="0 0 140 96"><g><path d="M34.22 13.55v68.71c0 7.2 15.9 12.88 35.78 12.88V13.55Z" style="fill:#3e3e3e"></path><path d="M69.43 95.32H70c19.69 0 35.78-5.86 35.78-12.87v-68.9H69.43Z" style="fill:#a0a1a2"></path><path d="M105.78 13.55c0 7.19-15.9 12.87-35.78 12.87s-35.78-5.68-35.78-12.87C34.22 6.54 50.31.68 70 .68s35.78 5.86 35.78 12.87" style="fill:#fff"></path><path d="M98.39 12.79c0 4.73-12.68 8.52-28.39 8.52s-28.39-3.79-28.39-8.52S54.29 4.27 70 4.27s28.39 3.79 28.39 8.52" style="fill:#7fba00"></path><path d="M92.53 18.09c3.78-1.51 5.86-3.22 5.86-5.3 0-4.73-12.68-8.52-28.39-8.52s-28.39 3.79-28.39 8.52c0 1.89 2.27 3.79 5.86 5.3C52.58 16 60.72 14.68 70 14.68c9.09 0 17.23 1.33 22.53 3.41" style="fill:#b8d432"></path><path d="M69.43 95.32V61.25a14.8 14.8 0 0 1-12.49-7 14.49 14.49 0 0 1-12.31 7 14 14 0 0 1-10.41-4.54v25.74c0 7.01 15.71 12.69 35.21 12.87" style="fill:#3999c6"></path><path d="M95 61.25a15.14 15.14 0 0 1-12.69-7c-2.46 4.16-7.57 6.81-12.87 7v34.07H70c19.69 0 35.78-5.86 35.78-12.87V56.52A14.7 14.7 0 0 1 95 61.25" style="fill:#59b4d9"></path></g></svg>