<svg xmlns="http://www.w3.org/2000/svg" viewBox="99.99999237060547 100 300 300" width="300" height="300">&#xa;   <defs>&#xa;      <linearGradient id="a" gradientTransform="rotate(90)">&#xa;         <stop offset="0" stop-color="#ccc"/>&#xa;         <stop offset=".5" stop-color="#aaa"/>&#xa;         <stop offset="1" stop-color="#999"/>&#xa;      </linearGradient>&#xa;   </defs>&#xa;   <path fill="url(#a)" d="M100 110.228A10.445 10.224 0 01110.445 100H269.92a10.258 10.042 0 0110.077 10.224v279.548A10.448 10.228 0 01269.55 400H110.445A10.629 10.404 0 01100 389.772z"/>&#xa;   <path fill="#002d50" d="M147.173 128.768a18.884 18.884 0 00-19.41 18.35v.538a18.887 18.887 0 0019.056 18.716h86.855v-.007a18.8 18.8 0 000-37.596h-86.501zm.002 55.944a18.887 18.887 0 00-19.413 18.35v.36a18.887 18.887 0 0018.882 18.905h87.029v-.018a18.8 18.8 0 000-37.597z"/>&#xa;   <path fill="#50e6ff" d="M232.614 134.952a12.709 12.709 0 00-12.708 12.71 12.709 12.709 0 0012.708 12.708 12.709 12.709 0 0012.709-12.708 12.709 12.709 0 00-12.71-12.71zm0 55.78a12.709 12.709 0 00-12.708 12.708 12.709 12.709 0 0012.708 12.708 12.709 12.709 0 0012.709-12.708 12.709 12.709 0 00-12.71-12.709z"/>&#xa;   <circle cx="325.004" cy="324.996" r="65.117" fill="#fff"/>&#xa;   <path fill="#222" d="M325.004 269.766a55.234 55.234 0 11-55.235 55.23 55.23 55.23 0 0155.235-55.23m0-19.766A75 75 0 10400 324.996 75.082 75.082 0 00325.004 250z"/>&#xa;   <path fill="#76bc2d" d="M323.709 298.767v20.8h19.223v32.486l10.347-.066a8.895 8.895 0 008.852-8.97l-.237-35.646a8.92 8.92 0 00-8.895-8.852h-.06m-23.774 53.56v-18.748H309.94V298.8l-10.937.066a8.895 8.895 0 00-8.848 8.976l.237 35.646a8.918 8.918 0 008.894 8.852h.06m62.656-31.332h11.883v8.828h-11.884zm-83.612 0h11.883v8.828h-11.882z"/>&#xa;</svg>