<svg xmlns="http://www.w3.org/2000/svg" xmlns:xlink="http://www.w3.org/1999/xlink" id="Layer_1" data-name="Layer 1" viewBox="0 0 18 18" width="18" height="18">&#xa;  <defs>&#xa;    <style>&#xa;      .cls-1 {&#xa;        fill: none;&#xa;      }&#xa;&#xa;      .cls-1, .cls-2, .cls-3, .cls-4 {&#xa;        stroke-width: 0px;&#xa;      }&#xa;&#xa;      .cls-2 {&#xa;        fill: url(#linear-gradient);&#xa;      }&#xa;&#xa;      .cls-2, .cls-3 {&#xa;        fill-rule: evenodd;&#xa;      }&#xa;&#xa;      .cls-3 {&#xa;        fill: url(#linear-gradient-3);&#xa;      }&#xa;&#xa;      .cls-4 {&#xa;        fill: url(#linear-gradient-2);&#xa;      }&#xa;    </style>&#xa;    <linearGradient id="linear-gradient" x1="12.76" y1="11.97" x2="10.26" y2="1.96" gradientUnits="userSpaceOnUse">&#xa;      <stop offset="0" stop-color="#712575"/>&#xa;      <stop offset=".09" stop-color="#9a2884"/>&#xa;      <stop offset=".18" stop-color="#bf2c92"/>&#xa;      <stop offset=".27" stop-color="#da2e9c"/>&#xa;      <stop offset=".34" stop-color="#eb30a2"/>&#xa;      <stop offset=".4" stop-color="#f131a5"/>&#xa;      <stop offset=".5" stop-color="#ec30a3"/>&#xa;      <stop offset=".61" stop-color="#df2f9e"/>&#xa;      <stop offset=".72" stop-color="#c92d96"/>&#xa;      <stop offset=".83" stop-color="#aa2a8a"/>&#xa;      <stop offset=".95" stop-color="#83267c"/>&#xa;      <stop offset="1" stop-color="#712575"/>&#xa;    </linearGradient>&#xa;    <linearGradient id="linear-gradient-2" x1="13.71" y1="1.8" x2="13.71" y2="15.92" gradientUnits="userSpaceOnUse">&#xa;      <stop offset="0" stop-color="#da7ed0"/>&#xa;      <stop offset=".08" stop-color="#b17bd5"/>&#xa;      <stop offset=".19" stop-color="#8778db"/>&#xa;      <stop offset=".3" stop-color="#6276e1"/>&#xa;      <stop offset=".41" stop-color="#4574e5"/>&#xa;      <stop offset=".54" stop-color="#2e72e8"/>&#xa;      <stop offset=".67" stop-color="#1d71eb"/>&#xa;      <stop offset=".81" stop-color="#1471ec"/>&#xa;      <stop offset="1" stop-color="#1171ed"/>&#xa;    </linearGradient>&#xa;    <linearGradient id="linear-gradient-3" x1="12.86" y1="2.12" x2="3.5" y2="17.13" gradientUnits="userSpaceOnUse">&#xa;      <stop offset="0" stop-color="#da7ed0"/>&#xa;      <stop offset=".05" stop-color="#b77bd4"/>&#xa;      <stop offset=".11" stop-color="#9079da"/>&#xa;      <stop offset=".18" stop-color="#6e77df"/>&#xa;      <stop offset=".25" stop-color="#5175e3"/>&#xa;      <stop offset=".33" stop-color="#3973e7"/>&#xa;      <stop offset=".42" stop-color="#2772e9"/>&#xa;      <stop offset=".54" stop-color="#1a71eb"/>&#xa;      <stop offset=".68" stop-color="#1371ec"/>&#xa;      <stop offset="1" stop-color="#1171ed"/>&#xa;    </linearGradient>&#xa;  </defs>&#xa;  <path class="cls-2" d="m11.52,1.59c.44,0,.83.33.97.81s.96,3.45.96,3.45v5.9h-2.97l.06-10.17h.98Z"/>&#xa;  <path class="cls-4" d="m15.88,6.2c0-.21-.17-.37-.37-.37h-1.75c-1.23,0-2.23,1-2.23,2.23v3.7h2.12c1.23,0,2.23-1,2.23-2.23v-3.33Z"/>&#xa;  <path class="cls-3" d="m11.52,1.59c-.34,0-.61.27-.61.61l-.06,11.23c0,1.64-1.33,2.97-2.97,2.97H2.49c-.26,0-.43-.25-.35-.49L6.46,3.58c.42-1.19,1.54-1.99,2.8-1.99h2.27Z"/>&#xa;  <rect class="cls-1" width="18" height="18"/>&#xa;</svg>