<svg xmlns="http://www.w3.org/2000/svg" width="102" height="78" viewBox="-5 10 102 78" fill="none">&#xa;  <defs>&#xa;    <filter id="filter0_f">&#xa;      <feFlood flood-opacity="0" result="BackgroundImageFix"/>&#xa;      <feBlend mode="normal" in="SourceGraphic" in2="BackgroundImageFix" result="shape"/>&#xa;      <feGaussianBlur stdDeviation="0.4" result="effect1_foregroundBlur"/>&#xa;    </filter>&#xa;    <filter id="filter1_f">&#xa;      <feFlood flood-opacity="0" result="BackgroundImageFix"/>&#xa;      <feBlend mode="normal" in="SourceGraphic" in2="BackgroundImageFix" result="shape"/>&#xa;      <feGaussianBlur stdDeviation="4" result="effect1_foregroundBlur"/>&#xa;    </filter>&#xa;    <linearGradient id="paint0_linear" x1="43" y1="55" x2="29" y2="10" gradientUnits="userSpaceOnUse">&#xa;      <stop stop-color="#0D36A5"/>&#xa;      <stop offset="1" stop-color="#1152D4"/>&#xa;    </linearGradient>&#xa;    <linearGradient id="paint1_linear" x1="46" y1="10" x2="46" y2="86" gradientUnits="userSpaceOnUse">&#xa;      <stop stop-color="#84CAFF"/>&#xa;      <stop offset="1" stop-color="#61B1FB"/>&#xa;    </linearGradient>&#xa;    <linearGradient id="paint2_linear" x1="37.5" y1="10" x2="37.5" y2="86" gradientUnits="userSpaceOnUse">&#xa;      <stop stop-color="#3B90F5"/>&#xa;      <stop offset="1" stop-color="#2A78EE"/>&#xa;    </linearGradient>&#xa;    <clipPath id="clip0">&#xa;      <rect width="96" height="96" fill="white"/>&#xa;    </clipPath>&#xa;    <clipPath id="clip1">&#xa;      <rect width="96" height="96" fill="white"/>&#xa;    </clipPath>&#xa;  </defs>&#xa;  <g clip-path="url(#clip0)">&#xa;    <g clip-path="url(#clip1)">&#xa;      <mask id="mask0" mask-type="alpha" maskUnits="userSpaceOnUse" x="-1" y="10" width="97" height="76">&#xa;        <path d="M61.2116 10C62.3496 10 63.4337 10.4847 64.1925 11.3328L94.6136 45.3328C95.9723 46.8514 95.9723 49.1486 94.6136 50.6672L64.1925 84.6672C63.4337 85.5153 62.3496 86 61.2116 86H3.94634C0.488777 86 -1.34012 81.9095 0.965366 79.3328L29 48L0.965366 16.6672C-1.34012 14.0905 0.488777 10 3.94634 10H61.2116Z" fill="white"/>&#xa;      </mask>&#xa;      <g mask="url(#mask0)">&#xa;        <path d="M63 10L29 48L-5 10H63Z" fill="url(#paint0_linear)"/>&#xa;        <g filter="url(#filter0_f)">&#xa;          <path d="M63 10.4L-5 86.4H63L97 48.4L63 10.4Z" fill="black" fill-opacity="0.24"/>&#xa;        </g>&#xa;        <g filter="url(#filter1_f)">&#xa;          <path d="M63 12L-5 88H63L97 50L63 12Z" fill="black" fill-opacity="0.32"/>&#xa;        </g>&#xa;        <path d="M-5 86L63 10L97 48L63 86H-5Z" fill="url(#paint1_linear)"/>&#xa;        <path d="M-5 86L63 10L80 29L29 86H-5Z" fill="url(#paint2_linear)"/>&#xa;      </g>&#xa;    </g>&#xa;  </g>&#xa;</svg>