<svg xmlns="http://www.w3.org/2000/svg" height="30" viewBox="0 64 2048 1920" width="32"><path class="OfficeIconColors_HighContrast" d="M 511 868 l 67 209 h -136 m 1606 -789 v 1472 q 0 47 -60 88 q -61 40 -165 71 q -104 30 -244 48 q -140 17 -299 17 q -159 0 -299 -17 q -140 -18 -244 -48 q -104 -31 -164 -71 q -61 -41 -61 -88 v -224 h -427 q -35 0 -60 -25 q -25 -25 -25 -60 v -854 q 0 -35 25 -60 q 25 -25 60 -25 h 427 v -224 q 0 -46 61 -87 q 60 -41 164 -71 q 104 -31 244 -48 q 140 -18 299 -18 q 159 0 299 18 q 140 17 244 48 q 104 30 165 71 q 60 41 60 87 m -1428 919 l 51 153 h 171 l -245 -672 h -167 l -248 672 h 170 l 51 -153 m 1581 194 q -44 30 -115 55 q -72 24 -163 42 q -92 18 -200 28 q -108 10 -226 10 q -78 0 -151 -4 q -73 -5 -141 -13 q -11 8 -23 13 q -12 4 -26 4 h -363 v 224 q 0 17 46 45 q 45 27 135 53 q 89 25 221 44 q 131 18 302 18 q 171 0 303 -18 q 131 -19 221 -44 q 89 -26 135 -53 q 45 -28 45 -45 m 0 -871 q -44 30 -115 55 q -72 24 -163 42 q -92 18 -200 28 q -108 10 -226 10 q -68 0 -132 -3 q -64 -4 -124 -10 v 440 q 0 2 -2 8 q 58 6 122 10 q 64 3 136 3 q 171 0 303 -18 q 131 -19 221 -44 q 89 -26 135 -53 q 45 -28 45 -45 m 0 -935 q -44 30 -115 55 q -72 24 -163 42 q -92 18 -200 28 q -108 10 -226 10 q -118 0 -226 -10 q -108 -10 -199 -28 q -92 -18 -163 -42 q -72 -25 -116 -55 v 135 h 363 q 35 0 60 25 q 25 25 25 60 v 350 q 57 6 121 10 q 63 3 135 3 q 171 0 303 -18 q 131 -19 221 -44 q 89 -26 135 -53 q 45 -28 45 -45 m 0 -512 q 0 -17 -45 -44 q -46 -27 -135 -53 q -89 -26 -220 -44 q -132 -19 -304 -19 q -172 0 -303 19 q -132 18 -221 44 q -89 26 -134 53 q -46 27 -46 44 q 0 17 46 45 q 45 27 135 53 q 89 25 221 44 q 131 18 302 18 q 171 0 303 -18 q 131 -19 221 -44 q 89 -26 135 -53 q 45 -28 45 -45 z" style="display: none !important"/><path class="OfficeIconColors_m2244" d="M 2048 1248 v 512 q 0 47 -60 88 q -61 40 -165 71 q -104 30 -244 48 q -140 17 -299 17 q -159 0 -299 -17 q -140 -18 -244 -48 q -104 -31 -164 -71 q -61 -41 -61 -88 v -512 z" style="fill:rgb(136,20,33)"/><path class="OfficeIconColors_m2243" d="M 2048 800 v 512 q 0 47 -60 88 q -61 40 -165 71 q -104 30 -244 48 q -140 17 -299 17 q -159 0 -299 -17 q -140 -18 -244 -48 q -104 -31 -164 -71 q -61 -41 -61 -88 v -512 z" style="fill:rgb(175,32,49)"/><path class="OfficeIconColors_m2242" d="M 2048 288 v 512 q 0 47 -60 88 q -61 40 -165 71 q -104 30 -244 48 q -140 17 -299 17 q -159 0 -299 -17 q -140 -18 -244 -48 q -104 -31 -164 -71 q -61 -41 -61 -88 v -512 z" style="fill:rgb(201,79,96)"/><path class="OfficeIconColors_m2241" d="M 2048 288 q 0 47 -60 88 q -61 40 -165 71 q -104 30 -244 48 q -140 17 -299 17 q -159 0 -299 -17 q -140 -18 -244 -48 q -104 -31 -164 -71 q -61 -41 -61 -88 q 0 -46 61 -87 q 60 -41 164 -71 q 104 -31 244 -48 q 140 -18 299 -18 q 159 0 299 18 q 140 17 244 48 q 104 30 165 71 q 60 41 60 87 z" style="fill:rgb(224,128,149)"/><path class="OfficeIconColors_m2183" d="M 1067 448 q 17 0 33 7 q 15 6 27 18 q 11 11 18 27 q 7 15 7 33 v 1046 q 0 35 -25 60 q -25 25 -60 25 h -555 v -1216 z" style="fill:rgba(0,0,0,0.098)"/><path class="OfficeIconColors_m2184" d="M 1003 512 q 18 0 34 7 q 15 7 27 19 q 11 11 18 27 q 6 15 6 32 v 1046 q 0 35 -25 60 q -25 25 -60 25 h -491 v -1216 z" style="fill:rgba(0,0,0,0.2)"/><path class="OfficeIconColors_m2184" d="M 1003 512 q 18 0 34 7 q 15 7 27 19 q 11 11 18 27 q 6 15 6 32 v 918 q 0 35 -25 60 q -25 25 -60 25 h -491 v -1088 z" style="fill:rgba(0,0,0,0.2)"/><path class="OfficeIconColors_m2184" d="M 939 512 q 35 0 60 25 q 25 25 25 60 v 918 q 0 18 -7 34 q -7 15 -18 27 q -12 11 -27 18 q -16 6 -33 6 h -427 v -1088 z" style="fill:rgba(0,0,0,0.2)"/><path class="OfficeIconColors_m2243" d="M 939 1536 h -854 q -35 0 -60 -25 q -25 -25 -25 -60 v -854 q 0 -17 7 -32 q 6 -16 18 -27 q 11 -12 27 -19 q 15 -7 33 -7 h 854 q 35 0 60 25 q 25 25 25 60 v 854 q 0 18 -7 34 q -7 15 -18 27 q -12 11 -27 18 q -16 6 -33 6 z" style="fill:rgb(175,32,49)"/><path class="OfficeIconColors_m2181" d="M 441 704 h 145 l 233 640 h -137 l -51 -153 h -240 l -50 153 h -136 m 395 -251 l -74 -232 q -5 -17 -9 -29 q -4 -13 -5 -23 h -3 q -2 8 -4 22 q -3 13 -9 31 l -76 231 z" style="fill:rgb(255,255,255)"/></svg>