<svg xmlns="http://www.w3.org/2000/svg" xmlns:xlink="http://www.w3.org/1999/xlink" viewBox="-13.976099967956543 -13.970300674438477 177.94041442871094 177.94041442871094" width="177.94041442871094" height="177.94041442871094">&#xa;  <radialGradient id="a" cx="74.99913908" cy="75.00619092" gradientUnits="userSpaceOnUse" r="66.07570424">&#xa;    <stop offset="0" stop-color="#3c3256"/>&#xa;    <stop offset=".77" stop-color="#130732"/>&#xa;  </radialGradient>&#xa;  <ellipse cx="75" cy="75" fill="#9f7fff" rx="74" ry="74" transform="matrix(.9734 -.2289 .2289 .9734 -15.1784 19.1624)"/>&#xa;  <path d="m8.9 75c0-36.6 29.5-66.1 66.1-66.1s66.1 29.5 66.1 66.1-29.5 66.1-66.1 66.1c-36.6.4-66.1-29.5-66.1-66.1z" fill="url(#a)"/>&#xa;  <path d="m60 74.6h-6.6v44.9c2.2.9 4.4 1.8 6.6 2.6zm12.4-3.1v52.9c.9 0 2.2.4 3.5.4h3.5v-53.3zm39.2 37.4c2.6-2.6 4.8-5.7 6.6-8.8v-33.9h-6.6zm-74.5-31.7 15.9-18.1 15 5.7 31.7-22.8 16.3 15.4 7.9-6.6-1.3-3.1-6.6 5.7-15.9-14.5-32.1 22.9-15-5.7-16.8 18.9-11 2.6v2.2zm3.1 11h-6.6v13.2c2.2 2.6 4.4 5.7 6.6 7.9zm59-30.4h-6.6v63.9c2.2-.9 4.4-1.8 6.6-2.6z" fill="#e2d8ff"/>&#xa;</svg>