<svg xmlns="http://www.w3.org/2000/svg" xmlns:xlink="http://www.w3.org/1999/xlink" version="1.1" id="Layer_1" x="0px" y="0px" viewBox="19.799999237060547 19 60.20000076293945 62.099998474121094" style="enable-background:new 0 0 100 100;" xml:space="preserve" width="60.20000076293945" height="62.099998474121094">&#xa;<style type="text/css">&#xa;	.st0{clip-path:url(#SVGID_2_);fill:url(#SVGID_3_);}&#xa;	.st1{opacity:0.3;}&#xa;	.st2{clip-path:url(#SVGID_5_);fill:url(#SVGID_6_);}&#xa;</style>&#xa;<g>&#xa;	<g>&#xa;		<g>&#xa;			<defs>&#xa;				<path id="SVGID_1_" d="M70.5,75.7l-0.1-0.1l-0.1-0.3L67,66.4c3.1,1.4,6,3.3,8.7,5.7l0,0c0.3,0.3,0.6,0.6,0.8,1&#10;&#9;&#9;&#9;&#9;&#9;c0.3,0.5,0.4,1,0.4,1.6c0,1.8-1.5,3.3-3.3,3.3C72.2,77.9,71,77,70.5,75.7 M43.3,24c0.4-1.2,1.4-1.9,2.5-2h0c1.1,0.1,2,0.8,2.5,2&#10;&#9;&#9;&#9;&#9;&#9;l13.6,37.5c-3-0.8-6.1-1.2-9.3-1.2c-6.6,0-13.2,1.8-18.9,5.1c-2.8,1.6-5.3,3.6-7.6,5.8L43.3,24z M45.5,19c-2.2,0.2-4.2,1.7-5,4&#10;&#9;&#9;&#9;&#9;&#9;L20.1,79c-0.3,0.8,0.1,1.6,0.9,1.9c0.2,0.1,0.3,0.1,0.5,0.1c0.5,0,0.9-0.2,1.2-0.6c0.1-0.1,0.1-0.1,0.1-0.2&#10;&#9;&#9;&#9;&#9;&#9;c3-5.1,7.3-9.4,12.4-12.3c5.3-3.1,11.3-4.7,17.4-4.7c3.6,0,7.2,0.6,10.6,1.7l4.3,11.6l0.1,0.3c0.9,2.5,3.2,4.2,5.9,4.2&#10;&#9;&#9;&#9;&#9;&#9;c3.5,0,6.3-2.8,6.3-6.3c0-1-0.3-2.1-0.7-3c-0.2-0.3-0.4-0.6-0.6-1c-0.1-0.1-0.2-0.3-0.3-0.4c-3.7-3.4-8-6.1-12.7-7.8l-0.3-0.8h0&#10;&#9;&#9;&#9;&#9;&#9;L51.1,22.9c-0.8-2.2-2.7-3.8-5-4c-0.1,0-0.2,0-0.3,0c0,0-0.1,0-0.1,0c0,0-0.1,0-0.1,0C45.7,19,45.6,19,45.5,19"/>&#xa;			</defs>&#xa;			<clipPath id="SVGID_2_">&#xa;				<use xlink:href="#SVGID_1_" style="overflow:visible;"/>&#xa;			</clipPath>&#xa;			&#xa;				<linearGradient id="SVGID_3_" gradientUnits="userSpaceOnUse" x1="-251.6429" y1="-293.6335" x2="-249.6881" y2="-293.6335" gradientTransform="matrix(30.658 0 0 30.658 7734.8706 9052.2158)">&#xa;				<stop offset="0" style="stop-color:#FFDD15"/>&#xa;				<stop offset="3.427713e-02" style="stop-color:#FED217"/>&#xa;				<stop offset="0.1663" style="stop-color:#FAAD1C"/>&#xa;				<stop offset="0.3049" style="stop-color:#F68F20"/>&#xa;				<stop offset="0.45" style="stop-color:#F37824"/>&#xa;				<stop offset="0.6045" style="stop-color:#F16726"/>&#xa;				<stop offset="0.7747" style="stop-color:#F05D28"/>&#xa;				<stop offset="0.991" style="stop-color:#F05A28"/>&#xa;				<stop offset="1" style="stop-color:#F05A28"/>&#xa;			</linearGradient>&#xa;			<rect x="19.8" y="19" class="st0" width="60.1" height="62.1"/>&#xa;		</g>&#xa;	</g>&#xa;	<g>&#xa;		<g class="st1">&#xa;			<g>&#xa;				<g>&#xa;					<g>&#xa;						<defs>&#xa;							<path id="SVGID_4_" d="M67.1,66.5c3.1,1.4,6,3.3,8.7,5.7l0,0c0.3,0.3,0.6,0.6,0.8,1c0.3,0.5,0.4,1,0.4,1.6h3&#10;&#9;&#9;&#9;&#9;&#9;&#9;&#9;&#9;c0-1-0.3-2.1-0.7-3c-0.2-0.3-0.4-0.6-0.6-1c-0.1-0.1-0.2-0.3-0.3-0.4c-3.7-3.4-8-6.1-12.7-7.8L67.1,66.5z M33.8,65.5&#10;&#9;&#9;&#9;&#9;&#9;&#9;&#9;&#9;c-2.8,1.6-5.3,3.6-7.6,5.8l-3.4,9.3c0.1-0.1,0.1-0.1,0.1-0.2c3-5.1,7.3-9.4,12.4-12.3c5.3-3.1,11.3-4.7,17.4-4.7&#10;&#9;&#9;&#9;&#9;&#9;&#9;&#9;&#9;c3.4,0,7.1,0.5,10.6,1.7L62,61.6c-3-0.8-6.1-1.2-9.3-1.2C46.1,60.4,39.5,62.2,33.8,65.5"/>&#xa;						</defs>&#xa;						<clipPath id="SVGID_5_">&#xa;							<use xlink:href="#SVGID_4_" style="overflow:visible;"/>&#xa;						</clipPath>&#xa;						&#xa;							<linearGradient id="SVGID_6_" gradientUnits="userSpaceOnUse" x1="-251.9578" y1="-293.7503" x2="-250.0031" y2="-293.7503" gradientTransform="matrix(29.2748 0 0 29.2748 7398.7891 8670.0127)">&#xa;							<stop offset="0" style="stop-color:#FFFFFF"/>&#xa;							<stop offset="0.3285" style="stop-color:#FFFFFF"/>&#xa;							<stop offset="0.3745" style="stop-color:#FBFBFB"/>&#xa;							<stop offset="0.4233" style="stop-color:#EEEEEE"/>&#xa;							<stop offset="0.4735" style="stop-color:#D9D9D9"/>&#xa;							<stop offset="0.5246" style="stop-color:#BCBBBB"/>&#xa;							<stop offset="0.5764" style="stop-color:#969595"/>&#xa;							<stop offset="0.6288" style="stop-color:#686666"/>&#xa;							<stop offset="0.6808" style="stop-color:#332F30"/>&#xa;							<stop offset="0.6948" style="stop-color:#231F20"/>&#xa;							<stop offset="0.9301" style="stop-color:#FFFFFF"/>&#xa;							<stop offset="1" style="stop-color:#FFFFFF"/>&#xa;						</linearGradient>&#xa;						<rect x="22.8" y="60.4" class="st2" width="57.2" height="20.2"/>&#xa;					</g>&#xa;				</g>&#xa;			</g>&#xa;		</g>&#xa;	</g>&#xa;</g>&#xa;</svg>