<svg xmlns="http://www.w3.org/2000/svg" height="25" viewBox="2 3 28 25" width="28"><path class="OfficeIconColors_HighContrast" d="M29.563,3.438c-0.292-0.292-0.643-0.433-1.055-0.433L3.493,3C3.081,3,2.73,3.145,2.438,3.437S2,4.08,2,4.492&#10;&#9;v22.016c0,0.411,0.146,0.764,0.438,1.055S3.081,28,3.493,28h25.014c0.412,0,0.763-0.146,1.055-0.438S30,26.919,30,26.507V4.492&#10;&#9;C30,4.081,29.855,3.73,29.563,3.438z M11,26H4v-4h7V26z M11,20H4v-4h7V20z M11,14H4v-4h7V14z M19.5,26h-7v-4h7V26z M19.5,20h-7v-4h7&#10;&#9;V20z M19.5,14h-7v-4h7V14z M28,26h-7v-4h7V26z M28,20h-7v-4h7V20z M28,14h-7v-4h7V14z" style="display: none !important"/><path class="OfficeIconColors_m23" d="M28.507,28H3.493c-0.412,0-0.763-0.146-1.055-0.437S2,26.919,2,26.508V4.492C2,4.08,2.146,3.729,2.438,3.437&#10;&#9;S3.081,3,3.493,3l25.015,0.005c0.412,0,0.763,0.141,1.055,0.433S30,4.081,30,4.492v22.015c0,0.412-0.146,0.763-0.438,1.055&#10;&#9;S28.919,28,28.507,28z" style="fill:rgb(121,119,116)"/><path class="OfficeIconColors_m23" d="M30,8v18.503c0,0.412-0.146,0.763-0.438,1.055s-0.643,0.437-1.055,0.437H3.493&#10;&#9;c-0.412,0-0.763-0.146-1.055-0.437S2,26.915,2,26.503V8H30z" style="fill:rgb(121,119,116)"/><path class="OfficeIconColors_m20" d="M4,10h7v4H4V10z M12.5,14h7v-4h-7V14z M21,10v4h7v-4H21z M4,20h7v-4H4V20z" style="fill:rgb(250,250,250)"/><path class="OfficeIconColors_m2127" d="M12.5,16h7v4h-7V16z M21,16h7v4h-7V16z M4,22h7v4H4V22z M12.5,22h7v4h-7V22z M21,22h7v4h-7V22z" style="fill:rgb(255,182,40)"/><path class="OfficeIconColors_m20" d="M4.368,28H3.467c-0.395,0-0.738-0.146-1.029-0.437S2,26.928,2,26.533V4.492&#10;&#9;C2,4.08,2.146,3.729,2.438,3.437S3.081,3,3.493,3h23.085L4.368,28z" fill-opacity="0.298" style="fill:rgb(250,250,250)"/></svg>