<svg xmlns="http://www.w3.org/2000/svg" height="28" viewBox="3.75 2 24.5 28" width="24.5"><path class="OfficeIconColors_HighContrast" d="M24.435,6.831l0.016-0.009l-2.35-1.344l-0.014,0.008L16,2L3.75,8.984v13.953l3.844,2.216l-0.001,0.001&#10;&#9;l1.023,0.588L16,30l12.25-6.984v-14L24.435,6.831z M6.013,21.614V10.369L16,4.613l3.796,2.193l-6.894,3.973&#10;&#9;c-0.497-0.373-1.098-0.586-1.727-0.586c-0.571,0-1.129,0.169-1.604,0.485c-0.475,0.316-0.845,0.766-1.063,1.292&#10;&#9;c-0.219,0.526-0.276,1.104-0.164,1.663c0.111,0.558,0.386,1.071,0.79,1.474c0.404,0.402,0.918,0.677,1.478,0.788&#10;&#9;c0.56,0.111,1.141,0.054,1.668-0.164c0.425-0.176,0.779-0.47,1.075-0.817c0.871,0.038,1.733,0.224,2.535,0.594&#10;&#9;c0.963,0.444,1.792,1.115,2.443,1.936c-0.067,0.114-0.127,0.231-0.178,0.353c-0.183,0.44-0.246,0.916-0.198,1.387l-8.062,4.644&#10;&#9;L6.013,21.614z M25.987,21.553L16,27.309l-3.754-2.141l6.862-3.955c0.34,0.251,0.733,0.425,1.151,0.508&#10;&#9;c0.56,0.111,1.14,0.054,1.668-0.164c0.528-0.218,0.978-0.587,1.296-1.06c0.317-0.473,0.487-1.03,0.487-1.599&#10;&#9;c0-0.763-0.304-1.495-0.846-2.035c-0.542-0.54-1.276-0.844-2.042-0.844c-0.194,0-0.384,0.026-0.572,0.064&#10;&#9;c-0.502-0.648-1.083-1.233-1.746-1.726c-1.221-0.909-2.651-1.499-4.16-1.714l7.789-4.487l3.854,2.227V21.553z" style="display: none !important"/><path class="OfficeIconColors_m2210" d="M16,2L3.75,8.984v13.953L16,30l12.25-6.984v-14L16,2z M25.987,21.553L16,27.309l-9.987-5.695V10.369&#10;&#9;L16,4.613l9.987,5.771V21.553z" style="fill:rgb(0,120,212)"/><path class="OfficeIconColors_m26" d="M21.836,18.294c-0.119-0.196-0.295-0.351-0.504-0.445c-0.635-1.381-1.607-2.582-2.828-3.491&#10;&#9;c-1.221-0.909-2.651-1.499-4.16-1.714l10.107-5.822l-2.35-1.344l-11.51,6.633c-0.224,0.128-0.398,0.327-0.497,0.564&#10;&#9;c-0.099,0.238-0.116,0.501-0.049,0.749c0.067,0.248,0.214,0.468,0.419,0.624s0.456,0.241,0.714,0.24&#10;&#9;c0.048-0.009,0.094-0.021,0.14-0.036l0.195,0.814c1.468-0.345,3.009-0.189,4.377,0.442c1.368,0.631,2.485,1.701,3.171,3.04&#10;&#9;L7.593,25.154l2.341,1.347l11.474-6.613c0.153-0.091,0.282-0.217,0.378-0.367l0.117-0.028c-0.011-0.045-0.028-0.086-0.039-0.131&#10;&#9;c0.083-0.167,0.124-0.352,0.119-0.538C21.978,18.639,21.928,18.457,21.836,18.294z" style="fill:rgb(131,190,236)"/><path class="OfficeIconColors_m2138" d="M20.822,16.02c-0.571,0-1.129,0.169-1.604,0.485s-0.845,0.766-1.063,1.292&#10;&#9;c-0.219,0.526-0.276,1.104-0.164,1.663c0.111,0.558,0.386,1.071,0.79,1.474c0.404,0.402,0.918,0.677,1.478,0.788&#10;&#9;c0.56,0.111,1.14,0.054,1.668-0.164s0.978-0.587,1.296-1.06c0.317-0.473,0.487-1.03,0.487-1.599c0-0.763-0.304-1.495-0.846-2.035&#10;&#9;C22.322,16.324,21.588,16.02,20.822,16.02z M11.175,10.193c-0.571,0-1.129,0.169-1.604,0.485s-0.845,0.766-1.063,1.292&#10;&#9;c-0.219,0.526-0.276,1.104-0.164,1.663c0.111,0.558,0.386,1.071,0.79,1.474c0.404,0.402,0.918,0.677,1.478,0.788&#10;&#9;c0.56,0.111,1.141,0.054,1.668-0.164c0.528-0.218,0.978-0.587,1.296-1.06c0.317-0.473,0.487-1.03,0.487-1.599&#10;&#9;c0-0.763-0.304-1.495-0.846-2.035C12.675,10.496,11.941,10.193,11.175,10.193z" style="fill:rgb(0,174,205)"/></svg>