<svg xmlns="http://www.w3.org/2000/svg" height="29.493999481201172" viewBox="0.893250048160553 1.24399995803833 30.19974708557129 29.493999481201172" width="30.19974708557129"><path class="OfficeIconColors_HighContrast" d="M22.117,27.413c-1.148-0.776-2.019-1.897-2.489-3.2c-0.076-0.198-0.268-0.326-0.48-0.32h-6.383&#10;&#9;c-0.212-0.006-0.404,0.122-0.48,0.32c-0.464,1.297-1.33,2.411-2.471,3.182c-0.22,0.15-0.289,0.443-0.16,0.676l1.404,2.418&#10;&#9;c0.091,0.15,0.251,0.244,0.427,0.249h8.978c0.175-0.005,0.336-0.099,0.427-0.249l1.387-2.4&#10;&#9;C22.415,27.858,22.344,27.558,22.117,27.413z M18.221,10.667c-0.713,0.258-1.464,0.396-2.222,0.409&#10;&#9;c-0.783,0.007-1.561-0.132-2.293-0.409c-0.231-0.082-0.487,0.016-0.604,0.231l-3.058,5.333c-0.123,0.215-0.07,0.487,0.124,0.64&#10;&#9;c1.209,0.952,2.046,2.299,2.364,3.804c0.051,0.223,0.252,0.379,0.48,0.373l0.001,0.001h5.884c0.231-0.003,0.43-0.165,0.48-0.391&#10;&#9;c0.32-1.515,1.163-2.868,2.382-3.822c0.202-0.148,0.256-0.427,0.124-0.64l-3.058-5.333C18.702,10.655,18.443,10.571,18.221,10.667z&#10;&#9; M3.271,16.106c0.885-0.434,1.858-0.659,2.844-0.658c0.237-0.018,0.474-0.018,0.711,0c0.199,0.013,0.389-0.082,0.498-0.249&#10;&#9;l1.404-2.4l2.116-3.662c0.116-0.165,0.116-0.386,0-0.551C9.911,7.44,9.396,6.01,9.386,4.533H5.902&#10;&#9;C5.725,4.531,5.561,4.626,5.475,4.782L0.96,12.551c-0.089,0.154-0.089,0.344,0,0.498l1.653,2.844&#10;&#9;C2.745,16.122,3.029,16.215,3.271,16.106z M30.967,12.641l-4.409-7.858l0.002-0.001c-0.085-0.155-0.249-0.251-0.427-0.249h-3.556&#10;&#9;c0.003,1.463-0.485,2.884-1.387,4.036c-0.116,0.165-0.116,0.386,0,0.551l2.133,3.68l1.404,2.436c0.1,0.177,0.297,0.275,0.498,0.249&#10;&#9;h0.676c0.991,0.005,1.969,0.23,2.862,0.658c0.195,0.078,0.418,0.021,0.551-0.142l1.653-2.862&#10;&#9;C31.056,12.985,31.056,12.795,30.967,12.641z M6.116,18.72c-1.816,0-3.289,1.473-3.289,3.289s1.473,3.289,3.289,3.289&#10;&#9;s3.289-1.473,3.289-3.289S7.932,18.72,6.116,18.72z M25.796,18.72c-1.816,0-3.289,1.473-3.289,3.289s1.473,3.289,3.289,3.289&#10;&#9;s3.289-1.473,3.289-3.289S27.612,18.72,25.796,18.72z M15.964,7.822c1.816,0,3.289-1.473,3.289-3.289s-1.473-3.289-3.289-3.289&#10;&#9;s-3.289,1.473-3.289,3.289S14.148,7.822,15.964,7.822z" style="display: none !important"/><path d="M13.013,21.049h5.884c0.231-0.003,0.43-0.165,0.48-0.391c0.32-1.515,1.163-2.868,2.382-3.822&#10;&#9;c0.202-0.148,0.256-0.427,0.124-0.64l-3.058-5.333c-0.123-0.208-0.382-0.292-0.604-0.196c-0.713,0.258-1.464,0.396-2.222,0.409&#10;&#9;c-0.783,0.007-1.561-0.132-2.293-0.409c-0.231-0.082-0.487,0.016-0.604,0.231l-3.058,5.333c-0.123,0.215-0.07,0.487,0.124,0.64&#10;&#9;c1.209,0.952,2.046,2.299,2.364,3.804c0.051,0.223,0.252,0.379,0.48,0.373L13.013,21.049z M9.458,4.533H5.902&#10;&#9;C5.725,4.531,5.561,4.626,5.475,4.782L0.96,12.551c-0.089,0.154-0.089,0.344,0,0.498l1.653,2.844&#10;&#9;c0.132,0.229,0.416,0.322,0.658,0.213c0.885-0.434,1.858-0.659,2.844-0.658c0.237-0.018,0.474-0.018,0.711,0&#10;&#9;c0.199,0.013,0.389-0.082,0.498-0.249l1.404-2.4l2.116-3.662c0.116-0.165,0.116-0.386,0-0.551C9.911,7.44,9.396,6.01,9.386,4.533&#10;&#9;h0.071L9.458,4.533z M26.56,4.782c-0.085-0.155-0.249-0.251-0.427-0.249h-3.556c0.003,1.463-0.485,2.884-1.387,4.036&#10;&#9;c-0.116,0.165-0.116,0.386,0,0.551l2.133,3.68l1.404,2.436c0.1,0.177,0.297,0.275,0.498,0.249h0.676&#10;&#9;c0.991,0.005,1.969,0.23,2.862,0.658c0.195,0.078,0.418,0.021,0.551-0.142l1.653-2.862c0.089-0.154,0.089-0.344,0-0.498&#10;&#9;l-4.409-7.858L26.56,4.782z M19.147,23.893h-6.382c-0.212-0.006-0.404,0.122-0.48,0.32c-0.464,1.297-1.33,2.411-2.471,3.182&#10;&#9;c-0.22,0.15-0.289,0.443-0.16,0.676l1.404,2.418c0.091,0.15,0.251,0.244,0.427,0.249h8.978c0.175-0.005,0.336-0.099,0.427-0.249&#10;&#9;l1.387-2.4c0.138-0.231,0.067-0.531-0.16-0.676c-1.148-0.776-2.019-1.897-2.489-3.2c-0.076-0.198-0.268-0.326-0.48-0.32&#10;&#9;L19.147,23.893z" fill="#0078D4"/><linearGradient gradientTransform="matrix(1 0 0 1 0 -236)" gradientUnits="userSpaceOnUse" id="SVGID_1_" x1="6.116" x2="6.116" y1="261.28" y2="254.738"><stop offset="0.09" style="stop-color:rgb(50,190,221)"/><stop offset="1" style="stop-color:rgb(80,230,255)"/></linearGradient><circle cx="6.116" cy="22.009" fill="url(#SVGID_1_)" r="3.289"/><linearGradient gradientTransform="matrix(1 0 0 1 0 -236)" gradientUnits="userSpaceOnUse" id="SVGID_2_" x1="25.796" x2="25.796" y1="261.28" y2="254.738"><stop offset="0.09" style="stop-color:rgb(50,190,221)"/><stop offset="1" style="stop-color:rgb(80,230,255)"/></linearGradient><circle cx="25.796" cy="22.009" fill="url(#SVGID_2_)" r="3.289"/><linearGradient gradientTransform="matrix(1 0 0 1 0 -236)" gradientUnits="userSpaceOnUse" id="SVGID_3_" x1="15.964" x2="15.964" y1="243.822" y2="237.262"><stop offset="0.09" style="stop-color:rgb(50,190,221)"/><stop offset="1" style="stop-color:rgb(80,230,255)"/></linearGradient><circle cx="15.964" cy="4.533" fill="url(#SVGID_3_)" r="3.289"/><path d="M25.796,11.413c-1.054-0.002-2.103,0.153-3.111,0.462l0.533,0.924l1.404,2.436&#10;&#9;c0.1,0.177,0.297,0.275,0.498,0.249h0.676c0.991,0.005,1.969,0.23,2.862,0.658c0.221,0.14,0.514,0.077,0.658-0.142l1.404-2.418&#10;&#9;l0.373-0.658c-1.599-0.968-3.429-1.49-5.298-1.511L25.796,11.413z M19.378,20.657c0.32-1.515,1.163-2.868,2.382-3.822&#10;&#9;c0.202-0.148,0.256-0.427,0.124-0.64l-1.778-3.129c-2.759,1.773-4.549,4.717-4.853,7.982h3.662&#10;&#9;C19.14,21.037,19.329,20.877,19.378,20.657L19.378,20.657z M19.627,24.213c-0.076-0.198-0.268-0.326-0.48-0.32H15.36&#10;&#9;c0.516,2.78,2.114,5.242,4.444,6.844h0.658c0.175-0.005,0.336-0.099,0.427-0.249l1.387-2.4c0.138-0.231,0.067-0.531-0.16-0.676&#10;&#9;c-1.174-0.765-2.071-1.887-2.56-3.2h0.071L19.627,24.213z" fill="#5EA0EF"/></svg>