<svg xmlns="http://www.w3.org/2000/svg" aria-hidden="true" class="___12fm75w f1w7gpdv fez10in fg4l7m0" fill="currentColor" height="21" viewBox="1.5 1.5 21 21" width="21"><path d="M19.5 1.5H8.25C6.1815 1.5 4.5 3.183 4.5 5.25V16.5H3C2.172 16.5 1.5 17.1735 1.5 18V19.5C1.5 21.1545 2.8455 22.5 4.5 22.5H15C16.6545 22.5 18 21.1545 18 19.5V7.5H21C21.828 7.5 22.5 6.8265 22.5 6V4.5C22.5 2.8455 21.1545 1.5 19.5 1.5ZM4.5 21C3.672 21 3 20.3265 3 19.5V18H12V19.5C12 20.046 12.147 20.559 12.4035 21H4.5ZM16.5 19.5C16.5 20.3265 15.828 21 15 21C14.172 21 13.5 20.3265 13.5 19.5V18C13.5 17.1735 12.828 16.5 12 16.5H6V5.25C6 4.0095 7.0095 3 8.25 3H16.9035C16.647 3.441 16.5 3.954 16.5 4.5V19.5ZM21 6H18V4.5C18 3.6735 18.672 3 19.5 3C20.328 3 21 3.6735 21 4.5V6Z" fill="currentColor"/></svg>