<svg xmlns="http://www.w3.org/2000/svg" xmlns:xlink="http://www.w3.org/1999/xlink" fill="#000000" height="800" width="667.3333485921224" version="1.1" id="Icon" viewBox="2 0 20.020000457763672 24" xml:space="preserve">&#xa;<path d="M18.18,10.89C19,10.42,21,9.88,21,5.94C21,0.28,14.45,0,14.45,0H2v24c0,0,8.28,0,13.03,0c4.41,0,6.99-2.93,6.99-7.2&#10;&#9;C22.02,12.73,19.1,11.47,18.18,10.89z M8,5h4.56c0,0,1.75,0.13,1.75,1.98c0,1.85-1.23,2.02-1.75,2.02S8,9,8,9V5z M13.17,19&#10;&#9;C12.57,19,8,19,8,19v-5h5.17c0,0,2.06,0.1,2.06,2.48C15.23,18.51,13.76,19,13.17,19z"/>&#xa;</svg>