<svg xmlns="http://www.w3.org/2000/svg" xmlns:xlink="http://www.w3.org/1999/xlink" version="1.1" id="Layer_1" x="0px" y="0px" viewBox="10.5 10.5 491 491" style="enable-background:new 0 0 512 512;" xml:space="preserve" width="491" height="491">&#xa;<style type="text/css">&#xa;	.st0{fill:#F7F7F7;}&#xa;	.st1{fill:#28E4C3;}&#xa;	.st2{fill:#E55D67;}&#xa;</style>&#xa;<circle class="st0" cx="256" cy="256" r="245.5"/>&#xa;<g>&#xa;	<g>&#xa;		<path class="st1" d="M304.7,405.6"/>&#xa;	</g>&#xa;</g>&#xa;<g>&#xa;	<g>&#xa;		<path class="st1" d="M305.8,353"/>&#xa;	</g>&#xa;</g>&#xa;<g>&#xa;	<path class="st2" d="M159.8,94.1c-0.4,4.5,0.4,16.8,1.3,21.5c13.6,74.3,38.6,109.4,96.6,136.3c-58.7,31.7-89.5,75-96.4,141.3&#10;&#9;&#9;c-0.8,7.5-1.4,16.8-0.2,24.3l-0.2,1.2C105.2,386,67.8,325.4,67.8,256C67.8,187.2,104.8,127.1,159.8,94.1"/>&#xa;	<path class="st2" d="M206.5,73.5c-9.8,67.6,26.8,152.6,125.6,156.8c40,1.7,109,1.9,109,1.9l2.7-0.2&#10;&#9;&#9;c-11.8-92.9-91.1-164.8-187.3-164.8C239.3,67.2,222.5,69.1,206.5,73.5"/>&#xa;	<path class="st2" d="M444.2,275.5c-9.7,95.2-89.8,169.3-187.5,169.3c-17.4,0-34.2-2.3-50.1-6.7l-0.3-1&#10;&#9;&#9;c-7.1-64.7,20.5-155.3,119.3-159.5C365.5,275.9,444.2,275.5,444.2,275.5"/>&#xa;</g>&#xa;</svg>