<svg xmlns="http://www.w3.org/2000/svg" version="1.1" viewBox="-0.061672210693359375 -0.004001617431640625 46.3762092590332 27" width="46.3762092590332" height="27">&#xa;  <g transform="translate(0 26.987)">&#xa;    <g transform="translate(36.504 -15.891)">&#xa;      <path d="M0,0v-2.3c0-1.1-0.9-2-2-2h0c-1.1,0-2,0.9-2,2c0,0,0,0,0,0v3C-5.3,0.9-6.6,1.2-8,1.4V-9.1&#10;               c0-1.1-0.9-2-2.1-2c0,0,0,0,0,0h0c-1.1,0-2,0.9-2,2V2.4c-0.1,0-0.3,0-0.4,0.1c-1.3,0.3-2.4,0.5-3.6,0.8v-8.9c0-1.1-0.9-2-2-2&#10;               c0,0,0,0,0,0c-1.1,0-1.9,0.9-2,2v9.8c-1.5,0.3-2.7,0.5-4,0.7V0.4c0-1.1-0.9-2-2-2s-2,0.9-2,2v5.1C-32.6,6-35.2,5.9-35.5,5&#10;               c-0.6-1.4,3.5-3.3,4.7-3.9V1.1h-0.1c-1.2,0.4-6.3,2.5-5.6,4.3c0.6,2,8.4,2.5,24.7-1.4C1.8,0.6,8.1,0,8.7,1.3&#10;               c0.5,1.1-2.9,3.2-6.2,4.6C2.5,5.9,2.4,6,2.4,6.1c0.1,0.1,0.2,0.2,0.3,0.1C3.9,5.8,10.1,3.2,9.8,1C9.5-0.5,6.3-0.9,0,0 M-28,9.5&#10;               V11c0,1.1,0.9,2,2,1.9c1.1,0,1.9-0.9,1.9-1.9V9C-25.3,9.3-26.7,9.4-28,9.5 M-20,8.4v5.5c0,1.1,0.8,2,1.9,2c0,0,0,0,0,0&#10;               c1.1,0,2-0.8,2-1.9c0,0,0-0.1,0-0.1V7.6C-17.4,7.9-18.7,8.2-20,8.4"/>&#xa;    </g>&#xa;    <g transform="translate(24.719 -9.202)">&#xa;      <path d="M0,0h-0.3v3.9c0,1.1,1,2,2.1,2c1.1,0,1.9-0.9,2-2v-4.8C2.6-0.6,1.4-0.4,0,0 M7.7-1.8v2.3c0,1.1,1,2,2.1,2h0&#10;               c1.1,0,2-0.9,2-2v-3.1C10.6-2.3,9.2-2.1,7.7-1.8"/>&#xa;    </g>&#xa;  </g>&#xa;</svg>