<svg xmlns="http://www.w3.org/2000/svg" height="28" viewBox="2 2 27 28" width="27"><path class="OfficeIconColors_HighContrast" d="M29,7v18l-13.5,5L2,25V7l13.5-5 M3,24.297l12,4.453V13.219L3,8.781V24.297z M28,8.781l-12,4.438V28.75&#10;&#9;l12-4.453V8.781z M28,7.703L15.5,3.062L3,7.719l12.5,4.625L28,7.703z" style="display: none !important"/><path class="OfficeIconColors_m221" d="M2.5,7.344l13-4.812l13,4.812v17.312l-13,4.812l-13-4.812V7.344z" style="fill:rgb(212,146,216)"/><path class="OfficeIconColors_m219" d="M29,7v18l-13.5,5L2,25V7l13.5-5 M3,24.297l12,4.453V13.219L3,8.781V24.297z M28,8.781l-12,4.438V28.75&#10;&#9;l12-4.453V8.781z M28,7.703L15.5,3.062L3,7.719l12.5,4.625L28,7.703z" style="fill:rgb(168,70,178)"/></svg>