<svg xmlns="http://www.w3.org/2000/svg" fill="none" height="20" viewBox="1.734379768371582 0 16.531221389770508 20" width="16.531221389770508"><path d="M14.1712 3.6875V6.18916C14.1712 7.84601 12.8281 9.18916 11.1712 9.18916H5.98438L5.98438 4.87817C5.98438 4.32589 5.53666 3.87817 4.98438 3.87817C4.43209 3.87817 3.98438 4.32589 3.98438 4.87817V17.4999C3.98438 18.0522 4.43209 18.4999 4.98437 18.4999C5.53666 18.4999 5.98437 18.0522 5.98437 17.4999L5.98438 11.1892H11.1712C13.9327 11.1892 16.1712 8.95058 16.1712 6.18916V3.6875H14.1712Z" fill="#999999"/><path d="M8.23438 16.75C8.23438 18.5449 6.7793 20 4.98438 20C3.18945 20 1.73438 18.5449 1.73438 16.75C1.73438 14.9551 3.18945 13.5 4.98438 13.5C6.7793 13.5 8.23438 14.9551 8.23438 16.75Z" fill="url(#paint0_linear_37972_182559)"/><circle cx="4.98438" cy="3.25" fill="url(#paint1_linear_37972_182559)" r="3.25"/><circle cx="15.0156" cy="3.25" fill="url(#paint2_linear_37972_182559)" r="3.25"/><defs><linearGradient gradientUnits="userSpaceOnUse" id="paint0_linear_37972_182559" x1="4.98438" x2="4.98437" y1="21.875" y2="11.625"><stop offset="0.265625" stop-color="#1988D9"/><stop offset="0.768293" stop-color="#54AEF0"/></linearGradient><linearGradient gradientUnits="userSpaceOnUse" id="paint1_linear_37972_182559" x1="4.98438" x2="4.98437" y1="8.375" y2="-1.875"><stop offset="0.265625" stop-color="#1988D9"/><stop offset="0.768293" stop-color="#54AEF0"/></linearGradient><linearGradient gradientUnits="userSpaceOnUse" id="paint2_linear_37972_182559" x1="15.0156" x2="15.0156" y1="8.375" y2="-1.875"><stop offset="0.265625" stop-color="#1988D9"/><stop offset="0.768293" stop-color="#54AEF0"/></linearGradient></defs></svg>