<svg xmlns="http://www.w3.org/2000/svg" height="28" viewBox="5 2 21 28" width="21"><path class="OfficeIconColors_HighContrast" d="M15.5,2c1.604,0,3.052,0.135,4.344,0.406c1.292,0.26,2.396,0.589,3.312,0.984&#10;&#9;c0.906,0.396,1.609,0.828,2.109,1.297C25.755,5.156,26,5.594,26,6v20c0,0.427-0.245,0.875-0.734,1.344&#10;&#9;c-0.5,0.469-1.203,0.901-2.109,1.297c-0.917,0.396-2.021,0.724-3.312,0.984C18.552,29.875,17.104,30,15.5,30&#10;&#9;s-3.052-0.13-4.344-0.391c-1.292-0.271-2.391-0.604-3.297-1c-0.917-0.396-1.62-0.828-2.109-1.297C5.25,26.844,5,26.406,5,26V6&#10;&#9;c0-0.406,0.25-0.844,0.75-1.312c0.49-0.469,1.193-0.901,2.109-1.297c0.906-0.396,2.005-0.724,3.297-0.984&#10;&#9;C12.448,2.135,13.896,2,15.5,2 M15.5,3c-1.615,0-3.016,0.13-4.203,0.391c-1.198,0.25-2.188,0.547-2.969,0.891&#10;&#9;c-0.781,0.333-1.359,0.667-1.734,1C6.208,5.604,6.016,5.844,6.016,6s0.193,0.401,0.578,0.734c0.375,0.323,0.953,0.656,1.734,1&#10;&#9;c0.781,0.333,1.771,0.63,2.969,0.891C12.484,8.875,13.885,9,15.5,9c1.625,0,3.031-0.125,4.219-0.375&#10;&#9;c1.188-0.26,2.172-0.557,2.953-0.891c0.781-0.344,1.365-0.677,1.75-1C24.797,6.401,24.99,6.156,25,6&#10;&#9;c-0.01-0.156-0.203-0.396-0.578-0.719c-0.385-0.333-0.969-0.667-1.75-1c-0.781-0.344-1.766-0.641-2.953-0.891&#10;&#9;C18.531,3.13,17.125,3,15.5,3 M15.5,29c1.625,0,3.031-0.125,4.219-0.375c1.188-0.26,2.172-0.557,2.953-0.891&#10;&#9;c0.781-0.344,1.365-0.677,1.75-1C24.797,26.401,24.99,26.156,25,26V7.531c-0.396,0.323-0.901,0.635-1.516,0.938&#10;&#9;C22.87,8.76,22.161,9.021,21.359,9.25s-1.693,0.411-2.672,0.547C17.698,9.932,16.635,10,15.5,10s-2.193-0.068-3.172-0.203&#10;&#9;c-0.99-0.135-1.885-0.318-2.688-0.547C8.828,9.021,8.12,8.76,7.516,8.469C6.901,8.167,6.396,7.854,6,7.531V26&#10;&#9;c0,0.156,0.193,0.401,0.578,0.734c0.385,0.323,0.969,0.656,1.75,1c0.781,0.333,1.771,0.63,2.969,0.891&#10;&#9;C12.484,28.875,13.885,29,15.5,29z" style="display: none !important"/><path class="OfficeIconColors_m212" d="M15.5,29.5c-1.552,0-2.943-0.125-4.172-0.375c-1.24-0.25-2.292-0.552-3.156-0.906&#10;&#9;c-0.865-0.365-1.526-0.745-1.984-1.141C5.729,26.672,5.5,26.312,5.5,26V6c0-0.312,0.229-0.667,0.688-1.062&#10;&#9;c0.458-0.406,1.12-0.786,1.984-1.141c0.865-0.365,1.917-0.672,3.156-0.922C12.557,2.625,13.948,2.5,15.5,2.5&#10;&#9;s2.948,0.125,4.188,0.375c1.229,0.25,2.276,0.557,3.141,0.922c0.865,0.354,1.526,0.734,1.984,1.141C25.271,5.333,25.5,5.688,25.5,6&#10;&#9;v20c0,0.302-0.219,0.656-0.656,1.062c-0.438,0.396-1.078,0.776-1.922,1.141c-0.844,0.354-1.885,0.661-3.125,0.922&#10;&#9;C18.547,29.375,17.115,29.5,15.5,29.5z" style="fill:rgb(248,219,143)"/><path class="OfficeIconColors_m211" d="M15.5,2c1.604,0,3.052,0.135,4.344,0.406c1.292,0.26,2.396,0.589,3.312,0.984&#10;&#9;c0.906,0.396,1.609,0.828,2.109,1.297C25.755,5.156,26,5.594,26,6v20c0,0.427-0.245,0.875-0.734,1.344&#10;&#9;c-0.5,0.469-1.203,0.901-2.109,1.297c-0.917,0.396-2.021,0.724-3.312,0.984C18.552,29.875,17.104,30,15.5,30&#10;&#9;s-3.052-0.13-4.344-0.391c-1.292-0.271-2.391-0.604-3.297-1c-0.917-0.396-1.62-0.828-2.109-1.297C5.25,26.844,5,26.406,5,26V6&#10;&#9;c0-0.406,0.25-0.844,0.75-1.312c0.49-0.469,1.193-0.901,2.109-1.297c0.906-0.396,2.005-0.724,3.297-0.984&#10;&#9;C12.448,2.135,13.896,2,15.5,2 M15.5,3c-1.615,0-3.016,0.13-4.203,0.391c-1.198,0.25-2.188,0.547-2.969,0.891&#10;&#9;c-0.781,0.333-1.359,0.667-1.734,1C6.208,5.604,6.016,5.844,6.016,6s0.193,0.401,0.578,0.734c0.375,0.323,0.953,0.656,1.734,1&#10;&#9;c0.781,0.333,1.771,0.63,2.969,0.891C12.484,8.875,13.885,9,15.5,9c1.625,0,3.031-0.125,4.219-0.375&#10;&#9;c1.188-0.26,2.172-0.557,2.953-0.891c0.781-0.344,1.365-0.677,1.75-1C24.797,6.401,24.99,6.156,25,6&#10;&#9;c-0.01-0.156-0.203-0.396-0.578-0.719c-0.385-0.333-0.969-0.667-1.75-1c-0.781-0.344-1.766-0.641-2.953-0.891&#10;&#9;C18.531,3.13,17.125,3,15.5,3 M15.5,29c1.625,0,3.031-0.125,4.219-0.375c1.188-0.26,2.172-0.557,2.953-0.891&#10;&#9;c0.781-0.344,1.365-0.677,1.75-1C24.797,26.401,24.99,26.156,25,26V7.531c-0.396,0.323-0.901,0.635-1.516,0.938&#10;&#9;C22.87,8.76,22.161,9.021,21.359,9.25s-1.693,0.411-2.672,0.547C17.698,9.932,16.635,10,15.5,10s-2.193-0.068-3.172-0.203&#10;&#9;c-0.99-0.135-1.885-0.318-2.688-0.547C8.828,9.021,8.12,8.76,7.516,8.469C6.901,8.167,6.396,7.854,6,7.531V26&#10;&#9;c0,0.156,0.193,0.401,0.578,0.734c0.385,0.323,0.969,0.656,1.75,1c0.781,0.333,1.771,0.63,2.969,0.891&#10;&#9;C12.484,28.875,13.885,29,15.5,29z" style="fill:rgb(222,108,0)"/></svg>