<svg xmlns="http://www.w3.org/2000/svg" width="1152.0799560546875" height="1645.8284912109375" viewBox="197.5 -16.45840072631836 1152.0799560546875 1645.8284912109375" fill="none">&#xa;<g clip-path="url(#clip0_300_2168)">&#xa;<mask id="mask0_300_2168" style="mask-type:luminance" maskUnits="userSpaceOnUse" x="0" y="0" width="1580" height="1580">&#xa;<path d="M1580 0H0V1580H1580V0Z" fill="white"/>&#xa;</mask>&#xa;<g mask="url(#mask0_300_2168)">&#xa;<mask id="mask1_300_2168" style="mask-type:alpha" maskUnits="userSpaceOnUse" x="197" y="11" width="1153" height="1558">&#xa;<path d="M1349.58 510.982C1349.58 441.427 1305.86 379.381 1240.36 355.987L285.475 14.9611C242.602 -0.350709 197.5 31.4335 197.5 76.9592V595.481C197.5 623.302 214.99 648.121 241.192 657.479L669.109 810.306C711.981 825.617 757.083 793.833 757.083 748.308V450.577C757.083 427.578 780.069 411.667 801.593 419.768L913.803 461.997C977.946 486.136 1020.42 547.498 1020.42 616.034V745.688L536.989 922.323C511.023 931.812 493.75 956.512 493.75 984.159V1502.31C493.75 1548.04 539.226 1579.84 582.177 1564.15L1241.48 1323.24C1306.4 1299.52 1349.58 1237.77 1349.58 1168.66L1349.58 510.982Z" fill="white"/>&#xa;</mask>&#xa;<g mask="url(#mask1_300_2168)">&#xa;<path d="M197.5 -16.4584L1349.58 394.997V959.924C1349.58 1005.45 1304.49 1037.23 1261.62 1021.93L1020.42 935.809V615.938C1020.42 547.371 977.906 485.987 913.721 461.87L801.577 419.735C780.054 411.649 757.083 427.558 757.083 450.548V841.725L197.5 641.875V-16.4584Z" fill="url(#paint0_linear_300_2168)"/>&#xa;<g filter="url(#filter0_f_300_2168)">&#xa;<path d="M1349.58 516.788C1349.58 585.903 1306.4 647.777 1241.48 671.497L493.75 944.707V1603.04L1349.58 1290.33V516.788Z" fill="black" fill-opacity="0.24"/>&#xa;</g>&#xa;<g filter="url(#filter1_f_300_2168)">&#xa;<path d="M1349.58 543.122C1349.58 612.237 1306.4 674.109 1241.48 697.828L493.75 971.04V1629.37L1349.58 1316.66V543.122Z" fill="black" fill-opacity="0.32"/>&#xa;</g>&#xa;<path d="M1349.58 510.205C1349.58 579.32 1306.4 641.192 1241.48 664.912L493.75 938.123V1596.46L1349.58 1283.75V510.205Z" fill="url(#paint1_linear_300_2168)"/>&#xa;<path opacity="0.5" d="M1349.58 510.205C1349.58 579.32 1306.4 641.192 1241.48 664.912L493.75 938.123V1596.46L1349.58 1283.75V510.205Z" fill="url(#paint2_linear_300_2168)"/>&#xa;<path opacity="0.5" d="M1020.44 745.895L756.955 842.285L756.957 1228.37C756.957 1251.36 779.944 1267.27 801.468 1259.17L913.834 1216.88C977.972 1192.73 1020.44 1131.38 1020.44 1062.84V745.895Z" fill="#B0ADFF"/>&#xa;</g>&#xa;</g>&#xa;</g>&#xa;<defs>&#xa;<filter id="filter0_f_300_2168" x="492.95" y="515.988" width="857.433" height="1087.85" filterUnits="userSpaceOnUse" color-interpolation-filters="sRGB">&#xa;<feFlood flood-opacity="0" result="BackgroundImageFix"/>&#xa;<feBlend mode="normal" in="SourceGraphic" in2="BackgroundImageFix" result="shape"/>&#xa;<feGaussianBlur stdDeviation="0.4" result="effect1_foregroundBlur_300_2168"/>&#xa;</filter>&#xa;<filter id="filter1_f_300_2168" x="485.75" y="535.122" width="871.833" height="1102.25" filterUnits="userSpaceOnUse" color-interpolation-filters="sRGB">&#xa;<feFlood flood-opacity="0" result="BackgroundImageFix"/>&#xa;<feBlend mode="normal" in="SourceGraphic" in2="BackgroundImageFix" result="shape"/>&#xa;<feGaussianBlur stdDeviation="4" result="effect1_foregroundBlur_300_2168"/>&#xa;</filter>&#xa;<linearGradient id="paint0_linear_300_2168" x1="626.159" y1="-16.4584" x2="932.505" y2="785.446" gradientUnits="userSpaceOnUse">&#xa;<stop stop-color="#0B53CE"/>&#xa;<stop offset="1" stop-color="#7252AA"/>&#xa;</linearGradient>&#xa;<linearGradient id="paint1_linear_300_2168" x1="1055.6" y1="1538.73" x2="1055.6" y2="582.874" gradientUnits="userSpaceOnUse">&#xa;<stop stop-color="#2266E3"/>&#xa;<stop offset="1" stop-color="#AE7FE2"/>&#xa;</linearGradient>&#xa;<linearGradient id="paint2_linear_300_2168" x1="1349.58" y1="934.6" x2="1021.67" y2="934.6" gradientUnits="userSpaceOnUse">&#xa;<stop stop-color="#94B9FF"/>&#xa;<stop offset="0.287843" stop-color="#94B9FF" stop-opacity="0.523646"/>&#xa;<stop offset="1" stop-color="#538FFF" stop-opacity="0"/>&#xa;</linearGradient>&#xa;<clipPath id="clip0_300_2168">&#xa;<rect width="1580" height="1580" fill="white"/>&#xa;</clipPath>&#xa;</defs>&#xa;</svg>