<svg xmlns="http://www.w3.org/2000/svg" height="28" viewBox="0 128 2048 1792" width="32"><path class="OfficeIconColors_HighContrast" d="M 1963 128 q 35 0 60 25 q 25 25 25 60 v 1622 q 0 35 -25 60 q -25 25 -60 25 h -1366 q -35 0 -60 -25 q -25 -25 -25 -60 v -299 h -427 q -35 0 -60 -25 q -25 -25 -25 -60 v -854 q 0 -35 25 -60 q 25 -25 60 -25 h 427 v -299 q 0 -35 25 -60 q 25 -25 60 -25 m -21 384 h 363 q 29 0 52 18 q 23 18 30 46 h 195 v -384 h -619 q -8 0 -14 7 q -7 6 -7 14 m 448 1238 q 0 5 -1 11 q -1 5 -3 10 h 196 v -384 h -192 m 192 -64 v -384 h -192 v 384 m -510 109 l 121 227 h 184 l -204 -330 l 199 -324 h -175 l -112 205 q -2 4 -3 7 q -2 3 -4 7 q -2 -3 -3 -6 q -1 -3 -3 -6 l -105 -207 h -186 l 194 326 l -212 328 h 184 m 827 496 v -320 h -640 v 299 q 0 8 7 15 q 6 6 14 6 m 1387 -320 h -703 v 320 h 682 q 8 0 15 -6 q 6 -7 6 -15 m 0 -747 h -704 v 384 h 704 m 0 -832 h -704 v 384 h 704 m 0 -811 q 0 -8 -6 -14 q -7 -7 -15 -7 h -683 v 384 h 704 z" style="display: none !important"/><path class="OfficeIconColors_m2193" d="M 2048 576 v 448 l -384 162 l -384 -162 l -768 -448 v -363 q 0 -35 25 -60 q 25 -25 60 -25 h 683 z" style="fill:rgb(33,163,102)"/><path class="OfficeIconColors_m2192" d="M 1963 128 q 35 0 60 25 q 25 25 25 60 v 363 h -768 v -448 z" style="fill:rgb(51,196,129)"/><path class="OfficeIconColors_m2195" d="M 2048 1472 v 363 q 0 35 -25 60 q -25 25 -60 25 h -1366 q -35 0 -60 -25 q -25 -25 -25 -60 v -811 h 768 z" style="fill:rgb(24,92,55)"/><path class="OfficeIconColors_m2194" d="M 1280 576 v 448 h -768 v -448 m 768 449 h 768 v 447 h -768 z" style="fill:rgb(16,124,65)"/><path class="OfficeIconColors_m2183" d="M 1067 448 q 17 0 33 7 q 15 6 27 18 q 11 11 18 27 q 7 15 7 33 v 1046 q 0 35 -25 60 q -25 25 -60 25 h -555 v -1216 z" style="fill:rgba(0,0,0,0.098)"/><path class="OfficeIconColors_m2184" d="M 1003 512 q 18 0 34 7 q 15 7 27 19 q 11 11 18 27 q 6 15 6 32 v 1046 q 0 35 -25 60 q -25 25 -60 25 h -491 v -1216 z" style="fill:rgba(0,0,0,0.2)"/><path class="OfficeIconColors_m2184" d="M 1003 512 q 18 0 34 7 q 15 7 27 19 q 11 11 18 27 q 6 15 6 32 v 918 q 0 35 -25 60 q -25 25 -60 25 h -491 v -1088 z" style="fill:rgba(0,0,0,0.2)"/><path class="OfficeIconColors_m2184" d="M 939 512 q 35 0 60 25 q 25 25 25 60 v 918 q 0 18 -7 34 q -7 15 -18 27 q -12 11 -27 18 q -16 6 -33 6 h -427 v -1088 z" style="fill:rgba(0,0,0,0.2)"/><path class="OfficeIconColors_m2194" d="M 939 1536 h -854 q -35 0 -60 -25 q -25 -25 -25 -60 v -854 q 0 -35 25 -60 q 25 -25 60 -25 h 854 q 35 0 60 25 q 25 25 25 60 v 854 q 0 35 -25 60 q -25 25 -60 25 z" style="fill:rgb(16,124,65)"/><path class="OfficeIconColors_m2181" d="M 234 1344 l 201 -312 l -184 -310 h 148 l 101 198 q 7 14 12 25 q 4 10 7 17 h 1 q 5 -11 11 -22 q 5 -11 10 -22 l 108 -196 h 136 l -189 308 l 194 314 h -145 l -116 -218 q -8 -13 -14 -29 h -2 q -3 11 -13 28 l -120 219 z" style="fill:rgb(255,255,255)"/></svg>