<svg xmlns="http://www.w3.org/2000/svg" height="28" viewBox="0 128 2048 1792" width="32"><path class="OfficeIconColors_HighContrast" d="M 2048 672 q -1 26 -10 50 q -10 24 -27 41 l -262 261 l 262 261 q 17 18 26 43 q 9 24 11 48 v 416 q 0 27 -10 50 q -10 23 -27 41 q -18 17 -41 27 q -23 10 -50 10 h -416 q -26 0 -50 -10 q -24 -10 -41 -27 l -261 -262 l -261 262 q -18 18 -42 28 q -24 9 -49 9 h -416 q -27 0 -50 -10 q -23 -10 -40 -27 q -18 -18 -28 -41 q -10 -23 -10 -50 v -256 h -171 q -35 0 -60 -25 q -25 -25 -25 -60 v -854 q 0 -35 25 -60 q 25 -25 60 -25 h 171 v -256 q 0 -27 10 -50 q 10 -23 28 -40 q 17 -18 40 -28 q 23 -10 50 -10 h 416 q 24 1 49 11 q 24 9 42 26 l 261 262 l 261 -262 q 17 -17 41 -26 q 24 -10 50 -11 h 416 q 27 0 50 10 q 23 10 41 28 q 17 17 27 40 q 10 23 10 50 m -1728 256 h 619 q 35 0 60 25 q 25 25 25 60 v 328 q 29 -23 47 -56 q 17 -34 17 -74 v -342 l -242 -242 q -19 -19 -46 -19 h -416 q -26 0 -45 19 q -19 19 -19 45 m 416 1104 v -135 h -291 v -136 h 260 v -135 h -260 v -130 h 277 v -136 h -434 v 672 m 1435 -272 h -342 q -34 0 -64 13 q -30 13 -52 36 q -23 22 -36 52 q -13 30 -13 64 v 342 l 242 242 q 19 19 46 19 h 416 q 26 0 45 -19 q 19 -19 19 -45 v -416 q 0 -27 -19 -46 m 19 -1074 q 0 -26 -19 -45 q -19 -19 -45 -19 h -416 q -27 0 -46 19 l -306 306 v 278 q 0 69 -35 123 q -36 54 -93 82 v 451 q 0 35 -25 60 q -25 25 -60 25 h -619 v 256 q 0 26 19 45 q 19 19 45 19 h 416 q 27 0 46 -19 l 306 -306 v -278 q 0 -48 18 -89 q 18 -42 49 -73 q 31 -31 73 -49 q 41 -18 89 -18 h 278 l 306 -306 q 19 -19 19 -46 z" style="display: none !important"/><path class="OfficeIconColors_m2208" d="M 1920 128 q 27 0 50 10 q 23 10 41 28 q 17 17 27 40 q 10 23 10 50 v 416 q 0 26 -10 50 q -10 24 -27 41 l -1120 1120 q -18 18 -42 28 q -24 9 -49 9 h -416 q -27 0 -50 -10 q -23 -10 -40 -27 q -18 -18 -28 -41 q -10 -23 -10 -50 v -416 q 0 -24 10 -48 q 10 -25 27 -43 l 1120 -1120 q 17 -17 41 -26 q 24 -10 50 -11 z" style="fill:rgb(40,168,234)"/><path class="OfficeIconColors_m2207" d="M 384 128 h 416 q 25 1 49 11 q 24 9 42 26 l 261 262 v 368 q 0 48 -18 90 q -18 41 -49 72 q -31 31 -72 49 q -42 18 -90 18 h -368 l -262 -261 q -17 -17 -27 -41 q -10 -24 -10 -50 v -416 q 0 -27 10 -50 q 10 -23 28 -40 q 17 -18 40 -28 q 23 -10 50 -10 z" style="fill:rgb(80,217,255)"/><path class="OfficeIconColors_m2210" d="M 1920 1920 h -416 q -26 0 -50 -9 q -24 -10 -41 -28 l -261 -262 v -368 q 0 -48 18 -89 q 18 -42 49 -73 q 31 -31 73 -49 q 41 -18 89 -18 h 368 l 262 261 q 17 18 27 42 q 10 24 10 49 v 416 q 0 27 -10 50 q -10 23 -27 41 q -18 17 -41 27 q -23 10 -50 10 z" style="fill:rgb(0,120,212)"/><path class="OfficeIconColors_m2184" d="M 1067 448 q 35 0 60 25 q 25 25 25 60 v 1046 q 0 17 -6 33 q -7 15 -18 27 q -12 11 -27 18 q -16 7 -34 7 h -811 v -1216 z" style="fill:rgba(0,0,0,0.2)"/><path class="OfficeIconColors_m2183" d="M 1003 512 q 35 0 60 25 q 25 25 25 60 v 1046 q 0 35 -25 60 q -25 25 -60 25 h -747 v -1216 z" style="fill:rgba(0,0,0,0.098)"/><path class="OfficeIconColors_m2184" d="M 1003 512 q 35 0 60 25 q 25 25 25 60 v 918 q 0 35 -25 60 q -25 25 -60 25 h -747 v -1088 z" style="fill:rgba(0,0,0,0.2)"/><path class="OfficeIconColors_m2184" d="M 939 512 q 35 0 60 25 q 25 25 25 60 v 918 q 0 35 -25 60 q -25 25 -60 25 h -683 v -1088 z" style="fill:rgba(0,0,0,0.2)"/><path class="OfficeIconColors_m2210" d="M 939 1536 h -854 q -18 0 -33 -7 q -16 -7 -27 -18 q -12 -12 -18 -27 q -7 -16 -7 -33 v -854 q 0 -17 7 -32 q 6 -16 18 -27 q 11 -12 27 -19 q 15 -7 33 -7 h 854 q 18 0 34 7 q 15 7 27 19 q 11 11 18 27 q 6 15 6 32 v 854 q 0 17 -6 33 q -7 15 -18 27 q -12 11 -27 18 q -16 7 -34 7 z" style="fill:rgb(0,120,212)"/><path class="OfficeIconColors_m2181" d="M 706 808 h -277 v 162 h 260 v 103 h -260 v 168 h 291 v 103 h -416 v -640 h 402 z" style="fill:rgb(255,255,255)"/></svg>