<svg xmlns="http://www.w3.org/2000/svg" version="1.2" viewBox="0.0000152587890625 0.199951171875 986.300048828125 1499.300048828125" width="986.300048828125" height="1499.300048828125">&#xa;	<title>factset-logo-svg</title>&#xa;	<style>&#xa;		.s0 { fill: #00aeef } &#xa;	</style>&#xa;	<g id="Layer">&#xa;		<g id="Layer">&#xa;			<path id="Layer" fill-rule="evenodd" class="s0" d="m294.6 1350c0 81.1-64 149.5-145.2 149.5-81.1-4.3-149.4-68.4-149.4-149.5v-1200.3c0-81.2 64-149.5 145.2-149.5h691.7c81.1 0 149.4 64.1 149.4 145.2 0 81.2-68.3 149.5-149.4 149.5h-542.3zm529.5-773.1c72.5 0 128.1 55.5 128.1 128.1 0 72.7-55.6 128.2-128.1 128.2h-328.8c-68.3 0-128.1-55.5-128.1-128.2 0-72.6 55.5-128.1 132.4-128.1z"/>&#xa;		</g>&#xa;	</g>&#xa;</svg>