<svg xmlns="http://www.w3.org/2000/svg" height="19.00390625" viewBox="307 102 1741 1946" width="17.001953125"><path class="OfficeIconColors_HighContrast" d="M 1587 819 q 96 0 180 20 q 84 20 147 55 q 62 35 98 82 q 36 46 36 99 v 819 q 0 32 -36 60 q -36 28 -98 49 q -63 21 -147 33 q -84 12 -180 12 q -95 0 -179 -12 q -84 -12 -146 -33 q -63 -21 -99 -49 q -37 -28 -37 -60 v -819 q 0 -53 37 -99 q 36 -47 99 -82 q 62 -35 146 -55 q 84 -20 179 -20 m -563 1075 q 0 14 3 27 q 2 13 6 25 h -726 v -1844 h 921 l 513 512 v 117 q -25 -5 -50 -7 q -26 -2 -53 -4 v -3 h -512 v -512 h -716 v 1638 h 614 m 563 103 q 73 0 133 -7 q 60 -7 106 -17 q 45 -11 76 -23 q 30 -13 44 -23 v -642 q -64 45 -156 71 q -93 26 -203 26 q -109 0 -202 -26 q -93 -26 -156 -71 v 642 q 13 10 44 23 q 30 12 76 23 q 45 10 105 17 q 60 7 133 7 m 0 -1024 q -81 0 -147 16 q -66 15 -113 38 q -47 23 -72 50 q -26 26 -26 49 q 0 23 26 50 q 25 27 72 50 q 47 23 113 39 q 66 15 147 15 q 81 0 147 -15 q 66 -16 114 -39 q 47 -23 73 -50 q 25 -27 25 -50 q 0 -23 -25 -49 q -26 -27 -73 -50 q -48 -23 -114 -38 q -66 -16 -147 -16 m -358 -308 h 367 l -367 -366 z" style="display: none !important"/><path class="OfficeIconColors_m20" d="M 1587 717 q -120 0 -223 28 q -103 27 -178 75 q -76 48 -119 114 q -43 65 -43 141 v 819 h -666 v -1740 h 841 l 491 482 v 87 q -51 -6 -103 -6 z" style="fill:rgb(250,250,250)"/><path class="OfficeIconColors_m22" d="M 1024 1894 q 0 14 3 27 q 2 13 6 25 h -726 v -1844 h 921 l 513 512 v 117 q -25 -5 -50 -7 q -26 -2 -53 -4 v -3 h -512 v -512 h -716 v 1638 h 614 m 205 -1229 h 367 l -367 -366 z" style="fill:rgb(58,58,56)"/><path class="OfficeIconColors_m20" d="M 1587 1997 q -101 0 -177 -12 q -77 -13 -128 -29 q -52 -17 -78 -34 q -26 -18 -26 -28 v -819 q 0 -36 30 -73 q 30 -37 84 -66 q 54 -29 130 -47 q 75 -19 165 -19 q 91 0 167 19 q 75 18 129 47 q 54 29 84 66 q 30 37 30 73 v 819 q 0 10 -26 28 q -26 17 -78 34 q -52 16 -128 29 q -77 12 -178 12 z" style="fill:rgb(250,250,250)"/><path class="OfficeIconColors_m210" d="M 1587 819 q 96 0 180 20 q 84 20 147 55 q 62 35 98 82 q 36 46 36 99 v 819 q 0 32 -36 60 q -36 28 -98 49 q -63 21 -147 33 q -84 12 -180 12 q -95 0 -179 -12 q -84 -12 -146 -33 q -63 -21 -99 -49 q -37 -28 -37 -60 v -819 q 0 -53 37 -99 q 36 -47 99 -82 q 62 -35 146 -55 q 84 -20 179 -20 m 0 103 q -81 0 -147 16 q -66 15 -113 38 q -47 23 -72 50 q -26 26 -26 49 q 0 23 26 50 q 25 27 72 50 q 47 23 113 39 q 66 15 147 15 q 81 0 147 -15 q 66 -16 114 -39 q 47 -23 73 -50 q 25 -27 25 -50 q 0 -23 -25 -49 q -26 -27 -73 -50 q -48 -23 -114 -38 q -66 -16 -147 -16 m 0 1024 q 73 0 133 -7 q 60 -7 106 -17 q 45 -11 76 -23 q 30 -13 44 -23 v -642 q -64 45 -156 71 q -93 26 -203 26 q -109 0 -202 -26 q -93 -26 -156 -71 v 642 q 13 10 44 23 q 30 12 76 23 q 45 10 105 17 q 60 7 133 7 z" style="fill:rgb(222,108,0)"/></svg>