<svg xmlns="http://www.w3.org/2000/svg" height="28" viewBox="3 2 25 28" width="25"><path class="OfficeIconColors_HighContrast" d="M24.5,30L24.5,30c-1.933,0-3.5-1.567-3.5-3.5v-21C21,3.567,22.567,2,24.5,2l0,0C26.433,2,28,3.567,28,5.5v21&#10;&#9;C28,28.433,26.433,30,24.5,30z M6.5,23c1.933,0,3.5,1.567,3.5,3.5S8.433,30,6.5,30S3,28.433,3,26.5S4.567,23,6.5,23z M15.5,30&#10;&#9;L15.5,30c-1.933,0-3.5-1.567-3.5-3.5V16c0-1.933,1.567-3.5,3.5-3.5l0,0c1.933,0,3.5,1.567,3.5,3.5v10.5C19,28.433,17.433,30,15.5,30&#10;&#9;z" style="display: none !important"/><path class="OfficeIconColors_m218" d="M24.5,30L24.5,30c-1.933,0-3.5-1.567-3.5-3.5v-21C21,3.567,22.567,2,24.5,2l0,0C26.433,2,28,3.567,28,5.5v21&#10;&#9;C28,28.433,26.433,30,24.5,30z" style="fill:rgb(255,178,85)"/><path class="OfficeIconColors_m210" d="M6.5,23c1.933,0,3.5,1.567,3.5,3.5S8.433,30,6.5,30S3,28.433,3,26.5S4.567,23,6.5,23z M15.5,30L15.5,30&#10;&#9;c-1.933,0-3.5-1.567-3.5-3.5V16c0-1.933,1.567-3.5,3.5-3.5l0,0c1.933,0,3.5,1.567,3.5,3.5v10.5C19,28.433,17.433,30,15.5,30z" style="fill:rgb(222,108,0)"/></svg>