<svg xmlns="http://www.w3.org/2000/svg" xmlns:xlink="http://www.w3.org/1999/xlink" version="1.1" id="layer" viewBox="20.399999618530273 229.89999389648438 160.20001220703125 185" xml:space="preserve" width="160.20001220703125" height="185">&#xa;<style type="text/css">&#xa;	.st2{fill:#81C5D8;}&#xa;	.st3{fill:#C2DA6E;}&#xa;	.st4{fill:#0093BB;}&#xa;</style>&#xa;<g>&#xa;	<polygon class="st2" points="20.4,368.6 73.8,368.6 60.5,345.5"/>&#xa;	<polygon class="st2" points="127.2,368.6 180.6,276.1 100.5,322.4 100.5,368.6"/>&#xa;	<polygon class="st3" points="100.5,414.9 180.6,368.6 127.2,368.6"/>&#xa;	<polygon class="st3" points="60.5,345.5 100.5,322.4 100.5,229.9 47.1,322.4"/>&#xa;	<polygon class="st3" points="73.8,368.6 100.5,414.9 100.5,368.6"/>&#xa;	<polygon class="st2" points="20.4,276.1 20.4,368.6 47.1,322.4"/>&#xa;	<polygon class="st4" points="180.6,276.1 127.2,368.6 180.6,368.6 180.6,276.1"/>&#xa;	<polygon class="st4" points="100.5,322.4 60.4,345.5 73.8,368.6 100.5,368.6"/>&#xa;	<polygon class="st4" points="100.5,229.9 20.4,276.1 47.1,322.4"/>&#xa;</g>&#xa;</svg>