<svg xmlns="http://www.w3.org/2000/svg" version="1.1" id="Layer_1" x="0px" y="0px" viewBox="-0.6200122833251953 -3.1000003814697266 405.1000061035156 405.1000061035156" xml:space="preserve" width="405.099996103516" height="405.1000261035164"><metadata id="metadata115">image/svg+xml</metadata><defs id="defs113"/>&#xa;<style type="text/css" id="style2">&#xa;	.st0{fill:#4A8FE1;}&#xa;	.st1{fill:#FEFEFE;}&#xa;	.st2{fill:#716F73;}&#xa;	.st3{fill:#4D8951;}&#xa;	.st4{fill:#A6D3EA;}&#xa;	.st5{fill:#3A3868;}&#xa;	.st6{fill:#717073;}&#xa;	.st7{fill:#1B995A;}&#xa;	.st8{fill:#717B83;}&#xa;	.st9{fill:#2BA3A4;}&#xa;	.st10{fill:#717074;}&#xa;	.st11{fill:#717173;}&#xa;	.st12{fill:#707B83;}&#xa;	.st13{fill:#67A3D1;}&#xa;	.st14{fill:#2B5B68;}&#xa;	.st15{fill:#B9DCF3;}&#xa;	.st16{fill:#2A4B38;}&#xa;	.st17{fill:#83939F;}&#xa;	.st18{fill:#9DCCE8;}&#xa;	.st19{fill:#85939C;}&#xa;	.st20{fill:#82929C;}&#xa;	.st21{fill:#40A6D5;}&#xa;	.st22{fill:#2B4B39;}&#xa;	.st23{fill:#28493A;}&#xa;	.st24{fill:#2EA3A7;}&#xa;	.st25{fill:#F8FCFC;}&#xa;	.st26{fill:#568F52;}&#xa;	.st27{fill:#94C453;}&#xa;	.st28{fill:#206289;}&#xa;	.st29{fill:#F1FBFD;}&#xa;	.st30{fill:#F6FDFE;}&#xa;	.st31{fill:#F8FCFB;}&#xa;	.st32{fill:#FAFDFB;}&#xa;	.st33{fill:#F4FCFD;}&#xa;	.st34{fill:#65AC62;}&#xa;	.st35{fill:#F8FAF3;}&#xa;	.st36{fill:#5EAD5A;}&#xa;	.st37{fill:#F6FCFA;}&#xa;	.st38{fill:#85C5B8;}&#xa;	.st39{fill:#3CA0D5;}&#xa;	.st40{fill:#727A80;}&#xa;	.st41{fill:#F6FCFD;}&#xa;	.st42{fill:#FEFEFA;}&#xa;	.st43{fill:#459ED2;}&#xa;	.st44{fill:#5DAE5B;}&#xa;	.st45{fill:#5E7F47;}&#xa;	.st46{fill:#FCFCFC;}&#xa;	.st47{fill:#C1DBED;}&#xa;	.st48{fill:#FBFDF8;}&#xa;	.st49{fill:#EBF5F7;}&#xa;	.st50{fill:#294949;}&#xa;	.st51{fill:#8FC8E5;}&#xa;	.st52{fill:#F7FCFC;}&#xa;	.st53{fill:#FCFEFA;}&#xa;	.st54{fill:#4E8A56;}&#xa;	.st55{fill:#64BDE8;}&#xa;	.st56{fill:#FEFDFA;}&#xa;	.st57{fill:#FBFDFC;}&#xa;	.st58{fill:#449DD5;}&#xa;	.st59{fill:#F6FBF7;}&#xa;	.st60{fill:#279A5B;}&#xa;	.st61{fill:#30493D;}&#xa;	.st62{fill:#F5FBF9;}&#xa;	.st63{fill:#35583B;}&#xa;	.st64{fill:#323C62;}&#xa;	.st65{fill:#F8FBF9;}&#xa;	.st66{fill:#E7EFF2;}&#xa;	.st67{fill:#8DC1B6;}&#xa;	.st68{fill:#FAFCFA;}&#xa;	.st69{fill:#F1FBF9;}&#xa;	.st70{fill:#F7FEFE;}&#xa;	.st71{fill:#FDFEFA;}&#xa;	.st72{fill:#31A1A1;}&#xa;	.st73{fill:#F9FEFD;}&#xa;	.st74{fill:#FAFAFC;}&#xa;	.st75{fill:#FDFCF8;}&#xa;	.st76{fill:#2D5C60;}&#xa;	.st77{fill:#FDFCF9;}&#xa;	.st78{fill:#F9FDFB;}&#xa;	.st79{fill:#FBFBFB;}&#xa;	.st80{fill:#518B58;}&#xa;	.st81{fill:#5A82AF;}&#xa;	.st82{fill:#FDFEF8;}&#xa;	.st83{fill:#244C40;}&#xa;	.st84{fill:#266495;}&#xa;	.st85{fill:#42A0D3;}&#xa;	.st86{fill:#5B80A9;}&#xa;	.st87{fill:#2E5B63;}&#xa;	.st88{fill:#FDFBF9;}&#xa;	.st89{fill:#F8FDFB;}&#xa;	.st90{fill:#FDFDF7;}&#xa;	.st91{fill:#F3F9FB;}&#xa;	.st92{fill:#309F96;}&#xa;	.st93{fill:#93C367;}&#xa;	.st94{fill:#3B3C68;}&#xa;	.st95{fill:#E0F1F9;}&#xa;	.st96{fill:#E4F6F9;}&#xa;	.st97{fill:#FEFEF9;}&#xa;	.st98{fill:#224C38;}&#xa;	.st99{fill:#498AB2;}&#xa;	.st100{fill:#FDFDF9;}&#xa;	.st101{fill:#F9FEFE;}&#xa;	.st102{fill:#F6FCF2;}&#xa;	.st103{fill:#FEFCF9;}&#xa;	.st104{fill:#EEFCFE;}&#xa;	.st105{fill:#FDFDF8;}&#xa;	.st106{fill:#FBFDFA;}&#xa;	.st107{fill:#275962;}&#xa;	.st108{fill:#FDFEF9;}&#xa;	.st109{fill:#F2F8F2;}&#xa;	.st110{fill:#F8FBFB;}&#xa;	.st111{fill:#8A8A8A;}&#xa;	.st112{fill:#F7FEFD;}&#xa;	.st113{fill:#EFF8FB;}&#xa;	.st114{fill:#FAFCFB;}&#xa;	.st115{fill:#E5F3F8;}&#xa;	.st116{fill:#ECF7FA;}&#xa;	.st117{fill:#FDFDF6;}&#xa;	.st118{fill:#F5FDFD;}&#xa;	.st119{fill:#7799BF;}&#xa;	.st120{fill:#5C8055;}&#xa;	.st121{fill:#6EAECC;}&#xa;	.st122{fill:#FEFEF7;}&#xa;	.st123{fill:#3282B5;}&#xa;	.st124{fill:#F3FCF5;}&#xa;	.st125{fill:#F4FAFB;}&#xa;	.st126{fill:#FEF8FA;}&#xa;	.st127{fill:#F5FCF9;}&#xa;	.st128{fill:#3C9392;}&#xa;	.st129{fill:#EBF6F6;}&#xa;	.st130{fill:#98BFD6;}&#xa;	.st131{fill:#FEFDF7;}&#xa;	.st132{fill:#658796;}&#xa;	.st133{fill:#EEF7F6;}&#xa;	.st134{fill:#FAFBF5;}&#xa;	.st135{fill:#F8FCF9;}&#xa;	.st136{fill:#FDFDF4;}&#xa;	.st137{fill:#FDFBF8;}&#xa;	.st138{fill:#FDFDF5;}&#xa;	.st139{fill:#EFF9FD;}&#xa;	.st140{fill:#FDFEF6;}&#xa;	.st141{fill:#37586D;}&#xa;	.st142{fill:#FDFEF5;}&#xa;	.st143{fill:#FDFBF6;}&#xa;	.st144{fill:#324A49;}&#xa;	.st145{fill:#F8F8F9;}&#xa;	.st146{fill:#CDF5CD;}&#xa;	.st147{fill:#FEFDF3;}&#xa;	.st148{fill:#ECFBFE;}&#xa;	.st149{fill:#858585;}&#xa;	.st150{fill:#C5C5C5;}&#xa;	.st151{fill:#6C6C6C;}&#xa;	.st152{fill:#498B4F;}&#xa;	.st153{fill:#478A4D;}&#xa;	.st154{fill:#4A884D;}&#xa;	.st155{fill:#429169;}&#xa;	.st156{fill:#3CA29D;}&#xa;	.st157{fill:#518654;}&#xa;	.st158{fill:#51855F;}&#xa;	.st159{fill:#289FA0;}&#xa;	.st160{fill:#448E49;}&#xa;	.st161{fill:#458B55;}&#xa;	.st162{fill:#568356;}&#xa;	.st163{fill:#89C9ED;}&#xa;	.st164{fill:#246081;}&#xa;	.st165{fill:#206186;}&#xa;	.st166{fill:#8EC8E9;}&#xa;	.st167{fill:#2B5D7D;}&#xa;	.st168{fill:#215F80;}&#xa;	.st169{fill:#A0D4EF;}&#xa;	.st170{fill:#A4D3F2;}&#xa;	.st171{fill:#245E84;}&#xa;	.st172{fill:#69BADA;}&#xa;	.st173{fill:#9AC9D1;}&#xa;	.st174{fill:#9AC7DD;}&#xa;	.st175{fill:#3B396C;}&#xa;	.st176{fill:#3A376D;}&#xa;	.st177{fill:#3D366C;}&#xa;	.st178{fill:#6A9BC9;}&#xa;	.st179{fill:#57B156;}&#xa;	.st180{fill:#2A9762;}&#xa;	.st181{fill:#139C59;}&#xa;	.st182{fill:#169A5E;}&#xa;	.st183{fill:#139C5D;}&#xa;	.st184{fill:#129652;}&#xa;	.st185{fill:#61839B;}&#xa;	.st186{fill:#637F92;}&#xa;	.st187{fill:#289193;}&#xa;	.st188{fill:#288F8D;}&#xa;	.st189{fill:#34A3A8;}&#xa;	.st190{fill:#23A7A5;}&#xa;	.st191{fill:#36A2A8;}&#xa;	.st192{fill:#32A1A0;}&#xa;	.st193{fill:#23A7A2;}&#xa;	.st194{fill:#249A96;}&#xa;	.st195{fill:#FCFCFD;}&#xa;	.st196{fill:#FDFDFD;}&#xa;	.st197{fill:#6B7B8C;}&#xa;	.st198{fill:#4C84B0;}&#xa;	.st199{fill:#4F81BA;}&#xa;	.st200{fill:#5280B6;}&#xa;	.st201{fill:#6CA1CE;}&#xa;	.st202{fill:#6CA0CF;}&#xa;	.st203{fill:#7AA4CC;}&#xa;	.st204{fill:#71A3D5;}&#xa;	.st205{fill:#6AA3C9;}&#xa;	.st206{fill:#6EA5D6;}&#xa;	.st207{fill:#6C97B9;}&#xa;	.st208{fill:#4F6684;}&#xa;	.st209{fill:#2D5D62;}&#xa;	.st210{fill:#275C5E;}&#xa;	.st211{fill:#2B5859;}&#xa;	.st212{fill:#285C5E;}&#xa;	.st213{fill:#9FCCE5;}&#xa;	.st214{fill:#BCDBEF;}&#xa;	.st215{fill:#B5DDF9;}&#xa;	.st216{fill:#234D37;}&#xa;	.st217{fill:#2E483A;}&#xa;	.st218{fill:#8294A2;}&#xa;	.st219{fill:#256286;}&#xa;	.st220{fill:#8095A3;}&#xa;	.st221{fill:#3FA6DA;}&#xa;	.st222{fill:#62BEEC;}&#xa;	.st223{fill:#40A7D6;}&#xa;	.st224{fill:#43A3DF;}&#xa;	.st225{fill:#274C3B;}&#xa;	.st226{fill:#4C9FC8;}&#xa;	.st227{fill:#234D32;}&#xa;	.st228{fill:#2C473D;}&#xa;	.st229{fill:#27572D;}&#xa;	.st230{fill:#2D473F;}&#xa;	.st231{fill:#22A69E;}&#xa;	.st232{fill:#22A1A1;}&#xa;	.st233{fill:#378E8D;}&#xa;	.st234{fill:#268C8A;}&#xa;	.st235{fill:#40817E;}&#xa;	.st236{fill:#528E4D;}&#xa;	.st237{fill:#94C15C;}&#xa;	.st238{fill:#518D4F;}&#xa;	.st239{fill:#4B954A;}&#xa;	.st240{fill:#95C350;}&#xa;	.st241{fill:#93C451;}&#xa;	.st242{fill:#90C147;}&#xa;	.st243{fill:#90B254;}&#xa;	.st244{fill:#1A6292;}&#xa;	.st245{fill:#2F82B5;}&#xa;	.st246{fill:#3FA7DA;}&#xa;	.st247{fill:#43A5D7;}&#xa;	.st248{fill:#51ADD8;}&#xa;	.st249{fill:#57B0E2;}&#xa;	.st250{fill:#4C95B8;}&#xa;	.st251{fill:#7BC2EB;}&#xa;	.st252{fill:#7BC2E8;}&#xa;	.st253{fill:#439DCE;}&#xa;	.st254{fill:#1A66A0;}&#xa;	.st255{fill:#429FD0;}&#xa;	.st256{fill:#22669E;}&#xa;	.st257{fill:#42A1D2;}&#xa;	.st258{fill:#42A6D7;}&#xa;	.st259{fill:#4EA6CD;}&#xa;	.st260{fill:#90B15F;}&#xa;	.st261{fill:#5EAF59;}&#xa;	.st262{fill:#1568A3;}&#xa;	.st263{fill:#44A4D8;}&#xa;	.st264{fill:#2D5F86;}&#xa;	.st265{fill:#82C6B7;}&#xa;	.st266{fill:#93C6B3;}&#xa;	.st267{fill:#81C7BD;}&#xa;	.st268{fill:#8CC3BB;}&#xa;	.st269{fill:#3EA0D1;}&#xa;	.st270{fill:#429ED2;}&#xa;	.st271{fill:#449DD7;}&#xa;	.st272{fill:#3AA1DA;}&#xa;	.st273{fill:#3D9FD7;}&#xa;	.st274{fill:#439DD3;}&#xa;	.st275{fill:#69A46E;}&#xa;	.st276{fill:#74B273;}&#xa;	.st277{fill:#58AB52;}&#xa;	.st278{fill:#325946;}&#xa;	.st279{fill:#214A49;}&#xa;	.st280{fill:#244B3F;}&#xa;	.st281{fill:#3181B4;}&#xa;	.st282{fill:#1DA3A4;}&#xa;	.st283{fill:#346E9F;}&#xa;	.st284{fill:#869197;}&#xa;	.st285{fill:#53B0EA;}&#xa;	.st286{fill:#5181C0;}&#xa;	.st287{fill:#1767A6;}&#xa;	.st288{fill:#3F9FD5;}&#xa;	.st289{fill:#399291;}&#xa;	.st290{fill:#27A2A7;}&#xa;	.st291{fill:#81969C;}&#xa;	.st292{fill:#46A4D7;}&#xa;	.st293{fill:#C7DCB8;}&#xa;	.st294{fill:#B5B5B5;}&#xa;	.st295{fill:#4F9A83;}&#xa;	.st296{fill:#63BDE8;}&#xa;	.st297{fill:#95C3E7;}&#xa;	.st298{fill:#1D618B;}&#xa;	.st299{fill:#1D6286;}&#xa;	.st300{fill:#3181B5;}&#xa;	.st301{fill:#249190;}&#xa;	.st302{fill:#2C9096;}&#xa;	.st303{fill:#23918E;}&#xa;	.st304{fill:#2E939A;}&#xa;	.st305{fill:#469DD6;}&#xa;	.st306{fill:#40A0D2;}&#xa;	.st307{fill:#4B82C0;}&#xa;	.st308{fill:#809398;}&#xa;	.st309{fill:#69BCE2;}&#xa;	.st310{fill:#5BBFEB;}&#xa;	.st311{fill:#5DBEF5;}&#xa;	.st312{fill:#42A6D8;}&#xa;	.st313{fill:#39A4DC;}&#xa;	.st314{fill:#94C356;}&#xa;	.st315{fill:#95C446;}&#xa;	.st316{fill:#2B83B5;}&#xa;	.st317{fill:#2A83B8;}&#xa;	.st318{fill:#3EA7DE;}&#xa;	.st319{fill:#37A8DF;}&#xa;	.st320{fill:#7CC9F7;}&#xa;	.st321{fill:#1568A7;}&#xa;	.st322{fill:#3EA7DD;}&#xa;	.st323{fill:#3AA9DA;}&#xa;	.st324{fill:#55B0E2;}&#xa;	.st325{fill:#5FAF60;}&#xa;	.st326{fill:#16639A;}&#xa;	.st327{fill:#16689E;}&#xa;	.st328{fill:#419FCE;}&#xa;	.st329{fill:#216186;}&#xa;	.st330{fill:#21607D;}&#xa;	.st331{fill:#3BA7DD;}&#xa;	.st332{fill:#6E408A;}&#xa;	.st333{fill:#3A3A3C;}&#xa;	.st334{fill:none;}&#xa;	.st335{fill:#44546A;}&#xa;	.st336{fill:#E67C0C;}&#xa;	.st337{fill:#922A50;}&#xa;	.st338{fill:#E67C0D;}&#xa;	.st339{fill:#4471CD;}&#xa;	.st340{fill:#922B50;}&#xa;	.st341{fill:#45556B;}&#xa;	.st342{fill:#922B51;}&#xa;	.st343{fill:#4571CD;}&#xa;	.st344{fill:#46556B;}&#xa;	.st345{fill:#45556A;}&#xa;	.st346{fill:#F0B272;}&#xa;	.st347{fill:#1D94D2;}&#xa;	.st348{fill:#3C3F3F;}&#xa;	.st349{fill:#080809;}&#xa;	.st350{fill:#048DC9;}&#xa;	.st351{fill:#7496A2;}&#xa;	.st352{fill:#9DAAC1;}&#xa;	.st353{fill:#868689;}&#xa;	.st354{fill:#052C50;}&#xa;	.st355{fill:#101214;}&#xa;	.st356{fill:#191C1E;}&#xa;	.st357{fill:#242C35;}&#xa;	.st358{fill:#343C42;}&#xa;	.st359{fill:#343B44;}&#xa;	.st360{fill:#3D4A5B;}&#xa;	.st361{fill:#73AAFE;}&#xa;	.st362{fill:#4CCAFE;}&#xa;	.st363{fill:#CFE1FD;}&#xa;	.st364{fill:#87DCFE;}&#xa;	.st365{fill:#0090CC;}&#xa;	.st366{fill:#008FCC;}&#xa;	.st367{fill:none;stroke:#407DCC;stroke-width:0;stroke-linecap:round;stroke-linejoin:round;}&#xa;	.st368{fill:#407DCC;}&#xa;	.st369{fill:#15191E;}&#xa;	.st370{fill:#10191F;}&#xa;	.st371{fill:#12161B;}&#xa;	.st372{fill:#0E181E;}&#xa;	.st373{fill:#121D24;}&#xa;	.st374{fill:#3F7BC7;}&#xa;	.st375{fill:#222932;}&#xa;	.st376{fill:#22404E;}&#xa;	.st377{fill:#202831;}&#xa;	.st378{fill:#010101;}&#xa;	.st379{fill:#161A1F;}&#xa;	.st380{fill:#323C47;}&#xa;	.st381{fill:#303B48;}&#xa;	.st382{fill:#14181B;}&#xa;	.st383{fill:#353F4A;}&#xa;	.st384{fill:#194691;}&#xa;	.st385{fill:#164C96;}&#xa;	.st386{fill:#184893;}&#xa;	.st387{fill:#174A94;}&#xa;	.st388{fill:#184792;}&#xa;	.st389{fill:#184892;}&#xa;	.st390{fill:#0090CD;}&#xa;	.st391{fill:#018CCA;}&#xa;	.st392{fill:#FDBB87;}&#xa;	.st393{fill:#FE9545;}&#xa;	.st394{fill:#FE8B00;}&#xa;	.st395{fill:#DC5900;}&#xa;	.st396{fill:#DE6D45;}&#xa;	.st397{fill:#292925;}&#xa;	.st398{fill:#63A1BF;}&#xa;	.st399{fill:#61A1BF;}&#xa;	.st400{fill:#8DC53F;}&#xa;	.st401{fill:#8EC642;}&#xa;	.st402{fill:#61853A;}&#xa;	.st403{fill:#424243;}&#xa;	.st404{fill:#8EC641;}&#xa;	.st405{fill:#8DC640;}&#xa;	.st406{fill:#414142;}&#xa;	.st407{fill:#94C94C;}&#xa;	.st408{fill:#4C4C4D;}&#xa;	.st409{fill:#62863C;}&#xa;	.st410{fill:#8DC540;}&#xa;	.st411{fill:#577138;}&#xa;	.st412{fill:#A2B24F;}&#xa;	.st413{fill:#DCDF72;}&#xa;	.st414{fill:#5E3108;}&#xa;	.st415{fill:#074354;}&#xa;	.st416{fill:#04C594;}&#xa;	.st417{fill:#95AEB6;}&#xa;	.st418{fill:#4B4B4B;}&#xa;	.st419{fill:#5C5B5B;}&#xa;	.st420{fill:#ABABAB;}&#xa;	.st421{fill:#474646;}&#xa;	.st422{fill:#454444;}&#xa;	.st423{fill:#8C8C8C;}&#xa;	.st424{fill:#292828;}&#xa;	.st425{fill:#818181;}&#xa;	.st426{fill:#C1C1C1;}&#xa;	.st427{fill:#AAAAAA;}&#xa;	.st428{fill:#A1A0A0;}&#xa;	.st429{fill:#7A7879;}&#xa;	.st430{fill:#C9C9C9;}&#xa;	.st431{fill:#787878;}&#xa;	.st432{fill:#474747;}&#xa;	.st433{fill:#939393;}&#xa;	.st434{fill:#9D9D9D;}&#xa;	.st435{fill:#323131;}&#xa;	.st436{fill:#646464;}&#xa;	.st437{fill:#5F5F5F;}&#xa;	.st438{fill:#454545;}&#xa;	.st439{fill:#565555;}&#xa;	.st440{fill:#504F4F;}&#xa;	.st441{fill:#464646;}&#xa;	.st442{fill:#807F7F;}&#xa;	.st443{fill:#515050;}&#xa;	.st444{fill:#444242;}&#xa;	.st445{fill:#A8A8A8;}&#xa;	.st446{fill:#B6B6B6;}&#xa;	.st447{fill:#545454;}&#xa;	.st448{fill:#6E6E6E;}&#xa;	.st449{fill:#9C9C9C;}&#xa;	.st450{fill:#A9A9A9;}&#xa;	.st451{fill:#949494;}&#xa;	.st452{fill:#353434;}&#xa;	.st453{fill:#727272;}&#xa;	.st454{fill:#585858;}&#xa;	.st455{fill:#585757;}&#xa;	.st456{fill:#7E7D7D;}&#xa;	.st457{fill:#4C4B4B;}&#xa;	.st458{fill:#3A3A3A;}&#xa;	.st459{fill:#989898;}&#xa;	.st460{fill:#484848;}&#xa;	.st461{fill:#817F80;}&#xa;	.st462{fill:#7A7A7A;}&#xa;	.st463{fill:#5B5A5B;}&#xa;	.st464{fill:#ADADAD;}&#xa;	.st465{fill:#737373;}&#xa;	.st466{fill:#2E2D2D;}&#xa;	.st467{fill:#757575;}&#xa;	.st468{fill:#5A5959;}&#xa;	.st469{fill:#717171;}&#xa;	.st470{fill:#595859;}&#xa;	.st471{fill:#989797;}&#xa;	.st472{fill:#393939;}&#xa;	.st473{fill:#818080;}&#xa;	.st474{fill:#929292;}&#xa;	.st475{fill:#3F3F3F;}&#xa;	.st476{fill:#BEBEBE;}&#xa;	.st477{fill:#494949;}&#xa;	.st478{fill:#494848;}&#xa;	.st479{fill:#696868;}&#xa;	.st480{fill:#828181;}&#xa;	.st481{fill:#C8C8C8;}&#xa;	.st482{fill:#616060;}&#xa;	.st483{fill:#615F60;}&#xa;	.st484{fill:#686767;}&#xa;	.st485{fill:#7F7E7E;}&#xa;	.st486{fill:#B3B3B3;}&#xa;	.st487{fill:#A09F9F;}&#xa;	.st488{fill:#4D4C4C;}&#xa;	.st489{fill:#E2E2E2;}&#xa;	.st490{fill:#D8D8D8;}&#xa;	.st491{fill:#3E3E3E;}&#xa;	.st492{fill:#A4A4A4;}&#xa;	.st493{fill:#8B898A;}&#xa;	.st494{fill:#4C4C4C;}&#xa;	.st495{fill:#A3A3A3;}&#xa;	.st496{fill:#333232;}&#xa;	.st497{fill:#6C6B6B;}&#xa;	.st498{fill:#7B7A7A;}&#xa;	.st499{fill:#C0C0C0;}&#xa;	.st500{fill:#313131;}&#xa;	.st501{fill:#7C7B7B;}&#xa;	.st502{fill:#393838;}&#xa;	.st503{fill:#414141;}&#xa;	.st504{fill:#676666;}&#xa;	.st505{fill:#6F6E6E;}&#xa;	.st506{fill:#414040;}&#xa;	.st507{fill:#7F7F7F;}&#xa;	.st508{fill:#4D4D4D;}&#xa;	.st509{fill:#6A6969;}&#xa;	.st510{fill:#6B6A6A;}&#xa;	.st511{fill:#7E7E7E;}&#xa;	.st512{fill:#787777;}&#xa;	.st513{fill:#777777;}&#xa;	.st514{fill:#D5D5D5;}&#xa;	.st515{fill:#A1A1A1;}&#xa;	.st516{fill:#848384;}&#xa;	.st517{fill:#595959;}&#xa;	.st518{fill:#575757;}&#xa;	.st519{fill:#ACACAC;}&#xa;	.st520{fill:#8A8889;}&#xa;	.st521{fill:#CFCFCF;}&#xa;	.st522{fill:#CACACA;}&#xa;	.st523{fill:#8D8D8D;}&#xa;	.st524{fill:none;stroke:#A3A3A3;stroke-width:0;stroke-linecap:round;stroke-linejoin:round;}&#xa;	.st525{fill:#4D4C4D;}&#xa;	.st526{fill:#9F9F9F;}&#xa;	.st527{fill:#8B8A8A;}&#xa;	.st528{fill:#BBBBBB;}&#xa;	.st529{fill:#5B5A5A;}&#xa;	.st530{fill:#C2C2C2;}&#xa;	.st531{fill:#A6A6A6;}&#xa;	.st532{fill:#B4B4B4;}&#xa;	.st533{fill:#C6C6C6;}&#xa;	.st534{fill:#A3A2A2;}&#xa;	.st535{fill:#B7B7B7;}&#xa;	.st536{fill:#828081;}&#xa;	.st537{fill:#AFAFAF;}&#xa;	.st538{fill:#D1D1D1;}&#xa;	.st539{fill:#D3D3D3;}&#xa;	.st540{fill:#CECECE;}&#xa;	.st541{fill:#BABABA;}&#xa;	.st542{fill:#A4A3A3;}&#xa;	.st543{fill:#E0E0E0;}&#xa;	.st544{fill:#D7D7D7;}&#xa;	.st545{fill:#B1B1B1;}&#xa;	.st546{fill:#A7A7A7;}&#xa;	.st547{fill:#D2D2D2;}&#xa;	.st548{fill:#151F34;}&#xa;	.st549{filter:url(#Adobe_OpacityMaskFilter);}&#xa;	.st550{fill:#FFFFFF;}&#xa;	.st551{mask:url(#b_1_);fill:#151F34;}&#xa;	.st552{fill:#348540;}&#xa;	.st553{fill:#7DBC42;}&#xa;	.st554{fill:#55D4F5;}&#xa;	.st555{fill:#00992C;}&#xa;	.st556{fill:#1BA442;}&#xa;	.st557{fill:#F9F9F9;}&#xa;	.st558{fill:#F8F8F8;}&#xa;	.st559{fill:#F7F7F7;}&#xa;	.st560{fill:#F6F6F6;}&#xa;	.st561{fill:#F1F1F1;}&#xa;	.st562{fill:#F4F4F4;}&#xa;	.st563{fill:#F5F5F5;}&#xa;	.st564{fill:#EEEEEE;}&#xa;	.st565{fill:#EFEFEF;}&#xa;	.st566{fill:#FAFAFA;}&#xa;	.st567{fill:#F0F0F0;}&#xa;	.st568{fill:#E3E3E3;}&#xa;	.st569{fill:#019A2D;}&#xa;	.st570{fill:#029A2D;}&#xa;	.st571{fill:#019A2C;}&#xa;</style>&#xa;<g id="g108" transform="translate(-8.92,-8.1)">&#xa;	<path class="st555" d="m 9.9,357 c 7.6,27.3 25.1,44.6 52.2,52.2 v 0 c 12.2,0 24.3,-0.1 36.5,-0.1 73.8,0 147.5,0 221.3,0 12.6,0 25.3,0.8 37.8,-0.8 0,0 0,0 0,0 0,0 0,0 0,0 26.2,-4.4 51,-30.7 53.7,-57.1 0.2,-1.6 0.7,-2.4 1.9,-3.1 0,-47 0,-94 0,-141 -135,0 -270,0 -405,0 0,49 0,98 0,147 1.5,0.4 1.3,1.8 1.6,2.9 z m 239.8,-86.3 c 1.3,-13.8 8.8,-20.9 22.7,-21.6 1.3,-0.1 2.7,-0.1 4,0 20.2,0 30.1,13.2 24.5,32.8 -1.6,5.8 -4.8,10.6 -9.1,14.7 -4.8,4.6 -9.7,9.1 -14.5,13.7 -3,2.9 -5.4,6.2 -7,10.8 10.1,0 19.4,0.1 28.8,-0.1 2.8,0 3.6,0.8 3.6,3.6 0.1,9.7 0.2,9.7 -9.5,9.7 -13,0 -26,-0.1 -39,0.1 -3.5,0 -4.8,-0.4 -4.4,-4.6 1,-11.2 6.2,-20.2 13.8,-28.1 4.5,-4.7 9.3,-9.1 14.1,-13.4 6.6,-5.9 7.5,-13.4 6.4,-21.5 -0.6,-3.9 -3.1,-6.2 -7.1,-6.6 -3.8,-0.3 -6.9,1 -8.6,4.6 -1.3,2.6 -1.9,5.5 -1.7,8.2 0.2,3.7 -1.6,4.1 -4.5,3.9 -2.3,-0.2 -4.7,0 -7,0 -6.1,0 -6.1,0 -5.5,-6.2 z m -60.5,-22.5 c 12,0.4 24,-1.2 35.9,0.9 9.8,1.8 14.5,7.4 15.8,17.9 1.2,10 -2.7,17.6 -11.3,21.6 0.2,0.2 0.4,0.6 0.6,0.7 12.3,6.7 15.7,14.5 12.4,28.3 -2.5,10.4 -11.2,16.5 -23.7,16.7 -9.5,0.1 -19,0 -28.5,0.1 -2.6,0 -3.4,-0.7 -3.4,-3.3 0.1,-26.5 0,-52.9 0.1,-79.4 0,-1.5 -0.6,-3.6 2.1,-3.5 z m -64.4,-0.1 c 7.5,0.3 15,0.1 22.5,0.1 16.6,0 25.5,7.3 27.9,23.7 2,13.4 1.9,26.9 -0.6,40.2 -2.9,15.1 -11.3,22.1 -26.6,22.2 -8.3,0.1 -16.6,-0.1 -25,0.1 -3.1,0.1 -4,-0.8 -3.9,-3.9 0.2,-13.1 0.1,-26.3 0.1,-39.4 0,-12.5 0.3,-25 -0.1,-37.4 -0.3,-4.8 1.3,-5.8 5.7,-5.6 z" id="path4" style="fill:#00992c"/>&#xa;	<path d="m 16,205.5 c 18.3,0 36.6,0 55,0 110.8,0 221.5,0 332.3,0 3.4,0 7.1,-0.8 10.1,1.6 0,-46.7 0,-93.3 0,-140 C 412.8,66 411.7,65 411.5,63.8 406.2,32.8 387.8,14 357.9,5.8 357.7,5.7 357.6,5.3 357.4,5 260.1,5 162.7,5 65.4,5 64.6,6.7 62.8,6.3 61.5,6.7 34.8,14.4 17.7,31.6 10,58.2 c -0.4,1.3 0,3.1 -1.7,3.9 0,48.3 0,96.7 0,145 2.3,-1.9 5,-1.6 7.7,-1.6 z m 115.6,-28.8 c -0.1,2.2 0.6,4.6 -3.3,4.4 -7.1,-0.3 -14.3,-0.1 -21.5,-0.1 -7.3,0 -14.7,-0.2 -22,0.1 -3.6,0.1 -3.6,-1.5 -3.6,-4.2 0,-2.6 0,-4.2 3.5,-4.2 14.5,0.2 29,0.2 43.4,0 3.4,0.1 3.6,1.6 3.5,4 z m 60.8,4.3 c -17,0.2 -33.9,0 -50.9,0.1 -3,0 -3.8,-1 -3.5,-3.7 0.3,-2 -1,-4.6 3.1,-4.6 22.8,0.2 45.5,0.1 69.5,0.1 -5.7,5.6 -11.6,8 -18.2,8.1 z m 25.5,-22.1 c -0.2,2.6 0,6.4 -4.2,6.8 -0.8,0.1 -1.7,0 -2.5,0 -22.8,0 -45.6,0 -68.3,0 -2.9,0 -4.9,0.2 -4.9,-4 0,-4.1 1.5,-4.5 4.9,-4.5 11.8,0.2 23.6,0.1 35.4,0.1 11.8,0 23.6,-0.1 35.4,0.1 1.5,0.1 4.5,-1.2 4.2,1.5 z m -43.7,-57.5 c 0.2,2 0.4,4.1 -2.8,3.8 -2.6,-0.2 -5.3,0 -8,0 -2,0 -4,0 -6,0 -4.8,0 -6.2,-2.1 -5,-6.7 0.4,-1.7 1.5,-1.5 2.6,-1.5 5.5,0 11,0.1 16.4,-0.1 4,-0.1 2.6,2.6 2.8,4.5 z m 0.3,45.3 c 0.1,2.2 0.4,4.4 -3.1,4.1 -2.6,-0.2 -5.3,0 -7.9,0 -2,0 -4,-0.3 -5.9,0.1 -4.9,0.9 -5.5,-1.7 -5.2,-5.6 0.2,-2.1 0.8,-2.9 2.9,-2.9 5.5,0.1 10.9,0.2 16.4,0 3.7,-0.1 2.7,2.4 2.8,4.3 z m -19,-11.3 c -3.5,0 -3,-2 -3,-4.2 0,-2.2 -0.4,-4.2 3.1,-4.1 16.8,0.2 33.6,0.1 50.3,0.1 5,0 5.7,4.8 7.9,8.2 -19.4,0 -38.9,-0.1 -58.3,0 z m 46.8,-15.1 c -15.1,-0.6 -30.3,-0.3 -45.4,-0.1 -3.3,0 -4.6,-0.5 -4.6,-4.2 0.1,-3.4 1.1,-4.1 4.3,-4 18.9,0.1 37.9,0.1 57.6,0.1 -2.6,5.4 -5.5,8.4 -11.9,8.2 z m 54.9,60.8 c -9.8,-0.2 -19.6,-0.2 -29.4,0 -3.6,0.1 -3,-2.1 -3,-4.2 0,-2.2 -0.4,-4.3 3.1,-4.1 4.8,0.3 9.6,0.1 14.5,0.1 5,0 10,0.2 15,-0.1 3.7,-0.2 2.9,2.2 3,4.2 -0.1,2.2 0.4,4.2 -3.2,4.1 z m 3.1,-33.1 c -0.1,2.1 -0.8,2.9 -2.9,2.8 -4.6,-0.1 -9.3,-0.2 -13.9,0 -3.1,0.1 -4.8,-0.2 -4.7,-4.1 0.1,-3.5 1.1,-4.7 4.5,-4.3 2.1,0.2 4.3,0 6.4,0 1.8,0 3.7,0.3 5.4,-0.1 5.1,-0.8 5.5,1.9 5.2,5.7 z m -2.8,-12.6 c -2.7,-0.2 -5.3,0 -8,0 -1.8,0 -3.7,-0.3 -5.5,0.1 -4.9,0.9 -5.4,-1.6 -5.2,-5.6 0.2,-2.3 1,-2.7 3.1,-2.7 5.2,0.1 10.3,0.2 15.5,0 3.3,-0.2 3,1.9 2.8,3.8 -0.1,1.8 1.2,4.6 -2.7,4.4 z m 24.6,45.5 c -1.4,-2.5 -3,-5 -2.1,-7.7 0.2,-0.5 3.7,-0.7 4,-0.1 1.7,2.8 -0.9,5.1 -1.9,7.8 z m 1.3,-15.1 c -2.9,-0.5 -6.6,1.7 -8,-3.3 -1.1,-3.9 -1.1,-5.9 3.7,-5.1 1,0.2 2,0 3,0 0.7,0 1.4,-0.2 2,0 1.8,0.7 5.4,-1.9 5.2,1.9 -0.3,3 -0.4,7.5 -5.9,6.5 z m 10.7,-21.6 c -0.3,2.6 0,7.1 -5.3,6.7 -4.6,-0.3 -9.3,-0.1 -14,-0.1 -1.5,0 -2.7,0 -3.6,-1.8 -2.8,-5.8 -2.4,-6.5 4,-6.5 2.3,0 4.7,0 7,0 2.3,0 4.7,-0.3 7,0.1 1.8,0.2 5.2,-1.8 4.9,1.6 z m -3.4,-8.8 c -5.7,0 -11.3,0 -17,0 -7.3,0 -7.3,0 -8.9,-8 11.4,0 22.9,0 34.3,0 -1,8 -1,8 -8.4,8 z m 15.9,-8.2 c 2.6,0.1 5.3,0 8,0 1.8,0 3.7,0.3 5.5,-0.1 4.8,-0.9 5.5,1.5 5.2,5.6 -0.2,2.3 -1.1,2.7 -3,2.7 -5.1,-0.1 -10.3,-0.2 -15.4,0 -3.2,0.1 -3,-1.8 -2.8,-3.8 0,-1.8 -1.4,-4.6 2.5,-4.4 z m -2.8,17 c 0.5,-1.8 1.7,-1.8 3,-1.8 5.1,0 10.3,0.2 15.4,-0.1 3.5,-0.1 3,2.1 3,4.2 0,2 0.7,4.5 -2.9,4.3 -2.6,-0.2 -5.3,0 -7.9,0 -1.8,0 -3.6,0 -5.5,0 -4.9,0 -6.3,-1.9 -5.1,-6.6 z m 32.6,36.9 c -9.8,-0.2 -19.6,-0.2 -29.4,0 -3.7,0.1 -3.1,-2 -3.1,-4.1 0,-2 -0.7,-4.4 2.9,-4.2 5,0.3 10,0.1 15,0.1 4.8,0 9.7,0.2 14.5,-0.1 3.6,-0.2 3.1,2 3,4.1 -0.1,2 0.8,4.3 -2.9,4.2 z m -0.3,-15.3 c -4.8,-0.3 -9.6,-0.1 -14.4,-0.1 -4.8,0 -9.6,-0.2 -14.4,0.1 -3.8,0.2 -3.3,-2.1 -3.4,-4.5 -0.1,-2.4 0,-4.1 3.3,-4 9.6,0.2 19.3,0.2 28.9,0 3.9,-0.1 3.2,2.2 3.2,4.5 0.1,2.3 0.2,4.2 -3.2,4 z M 297,72.9 c 0.4,-2.3 0,-6.5 3.8,-6.6 12.1,-0.3 24.3,-0.2 36.4,0 3.7,0 1.6,3.2 2,5 0.5,2.1 -0.2,3.3 -2.8,3.3 -6.3,-0.2 -12.6,-0.1 -19,-0.1 -5.5,0 -11,0.1 -16.5,-0.1 -1.3,-0.1 -4.3,1.4 -3.9,-1.5 z m -4.9,15.6 c 0.4,-2.5 -0.4,-6.9 4.6,-6.9 6,0 12,0 17.9,0 7.1,0 14.3,0.2 21.4,-0.1 3.2,-0.1 3.5,1.5 3.3,3.9 -0.2,2.2 0.8,4.7 -3.2,4.5 -7,-0.3 -14,-0.1 -20.9,-0.1 -6.3,0 -12.6,0.1 -18.9,-0.1 -1.5,0.1 -4.6,1.4 -4.2,-1.2 z m 3.7,8.4 c 8.8,0 17.7,0.1 26.5,0 3.2,-0.1 3.1,1.7 2.9,3.8 -0.2,1.9 1.2,4.5 -2.7,4.5 -11.8,-0.1 -23.6,0 -35.5,0 1.4,-8.3 1.4,-8.3 8.8,-8.3 z m -13.6,21.7 c 0.3,-8.4 6.2,-6.6 11.1,-6.6 9.3,-0.1 18.7,0.2 28,-0.1 3.7,-0.1 3.7,1.6 3.9,4.4 0.2,3.2 -0.9,4 -3.9,3.8 -4.8,-0.2 -9.7,-0.2 -14.5,0 -2.4,0.1 -3.3,-0.7 -3.2,-3.5 -0.9,3.7 -3.3,3.5 -5.8,3.4 -10.7,-0.1 -21.3,-0.1 -32,0 -2.5,0 -4.9,0.1 -5,-3.9 -0.1,3.2 -1.4,4 -4,3.9 -4.8,-0.2 -9.7,-0.3 -14.5,0 -3.1,0.2 -3.7,-1.1 -3.4,-3.7 0.2,-2.1 -0.9,-4.6 3.2,-4.5 11.5,0.2 23,0.3 34.5,0 4.8,0 3.2,4.3 5.6,6.8 z m -5.5,-13.5 c -11.8,0 -23.6,-0.1 -35.3,0 -3.6,0 -2.3,-2.5 -2.4,-4.1 0,-1.7 -1.1,-4.1 2.4,-4.1 10.3,0.1 20.6,0 30.9,0.1 2.8,0 3.1,0.7 4.4,8.1 z M 224.8,69.9 c -0.2,-2.1 -0.2,-3.8 2.9,-3.8 11.5,0.2 23,-0.1 34.4,0.1 5.3,0.1 3.2,5.1 5.3,8.2 -13.8,0 -26.9,0 -40,0 -3.8,0.1 -2.5,-2.6 -2.6,-4.5 z m -0.1,16.2 c 0.2,-2.2 -0.7,-4.6 3.2,-4.6 13,0.2 26,0 38.9,0.1 2.3,0 6,5.9 4.9,7.7 -0.8,1.2 -2.1,0.6 -3.2,0.6 -6.8,0.1 -13.6,0 -20.5,0 -6.7,0 -13.3,-0.2 -20,0.1 -3,0.1 -3.5,-1.3 -3.3,-3.9 z m 3.3,71.2 c 9.8,0.2 19.6,0.2 29.3,0 3.7,-0.1 2.9,2.3 2.9,4.3 0,2.1 0.6,4.4 -3,4.2 -5,-0.2 -9.9,-0.1 -14.9,-0.1 -4.8,0 -9.6,-0.2 -14.4,0.1 -3.9,0.2 -3.2,-2.3 -3.3,-4.5 0,-2.4 0.2,-4 3.4,-4 z m -12.3,-6.4 c -2.6,0 -5.3,0 -7.9,0 -2.1,0 -4.4,-0.3 -6.4,0.1 -5.3,1 -5.5,-2.1 -5.2,-6 0.1,-1.9 0.8,-2.6 2.7,-2.6 5.6,0.1 11.2,0 16.9,0.1 4.2,0 3,3.6 3.5,5.9 0.5,2.9 -1.8,2.5 -3.6,2.5 z m 2.9,-51.4 c -0.3,2.9 0.3,6.1 -4.6,5.7 -4.9,-0.4 -9.9,-0.3 -14.9,0 -3.6,0.2 -3.4,-1.8 -3.5,-4.2 -0.1,-2.8 0.3,-4.4 3.7,-4.1 2.6,0.3 5.3,0.1 7.9,0.1 2.3,0 4.7,-0.2 6.9,0.1 1.8,0.1 4.9,-1.7 4.5,2.4 z M 218,88.3 c -0.3,2.5 -2.2,1.6 -3.5,1.6 -12.2,0.1 -24.3,0 -36.5,0 -12,0 -24,-0.1 -36,0.1 -3.5,0.1 -4,-1.2 -4.1,-4.3 -0.1,-3.2 0.8,-4.2 4.2,-4.2 23.3,0.1 46.6,0.1 69.9,0.1 3.7,0 6.4,3.1 6,6.7 z M 142.2,66.1 c 16.3,0.2 32.6,0 48.9,0.1 6.9,0 12.9,2.6 18.3,7.4 -1.4,1.3 -2.6,0.8 -3.6,0.8 -21.1,0 -42.2,-0.1 -63.3,0.1 -3.4,0 -4.5,-0.7 -4.5,-4.3 0,-3.4 1,-4.1 4.2,-4.1 z m -58,0 c 14.8,0.2 29.5,0.2 44.3,0 4.1,-0.1 2.9,2.5 3.1,4.6 0.3,2.6 -0.3,3.9 -3.4,3.8 -7.3,-0.2 -14.6,-0.1 -21.9,-0.1 -7.3,0 -14.6,-0.2 -21.9,0.1 -3.5,0.1 -3.1,-1.9 -3,-4.1 0.1,-1.9 -1,-4.3 2.8,-4.3 z m 0.6,15.4 c 14.5,0.2 29,0.2 43.5,0 3.8,-0.1 3.2,2.2 3.3,4.5 0.1,2.4 0,4.1 -3.3,4 -7.5,-0.2 -15,-0.1 -22.5,-0.1 -7,0 -14,-0.2 -21,0.1 -3.6,0.2 -3.5,-1.7 -3.5,-4.2 0,-2.6 -0.1,-4.4 3.5,-4.3 z m 29.4,69.4 c -2.6,-0.2 -5.3,0 -7.9,0 -2.1,0 -4.3,0 -6.4,0 -4,0 -6,-3.3 -4.4,-7.2 0.6,-1.5 1.8,-1.2 2.9,-1.2 5.3,0 10.6,0.1 15.9,-0.1 3.6,-0.1 3,2.2 3,4.3 -0.2,2 0.5,4.4 -3.1,4.2 z m 2.9,-49.8 c 0.1,2.3 0.3,4.4 -3.1,4 -2.6,-0.3 -5.3,-0.1 -8,-0.1 -1.8,0 -3.7,-0.3 -5.5,0.1 -4.6,0.8 -5.7,-1.3 -5.3,-5.4 0.2,-2.2 0.9,-2.8 2.9,-2.8 5.3,0.1 10.6,0.2 15.9,0 3.7,-0.1 3,2.2 3.1,4.2 z m 0,15.3 c 0.2,2 0.4,4.1 -2.8,3.8 -2.6,-0.2 -5.3,0 -8,0 -2,0 -4,-0.3 -6,0.1 -5.1,1 -5.2,-2 -5,-5.7 0.1,-2 0.7,-2.6 2.6,-2.6 5.5,0.1 11,0.1 16.4,0 3.9,-0.2 2.6,2.5 2.8,4.4 z m 0.1,16.4 c -0.1,1.9 -0.8,2.6 -2.6,2.6 -5.5,-0.1 -10.9,-0.1 -16.4,0 -3.8,0.1 -2.6,-2.5 -2.7,-4.4 -0.1,-2 -0.5,-4.1 2.8,-3.8 2.6,0.2 5.3,0 8,0 2,0 4,0.3 6,-0.1 4.9,-0.9 5.1,1.9 4.9,5.7 z m -35.9,28.8 c 0,-2.5 -0.2,-4.3 3.5,-4.3 14.5,0.2 29,0.2 43.5,0 3.8,-0.1 3.3,2.1 3.3,4.5 0.1,2.4 0.1,4.1 -3.3,4 -7.3,-0.2 -14.6,-0.1 -22,-0.1 -7.2,0 -14.3,-0.2 -21.5,0.1 -3.5,0.2 -3.5,-1.6 -3.5,-4.2 z" id="path6"/>&#xa;	<path d="m 403.2,205.5 c -110.8,0 -221.5,0 -332.3,0 -18.3,0 -36.6,0 -55,0 -2.6,0 -5.4,-0.3 -7.6,1.6 135,0 270,0 405,0 -3,-2.4 -6.7,-1.6 -10.1,-1.6 z" id="path8"/>&#xa;	<path class="st556" d="m 355.3,409.2 c -2.4,0.5 -4.8,0.4 -7.2,0.4 -94.6,0 -189.3,0 -283.9,0 -0.6,0 -1.1,-0.1 -1.7,-0.1 0,0.1 0.1,0.1 0,0.2 -0.1,0.3 -0.2,0.4 -0.3,0.4 97.7,0 195.3,0 293,0 0.1,-0.4 0.1,-0.7 0.1,-0.9 z" id="path10" style="fill:#1ba442"/>&#xa;	<path class="st556" d="m 357.7,408.3 c 0,0 0,0 0,0 -12.6,1.6 -25.2,0.8 -37.8,0.8 -73.8,0.1 -147.5,0 -221.3,0 -12.2,0 -24.3,0.1 -36.5,0.1 v 0 c 0.3,0.1 0.4,0.2 0.5,0.3 0.6,0 1.1,0.1 1.7,0.1 94.6,0 189.3,0 283.9,0 2.4,0 4.8,0.1 7.2,-0.4 0.2,-0.9 1.7,-0.4 2.3,-0.9 z" id="path12" style="fill:#1ba442"/>&#xa;	<path class="st556" d="m 355.7,409.1 c -0.1,0 -0.2,0 -0.3,0.1 -0.1,0.2 -0.1,0.5 0,0.9 0.4,-0.3 0.9,-0.6 1.3,-1 -0.4,0 -0.7,0 -1,0 z" id="path14" style="fill:#1ba442"/>&#xa;	<path class="st556" d="m 355.3,409.2 c 0.1,0 0.2,0 0.3,-0.1 0.3,0 0.6,0 0.9,0 0.4,-0.3 0.7,-0.6 1.1,-0.8 -0.5,0.5 -2,0 -2.3,0.9 z" id="path16" style="fill:#1ba442"/>&#xa;	<path class="st556" d="m 62.6,409.7 c 0,-0.1 0,-0.2 0,-0.2 -0.2,0 -0.3,0 -0.5,0 0,0.2 0.1,0.4 0.2,0.6 0.1,0 0.2,-0.1 0.3,-0.4 z" id="path18" style="fill:#1ba442"/>&#xa;	<path class="st556" d="m 62.1,409.5 c 0.2,0 0.3,0 0.5,0 -0.1,-0.1 -0.2,-0.2 -0.5,-0.3 0,0.1 0,0.2 0,0.3 z" id="path20" style="fill:#1ba442"/>&#xa;	<path class="st1" d="m 190.4,334.4 c 9.5,-0.1 19,0 28.5,-0.1 12.5,-0.1 21.2,-6.3 23.7,-16.7 3.3,-13.8 -0.1,-21.6 -12.4,-28.3 -0.3,-0.1 -0.4,-0.5 -0.6,-0.7 8.6,-4.1 12.6,-11.7 11.3,-21.6 -1.3,-10.5 -6,-16.1 -15.8,-17.9 -11.9,-2.1 -23.9,-0.5 -35.9,-0.9 -2.8,-0.1 -2.2,2 -2.2,3.5 0,26.5 0,52.9 -0.1,79.4 0.1,2.6 1,3.3 3.5,3.3 z m 34.9,-26.5 c 0.4,10 -9.6,17.3 -19.2,14 -1.5,-0.5 -1.5,-1.6 -1.5,-2.7 0,-6.8 -0.1,-13.7 0,-20.5 0.1,-5.3 4.5,-1.4 5.7,-2.9 10.4,0.1 14.6,3.7 15,12.1 z M 209.5,261 c 10.8,0.2 14.4,3.7 13.8,12.8 -0.5,7.2 -10.9,13.1 -17.5,10 -1.5,-0.7 -1.1,-1.9 -1.2,-3 0,-4.7 0.2,-9.3 -0.1,-14 -0.2,-4.4 0.5,-7.4 5,-5.8 z" id="path22" style="fill:#fefefe"/>&#xa;	<path class="st1" d="m 119.1,291.1 c 0,13.1 0.1,26.3 -0.1,39.4 0,3.1 0.8,4 3.9,3.9 8.3,-0.2 16.6,0 25,-0.1 15.3,-0.1 23.8,-7.1 26.6,-22.2 2.5,-13.4 2.6,-26.8 0.6,-40.2 -2.4,-16.4 -11.2,-23.7 -27.9,-23.7 -7.5,0 -15,0.2 -22.5,-0.1 -4.4,-0.2 -6,0.8 -5.8,5.6 0.4,12.4 0.2,24.9 0.2,37.4 z m 21.7,-30.2 c 11.5,0 15.6,2.7 17,13.7 1.5,11.7 1.7,23.6 -0.4,35.3 -1.7,9.7 -9.4,14.3 -18.9,12 -2.6,-0.6 -1.8,-2.4 -1.8,-3.9 -0.1,-9 0,-18 0,-27 0,-8.7 0.2,-17.3 -0.1,-26 -0.2,-3.4 1,-4.1 4.2,-4.1 z" id="path24" style="fill:#fefefe"/>&#xa;	<path class="st1" d="m 255.1,276.9 c 2.3,0 4.7,-0.1 7,0 2.9,0.2 4.7,-0.2 4.5,-3.9 -0.2,-2.8 0.5,-5.6 1.7,-8.2 1.8,-3.6 4.9,-4.9 8.6,-4.6 4,0.3 6.5,2.7 7.1,6.6 1.2,8.1 0.2,15.6 -6.4,21.5 -4.8,4.3 -9.6,8.8 -14.1,13.4 -7.6,7.8 -12.8,16.8 -13.8,28.1 -0.4,4.2 0.9,4.6 4.4,4.6 13,-0.2 26,-0.1 39,-0.1 9.7,0 9.6,0 9.5,-9.7 0,-2.8 -0.8,-3.7 -3.6,-3.6 -9.3,0.2 -18.6,0.1 -28.8,0.1 1.6,-4.6 4,-7.9 7,-10.8 4.8,-4.6 9.7,-9.1 14.5,-13.7 4.3,-4.1 7.4,-8.9 9.1,-14.7 5.5,-19.6 -4.3,-32.8 -24.5,-32.8 -1.3,0 -2.7,0 -4,0 -13.9,0.7 -21.4,7.8 -22.7,21.6 -0.5,6.2 -0.5,6.2 5.5,6.2 z" id="path26" style="fill:#fefefe"/>&#xa;	<path class="st557" d="m 213.7,157.5 c -11.8,-0.1 -23.6,-0.1 -35.4,-0.1 -11.8,0 -23.6,0.1 -35.4,-0.1 -3.4,-0.1 -4.9,0.4 -4.9,4.5 0,4.2 2,4 4.9,4 22.8,-0.1 45.6,0 68.3,0 0.8,0 1.7,0.1 2.5,0 4.3,-0.4 4,-4.3 4.2,-6.8 0.3,-2.8 -2.7,-1.5 -4.2,-1.5 z" id="path28" style="fill:#f9f9f9"/>&#xa;	<path class="st557" d="m 142.2,81.5 c -3.3,0 -4.2,1 -4.2,4.2 0,3.1 0.6,4.3 4.1,4.3 12,-0.2 24,-0.1 36,-0.1 12.2,0 24.3,0 36.5,0 1.3,0 3.2,0.9 3.5,-1.6 0.4,-3.5 -2.3,-6.7 -5.9,-6.7 -23.4,0 -46.7,0 -70,-0.1 z" id="path30" style="fill:#f9f9f9"/>&#xa;	<path class="st46" d="m 242.1,111.9 c -4,-0.1 -2.9,2.4 -3.2,4.5 -0.3,2.6 0.3,3.9 3.4,3.7 4.8,-0.3 9.7,-0.2 14.5,0 2.6,0.1 3.9,-0.7 4,-3.9 0.1,4 2.4,3.9 5,3.9 10.7,-0.1 21.3,-0.1 32,0 2.5,0 5,0.3 5.8,-3.4 -0.1,2.8 0.9,3.6 3.2,3.5 4.8,-0.2 9.7,-0.2 14.5,0 3,0.2 4.1,-0.7 3.9,-3.8 -0.1,-2.8 -0.1,-4.6 -3.9,-4.4 -9.3,0.3 -18.7,0.1 -28,0.1 -4.9,0 -10.9,-1.8 -11.1,6.6 -2.5,-2.4 -0.8,-6.8 -5.7,-6.7 -11.4,0.1 -22.9,0.1 -34.4,-0.1 z" id="path32" style="fill:#fcfcfc"/>&#xa;	<path class="st196" d="m 141.1,172.8 c -4.1,0 -2.8,2.5 -3.1,4.6 -0.4,2.7 0.5,3.7 3.5,3.7 17,-0.1 33.9,0 50.9,-0.1 6.6,-0.1 12.5,-2.5 18.3,-8.1 -24,0 -46.8,0.1 -69.6,-0.1 z" id="path34" style="fill:#fdfdfd"/>&#xa;	<path class="st196" d="m 142.4,74.5 c 21.1,-0.2 42.2,-0.1 63.3,-0.1 1.1,0 2.3,0.4 3.6,-0.8 -5.4,-4.8 -11.4,-7.3 -18.3,-7.4 -16.3,-0.1 -32.6,0.1 -48.9,-0.1 -3.2,0 -4.2,0.7 -4.3,4.1 0.1,3.6 1.2,4.4 4.6,4.3 z" id="path36" style="fill:#fdfdfd"/>&#xa;	<path class="st46" d="m 156.6,111.9 c -3.2,0 -4.2,0.7 -4.3,4 -0.1,3.7 1.3,4.3 4.6,4.2 15.1,-0.2 30.3,-0.4 45.4,0.1 6.4,0.2 9.3,-2.7 11.9,-8.3 -19.7,0.1 -38.6,0.1 -57.6,0 z" id="path38" style="fill:#fcfcfc"/>&#xa;	<path class="st46" d="m 213.8,135.4 c -2.3,-3.4 -2.9,-8.2 -7.9,-8.2 -16.8,0 -33.6,0.1 -50.3,-0.1 -3.5,0 -3.1,2 -3.1,4.1 0,2.1 -0.5,4.2 3,4.2 19.4,-0.1 38.9,0 58.3,0 z" id="path40" style="fill:#fcfcfc"/>&#xa;	<path class="st558" d="m 84.9,165.8 c 7.1,-0.3 14.3,-0.1 21.5,-0.1 7.3,0 14.7,-0.2 22,0.1 3.3,0.1 3.4,-1.6 3.3,-4 -0.1,-2.3 0.5,-4.5 -3.3,-4.5 -14.5,0.2 -29,0.2 -43.5,0 -3.7,-0.1 -3.5,1.8 -3.5,4.3 -0.1,2.6 -0.1,4.4 3.5,4.2 z" id="path42" style="fill:#f8f8f8"/>&#xa;	<path class="st558" d="m 84.8,90 c 7,-0.3 14,-0.1 21,-0.1 7.5,0 15,-0.2 22.5,0.1 3.3,0.1 3.4,-1.5 3.3,-4 -0.1,-2.3 0.5,-4.5 -3.3,-4.5 -14.5,0.2 -29,0.2 -43.5,0 -3.6,-0.1 -3.5,1.7 -3.5,4.2 0,2.6 -0.1,4.4 3.5,4.3 z" id="path44" style="fill:#f8f8f8"/>&#xa;	<path class="st559" d="m 296.3,89.8 c 6.3,0.2 12.6,0.1 18.9,0.1 7,0 14,-0.2 20.9,0.1 4,0.2 3,-2.3 3.2,-4.5 0.2,-2.4 0,-4 -3.3,-3.9 -7.1,0.2 -14.3,0.1 -21.4,0.1 -6,0 -12,0 -17.9,0 -4.9,0 -4.2,4.4 -4.6,6.9 -0.4,2.5 2.7,1.2 4.2,1.2 z" id="path46" style="fill:#f7f7f7"/>&#xa;	<path class="st560" d="m 228.2,90 c 6.6,-0.2 13.3,-0.1 20,-0.1 6.8,0 13.6,0 20.5,0 1.1,0 2.4,0.6 3.2,-0.6 1.1,-1.7 -2.6,-7.7 -4.9,-7.7 -13,0 -26,0.1 -38.9,-0.1 -3.9,-0.1 -3.1,2.4 -3.2,4.6 -0.4,2.6 0.1,4 3.3,3.9 z" id="path48" style="fill:#f6f6f6"/>&#xa;	<path class="st196" d="m 128.3,172.8 c -14.5,0.2 -29,0.2 -43.4,0 -3.6,-0.1 -3.5,1.6 -3.5,4.2 0,2.6 0,4.3 3.6,4.2 7.3,-0.3 14.6,-0.1 22,-0.1 7.2,0 14.3,-0.2 21.5,0.1 3.9,0.2 3.1,-2.2 3.3,-4.4 -0.1,-2.5 -0.3,-4 -3.5,-4 z" id="path50" style="fill:#fdfdfd"/>&#xa;	<path class="st46" d="m 84.4,74.5 c 7.3,-0.3 14.6,-0.1 21.9,-0.1 7.3,0 14.6,-0.1 21.9,0.1 3.1,0.1 3.7,-1.2 3.4,-3.8 -0.2,-2.1 1,-4.7 -3.1,-4.6 -14.8,0.2 -29.5,0.2 -44.3,0 -3.8,0 -2.7,2.3 -2.8,4.3 -0.1,2.2 -0.5,4.2 3,4.1 z" id="path52" style="fill:#fcfcfc"/>&#xa;	<path class="st46" d="m 301,74.4 c 5.5,0.2 11,0.1 16.5,0.1 6.3,0 12.6,-0.1 19,0.1 2.6,0.1 3.3,-1.2 2.8,-3.3 -0.4,-1.7 1.7,-4.9 -2,-5 -12.1,-0.2 -24.3,-0.2 -36.4,0 -3.8,0.1 -3.4,4.3 -3.8,6.6 -0.5,2.9 2.5,1.4 3.9,1.5 z" id="path54" style="fill:#fcfcfc"/>&#xa;	<path class="st46" d="m 227.4,74.5 c 13.1,-0.1 26.2,0 40,0 -2.1,-3.1 0,-8.1 -5.3,-8.2 -11.5,-0.2 -23,0 -34.4,-0.1 -3.1,0 -3.2,1.7 -2.9,3.8 0.1,1.8 -1.2,4.5 2.6,4.5 z" id="path56" style="fill:#fcfcfc"/>&#xa;	<path class="st561" d="m 227.9,165.8 c 4.8,-0.2 9.6,-0.1 14.4,-0.1 5,0 10,-0.2 14.9,0.1 3.6,0.2 3,-2.1 3,-4.2 0,-2 0.8,-4.4 -2.9,-4.3 -9.8,0.2 -19.6,0.2 -29.3,0 -3.2,-0.1 -3.5,1.5 -3.4,4 0.2,2.3 -0.5,4.7 3.3,4.5 z" id="path58" style="fill:#f1f1f1"/>&#xa;	<path class="st559" d="m 336.1,157.3 c -9.6,0.2 -19.3,0.2 -28.9,0 -3.3,-0.1 -3.4,1.6 -3.3,4 0.1,2.4 -0.4,4.7 3.4,4.5 4.8,-0.3 9.6,-0.1 14.4,-0.1 4.8,0 9.6,-0.2 14.4,0.1 3.4,0.2 3.3,-1.7 3.2,-4 -0.1,-2.2 0.7,-4.6 -3.2,-4.5 z" id="path60" style="fill:#f7f7f7"/>&#xa;	<path class="st46" d="m 322.5,105.2 c 3.9,0 2.5,-2.6 2.7,-4.5 0.2,-2.1 0.3,-3.8 -2.9,-3.8 -8.8,0.2 -17.7,0 -26.5,0 -7.4,0 -7.4,0 -8.8,8.2 11.9,0 23.7,-0.1 35.5,0.1 z" id="path62" style="fill:#fcfcfc"/>&#xa;	<path class="st196" d="m 241.5,96.9 c -3.5,0 -2.5,2.4 -2.4,4.1 0,1.7 -1.2,4.2 2.4,4.1 11.7,-0.1 23.5,0 35.3,0 -1.3,-7.4 -1.6,-8.1 -4.4,-8.1 -10.3,-0.1 -20.6,0 -30.9,-0.1 z" id="path64" style="fill:#fdfdfd"/>&#xa;	<path class="st46" d="m 257.3,172.8 c -5,0.3 -10,0.1 -15,0.1 -4.8,0 -9.7,0.2 -14.5,-0.1 -3.5,-0.2 -3.2,1.9 -3.1,4.1 0,2.1 -0.6,4.3 3,4.2 9.8,-0.2 19.6,-0.2 29.4,0 3.6,0.1 3.1,-2 3,-4.1 0.1,-2.1 0.8,-4.4 -2.8,-4.2 z" id="path66" style="fill:#fcfcfc"/>&#xa;	<path class="st46" d="m 336.3,172.8 c -4.8,0.3 -9.6,0.1 -14.5,0.1 -5,0 -10,0.2 -15,-0.1 -3.7,-0.2 -2.9,2.2 -2.9,4.2 0,2.1 -0.6,4.2 3.1,4.1 9.8,-0.3 19.6,-0.2 29.4,0 3.7,0.1 2.8,-2.2 2.9,-4.2 0,-2.1 0.6,-4.3 -3,-4.1 z" id="path68" style="fill:#fcfcfc"/>&#xa;	<path class="st46" d="m 273.7,135.4 c 5.7,0 11.3,0 17,0 7.5,0 7.5,0 8.4,-8 -11.4,0 -22.8,0 -34.3,0 1.6,8 1.6,8 8.9,8 z" id="path70" style="fill:#fcfcfc"/>&#xa;	<path class="st562" d="m 289.2,142.5 c -2.3,-0.4 -4.6,-0.1 -7,-0.1 -2.3,0 -4.7,0 -7,0 -6.4,0 -6.8,0.7 -4,6.5 0.9,1.8 2.1,1.8 3.6,1.8 4.7,0 9.3,-0.2 14,0.1 5.3,0.4 5,-4.1 5.3,-6.7 0.3,-3.3 -3.1,-1.3 -4.9,-1.6 z" id="path72" style="fill:#f4f4f4"/>&#xa;	<path class="st563" d="m 215.6,142.5 c -5.6,-0.1 -11.2,0 -16.9,-0.1 -1.9,0 -2.5,0.6 -2.7,2.6 -0.3,3.9 -0.1,6.9 5.2,6 2.1,-0.4 4.3,-0.1 6.4,-0.1 2.6,0 5.3,0 7.9,0 1.8,0 4.1,0.4 3.4,-2.6 -0.2,-2.3 0.9,-5.8 -3.3,-5.8 z" id="path74" style="fill:#f5f5f5"/>&#xa;	<path class="st562" d="m 171.7,142.4 c -5.4,0.2 -10.9,0.1 -16.4,0 -2.1,0 -2.8,0.7 -2.9,2.9 -0.3,3.9 0.3,6.5 5.2,5.6 1.9,-0.3 4,-0.1 5.9,-0.1 2.6,0 5.3,-0.2 7.9,0 3.5,0.3 3.2,-1.9 3.1,-4.1 -0.1,-1.9 0.9,-4.4 -2.8,-4.3 z" id="path76" style="fill:#f4f4f4"/>&#xa;	<path class="st564" d="m 114.1,142.4 c -5.3,0.2 -10.6,0 -15.9,0.1 -1.1,0 -2.3,-0.3 -2.9,1.2 -1.6,3.8 0.4,7.1 4.4,7.2 2.1,0 4.3,0 6.4,0 2.6,0 5.3,-0.2 7.9,0 3.6,0.3 2.9,-2.2 3,-4.3 0.1,-2.1 0.7,-4.4 -2.9,-4.2 z" id="path78" style="fill:#eeeeee"/>&#xa;	<path class="st563" d="m 255.2,142.4 c -1.8,0.3 -3.6,0.1 -5.4,0.1 -2.2,0 -4.3,0.2 -6.4,0 -3.4,-0.4 -4.5,0.8 -4.5,4.3 -0.1,3.9 1.6,4.3 4.7,4.1 4.6,-0.2 9.3,-0.1 13.9,0 2.1,0 2.8,-0.7 2.9,-2.8 0.2,-3.9 -0.2,-6.6 -5.2,-5.7 z" id="path80" style="fill:#f5f5f5"/>&#xa;	<path class="st565" d="m 308.9,150.8 c 1.8,0 3.6,0 5.5,0 2.6,0 5.3,-0.1 7.9,0 3.6,0.2 2.9,-2.3 2.9,-4.3 0,-2.1 0.5,-4.4 -3,-4.2 -5.1,0.2 -10.2,0.1 -15.4,0.1 -1.3,0 -2.5,-0.1 -3,1.8 -1.2,4.7 0.2,6.6 5.1,6.6 z" id="path82" style="fill:#efefef"/>&#xa;	<path class="st79" d="m 214.2,97 c -2.3,-0.2 -4.6,-0.1 -6.9,-0.1 -2.6,0 -5.3,0.2 -7.9,-0.1 -3.4,-0.4 -3.8,1.3 -3.7,4.1 0.1,2.5 -0.1,4.5 3.5,4.2 4.9,-0.3 10,-0.4 14.9,0 4.8,0.4 4.3,-2.8 4.6,-5.7 0.3,-4 -2.8,-2.2 -4.5,-2.4 z" id="path84" style="fill:#fbfbfb"/>&#xa;	<path class="st566" d="m 112.1,127.1 c -1.9,0.4 -4,0.1 -6,0.1 -2.7,0 -5.3,0.2 -8,0 -3.3,-0.3 -2.9,1.8 -2.8,3.8 0.1,1.9 -1.1,4.5 2.7,4.4 5.5,-0.2 10.9,-0.1 16.4,0 1.9,0 2.5,-0.7 2.6,-2.6 0.4,-3.8 0.2,-6.6 -4.9,-5.7 z" id="path86" style="fill:#fafafa"/>&#xa;	<path class="st79" d="m 114.4,111.9 c -5.5,0.2 -11,0.1 -16.4,0 -1.9,0 -2.5,0.6 -2.6,2.6 -0.2,3.7 -0.1,6.7 5,5.7 1.9,-0.4 4,-0.1 6,-0.1 2.7,0 5.3,-0.2 8,0 3.2,0.3 3,-1.8 2.8,-3.8 -0.3,-1.8 1,-4.5 -2.8,-4.4 z" id="path88" style="fill:#fbfbfb"/>&#xa;	<path class="st79" d="m 171.5,96.9 c -5.5,0.2 -11,0 -16.4,0.1 -1.1,0 -2.2,-0.2 -2.6,1.5 -1.2,4.6 0.2,6.6 5,6.7 2,0 4,0 6,0 2.7,0 5.3,-0.2 8,0 3.2,0.3 3,-1.8 2.8,-3.8 -0.3,-1.9 1.1,-4.6 -2.8,-4.5 z" id="path90" style="fill:#fbfbfb"/>&#xa;	<path class="st79" d="m 114.1,96.9 c -5.3,0.2 -10.6,0.1 -15.9,0 -2.1,0 -2.7,0.6 -2.9,2.8 -0.4,4.2 0.7,6.3 5.3,5.4 1.8,-0.3 3.6,-0.1 5.5,-0.1 2.7,0 5.3,-0.2 8,0.1 3.4,0.3 3.2,-1.8 3.1,-4 -0.2,-2 0.5,-4.3 -3.1,-4.2 z" id="path92" style="fill:#fbfbfb"/>&#xa;	<path class="st566" d="m 306.8,135.4 c 5.1,-0.2 10.3,-0.1 15.4,0 2,0 2.9,-0.4 3,-2.7 0.3,-4 -0.4,-6.5 -5.2,-5.6 -1.8,0.3 -3.6,0.1 -5.5,0.1 -2.7,0 -5.3,0.1 -8,0 -3.8,-0.2 -2.5,2.6 -2.7,4.5 -0.1,1.9 -0.3,3.9 3,3.7 z" id="path94" style="fill:#fafafa"/>&#xa;	<path class="st79" d="m 257.4,127.1 c -5.2,0.2 -10.3,0.1 -15.5,0 -2,0 -2.9,0.4 -3.1,2.7 -0.3,3.9 0.3,6.5 5.2,5.6 1.8,-0.3 3.7,-0.1 5.5,-0.1 2.7,0 5.3,-0.1 8,0 3.9,0.2 2.5,-2.6 2.7,-4.4 0.2,-1.9 0.5,-3.9 -2.8,-3.8 z" id="path96" style="fill:#fbfbfb"/>&#xa;	<path class="st567" d="m 284,157.4 c -0.6,-0.2 -1.3,0 -2,0 -1,0 -2,0.1 -3,0 -4.8,-0.8 -4.8,1.2 -3.7,5.1 1.4,5 5.1,2.8 8,3.3 5.5,1 5.6,-3.5 5.8,-6.5 0.3,-3.7 -3.3,-1.2 -5.1,-1.9 z" id="path98" style="fill:#f0f0f0"/>&#xa;	<path class="st568" d="m 279.9,173.1 c -0.9,2.8 0.8,5.2 2.1,7.7 1,-2.6 3.6,-4.9 1.9,-7.9 -0.3,-0.5 -3.8,-0.3 -4,0.2 z" id="path100" style="fill:#e3e3e3"/>&#xa;	<path class="st569" d="m 210.3,295.8 c -1.3,1.5 -5.7,-2.5 -5.7,2.9 -0.1,6.8 0,13.7 0,20.5 0,1.2 0,2.2 1.5,2.7 9.5,3.4 19.6,-3.9 19.2,-14 -0.4,-8.4 -4.6,-12 -15,-12.1 z" id="path102" style="fill:#019a2d"/>&#xa;	<path class="st570" d="m 204.6,280.8 c 0,1.1 -0.3,2.3 1.2,3 6.5,3.1 17,-2.8 17.5,-10 0.6,-9.2 -2.9,-12.7 -13.8,-12.8 -4.5,-1.5 -5.2,1.5 -4.9,5.9 0.2,4.6 0,9.3 0,13.9 z" id="path104" style="fill:#029a2d"/>&#xa;	<path class="st571" d="m 136.6,291 c 0,9 0,18 0,27 0,1.5 -0.7,3.3 1.8,3.9 9.5,2.3 17.2,-2.2 18.9,-12 2.1,-11.7 1.9,-23.6 0.4,-35.3 -1.4,-11 -5.5,-13.7 -17,-13.7 -3.2,0 -4.3,0.7 -4.3,4.1 0.4,8.7 0.2,17.4 0.2,26 z" id="path106" style="fill:#019a2c"/>&#xa;</g>&#xa;</svg>