<svg xmlns="http://www.w3.org/2000/svg" xmlns:xlink="http://www.w3.org/1999/xlink" height="825" width="725" version="1.1" id="Layer_1" viewBox="24 -8 464 528" xml:space="preserve">&#xa;<path style="fill:#E2E5E7;" d="M128,0c-17.6,0-32,14.4-32,32v448c0,17.6,14.4,32,32,32h320c17.6,0,32-14.4,32-32V128L352,0H128z"/>&#xa;<path style="fill:#B0B7BD;" d="M384,128h96L352,0v96C352,113.6,366.4,128,384,128z"/>&#xa;<polygon style="fill:#CAD1D8;" points="480,224 384,128 480,128"/>&#xa;<path style="fill:#a066aa;" d="M416,416c0,8.8-7.2,16-16,16H48c-8.8,0-16-7.2-16-16V256c0-8.8,7.2-16,16-16h352c8.8,0,16,7.2,16,16 V416z"/>&#xa;&#xa;<g stroke="#FFFFFF" stroke-width="16" fill="none" stroke-linecap="round" stroke-linejoin="round">&#xa;    <path d="M 129,300 V 349 A 23,23 0 0,1 83,349"/>&#xa;    <path d="M 205,300 H 173 A 18,18 0 0,0 155,318 A 18,18 0 0,0 173,336 H 187 A 18,18 0 0,1 205,354 A 18,18 0 0,1 187,372 H 155"/>&#xa;    <rect x="231" y="300" width="54" height="72" rx="27"/>&#xa;    <path d="M 311,372 V 300 M 311,300 L 365,372 M 365,372 V 300"/>&#xa;</g>&#xa;&#xa;<path style="fill:#CAD1D8;" d="M400,432H96v16h304c8.8,0,16-7.2,16-16v-16C416,424.8,408.8,432,400,432z"/>&#xa;</svg>