<svg xmlns="http://www.w3.org/2000/svg" height="28" viewBox="128 128 1792 1792" width="28"><path class="OfficeIconColors_HighContrast" d="M 1920 128 v 1792 h -1792 v -1792 m 480 1536 q 60 0 113 -22 q 52 -23 91 -62 q 39 -39 62 -91 q 22 -53 22 -113 q 0 -60 -22 -112 q -23 -53 -62 -92 q -39 -39 -91 -61 q -53 -23 -113 -23 q -60 0 -112 23 q -53 22 -92 61 q -39 39 -61 92 q -23 52 -23 112 q 0 60 23 113 q 22 52 61 91 q 39 39 92 62 q 52 22 112 22 m 352 -960 h -640 v 256 h 640 m 0 -640 h -640 v 256 h 640 m 768 -256 h -640 v 256 h 640 m 0 128 h -640 v 256 h 640 m 0 128 h -640 v 256 h 640 z" style="display: none !important"/><path class="OfficeIconColors_m20" d="M 192 1856 v -1664 h 1664 v 1664 z" style="fill:rgb(250,250,250)"/><path class="OfficeIconColors_m273" d="M 1920 128 v 1792 h -1792 v -1792 m 480 1536 q 60 0 113 -22 q 52 -23 91 -62 q 39 -39 62 -91 q 22 -53 22 -113 q 0 -60 -22 -112 q -23 -53 -62 -92 q -39 -39 -91 -61 q -53 -23 -113 -23 q -60 0 -112 23 q -53 22 -92 61 q -39 39 -61 92 q -23 52 -23 112 q 0 60 23 113 q 22 52 61 91 q 39 39 92 62 q 52 22 112 22 m 352 -960 h -640 v 256 h 640 m 0 -640 h -640 v 256 h 640 m 768 -256 h -640 v 256 h 640 m 0 128 h -640 v 256 h 640 m 0 128 h -640 v 256 h 640 z" style="fill:rgb(244,132,11)"/></svg>