<svg xmlns="http://www.w3.org/2000/svg" height="28" viewBox="2 2 28.000999450683594 28" width="28.000999450683594"><path class="OfficeIconColors_HighContrast" d="M25.5,19c-2.314,0-4.198,1.753-4.45,4h-6.076C14.731,19.81,12.19,17.269,9,17.025V10.95&#10;&#9;c2.247-0.252,4-2.136,4-4.45C13,4.015,10.985,2,8.5,2S4,4.015,4,6.5c0,2.314,1.753,4.198,4,4.45v6.076c-3.355,0.256-6,3.054-6,6.475&#10;&#9;C2,27.09,4.91,30,8.5,30c3.421,0,6.219-2.645,6.475-6h6.076c0.252,2.247,2.136,4,4.45,4c2.485,0,4.5-2.015,4.5-4.5&#10;&#9;S27.985,19,25.5,19z M4.9,6.5c0-1.985,1.615-3.6,3.6-3.6s3.6,1.615,3.6,3.6s-1.615,3.6-3.6,3.6S4.9,8.485,4.9,6.5z M8.5,29.071&#10;&#9;c-3.072,0-5.571-2.499-5.571-5.571s2.499-5.571,5.571-5.571s5.571,2.499,5.571,5.571S11.572,29.071,8.5,29.071z M25.5,27.1&#10;&#9;c-1.985,0-3.6-1.615-3.6-3.6s1.615-3.6,3.6-3.6s3.6,1.615,3.6,3.6S27.485,27.1,25.5,27.1z" style="display: none !important"/><path class="OfficeIconColors_m20" d="M8.5,2.45c2.237,0,4.05,1.813,4.05,4.05s-1.813,4.05-4.05,4.05S4.45,8.737,4.45,6.5S6.263,2.45,8.5,2.45z&#10;&#9; M25.5,19.45c2.237,0,4.05,1.813,4.05,4.05s-1.813,4.05-4.05,4.05s-4.05-1.813-4.05-4.05S23.263,19.45,25.5,19.45z M8.5,17.464&#10;&#9;c3.334,0,6.036,2.702,6.036,6.036s-2.702,6.036-6.036,6.036S2.464,26.834,2.464,23.5S5.166,17.464,8.5,17.464z" style="fill:rgb(250,250,250)"/><path class="OfficeIconColors_m24" d="M25.5,19c-2.314,0-4.198,1.753-4.45,4h-6.076C14.731,19.81,12.19,17.269,9,17.025V10.95&#10;&#9;c2.247-0.252,4-2.136,4-4.45C13,4.015,10.985,2,8.5,2S4,4.015,4,6.5c0,2.314,1.753,4.198,4,4.45v6.076c-3.355,0.256-6,3.054-6,6.475&#10;&#9;C2,27.09,4.91,30,8.5,30c3.421,0,6.219-2.645,6.475-6h6.076c0.252,2.247,2.136,4,4.45,4c2.485,0,4.5-2.015,4.5-4.5&#10;&#9;S27.985,19,25.5,19z M4.9,6.5c0-1.985,1.615-3.6,3.6-3.6s3.6,1.615,3.6,3.6s-1.615,3.6-3.6,3.6S4.9,8.485,4.9,6.5z M8.5,29.071&#10;&#9;c-3.072,0-5.571-2.499-5.571-5.571s2.499-5.571,5.571-5.571s5.571,2.499,5.571,5.571S11.572,29.071,8.5,29.071z M25.5,27.1&#10;&#9;c-1.985,0-3.6-1.615-3.6-3.6s1.615-3.6,3.6-3.6s3.6,1.615,3.6,3.6S27.485,27.1,25.5,27.1z" style="fill:rgb(30,139,205)"/></svg>