<svg xmlns="http://www.w3.org/2000/svg" version="1.2" viewBox="0.00014495849609375 0.08592844009399414 1508.19677734375 1510.8450927734375" width="1508.19677734375" height="1510.8450927734375">&#xa;	<title>74c4b9acc46b6a93e1f0fc230975b4836633c2b4-3840x562-svg</title>&#xa;	<style>&#xa;		.s0 { fill: #000000 } &#xa;	</style>&#xa;	<g id="#000000ff">&#xa;		<path id="Layer" class="s0" d="m653.1 7.2c142.9-20.1 291.5 2.7 422 64.5 120.5 56.5 224.9 146.2 300.6 255.7-58.8 1.2-118-3.4-176.4 5.6-74.4 10.9-146.9 40-205.1 88.3-72.8 59.4-125.5 143.2-147.2 234.8-13.5 58.2-26.9 116.4-40.3 174.5-7.8 32.6-14.2 65.6-24.6 97.5-13.8 43.3-32.8 84.9-56.5 123.6-65.1 107.1-166.7 190.9-283.4 236.1 84.6 51.2 182.3 79.8 280.8 84.9 101.3 5.3 203.9-15.7 295.1-60.3 85.7-41.5 161.5-103 220.3-177.9 65.8-83.4 110.1-183.8 125.8-289.1 16.2-105.9 2.9-215.7-36.2-315.3 48.8-0.1 97.7-0.1 146.5 0 36.9 121.3 44.1 251.9 18.6 376.2-19.6 94.4-56.7 185.2-109.9 265.5-51.8 78.3-118.2 146.7-194.7 200.8-140.8 100.4-316.9 148.9-489.1 136.4-105.5-7.4-209.3-37.6-302.4-87.8-105.2-56.8-196.9-138.8-264.6-237.6 39.2-0.4 78.5 0.4 117.7-0.4 90.7-2.7 182.4-30 254.6-86.3 70.6-54.5 123.7-131.5 149.5-217 6.9-22.5 11.3-45.5 16.8-68.3 14.1-60.9 28.1-121.9 42.2-182.8 19.7-85.4 59.2-166.1 114.9-233.7 62.7-76.5 145.6-136.3 237.8-171.8-75.8-44.9-161.1-73.5-248.8-82.5-102.6-10.5-207.9 4.5-303 44.8-93.5 39.7-177 102.9-240.6 182.3-70.8 87.6-116.7 194.9-131.1 306.8-14.2 103.1-0.2 209.4 37.5 306.2-48.8 0.2-97.7 0.1-146.5 0-19.8-64.1-30-130.8-33.4-197.8v-52.6c5.8-179 77.4-355.2 199.3-486.4 117.5-128.6 281-214.5 453.8-236.9z"/>&#xa;	</g>&#xa;</svg>