<svg xmlns="http://www.w3.org/2000/svg" height="21.876998901367188" viewBox="2 5.061000347137451 28 21.876998901367188" width="28"><path class="OfficeIconColors_HighContrast" d="M17.915,6.084l1.446,0.786l-5.724,3.657l-1.499-1.045L17.915,6.084z M18.703,10.305l-1.527-0.977&#10;&#9;L5.889,16.611l1.57,1.598L18.703,10.305z M14.641,16.899l9.452-7.457l-1.499-0.815l-9.647,6.871L14.641,16.899z M17.919,8.862&#10;&#9;L19.45,9.78l2.296-1.614L20.27,7.364L17.919,8.862z M3.739,14.422l1.345,1.37l7.863-4.858l-1.502-1.045L3.739,14.422z&#10;&#9; M13.848,17.522l-1.628-1.434l-4.055,2.84l1.65,1.68L13.848,17.522z M17.176,5.682l-1.142-0.621L2,12.652l1.149,1.169L17.176,5.682z&#10;&#9; M28.111,11.625L13.848,24.713l2.186,2.225L30,12.652L28.111,11.625z M26.961,11l-1.917-1.042l-5.518,4.488l1.973,1.409L26.961,11z&#10;&#9; M20.728,16.54l-2.025-1.423l-7.897,6.499l1.963,1.998L20.728,16.54z" style="display: none !important"/><path class="OfficeIconColors_m256" d="M17.915,6.084l1.446,0.786l-5.724,3.657l-1.499-1.045L17.915,6.084z M18.703,10.305l-1.527-0.977&#10;&#9;L5.889,16.611l1.57,1.598L18.703,10.305z M14.641,16.899l9.452-7.457l-1.499-0.815l-9.647,6.871L14.641,16.899z M17.919,8.862&#10;&#9;L19.45,9.78l2.296-1.614L20.27,7.364L17.919,8.862z M3.739,14.422l1.345,1.37l7.863-4.858l-1.502-1.045L3.739,14.422z&#10;&#9; M13.848,17.522l-1.628-1.434l-4.055,2.84l1.65,1.68L13.848,17.522z M17.176,5.682l-1.142-0.621L2,12.652l1.149,1.169L17.176,5.682z&#10;&#9; M28.111,11.625L13.848,24.713l2.186,2.225L30,12.652L28.111,11.625z M26.961,11l-1.917-1.042l-5.518,4.488l1.973,1.409L26.961,11z&#10;&#9; M20.728,16.54l-2.025-1.423l-7.897,6.499l1.963,1.998L20.728,16.54z" style="fill:rgb(29,161,242)"/></svg>