<svg xmlns="http://www.w3.org/2000/svg" width="81" height="80.99810028076172" viewBox="0 0 81 80.99810028076172" fill="none"><path d="M16.2029 32.5411C25.1514 32.5411 32.4057 25.3072 32.4057 16.3838C32.4057 7.46041 25.1514 0.226562 16.2029 0.226562C7.25427 0.226562 0 7.46041 0 16.3838C0 25.3072 7.25427 32.5411 16.2029 32.5411Z" fill="#105371"/><path d="M16.2029 80.9981C25.1514 80.9981 32.4057 73.7643 32.4057 64.8409C32.4057 55.9174 25.1514 48.6836 16.2029 48.6836C7.25427 48.6836 0 55.9174 0 64.8409C0 73.7643 7.25427 80.9981 16.2029 80.9981Z" fill="#105371"/><path d="M64.7971 80.9981C73.7457 80.9981 81 73.7643 81 64.8409C81 55.9174 73.7457 48.6836 64.7971 48.6836C55.8485 48.6836 48.5942 55.9174 48.5942 64.8409C48.5942 73.7643 55.8485 80.9981 64.7971 80.9981Z" fill="#105371"/><path d="M64.7971 32.3145C73.7457 32.3145 81 25.0807 81 16.1573C81 7.23385 73.7457 0 64.7971 0C55.8485 0 48.5942 7.23385 48.5942 16.1573C48.5942 25.0807 55.8485 32.3145 64.7971 32.3145Z" fill="#00A694"/></svg>