<svg xmlns="http://www.w3.org/2000/svg" version="1.2" viewBox="0 0 1087.8399658203125 1581.4300537109375" width="1087.8399658203125" height="1581.4300537109375">&#xa;	<title>logo (22)-svg</title>&#xa;	<style>&#xa;		tspan { white-space:pre }&#xa;		.shp0 { fill: #00263e } &#xa;	</style>&#xa;	<g id="Layer">&#xa;		<g id="Layer">&#xa;			<path id="Layer" fill-rule="evenodd" class="shp0" d="M653.41 157.64C821.78 157.64 964.03 328.49 964.03 530.74C964.03 755.89 794.37 954.67 551.45 1014.12C546.55 1015.32 541.29 1015.32 536.39 1014.12C293.47 954.67 123.82 755.89 123.82 530.74C123.82 328.49 266.06 157.64 434.43 157.64C463.76 157.64 493.61 162.7 523.17 172.72C536.59 177.26 551.24 177.27 564.69 172.71C594.23 162.7 624.08 157.64 653.41 157.64ZM849.01 508.87C860.48 482.74 858.53 452.49 843.8 427.96C829.16 403.58 803.78 388.06 775.87 386.43C734.11 383.93 697.31 397.73 669.3 426.15C629.35 466.71 614.7 531.7 608.41 559.58C604.57 576.59 568.06 734.08 543.92 838.16C519.79 734.1 483.27 576.59 479.4 559.44C473.15 531.7 458.49 466.71 418.52 426.15C390.55 397.73 353.85 383.9 311.97 386.43C284.07 388.06 258.68 403.58 244.04 427.95C229.32 452.48 227.37 482.73 238.81 508.87C252.08 539.13 272.4 563.14 299.21 580.23C322.88 595.34 349.27 603.5 377.64 604.49C389.47 604.84 399.85 595.32 400.26 583.06C400.68 570.81 391.23 560.52 379.15 560.1C358.6 559.38 339.53 553.5 322.48 542.63C303.17 530.3 288.45 512.86 278.78 490.82C273.1 477.82 274.05 463.33 281.4 451.07C288.67 438.98 300.71 431.58 314.48 430.78C343.76 429.09 368.39 438.07 387.59 457.56C418.65 489.09 431.33 545.34 436.78 569.51C440.92 587.78 482.68 767.93 506.39 870.18L513.94 902.73C517.24 916.92 529.56 926.84 543.92 926.84L543.94 926.84C558.31 926.82 570.61 916.9 573.89 902.72C594.78 812.7 646.44 589.94 651.1 569.35C656.52 545.34 669.19 489.09 700.24 457.57C719.44 438.07 743.85 429.06 773.37 430.78C787.11 431.58 799.17 438.98 806.43 451.07C813.79 463.33 814.74 477.82 809.03 490.82C799.39 512.86 784.69 530.29 765.36 542.63C748.31 553.5 729.24 559.38 708.69 560.1C696.61 560.52 687.17 570.81 687.58 583.06C687.99 595.33 698.56 604.77 710.2 604.49C738.57 603.5 764.96 595.34 788.64 580.23C815.45 563.12 835.78 539.11 849.01 508.87Z"/>&#xa;			<path id="Layer" fill-rule="evenodd" class="shp0" d="M543.92 0C844.32 0 1087.84 247.22 1087.84 552.19L1087.84 1029.24C1087.84 1334.2 844.32 1581.43 543.92 1581.43C243.52 1581.43 0 1334.2 0 1029.24L0 552.19C0 247.22 243.52 0 543.92 0ZM561.71 1057.3C824.36 993.02 1007.78 776.49 1007.78 530.74C1007.78 304.42 845.5 113.22 653.41 113.22C619.35 113.22 584.86 119.06 550.86 130.57C546.36 132.08 541.47 132.08 537 130.57C502.99 119.06 468.49 113.22 434.43 113.22C242.35 113.22 80.06 304.42 80.06 530.74C80.06 776.49 263.48 993.02 526.13 1057.3C531.93 1058.72 537.91 1059.44 543.92 1059.44C549.93 1059.44 555.91 1058.72 561.71 1057.3ZM982.05 1106.1C982.05 1093.83 972.24 1083.89 960.17 1083.89C948.09 1083.89 938.29 1093.83 938.29 1106.1L938.29 1137.1C938.29 1149.36 948.09 1159.31 960.17 1159.31C972.24 1159.31 982.05 1149.36 982.05 1137.1L982.05 1106.1ZM843.29 1176.53C843.29 1164.26 833.48 1154.33 821.41 1154.33C809.33 1154.33 799.53 1164.26 799.53 1176.53L799.53 1207.53C799.53 1219.8 809.33 1229.74 821.41 1229.74C833.48 1229.74 843.29 1219.8 843.29 1207.53L843.29 1176.53ZM843.29 1317.39C843.29 1305.12 833.48 1295.18 821.41 1295.18C809.33 1295.18 799.53 1305.12 799.53 1317.39L799.53 1348.38C799.53 1360.65 809.33 1370.59 821.41 1370.59C833.48 1370.59 843.29 1360.65 843.29 1348.38L843.29 1317.39ZM704.54 1246.96C704.54 1234.69 694.74 1224.75 682.67 1224.75C670.59 1224.75 660.79 1234.69 660.79 1246.96L660.79 1277.95C660.79 1290.23 670.59 1300.16 682.67 1300.16C694.74 1300.16 704.54 1290.23 704.54 1277.95L704.54 1246.96ZM704.54 1387.81C704.54 1375.54 694.74 1365.6 682.67 1365.6C670.59 1365.6 660.79 1375.54 660.79 1387.81L660.79 1418.8C660.79 1431.08 670.59 1441.02 682.67 1441.02C694.74 1441.02 704.54 1431.08 704.54 1418.8L704.54 1387.81ZM565.8 1176.53C565.8 1164.26 556 1154.33 543.92 1154.33C531.84 1154.33 522.04 1164.26 522.04 1176.53L522.04 1207.53C522.04 1219.8 531.84 1229.74 543.92 1229.74C556 1229.74 565.8 1219.8 565.8 1207.53L565.8 1176.53ZM565.8 1317.39C565.8 1305.12 556 1295.18 543.92 1295.18C531.84 1295.18 522.04 1305.12 522.04 1317.39L522.04 1348.38C522.04 1360.65 531.84 1370.59 543.92 1370.59C556 1370.59 565.8 1360.65 565.8 1348.38L565.8 1317.39ZM427.05 1246.96C427.05 1234.69 417.26 1224.75 405.18 1224.75C393.1 1224.75 383.3 1234.69 383.3 1246.96L383.3 1277.95C383.3 1290.23 393.1 1300.16 405.18 1300.16C417.26 1300.16 427.05 1290.23 427.05 1277.95L427.05 1246.96ZM427.05 1387.81C427.05 1375.54 417.26 1365.6 405.18 1365.6C393.1 1365.6 383.3 1375.54 383.3 1387.81L383.3 1418.8C383.3 1431.08 393.1 1441.02 405.18 1441.02C417.26 1441.02 427.05 1431.08 427.05 1418.8L427.05 1387.81ZM288.3 1176.53C288.3 1164.26 278.5 1154.33 266.42 1154.33C254.34 1154.33 244.54 1164.26 244.54 1176.53L244.54 1207.53C244.54 1219.8 254.34 1229.74 266.42 1229.74C278.5 1229.74 288.3 1219.8 288.3 1207.53L288.3 1176.53ZM288.3 1317.39C288.3 1305.12 278.5 1295.18 266.42 1295.18C254.34 1295.18 244.54 1305.12 244.54 1317.39L244.54 1348.38C244.54 1360.65 254.34 1370.59 266.42 1370.59C278.5 1370.59 288.3 1360.65 288.3 1348.38L288.3 1317.39ZM149.55 965.25C149.55 952.98 139.75 943.04 127.67 943.04C115.6 943.04 105.8 952.98 105.8 965.25L105.8 996.24C105.8 1008.51 115.6 1018.46 127.67 1018.46C139.75 1018.46 149.55 1008.51 149.55 996.24L149.55 965.25ZM149.55 1106.1C149.55 1093.83 139.75 1083.89 127.67 1083.89C115.6 1083.89 105.8 1093.83 105.8 1106.1L105.8 1137.1C105.8 1149.36 115.6 1159.31 127.67 1159.31C139.75 1159.31 149.55 1149.36 149.55 1137.1L149.55 1106.1ZM982.05 965.25C982.05 952.98 972.24 943.04 960.17 943.04C948.09 943.04 938.29 952.98 938.29 965.25L938.29 996.24C938.29 1008.51 948.09 1018.46 960.17 1018.46C972.24 1018.46 982.05 1008.51 982.05 996.24L982.05 965.25Z"/>&#xa;		</g>&#xa;		<g id="Layer">&#xa;		</g>&#xa;	</g>&#xa;</svg>