<svg xmlns="http://www.w3.org/2000/svg" height="18.0078125" viewBox="102 102 1844 1844" width="18.0078125"><path class="OfficeIconColors_HighContrast" d="M 1525 102 q 105 0 184 29 q 78 28 131 73 q 53 45 80 100 q 26 54 26 106 v 307 h -308 v 998 q 0 48 -23 90 q -23 42 -60 74 q -38 31 -84 49 q -47 18 -94 18 h -1070 q -37 0 -73 -20 q -37 -20 -66 -56 q -30 -37 -48 -88 q -18 -51 -18 -113 v -235 h 308 v -1101 q 4 -45 24 -86 q 19 -42 48 -74 q 29 -33 64 -52 q 34 -19 68 -19 m 468 1741 q -25 -33 -41 -76 q -17 -44 -17 -98 v -133 h -819 v 131 q 1 44 12 77 q 11 33 27 55 q 15 22 33 33 q 17 11 30 11 m 1229 -1637 q -4 -1 -11 -1 h -911 q -11 0 -27 11 q -17 10 -32 28 q -16 18 -28 41 q -12 23 -15 48 v 1101 h 614 v 233 q 1 46 16 79 q 15 33 39 55 q 24 21 55 32 q 30 10 61 10 h 80 q 29 0 58 -11 q 28 -12 51 -30 q 22 -18 36 -41 q 14 -23 14 -46 m 307 -1305 q 0 -26 -12 -54 q -13 -29 -38 -55 q -25 -27 -64 -49 q -39 -22 -91 -34 v 396 h 205 z" style="display: none !important"/><path class="OfficeIconColors_m20" d="M 307 1894 q -24 0 -50 -14 q -27 -15 -49 -43 q -23 -29 -38 -71 q -15 -42 -16 -98 v -183 h 307 v -1152 q 3 -33 19 -65 q 15 -32 37 -57 q 22 -26 48 -41 q 25 -16 49 -16 h 911 q 96 0 166 25 q 69 25 114 63 q 45 38 67 83 q 22 45 22 85 v 256 h -307 v 1049 q 0 34 -18 67 q -18 32 -47 57 q -30 25 -67 40 q -38 15 -78 15 z" style="fill:rgb(250,250,250)"/><path class="OfficeIconColors_m22" d="M 1525 102 q 105 0 184 29 q 78 28 131 73 q 53 45 80 100 q 26 54 26 106 v 307 h -308 v 998 q 0 48 -23 90 q -23 42 -60 74 q -38 31 -84 49 q -47 18 -94 18 h -1070 q -37 0 -73 -20 q -37 -20 -66 -56 q -30 -37 -48 -88 q -18 -51 -18 -113 v -235 h 308 v -1101 q 4 -45 24 -86 q 19 -42 48 -74 q 29 -33 64 -52 q 34 -19 68 -19 m 468 1741 q -25 -33 -41 -76 q -17 -44 -17 -98 v -133 h -819 v 131 q 1 44 12 77 q 11 33 27 55 q 15 22 33 33 q 17 11 30 11 m 1229 -1637 q -4 -1 -11 -1 h -911 q -11 0 -27 11 q -17 10 -32 28 q -16 18 -28 41 q -12 23 -15 48 v 1101 h 614 v 233 q 1 46 16 79 q 15 33 39 55 q 24 21 55 32 q 30 10 61 10 h 80 q 29 0 58 -11 q 28 -12 51 -30 q 22 -18 36 -41 q 14 -23 14 -46 m 307 -1305 q 0 -26 -12 -54 q -13 -29 -38 -55 q -25 -27 -64 -49 q -39 -22 -91 -34 v 396 h 205 z" style="fill:rgb(58,58,56)"/></svg>