<svg xmlns="http://www.w3.org/2000/svg" height="32" viewBox="0 0 2048 2048" width="32"><path class="OfficeIconColors_HighContrast" d="M 2048 1144 q 0 108 -41 203 q -41 94 -111 165 q -71 70 -165 111 q -95 41 -203 41 q -22 0 -45 -2 q -23 -2 -44 -6 q -5 82 -39 154 q -34 71 -90 124 q -56 53 -129 84 q -74 30 -157 30 q -86 0 -162 -32 q -76 -33 -132 -89 q -57 -57 -89 -133 q -33 -76 -33 -162 q 0 -49 12 -96 h -535 q -35 0 -60 -25 q -25 -25 -25 -60 v -854 q 0 -35 25 -60 q 25 -25 60 -25 h 275 q 17 -109 71 -202 q 53 -94 133 -163 q 79 -69 181 -108 q 101 -39 215 -39 q 126 0 237 48 q 110 48 193 131 q 82 82 130 193 q 48 110 48 236 q 0 16 -1 18 q 101 8 189 51 q 87 43 152 113 q 65 69 103 160 q 37 91 37 194 m -520 456 q 94 0 178 -36 q 83 -36 145 -97 q 61 -62 97 -145 q 36 -83 36 -178 q 0 -94 -36 -177 q -36 -83 -97 -145 q -62 -62 -145 -98 q -84 -36 -178 -36 q -94 0 -177 36 q -83 36 -145 98 q -62 62 -98 145 q -36 83 -36 177 q 0 19 2 39 q 2 19 5 37 q 72 9 134 42 q 62 32 110 81 q 48 49 78 113 q 30 63 37 135 q 21 4 44 7 q 23 2 46 2 m -568 -1536 q -100 0 -190 35 q -90 34 -161 94 q -71 60 -119 142 q -48 82 -65 177 h 514 q 35 0 60 25 q 25 25 25 60 v 421 q 20 -82 65 -152 q 45 -70 108 -122 q 63 -52 141 -83 q 78 -32 165 -36 q 0 -5 1 -8 q 0 -4 0 -9 q 0 -112 -43 -211 q -43 -100 -116 -173 q -74 -74 -173 -117 q -100 -43 -212 -43 m 64 1920 q 73 0 137 -27 q 64 -28 112 -76 q 48 -48 76 -112 q 27 -64 27 -137 q 0 -73 -27 -137 q -28 -64 -76 -112 q -48 -48 -112 -75 q -64 -28 -137 -28 v 171 q 0 35 -25 60 q -25 25 -60 25 h -253 q -14 48 -14 96 q 0 73 28 137 q 27 64 75 112 q 48 48 112 76 q 64 27 137 27 m -504 -606 q 56 0 105 -11 q 48 -12 84 -36 q 35 -25 56 -63 q 20 -38 20 -91 q 0 -57 -22 -96 q -23 -39 -65 -65 q -48 -31 -91 -48 q -44 -18 -76 -31 q -33 -13 -52 -27 q -19 -14 -19 -37 q 0 -29 33 -44 q 32 -15 80 -15 q 43 0 85 10 q 41 10 73 30 l 24 15 v -160 l -10 -4 q -67 -25 -175 -25 q -56 0 -106 13 q -50 12 -87 38 q -38 25 -60 63 q -22 37 -22 86 q 0 37 11 66 q 10 29 32 53 q 21 23 55 43 q 33 20 78 39 q 38 16 66 28 q 28 12 47 24 q 18 11 27 24 q 9 12 9 28 q 0 29 -27 45 q -28 15 -83 15 q -23 0 -48 -4 q -25 -5 -50 -13 q -25 -8 -48 -18 q -24 -11 -42 -24 l -26 -18 v 168 l 10 4 q 41 20 97 29 q 56 9 117 9 z" style="display: none !important"/><path class="OfficeIconColors_m2224" d="M 1568 608 q 0 84 -21 162 q -22 77 -62 145 q -40 68 -95 123 q -55 55 -123 95 q -68 40 -145 62 q -78 21 -162 21 q -126 0 -237 -47 q -111 -48 -193 -130 q -83 -83 -130 -194 q -48 -111 -48 -237 q 0 -84 22 -161 q 21 -78 61 -146 q 40 -68 95 -123 q 55 -55 123 -95 q 68 -40 146 -61 q 77 -22 161 -22 q 126 0 237 48 q 110 48 193 131 q 82 82 130 193 q 48 110 48 236 z" style="fill:rgb(3,108,112)"/><path class="OfficeIconColors_m2222" d="M 2048 1144 q 0 108 -41 203 q -41 94 -111 165 q -71 70 -165 111 q -95 41 -203 41 q -108 0 -202 -41 q -95 -41 -165 -111 q -71 -71 -112 -165 q -41 -95 -41 -203 q 0 -108 41 -202 q 41 -95 112 -165 q 70 -71 165 -112 q 94 -41 202 -41 q 108 0 203 41 q 94 41 165 112 q 70 70 111 165 q 41 94 41 202 z" style="fill:rgb(26,155,161)"/><path class="OfficeIconColors_m2221" d="M 1440 1632 q 0 86 -32 162 q -33 76 -89 133 q -57 56 -133 89 q -76 32 -162 32 q -86 0 -162 -32 q -76 -33 -132 -89 q -57 -57 -89 -133 q -33 -76 -33 -162 q 0 -86 33 -162 q 32 -76 89 -132 q 56 -57 132 -89 q 76 -33 162 -33 q 86 0 162 33 q 76 32 133 89 q 56 56 89 132 q 32 76 32 162 z" style="fill:rgb(55,198,208)"/><path class="OfficeIconColors_m2183" d="M 1067 448 q 35 0 60 25 q 25 25 25 60 v 1046 q 0 35 -25 60 q -25 25 -60 25 h -458 q -1 -4 -1 -8 q 0 -4 0 -8 v -16 q 0 -81 30 -153 q 29 -72 81 -128 q 51 -56 120 -91 q 69 -36 147 -44 h -26 q -126 0 -237 -47 q -111 -48 -193 -130 q -83 -83 -130 -194 q -48 -111 -48 -237 q 0 -82 21 -160 z" style="fill:rgba(0,0,0,0.098)"/><path class="OfficeIconColors_m2184" d="M 1003 512 q 35 0 60 25 q 25 25 25 60 v 1046 q 0 35 -25 60 q -25 25 -60 25 h -384 q -11 -52 -11 -96 q 0 -81 30 -153 q 29 -72 81 -128 q 51 -56 120 -91 q 69 -36 147 -44 h -26 q -126 0 -237 -47 q -111 -48 -193 -130 q -83 -83 -130 -194 q -48 -111 -48 -237 q 0 -24 2 -48 q 2 -24 6 -48 z" style="fill:rgba(0,0,0,0.2)"/><path class="OfficeIconColors_m2184" d="M 1003 512 q 35 0 60 25 q 25 25 25 60 v 918 q 0 35 -25 60 q -25 25 -60 25 h -394 q 6 -76 38 -142 q 31 -67 81 -118 q 50 -51 116 -83 q 66 -33 140 -41 h -24 q -126 0 -237 -47 q -111 -48 -193 -130 q -83 -83 -130 -194 q -48 -111 -48 -237 q 0 -24 2 -48 q 2 -24 6 -48 z" style="fill:rgba(0,0,0,0.2)"/><path class="OfficeIconColors_m2184" d="M 939 512 q 35 0 60 25 q 25 25 25 60 v 918 q 0 35 -25 60 q -25 25 -60 25 h -330 q 6 -76 38 -142 q 31 -67 81 -118 q 50 -51 116 -83 q 66 -33 140 -41 h -24 q -126 0 -237 -47 q -111 -48 -193 -130 q -83 -83 -130 -194 q -48 -111 -48 -237 q 0 -24 2 -48 q 2 -24 6 -48 z" style="fill:rgba(0,0,0,0.2)"/><path class="OfficeIconColors_m2223" d="M 939 1536 h -854 q -35 0 -60 -25 q -25 -25 -25 -60 v -854 q 0 -17 7 -32 q 6 -16 18 -27 q 11 -12 27 -19 q 15 -7 33 -7 h 854 q 18 0 34 7 q 15 7 27 19 q 11 11 18 27 q 6 15 6 32 v 854 q 0 35 -25 60 q -25 25 -60 25 z" style="fill:rgb(3,131,135)"/><path class="OfficeIconColors_m2181" d="M 385 1018 q -36 -25 -55 -58 q -19 -32 -19 -80 q 0 -60 36 -102 q 33 -40 94 -62 q 57 -19 129 -19 q 54 0 96 6 q 42 5 73 17 v 120 q -32 -20 -76 -31 q -23 -5 -45 -8 q -22 -3 -45 -3 q -56 0 -93 19 q -36 20 -36 56 q 0 23 15 39 q 16 17 42 30 q 14 7 34 16 q 19 8 45 19 l 11 4 q 64 26 99 49 q 18 12 33 27 q 14 14 25 32 q 21 35 21 88 q 0 67 -33 107 q -33 42 -89 60 q -56 18 -127 18 q -60 0 -114 -9 q -55 -9 -94 -27 v -127 q 40 29 95 45 q 57 17 103 17 q 62 0 94 -20 q 32 -20 32 -56 q 0 -24 -18 -44 q -8 -9 -20 -17 q -13 -9 -29 -17 q -15 -8 -38 -18 q -23 -10 -54 -23 q -57 -25 -92 -48 z" style="fill:rgb(255,255,255)"/></svg>