<svg xmlns="http://www.w3.org/2000/svg" height="16" viewBox="0 0 2048 2048" width="16"><path class="OfficeIconColors_HighContrast" d="M 1024 0 q 141 0 272 37 q 131 36 245 103 q 113 67 207 161 q 93 93 160 207 q 67 113 104 244 q 36 131 36 272 q 0 141 -36 272 q -37 131 -104 245 q -67 113 -160 207 q -94 93 -207 160 q -114 67 -245 104 q -131 36 -272 36 q -141 0 -272 -36 q -131 -37 -244 -104 q -114 -67 -207 -160 q -94 -94 -161 -207 q -67 -114 -103 -245 q -37 -131 -37 -272 q 0 -141 37 -272 q 36 -131 103 -244 q 67 -114 161 -207 q 93 -94 207 -161 q 113 -67 244 -103 q 131 -37 272 -37 m 809 640 q -39 -81 -93 -153 q -54 -72 -120 -131 q -67 -60 -145 -106 q -78 -46 -165 -75 q 63 85 112 204 q 48 118 77 261 m -91 384 q 0 -68 -4 -132 q -5 -64 -13 -124 h -734 q -8 60 -12 124 q -5 64 -5 132 q 0 68 5 132 q 4 64 12 124 h 734 q 8 -60 13 -124 q 4 -64 4 -132 m -384 896 q 49 0 100 -36 q 50 -37 96 -104 q 45 -67 84 -161 q 38 -95 64 -211 h -688 q 26 116 65 211 q 38 94 84 161 q 45 67 95 104 q 50 36 100 36 m 344 -1280 q -26 -116 -64 -210 q -39 -95 -84 -162 q -46 -67 -96 -103 q -51 -37 -100 -37 q -50 0 -100 37 q -50 36 -95 103 q -46 67 -84 162 q -39 94 -65 210 m 58 -465 q -87 29 -165 75 q -78 46 -144 106 q -67 59 -121 131 q -54 72 -93 153 h 334 q 29 -143 78 -261 q 48 -119 111 -204 m -573 593 q -18 61 -27 125 q -10 64 -10 131 q 0 67 10 131 q 9 64 27 125 h 363 q -8 -62 -12 -126 q -4 -64 -4 -130 q 0 -66 4 -130 q 4 -64 12 -126 m -313 640 q 39 81 93 153 q 54 72 121 132 q 66 59 144 105 q 78 46 165 75 q -63 -85 -111 -203 q -49 -119 -78 -262 m 761 465 q 87 -29 165 -75 q 78 -46 145 -105 q 66 -60 120 -132 q 54 -72 93 -153 h -334 q -29 143 -77 262 q -49 118 -112 203 m 573 -593 q 18 -61 28 -125 q 9 -64 9 -131 q 0 -67 -9 -131 q -10 -64 -28 -125 h -363 q 8 62 12 126 q 4 64 4 130 q 0 66 -4 130 q -4 64 -12 126 z" style="display: none !important"/><path class="OfficeIconColors_m20" d="M 1024 1984 q -132 0 -254 -34 q -123 -35 -230 -97 q -107 -63 -194 -150 q -88 -88 -150 -195 q -63 -107 -97 -229 q -35 -123 -35 -255 q 0 -132 35 -254 q 34 -123 97 -230 q 62 -107 150 -194 q 87 -88 194 -150 q 107 -63 230 -97 q 122 -35 254 -35 q 132 0 255 35 q 122 34 229 97 q 107 62 195 150 q 87 87 150 194 q 62 107 97 230 q 34 122 34 254 q 0 132 -34 255 q -35 122 -97 229 q -63 107 -150 195 q -88 87 -195 150 q -107 62 -229 97 q -123 34 -255 34 z" style="fill:rgb(250,250,250)"/><path class="OfficeIconColors_m22" d="M 1024 0 q 141 0 272 37 q 131 36 245 103 q 113 67 207 161 q 93 93 160 207 q 67 113 104 244 q 36 131 36 272 q 0 141 -36 272 q -37 131 -104 245 q -67 113 -160 207 q -94 93 -207 160 q -114 67 -245 104 q -131 36 -272 36 q -141 0 -272 -36 q -131 -37 -244 -104 q -114 -67 -207 -160 q -94 -94 -161 -207 q -67 -114 -103 -245 q -37 -131 -37 -272 q 0 -141 37 -272 q 36 -131 103 -244 q 67 -114 161 -207 q 93 -94 207 -161 q 113 -67 244 -103 q 131 -37 272 -37 m 809 640 q -39 -81 -93 -153 q -54 -72 -120 -131 q -67 -60 -145 -106 q -78 -46 -165 -75 q 63 85 112 204 q 48 118 77 261 m -91 384 q 0 -68 -4 -132 q -5 -64 -13 -124 h -734 q -8 60 -12 124 q -5 64 -5 132 q 0 68 5 132 q 4 64 12 124 h 734 q 8 -60 13 -124 q 4 -64 4 -132 m -384 896 q 49 0 100 -36 q 50 -37 96 -104 q 45 -67 84 -161 q 38 -95 64 -211 h -688 q 26 116 65 211 q 38 94 84 161 q 45 67 95 104 q 50 36 100 36 m 344 -1280 q -26 -116 -64 -210 q -39 -95 -84 -162 q -46 -67 -96 -103 q -51 -37 -100 -37 q -50 0 -100 37 q -50 36 -95 103 q -46 67 -84 162 q -39 94 -65 210 m 58 -465 q -87 29 -165 75 q -78 46 -144 106 q -67 59 -121 131 q -54 72 -93 153 h 334 q 29 -143 78 -261 q 48 -119 111 -204 m -573 593 q -18 61 -27 125 q -10 64 -10 131 q 0 67 10 131 q 9 64 27 125 h 363 q -8 -62 -12 -126 q -4 -64 -4 -130 q 0 -66 4 -130 q 4 -64 12 -126 m -313 640 q 39 81 93 153 q 54 72 121 132 q 66 59 144 105 q 78 46 165 75 q -63 -85 -111 -203 q -49 -119 -78 -262 m 761 465 q 87 -29 165 -75 q 78 -46 145 -105 q 66 -60 120 -132 q 54 -72 93 -153 h -334 q -29 143 -77 262 q -49 118 -112 203 m 573 -593 q 18 -61 28 -125 q 9 -64 9 -131 q 0 -67 -9 -131 q -10 -64 -28 -125 h -363 q 8 62 12 126 q 4 64 4 130 q 0 66 -4 130 q -4 64 -12 126 z" style="fill:rgb(58,58,56)"/></svg>